G04 ================== begin FILE IDENTIFICATION RECORD ==================*
G04 Layout Name:  H:/github/MBED-TOOLS/HARDWARE/HY_SW3518S_V10/PCB/HY_SW3518S_V10.brd*
G04 Film Name:    Drill_Legend*
G04 File Format:  Gerber RS274X*
G04 File Origin:  Cadence Allegro 17.2-S067*
G04 Origin Date:  Fri Jan 29 11:43:47 2021*
G04 *
G04 Layer:  MANUFACTURING/NCLEGEND-1-2*
G04 Layer:  MANUFACTURING/NCDRILL_LEGEND*
G04 Layer:  MANUFACTURING/NCDRILL_FIGURE*
G04 Layer:  BOARD GEOMETRY/DIMENSION*
G04 *
G04 Offset:    (0.0000 0.0000)*
G04 Mirror:    No*
G04 Mode:      Positive*
G04 Rotation:  0*
G04 FullContactRelief:  No*
G04 UndefLineWidth:     0.1524*
G04 ================== end FILE IDENTIFICATION RECORD ====================*
%FSLAX55Y55*MOMM*%
%IR0*IPPOS*OFA0.00000B0.00000*MIA0B0*SFA1.00000B1.00000*%
%AMMACRO17*
1,1,.1524,-.3,.3*
20,1,.1524,-.3,.3,.3,.3,0.0*
1,1,.1524,.3,.3*
20,1,.1524,.3,.3,.352094,.295442,0.0*
1,1,.1524,.352094,.295442*
20,1,.1524,.352094,.295442,.402606,.281908,0.0*
1,1,.1524,.402606,.281908*
20,1,.1524,.402606,.281908,.45,.259808,0.0*
1,1,.1524,.45,.259808*
20,1,.1524,.45,.259808,.492836,.229813,0.0*
1,1,.1524,.492836,.229813*
20,1,.1524,.492836,.229813,.529813,.192836,0.0*
1,1,.1524,.529813,.192836*
20,1,.1524,.529813,.192836,.559808,.15,0.0*
1,1,.1524,.559808,.15*
20,1,.1524,.559808,.15,.581908,.102606,0.0*
1,1,.1524,.581908,.102606*
20,1,.1524,.581908,.102606,.595442,.052094,0.0*
1,1,.1524,.595442,.052094*
20,1,.1524,.595442,.052094,.6,0.0,0.0*
1,1,.1524,.6,0.0*
20,1,.1524,.6,0.0,.595442,-.052094,0.0*
1,1,.1524,.595442,-.052094*
20,1,.1524,.595442,-.052094,.581908,-.102606,0.0*
1,1,.1524,.581908,-.102606*
20,1,.1524,.581908,-.102606,.559808,-.15,0.0*
1,1,.1524,.559808,-.15*
20,1,.1524,.559808,-.15,.529813,-.192836,0.0*
1,1,.1524,.529813,-.192836*
20,1,.1524,.529813,-.192836,.492836,-.229813,0.0*
1,1,.1524,.492836,-.229813*
20,1,.1524,.492836,-.229813,.45,-.259808,0.0*
1,1,.1524,.45,-.259808*
20,1,.1524,.45,-.259808,.402606,-.281908,0.0*
1,1,.1524,.402606,-.281908*
20,1,.1524,.402606,-.281908,.352094,-.295442,0.0*
1,1,.1524,.352094,-.295442*
20,1,.1524,.352094,-.295442,.3,-.3,0.0*
1,1,.1524,.3,-.3*
20,1,.1524,.3,-.3,-.3,-.3,0.0*
1,1,.1524,-.3,-.3*
20,1,.1524,-.3,-.3,-.352094,-.295442,0.0*
1,1,.1524,-.352094,-.295442*
20,1,.1524,-.352094,-.295442,-.402606,-.281908,0.0*
1,1,.1524,-.402606,-.281908*
20,1,.1524,-.402606,-.281908,-.45,-.259808,0.0*
1,1,.1524,-.45,-.259808*
20,1,.1524,-.45,-.259808,-.492836,-.229813,0.0*
1,1,.1524,-.492836,-.229813*
20,1,.1524,-.492836,-.229813,-.529813,-.192836,0.0*
1,1,.1524,-.529813,-.192836*
20,1,.1524,-.529813,-.192836,-.559808,-.15,0.0*
1,1,.1524,-.559808,-.15*
20,1,.1524,-.559808,-.15,-.581908,-.102606,0.0*
1,1,.1524,-.581908,-.102606*
20,1,.1524,-.581908,-.102606,-.595442,-.052094,0.0*
1,1,.1524,-.595442,-.052094*
20,1,.1524,-.595442,-.052094,-.6,0.0,0.0*
1,1,.1524,-.6,0.0*
20,1,.1524,-.6,0.0,-.595442,.052094,0.0*
1,1,.1524,-.595442,.052094*
20,1,.1524,-.595442,.052094,-.581908,.102606,0.0*
1,1,.1524,-.581908,.102606*
20,1,.1524,-.581908,.102606,-.559808,.15,0.0*
1,1,.1524,-.559808,.15*
20,1,.1524,-.559808,.15,-.529813,.192836,0.0*
1,1,.1524,-.529813,.192836*
20,1,.1524,-.529813,.192836,-.492836,.229813,0.0*
1,1,.1524,-.492836,.229813*
20,1,.1524,-.492836,.229813,-.45,.259808,0.0*
1,1,.1524,-.45,.259808*
20,1,.1524,-.45,.259808,-.402606,.281908,0.0*
1,1,.1524,-.402606,.281908*
20,1,.1524,-.402606,.281908,-.352094,.295442,0.0*
1,1,.1524,-.352094,.295442*
20,1,.1524,-.352094,.295442,-.3,.3,0.0*
1,1,.1524,-.3,.3*
1,1,.1524,-.15,-.15*
20,1,.1524,-.15,-.15,-.19,-.145,0.0*
1,1,.1524,-.19,-.145*
20,1,.1524,-.19,-.145,-.225,-.125,0.0*
1,1,.1524,-.225,-.125*
20,1,.1524,-.225,-.125,-.255,-.095,0.0*
1,1,.1524,-.255,-.095*
20,1,.1524,-.255,-.095,-.275,-.06,0.0*
1,1,.1524,-.275,-.06*
20,1,.1524,-.275,-.06,-.285,-.02,0.0*
1,1,.1524,-.285,-.02*
20,1,.1524,-.285,-.02,-.285,.02,0.0*
1,1,.1524,-.285,.02*
20,1,.1524,-.285,.02,-.275,.06,0.0*
1,1,.1524,-.275,.06*
20,1,.1524,-.275,.06,-.255,.095,0.0*
1,1,.1524,-.255,.095*
20,1,.1524,-.255,.095,-.225,.125,0.0*
1,1,.1524,-.225,.125*
20,1,.1524,-.225,.125,-.19,.145,0.0*
1,1,.1524,-.19,.145*
20,1,.1524,-.19,.145,-.15,.15,0.0*
1,1,.1524,-.15,.15*
20,1,.1524,-.15,.15,-.11,.145,0.0*
1,1,.1524,-.11,.145*
20,1,.1524,-.11,.145,-.075,.125,0.0*
1,1,.1524,-.075,.125*
20,1,.1524,-.075,.125,-.045,.095,0.0*
1,1,.1524,-.045,.095*
20,1,.1524,-.045,.095,-.025,.06,0.0*
1,1,.1524,-.025,.06*
20,1,.1524,-.025,.06,-.015,.02,0.0*
1,1,.1524,-.015,.02*
20,1,.1524,-.015,.02,-.015,-.02,0.0*
1,1,.1524,-.015,-.02*
20,1,.1524,-.015,-.02,-.025,-.06,0.0*
1,1,.1524,-.025,-.06*
20,1,.1524,-.025,-.06,-.045,-.095,0.0*
1,1,.1524,-.045,-.095*
20,1,.1524,-.045,-.095,-.075,-.125,0.0*
1,1,.1524,-.075,-.125*
20,1,.1524,-.075,-.125,-.11,-.145,0.0*
1,1,.1524,-.11,-.145*
20,1,.1524,-.11,-.145,-.15,-.15,0.0*
1,1,.1524,-.15,-.15*
1,1,.1524,.0251,-.15*
20,1,.1524,.0251,-.15,.1501,.15,0.0*
1,1,.1524,.1501,.15*
20,1,.1524,.1501,.15,.2751,-.15,0.0*
1,1,.1524,.2751,-.15*
1,1,.1524,.2301,-.045*
20,1,.1524,.2301,-.045,.0701,-.045,0.0*
1,1,.1524,.0701,-.045*
%
%ADD17MACRO17*%
%AMMACRO16*
1,1,.1524,-.55,.3*
20,1,.1524,-.55,.3,.55,.3,0.0*
1,1,.1524,.55,.3*
20,1,.1524,.55,.3,.602094,.295442,0.0*
1,1,.1524,.602094,.295442*
20,1,.1524,.602094,.295442,.652606,.281908,0.0*
1,1,.1524,.652606,.281908*
20,1,.1524,.652606,.281908,.7,.259808,0.0*
1,1,.1524,.7,.259808*
20,1,.1524,.7,.259808,.742836,.229813,0.0*
1,1,.1524,.742836,.229813*
20,1,.1524,.742836,.229813,.779813,.192836,0.0*
1,1,.1524,.779813,.192836*
20,1,.1524,.779813,.192836,.809808,.15,0.0*
1,1,.1524,.809808,.15*
20,1,.1524,.809808,.15,.831908,.102606,0.0*
1,1,.1524,.831908,.102606*
20,1,.1524,.831908,.102606,.845442,.052094,0.0*
1,1,.1524,.845442,.052094*
20,1,.1524,.845442,.052094,.85,0.0,0.0*
1,1,.1524,.85,0.0*
20,1,.1524,.85,0.0,.845442,-.052094,0.0*
1,1,.1524,.845442,-.052094*
20,1,.1524,.845442,-.052094,.831908,-.102606,0.0*
1,1,.1524,.831908,-.102606*
20,1,.1524,.831908,-.102606,.809808,-.15,0.0*
1,1,.1524,.809808,-.15*
20,1,.1524,.809808,-.15,.779813,-.192836,0.0*
1,1,.1524,.779813,-.192836*
20,1,.1524,.779813,-.192836,.742836,-.229813,0.0*
1,1,.1524,.742836,-.229813*
20,1,.1524,.742836,-.229813,.7,-.259808,0.0*
1,1,.1524,.7,-.259808*
20,1,.1524,.7,-.259808,.652606,-.281908,0.0*
1,1,.1524,.652606,-.281908*
20,1,.1524,.652606,-.281908,.602094,-.295442,0.0*
1,1,.1524,.602094,-.295442*
20,1,.1524,.602094,-.295442,.55,-.3,0.0*
1,1,.1524,.55,-.3*
20,1,.1524,.55,-.3,-.55,-.3,0.0*
1,1,.1524,-.55,-.3*
20,1,.1524,-.55,-.3,-.602094,-.295442,0.0*
1,1,.1524,-.602094,-.295442*
20,1,.1524,-.602094,-.295442,-.652606,-.281908,0.0*
1,1,.1524,-.652606,-.281908*
20,1,.1524,-.652606,-.281908,-.7,-.259808,0.0*
1,1,.1524,-.7,-.259808*
20,1,.1524,-.7,-.259808,-.742836,-.229813,0.0*
1,1,.1524,-.742836,-.229813*
20,1,.1524,-.742836,-.229813,-.779813,-.192836,0.0*
1,1,.1524,-.779813,-.192836*
20,1,.1524,-.779813,-.192836,-.809808,-.15,0.0*
1,1,.1524,-.809808,-.15*
20,1,.1524,-.809808,-.15,-.831908,-.102606,0.0*
1,1,.1524,-.831908,-.102606*
20,1,.1524,-.831908,-.102606,-.845442,-.052094,0.0*
1,1,.1524,-.845442,-.052094*
20,1,.1524,-.845442,-.052094,-.85,0.0,0.0*
1,1,.1524,-.85,0.0*
20,1,.1524,-.85,0.0,-.845442,.052094,0.0*
1,1,.1524,-.845442,.052094*
20,1,.1524,-.845442,.052094,-.831908,.102606,0.0*
1,1,.1524,-.831908,.102606*
20,1,.1524,-.831908,.102606,-.809808,.15,0.0*
1,1,.1524,-.809808,.15*
20,1,.1524,-.809808,.15,-.779813,.192836,0.0*
1,1,.1524,-.779813,.192836*
20,1,.1524,-.779813,.192836,-.742836,.229813,0.0*
1,1,.1524,-.742836,.229813*
20,1,.1524,-.742836,.229813,-.7,.259808,0.0*
1,1,.1524,-.7,.259808*
20,1,.1524,-.7,.259808,-.652606,.281908,0.0*
1,1,.1524,-.652606,.281908*
20,1,.1524,-.652606,.281908,-.602094,.295442,0.0*
1,1,.1524,-.602094,.295442*
20,1,.1524,-.602094,.295442,-.55,.3,0.0*
1,1,.1524,-.55,.3*
1,1,.1524,-.15,-.15*
20,1,.1524,-.15,-.15,-.19,-.145,0.0*
1,1,.1524,-.19,-.145*
20,1,.1524,-.19,-.145,-.225,-.125,0.0*
1,1,.1524,-.225,-.125*
20,1,.1524,-.225,-.125,-.255,-.095,0.0*
1,1,.1524,-.255,-.095*
20,1,.1524,-.255,-.095,-.275,-.06,0.0*
1,1,.1524,-.275,-.06*
20,1,.1524,-.275,-.06,-.285,-.02,0.0*
1,1,.1524,-.285,-.02*
20,1,.1524,-.285,-.02,-.285,.02,0.0*
1,1,.1524,-.285,.02*
20,1,.1524,-.285,.02,-.275,.06,0.0*
1,1,.1524,-.275,.06*
20,1,.1524,-.275,.06,-.255,.095,0.0*
1,1,.1524,-.255,.095*
20,1,.1524,-.255,.095,-.225,.125,0.0*
1,1,.1524,-.225,.125*
20,1,.1524,-.225,.125,-.19,.145,0.0*
1,1,.1524,-.19,.145*
20,1,.1524,-.19,.145,-.15,.15,0.0*
1,1,.1524,-.15,.15*
20,1,.1524,-.15,.15,-.11,.145,0.0*
1,1,.1524,-.11,.145*
20,1,.1524,-.11,.145,-.075,.125,0.0*
1,1,.1524,-.075,.125*
20,1,.1524,-.075,.125,-.045,.095,0.0*
1,1,.1524,-.045,.095*
20,1,.1524,-.045,.095,-.025,.06,0.0*
1,1,.1524,-.025,.06*
20,1,.1524,-.025,.06,-.015,.02,0.0*
1,1,.1524,-.015,.02*
20,1,.1524,-.015,.02,-.015,-.02,0.0*
1,1,.1524,-.015,-.02*
20,1,.1524,-.015,-.02,-.025,-.06,0.0*
1,1,.1524,-.025,-.06*
20,1,.1524,-.025,-.06,-.045,-.095,0.0*
1,1,.1524,-.045,-.095*
20,1,.1524,-.045,-.095,-.075,-.125,0.0*
1,1,.1524,-.075,-.125*
20,1,.1524,-.075,-.125,-.11,-.145,0.0*
1,1,.1524,-.11,-.145*
20,1,.1524,-.11,-.145,-.15,-.15,0.0*
1,1,.1524,-.15,-.15*
1,1,.1524,.1901,.01*
20,1,.1524,.1901,.01,.2101,.025,0.0*
1,1,.1524,.2101,.025*
20,1,.1524,.2101,.025,.2251,.05,0.0*
1,1,.1524,.2251,.05*
20,1,.1524,.2251,.05,.2351,.085,0.0*
1,1,.1524,.2351,.085*
20,1,.1524,.2351,.085,.2251,.115,0.0*
1,1,.1524,.2251,.115*
20,1,.1524,.2251,.115,.2051,.135,0.0*
1,1,.1524,.2051,.135*
20,1,.1524,.2051,.135,.1701,.15,0.0*
1,1,.1524,.1701,.15*
20,1,.1524,.1701,.15,.0351,.15,0.0*
1,1,.1524,.0351,.15*
20,1,.1524,.0351,.15,.0351,-.15,0.0*
1,1,.1524,.0351,-.15*
20,1,.1524,.0351,-.15,.2001,-.15,0.0*
1,1,.1524,.2001,-.15*
20,1,.1524,.2001,-.15,.2351,-.13,0.0*
1,1,.1524,.2351,-.13*
20,1,.1524,.2351,-.13,.2551,-.1,0.0*
1,1,.1524,.2551,-.1*
20,1,.1524,.2551,-.1,.2651,-.065,0.0*
1,1,.1524,.2651,-.065*
20,1,.1524,.2651,-.065,.2551,-.03,0.0*
1,1,.1524,.2551,-.03*
20,1,.1524,.2551,-.03,.2251,0.0,0.0*
1,1,.1524,.2251,0.0*
20,1,.1524,.2251,0.0,.1901,.01,0.0*
1,1,.1524,.1901,.01*
20,1,.1524,.1901,.01,.0351,.01,0.0*
1,1,.1524,.0351,.01*
%
%ADD16MACRO16*%
%AMMACRO15*
1,1,.1524,.127,0.0*
20,1,.1524,.127,0.0,-.127,0.0,0.0*
1,1,.1524,-.127,0.0*
1,1,.1524,0.0,.127*
20,1,.1524,0.0,.127,0.0,-.127,0.0*
1,1,.1524,0.0,-.127*
%
%ADD15MACRO15*%
%AMMACRO13*
1,1,.1524,.1524,.1524*
20,1,.1524,.1524,.1524,.1524,-.1524,0.0*
1,1,.1524,.1524,-.1524*
20,1,.1524,.1524,-.1524,-.1524,-.1524,0.0*
1,1,.1524,-.1524,-.1524*
20,1,.1524,-.1524,-.1524,-.1524,.1524,0.0*
1,1,.1524,-.1524,.1524*
20,1,.1524,-.1524,.1524,.1524,.1524,0.0*
1,1,.1524,.1524,.1524*
%
%ADD13MACRO13*%
%AMMACRO11*
1,1,.1524,-.5,-1.*
20,1,.1524,-.5,-1.,-.5,1.,0.0*
1,1,.1524,-.5,1.*
20,1,.1524,-.5,1.,-.492404,1.086824,0.0*
1,1,.1524,-.492404,1.086824*
20,1,.1524,-.492404,1.086824,-.469846,1.17101,0.0*
1,1,.1524,-.469846,1.17101*
20,1,.1524,-.469846,1.17101,-.433013,1.25,0.0*
1,1,.1524,-.433013,1.25*
20,1,.1524,-.433013,1.25,-.383022,1.321394,0.0*
1,1,.1524,-.383022,1.321394*
20,1,.1524,-.383022,1.321394,-.321394,1.383022,0.0*
1,1,.1524,-.321394,1.383022*
20,1,.1524,-.321394,1.383022,-.25,1.433013,0.0*
1,1,.1524,-.25,1.433013*
20,1,.1524,-.25,1.433013,-.17101,1.469846,0.0*
1,1,.1524,-.17101,1.469846*
20,1,.1524,-.17101,1.469846,-.086824,1.492404,0.0*
1,1,.1524,-.086824,1.492404*
20,1,.1524,-.086824,1.492404,0.0,1.5,0.0*
1,1,.1524,0.0,1.5*
20,1,.1524,0.0,1.5,.086824,1.492404,0.0*
1,1,.1524,.086824,1.492404*
20,1,.1524,.086824,1.492404,.17101,1.469846,0.0*
1,1,.1524,.17101,1.469846*
20,1,.1524,.17101,1.469846,.25,1.433013,0.0*
1,1,.1524,.25,1.433013*
20,1,.1524,.25,1.433013,.321394,1.383022,0.0*
1,1,.1524,.321394,1.383022*
20,1,.1524,.321394,1.383022,.383022,1.321394,0.0*
1,1,.1524,.383022,1.321394*
20,1,.1524,.383022,1.321394,.433013,1.25,0.0*
1,1,.1524,.433013,1.25*
20,1,.1524,.433013,1.25,.469846,1.17101,0.0*
1,1,.1524,.469846,1.17101*
20,1,.1524,.469846,1.17101,.492404,1.086824,0.0*
1,1,.1524,.492404,1.086824*
20,1,.1524,.492404,1.086824,.5,1.,0.0*
1,1,.1524,.5,1.*
20,1,.1524,.5,1.,.5,-1.,0.0*
1,1,.1524,.5,-1.*
20,1,.1524,.5,-1.,.492404,-1.086824,0.0*
1,1,.1524,.492404,-1.086824*
20,1,.1524,.492404,-1.086824,.469846,-1.17101,0.0*
1,1,.1524,.469846,-1.17101*
20,1,.1524,.469846,-1.17101,.433013,-1.25,0.0*
1,1,.1524,.433013,-1.25*
20,1,.1524,.433013,-1.25,.383022,-1.321394,0.0*
1,1,.1524,.383022,-1.321394*
20,1,.1524,.383022,-1.321394,.321394,-1.383022,0.0*
1,1,.1524,.321394,-1.383022*
20,1,.1524,.321394,-1.383022,.25,-1.433013,0.0*
1,1,.1524,.25,-1.433013*
20,1,.1524,.25,-1.433013,.17101,-1.469846,0.0*
1,1,.1524,.17101,-1.469846*
20,1,.1524,.17101,-1.469846,.086824,-1.492404,0.0*
1,1,.1524,.086824,-1.492404*
20,1,.1524,.086824,-1.492404,0.0,-1.5,0.0*
1,1,.1524,0.0,-1.5*
20,1,.1524,0.0,-1.5,-.086824,-1.492404,0.0*
1,1,.1524,-.086824,-1.492404*
20,1,.1524,-.086824,-1.492404,-.17101,-1.469846,0.0*
1,1,.1524,-.17101,-1.469846*
20,1,.1524,-.17101,-1.469846,-.25,-1.433013,0.0*
1,1,.1524,-.25,-1.433013*
20,1,.1524,-.25,-1.433013,-.321394,-1.383022,0.0*
1,1,.1524,-.321394,-1.383022*
20,1,.1524,-.321394,-1.383022,-.383022,-1.321394,0.0*
1,1,.1524,-.383022,-1.321394*
20,1,.1524,-.383022,-1.321394,-.433013,-1.25,0.0*
1,1,.1524,-.433013,-1.25*
20,1,.1524,-.433013,-1.25,-.469846,-1.17101,0.0*
1,1,.1524,-.469846,-1.17101*
20,1,.1524,-.469846,-1.17101,-.492404,-1.086824,0.0*
1,1,.1524,-.492404,-1.086824*
20,1,.1524,-.492404,-1.086824,-.5,-1.,0.0*
1,1,.1524,-.5,-1.*
1,1,.1524,-.25,-.25*
20,1,.1524,-.25,-.25,-.3167,-.2417,0.0*
1,1,.1524,-.3167,-.2417*
20,1,.1524,-.3167,-.2417,-.375,-.2083,0.0*
1,1,.1524,-.375,-.2083*
20,1,.1524,-.375,-.2083,-.425,-.1583,0.0*
1,1,.1524,-.425,-.1583*
20,1,.1524,-.425,-.1583,-.4583,-.1,0.0*
1,1,.1524,-.4583,-.1*
20,1,.1524,-.4583,-.1,-.475,-.0333,0.0*
1,1,.1524,-.475,-.0333*
20,1,.1524,-.475,-.0333,-.475,.0333,0.0*
1,1,.1524,-.475,.0333*
20,1,.1524,-.475,.0333,-.4583,.1,0.0*
1,1,.1524,-.4583,.1*
20,1,.1524,-.4583,.1,-.425,.1583,0.0*
1,1,.1524,-.425,.1583*
20,1,.1524,-.425,.1583,-.375,.2083,0.0*
1,1,.1524,-.375,.2083*
20,1,.1524,-.375,.2083,-.3167,.2417,0.0*
1,1,.1524,-.3167,.2417*
20,1,.1524,-.3167,.2417,-.25,.25,0.0*
1,1,.1524,-.25,.25*
20,1,.1524,-.25,.25,-.1833,.2417,0.0*
1,1,.1524,-.1833,.2417*
20,1,.1524,-.1833,.2417,-.125,.2083,0.0*
1,1,.1524,-.125,.2083*
20,1,.1524,-.125,.2083,-.075,.1583,0.0*
1,1,.1524,-.075,.1583*
20,1,.1524,-.075,.1583,-.0417,.1,0.0*
1,1,.1524,-.0417,.1*
20,1,.1524,-.0417,.1,-.025,.0333,0.0*
1,1,.1524,-.025,.0333*
20,1,.1524,-.025,.0333,-.025,-.0333,0.0*
1,1,.1524,-.025,-.0333*
20,1,.1524,-.025,-.0333,-.0417,-.1,0.0*
1,1,.1524,-.0417,-.1*
20,1,.1524,-.0417,-.1,-.075,-.1583,0.0*
1,1,.1524,-.075,-.1583*
20,1,.1524,-.075,-.1583,-.125,-.2083,0.0*
1,1,.1524,-.125,-.2083*
20,1,.1524,-.125,-.2083,-.1833,-.2417,0.0*
1,1,.1524,-.1833,-.2417*
20,1,.1524,-.1833,-.2417,-.25,-.25,0.0*
1,1,.1524,-.25,-.25*
1,1,.1524,.4334,.2083*
20,1,.1524,.4334,.2083,.3834,.2333,0.0*
1,1,.1524,.3834,.2333*
20,1,.1524,.3834,.2333,.3251,.25,0.0*
1,1,.1524,.3251,.25*
20,1,.1524,.3251,.25,.2584,.25,0.0*
1,1,.1524,.2584,.25*
20,1,.1524,.2584,.25,.1834,.225,0.0*
1,1,.1524,.1834,.225*
20,1,.1524,.1834,.225,.1251,.1833,0.0*
1,1,.1524,.1251,.1833*
20,1,.1524,.1251,.1833,.0834,.1333,0.0*
1,1,.1524,.0834,.1333*
20,1,.1524,.0834,.1333,.0501,.05,0.0*
1,1,.1524,.0501,.05*
20,1,.1524,.0501,.05,.0418,-.025,0.0*
1,1,.1524,.0418,-.025*
20,1,.1524,.0418,-.025,.0584,-.1,0.0*
1,1,.1524,.0584,-.1*
20,1,.1524,.0584,-.1,.0834,-.15,0.0*
1,1,.1524,.0834,-.15*
20,1,.1524,.0834,-.15,.1334,-.2,0.0*
1,1,.1524,.1334,-.2*
20,1,.1524,.1334,-.2,.1918,-.2333,0.0*
1,1,.1524,.1918,-.2333*
20,1,.1524,.1918,-.2333,.2501,-.25,0.0*
1,1,.1524,.2501,-.25*
20,1,.1524,.2501,-.25,.3084,-.25,0.0*
1,1,.1524,.3084,-.25*
20,1,.1524,.3084,-.25,.3668,-.2333,0.0*
1,1,.1524,.3668,-.2333*
20,1,.1524,.3668,-.2333,.4168,-.2083,0.0*
1,1,.1524,.4168,-.2083*
20,1,.1524,.4168,-.2083,.4584,-.175,0.0*
1,1,.1524,.4584,-.175*
%
%ADD11MACRO11*%
%AMMACRO12*
1,1,.1524,-1.,.5*
20,1,.1524,-1.,.5,1.,.5,0.0*
1,1,.1524,1.,.5*
20,1,.1524,1.,.5,1.086824,.492404,0.0*
1,1,.1524,1.086824,.492404*
20,1,.1524,1.086824,.492404,1.17101,.469846,0.0*
1,1,.1524,1.17101,.469846*
20,1,.1524,1.17101,.469846,1.25,.433013,0.0*
1,1,.1524,1.25,.433013*
20,1,.1524,1.25,.433013,1.321394,.383022,0.0*
1,1,.1524,1.321394,.383022*
20,1,.1524,1.321394,.383022,1.383022,.321394,0.0*
1,1,.1524,1.383022,.321394*
20,1,.1524,1.383022,.321394,1.433013,.25,0.0*
1,1,.1524,1.433013,.25*
20,1,.1524,1.433013,.25,1.469846,.17101,0.0*
1,1,.1524,1.469846,.17101*
20,1,.1524,1.469846,.17101,1.492404,.086824,0.0*
1,1,.1524,1.492404,.086824*
20,1,.1524,1.492404,.086824,1.5,0.0,0.0*
1,1,.1524,1.5,0.0*
20,1,.1524,1.5,0.0,1.492404,-.086824,0.0*
1,1,.1524,1.492404,-.086824*
20,1,.1524,1.492404,-.086824,1.469846,-.17101,0.0*
1,1,.1524,1.469846,-.17101*
20,1,.1524,1.469846,-.17101,1.433013,-.25,0.0*
1,1,.1524,1.433013,-.25*
20,1,.1524,1.433013,-.25,1.383022,-.321394,0.0*
1,1,.1524,1.383022,-.321394*
20,1,.1524,1.383022,-.321394,1.321394,-.383022,0.0*
1,1,.1524,1.321394,-.383022*
20,1,.1524,1.321394,-.383022,1.25,-.433013,0.0*
1,1,.1524,1.25,-.433013*
20,1,.1524,1.25,-.433013,1.17101,-.469846,0.0*
1,1,.1524,1.17101,-.469846*
20,1,.1524,1.17101,-.469846,1.086824,-.492404,0.0*
1,1,.1524,1.086824,-.492404*
20,1,.1524,1.086824,-.492404,1.,-.5,0.0*
1,1,.1524,1.,-.5*
20,1,.1524,1.,-.5,-1.,-.5,0.0*
1,1,.1524,-1.,-.5*
20,1,.1524,-1.,-.5,-1.086824,-.492404,0.0*
1,1,.1524,-1.086824,-.492404*
20,1,.1524,-1.086824,-.492404,-1.17101,-.469846,0.0*
1,1,.1524,-1.17101,-.469846*
20,1,.1524,-1.17101,-.469846,-1.25,-.433013,0.0*
1,1,.1524,-1.25,-.433013*
20,1,.1524,-1.25,-.433013,-1.321394,-.383022,0.0*
1,1,.1524,-1.321394,-.383022*
20,1,.1524,-1.321394,-.383022,-1.383022,-.321394,0.0*
1,1,.1524,-1.383022,-.321394*
20,1,.1524,-1.383022,-.321394,-1.433013,-.25,0.0*
1,1,.1524,-1.433013,-.25*
20,1,.1524,-1.433013,-.25,-1.469846,-.17101,0.0*
1,1,.1524,-1.469846,-.17101*
20,1,.1524,-1.469846,-.17101,-1.492404,-.086824,0.0*
1,1,.1524,-1.492404,-.086824*
20,1,.1524,-1.492404,-.086824,-1.5,0.0,0.0*
1,1,.1524,-1.5,0.0*
20,1,.1524,-1.5,0.0,-1.492404,.086824,0.0*
1,1,.1524,-1.492404,.086824*
20,1,.1524,-1.492404,.086824,-1.469846,.17101,0.0*
1,1,.1524,-1.469846,.17101*
20,1,.1524,-1.469846,.17101,-1.433013,.25,0.0*
1,1,.1524,-1.433013,.25*
20,1,.1524,-1.433013,.25,-1.383022,.321394,0.0*
1,1,.1524,-1.383022,.321394*
20,1,.1524,-1.383022,.321394,-1.321394,.383022,0.0*
1,1,.1524,-1.321394,.383022*
20,1,.1524,-1.321394,.383022,-1.25,.433013,0.0*
1,1,.1524,-1.25,.433013*
20,1,.1524,-1.25,.433013,-1.17101,.469846,0.0*
1,1,.1524,-1.17101,.469846*
20,1,.1524,-1.17101,.469846,-1.086824,.492404,0.0*
1,1,.1524,-1.086824,.492404*
20,1,.1524,-1.086824,.492404,-1.,.5,0.0*
1,1,.1524,-1.,.5*
1,1,.1524,-.25,-.25*
20,1,.1524,-.25,-.25,-.3167,-.2417,0.0*
1,1,.1524,-.3167,-.2417*
20,1,.1524,-.3167,-.2417,-.375,-.2083,0.0*
1,1,.1524,-.375,-.2083*
20,1,.1524,-.375,-.2083,-.425,-.1583,0.0*
1,1,.1524,-.425,-.1583*
20,1,.1524,-.425,-.1583,-.4583,-.1,0.0*
1,1,.1524,-.4583,-.1*
20,1,.1524,-.4583,-.1,-.475,-.0333,0.0*
1,1,.1524,-.475,-.0333*
20,1,.1524,-.475,-.0333,-.475,.0333,0.0*
1,1,.1524,-.475,.0333*
20,1,.1524,-.475,.0333,-.4583,.1,0.0*
1,1,.1524,-.4583,.1*
20,1,.1524,-.4583,.1,-.425,.1583,0.0*
1,1,.1524,-.425,.1583*
20,1,.1524,-.425,.1583,-.375,.2083,0.0*
1,1,.1524,-.375,.2083*
20,1,.1524,-.375,.2083,-.3167,.2417,0.0*
1,1,.1524,-.3167,.2417*
20,1,.1524,-.3167,.2417,-.25,.25,0.0*
1,1,.1524,-.25,.25*
20,1,.1524,-.25,.25,-.1833,.2417,0.0*
1,1,.1524,-.1833,.2417*
20,1,.1524,-.1833,.2417,-.125,.2083,0.0*
1,1,.1524,-.125,.2083*
20,1,.1524,-.125,.2083,-.075,.1583,0.0*
1,1,.1524,-.075,.1583*
20,1,.1524,-.075,.1583,-.0417,.1,0.0*
1,1,.1524,-.0417,.1*
20,1,.1524,-.0417,.1,-.025,.0333,0.0*
1,1,.1524,-.025,.0333*
20,1,.1524,-.025,.0333,-.025,-.0333,0.0*
1,1,.1524,-.025,-.0333*
20,1,.1524,-.025,-.0333,-.0417,-.1,0.0*
1,1,.1524,-.0417,-.1*
20,1,.1524,-.0417,-.1,-.075,-.1583,0.0*
1,1,.1524,-.075,-.1583*
20,1,.1524,-.075,-.1583,-.125,-.2083,0.0*
1,1,.1524,-.125,-.2083*
20,1,.1524,-.125,-.2083,-.1833,-.2417,0.0*
1,1,.1524,-.1833,-.2417*
20,1,.1524,-.1833,-.2417,-.25,-.25,0.0*
1,1,.1524,-.25,-.25*
1,1,.1524,.4334,.2083*
20,1,.1524,.4334,.2083,.3834,.2333,0.0*
1,1,.1524,.3834,.2333*
20,1,.1524,.3834,.2333,.3251,.25,0.0*
1,1,.1524,.3251,.25*
20,1,.1524,.3251,.25,.2584,.25,0.0*
1,1,.1524,.2584,.25*
20,1,.1524,.2584,.25,.1834,.225,0.0*
1,1,.1524,.1834,.225*
20,1,.1524,.1834,.225,.1251,.1833,0.0*
1,1,.1524,.1251,.1833*
20,1,.1524,.1251,.1833,.0834,.1333,0.0*
1,1,.1524,.0834,.1333*
20,1,.1524,.0834,.1333,.0501,.05,0.0*
1,1,.1524,.0501,.05*
20,1,.1524,.0501,.05,.0418,-.025,0.0*
1,1,.1524,.0418,-.025*
20,1,.1524,.0418,-.025,.0584,-.1,0.0*
1,1,.1524,.0584,-.1*
20,1,.1524,.0584,-.1,.0834,-.15,0.0*
1,1,.1524,.0834,-.15*
20,1,.1524,.0834,-.15,.1334,-.2,0.0*
1,1,.1524,.1334,-.2*
20,1,.1524,.1334,-.2,.1918,-.2333,0.0*
1,1,.1524,.1918,-.2333*
20,1,.1524,.1918,-.2333,.2501,-.25,0.0*
1,1,.1524,.2501,-.25*
20,1,.1524,.2501,-.25,.3084,-.25,0.0*
1,1,.1524,.3084,-.25*
20,1,.1524,.3084,-.25,.3668,-.2333,0.0*
1,1,.1524,.3668,-.2333*
20,1,.1524,.3668,-.2333,.4168,-.2083,0.0*
1,1,.1524,.4168,-.2083*
20,1,.1524,.4168,-.2083,.4584,-.175,0.0*
1,1,.1524,.4584,-.175*
%
%ADD12MACRO12*%
%AMMACRO10*
1,1,.1524,0.0,1.65*
20,1,.1524,0.0,1.65,-1.428942,.825,0.0*
1,1,.1524,-1.428942,.825*
20,1,.1524,-1.428942,.825,-1.428942,-.825,0.0*
1,1,.1524,-1.428942,-.825*
20,1,.1524,-1.428942,-.825,0.0,-1.65,0.0*
1,1,.1524,0.0,-1.65*
20,1,.1524,0.0,-1.65,1.428942,-.825,0.0*
1,1,.1524,1.428942,-.825*
20,1,.1524,1.428942,-.825,1.428942,.825,0.0*
1,1,.1524,1.428942,.825*
20,1,.1524,1.428942,.825,0.0,1.65,0.0*
1,1,.1524,0.0,1.65*
%
%ADD10MACRO10*%
%AMMACRO14*
1,1,.1524,.4,0.0*
20,1,.1524,.4,0.0,.2,.34641,0.0*
1,1,.1524,.2,.34641*
20,1,.1524,.2,.34641,-.2,.34641,0.0*
1,1,.1524,-.2,.34641*
20,1,.1524,-.2,.34641,-.4,0.0,0.0*
1,1,.1524,-.4,0.0*
20,1,.1524,-.4,0.0,-.2,-.34641,0.0*
1,1,.1524,-.2,-.34641*
20,1,.1524,-.2,-.34641,.2,-.34641,0.0*
1,1,.1524,.2,-.34641*
20,1,.1524,.2,-.34641,.4,0.0,0.0*
1,1,.1524,.4,0.0*
%
%ADD14MACRO14*%
%ADD18C,.1524*%
G75*
%LPD*%
G75*
G54D10*
X360000Y360000D03*
Y5040000D03*
X8140000Y360000D03*
Y5040000D03*
X10761730Y2837500D03*
G54D11*
X810000Y2700000D03*
X1410000D03*
X10761730Y932500D03*
G54D12*
X1130000Y2220000D03*
X10761730Y297500D03*
G54D13*
X2342260Y3921330D03*
X2371430Y4684550D03*
Y5084550D03*
X2415180Y192730D03*
Y592730D03*
Y992730D03*
Y1392730D03*
Y1792730D03*
X2742260Y3921330D03*
X2815180Y192730D03*
Y592730D03*
Y992730D03*
Y1392730D03*
Y1792730D03*
X3142260Y3921330D03*
X2771430Y4684550D03*
Y5084550D03*
X3215180Y192730D03*
Y592730D03*
Y992730D03*
Y1392730D03*
Y1792730D03*
X3171430Y4684550D03*
Y5084550D03*
X3571430Y4684550D03*
Y5084550D03*
X4041430Y2254550D03*
X4031430Y3144550D03*
X3971430Y4684550D03*
Y5084550D03*
X4330000Y90000D03*
Y660000D03*
Y910000D03*
X4441430Y2254550D03*
X4361430Y3454550D03*
X4431430Y3144550D03*
X4620000Y4130000D03*
X4371430Y4684550D03*
Y5084550D03*
X4730000Y90000D03*
Y660000D03*
X4771430Y2254550D03*
X4761430Y3454550D03*
Y3144550D03*
X4771430Y4684550D03*
Y5084550D03*
X5171430Y2254550D03*
X5201430Y3454550D03*
X5161430Y3144550D03*
X5171430Y4684550D03*
Y5084550D03*
X5564550Y1078570D03*
Y1478570D03*
X5700000Y1920000D03*
X5560000Y2310000D03*
X5700000D03*
X5670000Y2690000D03*
Y2610000D03*
X5750000D03*
X5751100Y2690000D03*
X5670000Y2770000D03*
X5750000D03*
X5601430Y3454550D03*
X5571430Y4684550D03*
Y5084550D03*
X6060000Y1920000D03*
X5830000Y2610000D03*
Y2690000D03*
Y2770000D03*
X5940000Y3460000D03*
X5971430Y4684550D03*
Y5084550D03*
X6204550Y1098570D03*
X6544550D03*
X6204550Y1498570D03*
X6544550D03*
X6361430Y1894550D03*
Y2234550D03*
X6390000Y2980000D03*
X6510000Y2880000D03*
X6469500Y3235880D03*
X6371430Y4684550D03*
Y5084550D03*
X6761430Y1894550D03*
Y2234550D03*
X6869500Y3235880D03*
X6771430Y4684550D03*
Y5084550D03*
X7330000Y180000D03*
X7320000Y600000D03*
X7194410Y2565530D03*
X7250000Y3240000D03*
X7171430Y4684550D03*
Y5084550D03*
X7684410Y2555530D03*
X7610000Y3230000D03*
X7571430Y4684550D03*
Y5084550D03*
X7874410Y1145530D03*
Y1545530D03*
Y1945530D03*
X8364410Y1135530D03*
Y1535530D03*
Y1935530D03*
X8370000Y3460000D03*
Y3990000D03*
X10761730Y4107500D03*
G54D14*
X2940000Y1948900D03*
Y2248900D03*
Y3070000D03*
Y3370000D03*
X4290000Y1185000D03*
Y1435000D03*
X4970000Y1185000D03*
Y1435000D03*
X5410000Y485000D03*
Y235000D03*
Y3825000D03*
Y4075000D03*
X6860000Y485000D03*
Y235000D03*
Y3825000D03*
Y4075000D03*
X10761730Y3472500D03*
G54D15*
X3490000Y3890000D03*
Y4090000D03*
Y3990000D03*
X3520000Y330000D03*
X3720000D03*
X3620000D03*
X3520000Y730000D03*
X3720000D03*
X3620000D03*
X3520000Y530000D03*
X3720000D03*
X3620000D03*
X3520000Y920000D03*
Y1120000D03*
X3720000D03*
Y920000D03*
X3620000D03*
Y1120000D03*
X3520000Y1320000D03*
X3720000D03*
X3620000D03*
X3890000Y3890000D03*
X3690000D03*
Y4090000D03*
X3890000D03*
Y3990000D03*
X3690000D03*
X3936400Y1816400D03*
X3957500Y2937500D03*
X3980000Y3230000D03*
X4090000Y3890000D03*
Y4090000D03*
Y3990000D03*
X4576500Y360000D03*
X4640000D03*
X4560000Y3950000D03*
X4623500D03*
X5420000Y1820000D03*
X5300000Y2630000D03*
X5360000Y2490000D03*
X5140000Y2840000D03*
X5230000D03*
X5480000Y1740000D03*
X5700000Y3030000D03*
X5620000Y3090000D03*
X6120000Y2810000D03*
X5870000Y2990000D03*
X6120000Y2873500D03*
X5950000Y2990000D03*
X6180000Y2760000D03*
X6283800Y2043800D03*
X6422500Y4267500D03*
X7810000Y2540000D03*
X7900000Y3580000D03*
X8320000Y2500000D03*
X8120000Y3580000D03*
X10761730Y4742500D03*
G54D16*
X7864000Y3292530D03*
Y4156530D03*
X10761730Y1567500D03*
G54D17*
X8282000Y3292530D03*
Y4156530D03*
X10761730Y2202500D03*
G54D18*
G01X-1387400Y2523320D02*
X-1373180Y2507450D01*
X-1356590Y2497920D01*
X-1335250Y2494750D01*
X-1313910Y2501100D01*
X-1297320Y2513800D01*
X-1285470Y2536020D01*
X-1283100Y2561420D01*
X-1287840Y2586820D01*
X-1299690Y2602700D01*
X-1316290Y2615400D01*
X-1332880Y2618570D01*
X-1349470Y2615400D01*
X-1370810Y2602700D01*
X-1363700Y2685250D01*
X-1299690D01*
G01X-1116300Y2494750D02*
Y2685250D01*
X-1204020Y2548730D01*
X-1085480D01*
G01X-777300Y2514420D02*
Y2704920D01*
X-865020Y2568400D01*
X-746480D01*
G01X-660290Y2593790D02*
X-643700Y2616020D01*
X-629470Y2628720D01*
X-610510Y2635070D01*
X-593910Y2628720D01*
X-582060Y2616020D01*
X-572580Y2596970D01*
X-570210Y2574740D01*
X-572580Y2555690D01*
X-582060Y2536640D01*
X-596290Y2520770D01*
X-612880Y2514420D01*
X-631840Y2520770D01*
X-648440Y2539810D01*
X-657920Y2568400D01*
X-660290Y2600140D01*
X-655550Y2641420D01*
X-648440Y2663650D01*
X-636590Y2685870D01*
X-619990Y2701750D01*
X-603400Y2704920D01*
X-586800Y2698570D01*
X-574950Y2682690D01*
G01X-424750Y2508070D02*
X-429490Y2511250D01*
Y2517590D01*
X-424750Y2520770D01*
X-420010Y2517590D01*
Y2511250D01*
X-424750Y2508070D01*
G01X-234250Y2514420D02*
X-217660Y2517590D01*
X-198690Y2527120D01*
X-186840Y2542990D01*
X-182100Y2565220D01*
X-186840Y2587440D01*
X-201060Y2606490D01*
X-222400Y2616020D01*
X-246100D01*
X-260330Y2622370D01*
X-272180Y2638240D01*
X-276920Y2660470D01*
X-269810Y2682690D01*
X-253220Y2698570D01*
X-234250Y2704920D01*
X-215290Y2698570D01*
X-198690Y2682690D01*
X-191580Y2660470D01*
X-196320Y2638240D01*
X-208170Y2622370D01*
X-222400Y2616020D01*
X-246100D01*
X-267440Y2606490D01*
X-281660Y2587440D01*
X-286400Y2565220D01*
X-281660Y2542990D01*
X-269810Y2527120D01*
X-250840Y2517590D01*
X-234250Y2514420D01*
G01X3904750Y-1125250D02*
X3921340Y-1122080D01*
X3940310Y-1112550D01*
X3952160Y-1096680D01*
X3956900Y-1074450D01*
X3952160Y-1052230D01*
X3937940Y-1033180D01*
X3916600Y-1023650D01*
X3892900D01*
X3878670Y-1017300D01*
X3866820Y-1001430D01*
X3862080Y-979200D01*
X3869190Y-956980D01*
X3885780Y-941100D01*
X3904750Y-934750D01*
X3923710Y-941100D01*
X3940310Y-956980D01*
X3947420Y-979200D01*
X3942680Y-1001430D01*
X3930830Y-1017300D01*
X3916600Y-1023650D01*
X3892900D01*
X3871560Y-1033180D01*
X3857340Y-1052230D01*
X3852600Y-1074450D01*
X3857340Y-1096680D01*
X3869190Y-1112550D01*
X3888160Y-1122080D01*
X3904750Y-1125250D01*
G01X4043100Y-1096680D02*
X4057320Y-1112550D01*
X4073910Y-1122080D01*
X4095250Y-1125250D01*
X4116590Y-1118900D01*
X4133180Y-1106200D01*
X4145030Y-1083980D01*
X4147400Y-1058580D01*
X4142660Y-1033180D01*
X4130810Y-1017300D01*
X4114210Y-1004600D01*
X4097620Y-1001430D01*
X4081030Y-1004600D01*
X4059690Y-1017300D01*
X4066800Y-934750D01*
X4130810D01*
G01X3719510Y-595250D02*
X3724250Y-553980D01*
X3731360Y-519050D01*
X3740840Y-487300D01*
X3752700Y-452380D01*
X3771660Y-404750D01*
X3676840D01*
G01X3910010Y-595250D02*
X3914750Y-553980D01*
X3921860Y-519050D01*
X3931340Y-487300D01*
X3943200Y-452380D01*
X3962160Y-404750D01*
X3867340D01*
G01X4105250Y-601600D02*
X4100510Y-598420D01*
Y-592080D01*
X4105250Y-588900D01*
X4109990Y-592080D01*
Y-598420D01*
X4105250Y-601600D01*
G01X4295750Y-595250D02*
X4312340Y-592080D01*
X4331310Y-582550D01*
X4343160Y-566680D01*
X4347900Y-544450D01*
X4343160Y-522230D01*
X4328940Y-503180D01*
X4307600Y-493650D01*
X4283900D01*
X4269670Y-487300D01*
X4257820Y-471430D01*
X4253080Y-449200D01*
X4260190Y-426980D01*
X4276780Y-411100D01*
X4295750Y-404750D01*
X4314710Y-411100D01*
X4331310Y-426980D01*
X4338420Y-449200D01*
X4333680Y-471430D01*
X4321830Y-487300D01*
X4307600Y-493650D01*
X4283900D01*
X4262560Y-503180D01*
X4248340Y-522230D01*
X4243600Y-544450D01*
X4248340Y-566680D01*
X4260190Y-582550D01*
X4279160Y-592080D01*
X4295750Y-595250D01*
G01X9899520Y5218750D02*
Y5536250D01*
X10049140D01*
G01X9994010Y5382800D02*
X9899520D01*
G01X10242050Y5536250D02*
X10336530D01*
G01X10289290D02*
Y5218750D01*
G01X10242050D02*
X10336530D01*
G01X10627870Y5377500D02*
X10706620D01*
Y5282250D01*
X10682990Y5250490D01*
X10655430Y5229330D01*
X10616060Y5218750D01*
X10576690Y5229330D01*
X10549130Y5250490D01*
X10525510Y5282250D01*
X10509760Y5319290D01*
X10501880Y5361620D01*
Y5398670D01*
X10509760Y5430410D01*
X10525510Y5467460D01*
X10549130Y5499210D01*
X10572750Y5520370D01*
X10604250Y5536250D01*
X10631810D01*
X10663300Y5525670D01*
X10686930Y5504500D01*
G01X10832600Y5536250D02*
Y5308710D01*
X10848340Y5261070D01*
X10879840Y5229330D01*
X10919210Y5218750D01*
X10958580Y5229330D01*
X10990080Y5261070D01*
X11005820Y5308710D01*
Y5536250D01*
G01X11155430Y5218750D02*
Y5536250D01*
X11253850D01*
X11285350Y5520370D01*
X11305040Y5499210D01*
X11312910Y5456870D01*
X11305040Y5414540D01*
X11281410Y5388090D01*
X11253850Y5372200D01*
X11155430D01*
G01X11253850D02*
X11312910Y5218750D01*
G01X11627870D02*
X11470390D01*
Y5536250D01*
X11627870D01*
G01X11564880Y5382800D02*
X11470390D01*
G01X12497940Y5218750D02*
Y5536250D01*
X12647560D01*
G01X12592430Y5382800D02*
X12497940D01*
G01X12840470Y5536250D02*
X12934950D01*
G01X12887710D02*
Y5218750D01*
G01X12840470D02*
X12934950D01*
G01X13112120D02*
Y5536250D01*
X13293220Y5218750D01*
Y5536250D01*
G01X13470390D02*
X13564870D01*
G01X13517630D02*
Y5218750D01*
G01X13470390D02*
X13564870D01*
G01X13749910Y5261070D02*
X13781410Y5234620D01*
X13816840Y5218750D01*
X13848340D01*
X13879830Y5234620D01*
X13903460Y5261070D01*
X13915270Y5298130D01*
X13907400Y5335160D01*
X13887710Y5366910D01*
X13852270Y5388090D01*
X13805030Y5398670D01*
X13777470Y5419830D01*
X13765660Y5456870D01*
X13773540Y5493920D01*
X13793220Y5520370D01*
X13820780Y5536250D01*
X13848340D01*
X13875900Y5525670D01*
X13899520Y5499210D01*
G01X14064870Y5218750D02*
Y5536250D01*
G01X14230230D02*
Y5218750D01*
G01Y5377500D02*
X14064870D01*
G01X14541250Y5218750D02*
X14383770D01*
Y5536250D01*
X14541250D01*
G01X14478260Y5382800D02*
X14383770D01*
G01X14690860Y5218750D02*
Y5536250D01*
X14769590D01*
X14801090Y5520370D01*
X14824710Y5499210D01*
X14844400Y5467460D01*
X14860150Y5430410D01*
X14864080Y5377500D01*
X14860150Y5324580D01*
X14844400Y5287540D01*
X14824710Y5255780D01*
X14801090Y5234620D01*
X14769590Y5218750D01*
X14690860D01*
G01X14974320Y5112920D02*
X15210540D01*
G01X15324710Y5261070D02*
X15356210Y5234620D01*
X15391640Y5218750D01*
X15423140D01*
X15454630Y5234620D01*
X15478260Y5261070D01*
X15490070Y5298130D01*
X15482200Y5335160D01*
X15462510Y5366910D01*
X15427070Y5388090D01*
X15379830Y5398670D01*
X15352270Y5419830D01*
X15340460Y5456870D01*
X15348340Y5493920D01*
X15368020Y5520370D01*
X15395580Y5536250D01*
X15423140D01*
X15450700Y5525670D01*
X15474320Y5499210D01*
G01X15675110Y5536250D02*
X15769590D01*
G01X15722350D02*
Y5218750D01*
G01X15675110D02*
X15769590D01*
G01X15962500Y5536250D02*
X16112120D01*
X15962500Y5218750D01*
X16112120D01*
G01X16431010D02*
X16273530D01*
Y5536250D01*
X16431010D01*
G01X16368020Y5382800D02*
X16273530D01*
G01X13182980Y5853750D02*
X13281410Y6171250D01*
X13379840Y5853750D01*
G01X13344400Y5964870D02*
X13218410D01*
G01X13517630Y6171250D02*
Y5853750D01*
X13675110D01*
G01X13832590Y6171250D02*
Y5853750D01*
X13990070D01*
G01X14454640Y6171250D02*
Y5943710D01*
X14470380Y5896070D01*
X14501880Y5864330D01*
X14541250Y5853750D01*
X14580620Y5864330D01*
X14612120Y5896070D01*
X14627860Y5943710D01*
Y6171250D01*
G01X14765660Y5853750D02*
Y6171250D01*
X14946760Y5853750D01*
Y6171250D01*
G01X15123930D02*
X15218410D01*
G01X15171170D02*
Y5853750D01*
G01X15123930D02*
X15218410D01*
G01X15486130Y6171250D02*
Y5853750D01*
G01X15395580Y6171250D02*
X15576680D01*
G01X15718410Y5896070D02*
X15749910Y5869620D01*
X15785340Y5853750D01*
X15816840D01*
X15848330Y5869620D01*
X15871960Y5896070D01*
X15883770Y5933130D01*
X15875900Y5970160D01*
X15856210Y6001910D01*
X15820770Y6023090D01*
X15773530Y6033670D01*
X15745970Y6054830D01*
X15734160Y6091870D01*
X15742040Y6128920D01*
X15761720Y6155370D01*
X15789280Y6171250D01*
X15816840D01*
X15844400Y6160670D01*
X15868020Y6134210D01*
G01X16332580Y5853750D02*
X16431010Y6171250D01*
X16529440Y5853750D01*
G01X16494000Y5964870D02*
X16368010D01*
G01X16667230Y5853750D02*
Y6171250D01*
X16765650D01*
X16797150Y6155370D01*
X16816840Y6134210D01*
X16824710Y6091870D01*
X16816840Y6049540D01*
X16793210Y6023090D01*
X16765650Y6007200D01*
X16667230D01*
G01X16765650D02*
X16824710Y5853750D01*
G01X17139670D02*
X16982190D01*
Y6171250D01*
X17139670D01*
G01X17076680Y6017800D02*
X16982190D01*
G01X17643610Y6171250D02*
X17738090D01*
G01X17690850D02*
Y5853750D01*
G01X17643610D02*
X17738090D01*
G01X17915260D02*
Y6171250D01*
X18096360Y5853750D01*
Y6171250D01*
G01X18533360Y5853750D02*
Y6171250D01*
X18635730Y5906670D01*
X18738100Y6171250D01*
Y5853750D01*
G01X18903450Y6171250D02*
X18997930D01*
G01X18950690D02*
Y5853750D01*
G01X18903450D02*
X18997930D01*
G01X19186910Y6171250D02*
Y5853750D01*
X19344390D01*
G01X19501870Y6171250D02*
Y5853750D01*
X19659350D01*
G01X19848330Y6171250D02*
X19942810D01*
G01X19895570D02*
Y5853750D01*
G01X19848330D02*
X19942810D01*
G01X20108160D02*
Y6171250D01*
X20210530Y5906670D01*
X20312900Y6171250D01*
Y5853750D01*
G01X20604230D02*
X20446750D01*
Y6171250D01*
X20604230D01*
G01X20541240Y6017800D02*
X20446750D01*
G01X20840450Y6171250D02*
Y5853750D01*
G01X20749900Y6171250D02*
X20931000D01*
G01X21234150Y5853750D02*
X21076670D01*
Y6171250D01*
X21234150D01*
G01X21171160Y6017800D02*
X21076670D01*
G01X21391630Y5853750D02*
Y6171250D01*
X21490050D01*
X21521550Y6155370D01*
X21541240Y6134210D01*
X21549110Y6091870D01*
X21541240Y6049540D01*
X21517610Y6023090D01*
X21490050Y6007200D01*
X21391630D01*
G01X21490050D02*
X21549110Y5853750D01*
G01X21702650Y5896070D02*
X21734150Y5869620D01*
X21769580Y5853750D01*
X21801080D01*
X21832570Y5869620D01*
X21856200Y5896070D01*
X21868010Y5933130D01*
X21860140Y5970160D01*
X21840450Y6001910D01*
X21805010Y6023090D01*
X21757770Y6033670D01*
X21730210Y6054830D01*
X21718400Y6091870D01*
X21726280Y6128920D01*
X21745960Y6155370D01*
X21773520Y6171250D01*
X21801080D01*
X21828640Y6160670D01*
X21852260Y6134210D01*
G01X13431020Y202250D02*
X13454630Y165200D01*
X13486130Y144040D01*
X13521570Y138750D01*
X13553070Y144040D01*
X13584560Y170490D01*
X13604240Y202250D01*
X13608180Y234000D01*
X13600310Y271030D01*
X13572750Y297500D01*
X13545190Y308090D01*
X13509750D01*
G01X13545190D02*
X13568810Y323960D01*
X13588500Y350410D01*
X13596370Y382160D01*
X13588500Y413920D01*
X13568810Y440370D01*
X13533380Y456250D01*
X13497950Y450960D01*
X13462510Y429790D01*
G01X13832590Y128170D02*
X13824710Y133460D01*
Y144040D01*
X13832590Y149330D01*
X13840470Y144040D01*
Y133460D01*
X13832590Y128170D01*
G01X14147550Y456250D02*
X14116050Y445670D01*
X14092430Y419210D01*
X14076680Y387460D01*
X14064870Y345120D01*
X14060940Y297500D01*
X14064870Y249870D01*
X14076680Y207540D01*
X14092430Y175780D01*
X14116050Y149330D01*
X14147550Y138750D01*
X14179040Y149330D01*
X14202670Y175780D01*
X14218420Y207540D01*
X14230230Y249870D01*
X14234160Y297500D01*
X14230230Y345120D01*
X14218420Y387460D01*
X14202670Y419210D01*
X14179040Y445670D01*
X14147550Y456250D01*
G01X14403460Y350410D02*
X14521560Y138750D01*
G01Y350410D02*
X14403460Y138750D01*
G01X14777470D02*
Y456250D01*
X14730230Y392750D01*
G01Y138750D02*
X14824710D01*
G01X15092430Y128170D02*
X15084550Y133460D01*
Y144040D01*
X15092430Y149330D01*
X15100310Y144040D01*
Y133460D01*
X15092430Y128170D01*
G01X15407390Y456250D02*
X15375890Y445670D01*
X15352270Y419210D01*
X15336520Y387460D01*
X15324710Y345120D01*
X15320780Y297500D01*
X15324710Y249870D01*
X15336520Y207540D01*
X15352270Y175780D01*
X15375890Y149330D01*
X15407390Y138750D01*
X15438880Y149330D01*
X15462510Y175780D01*
X15478260Y207540D01*
X15490070Y249870D01*
X15494000Y297500D01*
X15490070Y345120D01*
X15478260Y387460D01*
X15462510Y419210D01*
X15438880Y445670D01*
X15407390Y456250D01*
G01X13431020Y837250D02*
X13454630Y800200D01*
X13486130Y779040D01*
X13521570Y773750D01*
X13553070Y779040D01*
X13584560Y805490D01*
X13604240Y837250D01*
X13608180Y869000D01*
X13600310Y906030D01*
X13572750Y932500D01*
X13545190Y943090D01*
X13509750D01*
G01X13545190D02*
X13568810Y958960D01*
X13588500Y985410D01*
X13596370Y1017160D01*
X13588500Y1048920D01*
X13568810Y1075370D01*
X13533380Y1091250D01*
X13497950Y1085960D01*
X13462510Y1064790D01*
G01X13832590Y763170D02*
X13824710Y768460D01*
Y779040D01*
X13832590Y784330D01*
X13840470Y779040D01*
Y768460D01*
X13832590Y763170D01*
G01X14147550Y1091250D02*
X14116050Y1080670D01*
X14092430Y1054210D01*
X14076680Y1022460D01*
X14064870Y980120D01*
X14060940Y932500D01*
X14064870Y884870D01*
X14076680Y842540D01*
X14092430Y810780D01*
X14116050Y784330D01*
X14147550Y773750D01*
X14179040Y784330D01*
X14202670Y810780D01*
X14218420Y842540D01*
X14230230Y884870D01*
X14234160Y932500D01*
X14230230Y980120D01*
X14218420Y1022460D01*
X14202670Y1054210D01*
X14179040Y1080670D01*
X14147550Y1091250D01*
G01X14403460Y985410D02*
X14521560Y773750D01*
G01Y985410D02*
X14403460Y773750D01*
G01X14777470D02*
Y1091250D01*
X14730230Y1027750D01*
G01Y773750D02*
X14824710D01*
G01X15092430Y763170D02*
X15084550Y768460D01*
Y779040D01*
X15092430Y784330D01*
X15100310Y779040D01*
Y768460D01*
X15092430Y763170D01*
G01X15407390Y1091250D02*
X15375890Y1080670D01*
X15352270Y1054210D01*
X15336520Y1022460D01*
X15324710Y980120D01*
X15320780Y932500D01*
X15324710Y884870D01*
X15336520Y842540D01*
X15352270Y810780D01*
X15375890Y784330D01*
X15407390Y773750D01*
X15438880Y784330D01*
X15462510Y810780D01*
X15478260Y842540D01*
X15490070Y884870D01*
X15494000Y932500D01*
X15490070Y980120D01*
X15478260Y1022460D01*
X15462510Y1054210D01*
X15438880Y1080670D01*
X15407390Y1091250D01*
G01X13517630Y1408750D02*
Y1726250D01*
X13470390Y1662750D01*
G01Y1408750D02*
X13564870D01*
G01X13832590Y1398170D02*
X13824710Y1403460D01*
Y1414040D01*
X13832590Y1419330D01*
X13840470Y1414040D01*
Y1403460D01*
X13832590Y1398170D01*
G01X14139670Y1408750D02*
X14147550Y1477540D01*
X14159360Y1535740D01*
X14175110Y1588670D01*
X14194790Y1646870D01*
X14226290Y1726250D01*
X14068810D01*
G01X14403460Y1620410D02*
X14521560Y1408750D01*
G01Y1620410D02*
X14403460Y1408750D01*
G01X14777470Y1726250D02*
X14745970Y1715670D01*
X14722350Y1689210D01*
X14706600Y1657460D01*
X14694790Y1615120D01*
X14690860Y1567500D01*
X14694790Y1519870D01*
X14706600Y1477540D01*
X14722350Y1445780D01*
X14745970Y1419330D01*
X14777470Y1408750D01*
X14808960Y1419330D01*
X14832590Y1445780D01*
X14848340Y1477540D01*
X14860150Y1519870D01*
X14864080Y1567500D01*
X14860150Y1615120D01*
X14848340Y1657460D01*
X14832590Y1689210D01*
X14808960Y1715670D01*
X14777470Y1726250D01*
G01X15092430Y1398170D02*
X15084550Y1403460D01*
Y1414040D01*
X15092430Y1419330D01*
X15100310Y1414040D01*
Y1403460D01*
X15092430Y1398170D01*
G01X15332580Y1541030D02*
X15360150Y1578090D01*
X15383770Y1599250D01*
X15415270Y1609830D01*
X15442830Y1599250D01*
X15462510Y1578090D01*
X15478260Y1546330D01*
X15482200Y1509290D01*
X15478260Y1477540D01*
X15462510Y1445780D01*
X15438880Y1419330D01*
X15411330Y1408750D01*
X15379830Y1419330D01*
X15352270Y1451070D01*
X15336520Y1498710D01*
X15332580Y1551620D01*
X15340460Y1620410D01*
X15352270Y1657460D01*
X15371950Y1694500D01*
X15399510Y1720960D01*
X15427070Y1726250D01*
X15454630Y1715670D01*
X15474320Y1689210D01*
G01X13517630Y2043750D02*
Y2361250D01*
X13470390Y2297750D01*
G01Y2043750D02*
X13564870D01*
G01X13832590Y2033170D02*
X13824710Y2038460D01*
Y2049040D01*
X13832590Y2054330D01*
X13840470Y2049040D01*
Y2038460D01*
X13832590Y2033170D01*
G01X14072740Y2308330D02*
X14096370Y2340080D01*
X14123930Y2355960D01*
X14155430Y2361250D01*
X14194790Y2350670D01*
X14222360Y2324210D01*
X14230230Y2292460D01*
X14226290Y2260700D01*
X14210540Y2234250D01*
X14131800Y2181330D01*
X14096370Y2144290D01*
X14072740Y2091360D01*
X14064870Y2043750D01*
X14230230D01*
G01X14403460Y2255410D02*
X14521560Y2043750D01*
G01Y2255410D02*
X14403460Y2043750D01*
G01X14777470Y2361250D02*
X14745970Y2350670D01*
X14722350Y2324210D01*
X14706600Y2292460D01*
X14694790Y2250120D01*
X14690860Y2202500D01*
X14694790Y2154870D01*
X14706600Y2112540D01*
X14722350Y2080780D01*
X14745970Y2054330D01*
X14777470Y2043750D01*
X14808960Y2054330D01*
X14832590Y2080780D01*
X14848340Y2112540D01*
X14860150Y2154870D01*
X14864080Y2202500D01*
X14860150Y2250120D01*
X14848340Y2292460D01*
X14832590Y2324210D01*
X14808960Y2350670D01*
X14777470Y2361250D01*
G01X15092430Y2033170D02*
X15084550Y2038460D01*
Y2049040D01*
X15092430Y2054330D01*
X15100310Y2049040D01*
Y2038460D01*
X15092430Y2033170D01*
G01X15332580Y2176030D02*
X15360150Y2213090D01*
X15383770Y2234250D01*
X15415270Y2244830D01*
X15442830Y2234250D01*
X15462510Y2213090D01*
X15478260Y2181330D01*
X15482200Y2144290D01*
X15478260Y2112540D01*
X15462510Y2080780D01*
X15438880Y2054330D01*
X15411330Y2043750D01*
X15379830Y2054330D01*
X15352270Y2086070D01*
X15336520Y2133710D01*
X15332580Y2186620D01*
X15340460Y2255410D01*
X15352270Y2292460D01*
X15371950Y2329500D01*
X15399510Y2355960D01*
X15427070Y2361250D01*
X15454630Y2350670D01*
X15474320Y2324210D01*
G01X13675110Y4266250D02*
X13643610Y4255670D01*
X13619990Y4229210D01*
X13604240Y4197460D01*
X13592430Y4155120D01*
X13588500Y4107500D01*
X13592430Y4059870D01*
X13604240Y4017540D01*
X13619990Y3985780D01*
X13643610Y3959330D01*
X13675110Y3948750D01*
X13706600Y3959330D01*
X13730230Y3985780D01*
X13745980Y4017540D01*
X13757790Y4059870D01*
X13761720Y4107500D01*
X13757790Y4155120D01*
X13745980Y4197460D01*
X13730230Y4229210D01*
X13706600Y4255670D01*
X13675110Y4266250D01*
G01X13990070Y3938170D02*
X13982190Y3943460D01*
Y3954040D01*
X13990070Y3959330D01*
X13997950Y3954040D01*
Y3943460D01*
X13990070Y3938170D01*
G01X14218420Y4012250D02*
X14242030Y3975200D01*
X14273530Y3954040D01*
X14308970Y3948750D01*
X14340470Y3954040D01*
X14371960Y3980490D01*
X14391640Y4012250D01*
X14395580Y4044000D01*
X14387710Y4081030D01*
X14360150Y4107500D01*
X14332590Y4118090D01*
X14297150D01*
G01X14332590D02*
X14356210Y4133960D01*
X14375900Y4160410D01*
X14383770Y4192160D01*
X14375900Y4223920D01*
X14356210Y4250370D01*
X14320780Y4266250D01*
X14285350Y4260960D01*
X14249910Y4239790D01*
G01X14619990Y4266250D02*
X14588490Y4255670D01*
X14564870Y4229210D01*
X14549120Y4197460D01*
X14537310Y4155120D01*
X14533380Y4107500D01*
X14537310Y4059870D01*
X14549120Y4017540D01*
X14564870Y3985780D01*
X14588490Y3959330D01*
X14619990Y3948750D01*
X14651480Y3959330D01*
X14675110Y3985780D01*
X14690860Y4017540D01*
X14702670Y4059870D01*
X14706600Y4107500D01*
X14702670Y4155120D01*
X14690860Y4197460D01*
X14675110Y4229210D01*
X14651480Y4255670D01*
X14619990Y4266250D01*
G01X14982190Y3948750D02*
Y4266250D01*
X14836520Y4038710D01*
X15033380D01*
G01X15249910Y3948750D02*
X15277470Y3954040D01*
X15308960Y3969910D01*
X15328650Y3996360D01*
X15336520Y4033420D01*
X15328650Y4070450D01*
X15305030Y4102200D01*
X15269590Y4118090D01*
X15230230D01*
X15206600Y4128670D01*
X15186910Y4155120D01*
X15179040Y4192160D01*
X15190860Y4229210D01*
X15218410Y4255670D01*
X15249910Y4266250D01*
X15281400Y4255670D01*
X15308960Y4229210D01*
X15320780Y4192160D01*
X15312900Y4155120D01*
X15293220Y4128670D01*
X15269590Y4118090D01*
X15230230D01*
X15194790Y4102200D01*
X15171170Y4070450D01*
X15163300Y4033420D01*
X15171170Y3996360D01*
X15190860Y3969910D01*
X15222350Y3954040D01*
X15249910Y3948750D01*
G01X13832590Y4901250D02*
X13801090Y4890670D01*
X13777470Y4864210D01*
X13761720Y4832460D01*
X13749910Y4790120D01*
X13745980Y4742500D01*
X13749910Y4694870D01*
X13761720Y4652540D01*
X13777470Y4620780D01*
X13801090Y4594330D01*
X13832590Y4583750D01*
X13864080Y4594330D01*
X13887710Y4620780D01*
X13903460Y4652540D01*
X13915270Y4694870D01*
X13919200Y4742500D01*
X13915270Y4790120D01*
X13903460Y4832460D01*
X13887710Y4864210D01*
X13864080Y4890670D01*
X13832590Y4901250D01*
G01X14147550Y4573170D02*
X14139670Y4578460D01*
Y4589040D01*
X14147550Y4594330D01*
X14155430Y4589040D01*
Y4578460D01*
X14147550Y4573170D01*
G01X14387700Y4848330D02*
X14411330Y4880080D01*
X14438890Y4895960D01*
X14470390Y4901250D01*
X14509750Y4890670D01*
X14537320Y4864210D01*
X14545190Y4832460D01*
X14541250Y4800700D01*
X14525500Y4774250D01*
X14446760Y4721330D01*
X14411330Y4684290D01*
X14387700Y4631360D01*
X14379830Y4583750D01*
X14545190D01*
G01X14690860Y4631360D02*
X14714470Y4604910D01*
X14742030Y4589040D01*
X14777470Y4583750D01*
X14812910Y4594330D01*
X14840460Y4615490D01*
X14860150Y4652540D01*
X14864080Y4694870D01*
X14856210Y4737200D01*
X14836520Y4763670D01*
X14808960Y4784830D01*
X14781410Y4790120D01*
X14753850Y4784830D01*
X14718420Y4763670D01*
X14730230Y4901250D01*
X14836520D01*
G01X15139670Y4583750D02*
Y4901250D01*
X14994000Y4673710D01*
X15190860D01*
G01X13509760Y6503750D02*
Y6821250D01*
X13588490D01*
X13619990Y6805370D01*
X13643610Y6784210D01*
X13663300Y6752460D01*
X13679050Y6715410D01*
X13682980Y6662500D01*
X13679050Y6609580D01*
X13663300Y6572540D01*
X13643610Y6540780D01*
X13619990Y6519620D01*
X13588490Y6503750D01*
X13509760D01*
G01X13832590D02*
Y6821250D01*
X13931010D01*
X13962510Y6805370D01*
X13982200Y6784210D01*
X13990070Y6741870D01*
X13982200Y6699540D01*
X13958570Y6673090D01*
X13931010Y6657200D01*
X13832590D01*
G01X13931010D02*
X13990070Y6503750D01*
G01X14179050Y6821250D02*
X14273530D01*
G01X14226290D02*
Y6503750D01*
G01X14179050D02*
X14273530D01*
G01X14462510Y6821250D02*
Y6503750D01*
X14619990D01*
G01X14777470Y6821250D02*
Y6503750D01*
X14934950D01*
G01X15572740Y6794790D02*
X15549120Y6810670D01*
X15521570Y6821250D01*
X15490070D01*
X15454630Y6805370D01*
X15427080Y6778920D01*
X15407390Y6747160D01*
X15391640Y6694250D01*
X15387700Y6646620D01*
X15395580Y6599000D01*
X15407390Y6567250D01*
X15431010Y6535490D01*
X15458570Y6514330D01*
X15486130Y6503750D01*
X15513690D01*
X15541250Y6514330D01*
X15564870Y6530200D01*
X15584560Y6551360D01*
G01X15718410Y6503750D02*
Y6821250D01*
G01X15883770D02*
Y6503750D01*
G01Y6662500D02*
X15718410D01*
G01X16017620Y6503750D02*
X16116050Y6821250D01*
X16214480Y6503750D01*
G01X16179040Y6614870D02*
X16053050D01*
G01X16352270Y6503750D02*
Y6821250D01*
X16450690D01*
X16482190Y6805370D01*
X16501880Y6784210D01*
X16509750Y6741870D01*
X16501880Y6699540D01*
X16478250Y6673090D01*
X16450690Y6657200D01*
X16352270D01*
G01X16450690D02*
X16509750Y6503750D01*
G01X16745970Y6821250D02*
Y6503750D01*
G01X16655420Y6821250D02*
X16836520D01*
G01X17060930Y6493170D02*
X17053050Y6498460D01*
Y6509040D01*
X17060930Y6514330D01*
X17068810Y6509040D01*
Y6498460D01*
X17060930Y6493170D01*
G01Y6636030D02*
X17053050Y6641330D01*
Y6651910D01*
X17060930Y6657200D01*
X17068810Y6651910D01*
Y6641330D01*
X17060930Y6636030D01*
G01X17690850Y6821250D02*
Y6503750D01*
G01X17600300Y6821250D02*
X17781400D01*
G01X18005810Y6503750D02*
X17974310Y6509040D01*
X17946760Y6530200D01*
X17923130Y6561960D01*
X17907380Y6599000D01*
X17899510Y6641330D01*
Y6683670D01*
X17907380Y6726000D01*
X17923130Y6763040D01*
X17946760Y6794790D01*
X17974310Y6815960D01*
X18005810Y6821250D01*
X18037300Y6815960D01*
X18064860Y6794790D01*
X18088490Y6763040D01*
X18104240Y6726000D01*
X18112110Y6683670D01*
Y6641330D01*
X18104240Y6599000D01*
X18088490Y6561960D01*
X18064860Y6530200D01*
X18037300Y6509040D01*
X18005810Y6503750D01*
G01X18242030D02*
Y6821250D01*
X18336520D01*
X18368010Y6805370D01*
X18391640Y6768330D01*
X18399510Y6726000D01*
X18391640Y6683670D01*
X18371950Y6651910D01*
X18336520Y6636030D01*
X18242030D01*
G01X18950690Y6821250D02*
Y6503750D01*
G01X18895570Y6715410D02*
X19005810D01*
G01X19265650Y6503750D02*
X19242030Y6509040D01*
X19218410Y6530200D01*
X19202650Y6567250D01*
X19194780Y6609580D01*
X19202650Y6651910D01*
X19218410Y6688960D01*
X19242030Y6710120D01*
X19265650Y6715410D01*
X19289270Y6710120D01*
X19312890Y6688960D01*
X19328640Y6651910D01*
X19332580Y6609580D01*
X19328640Y6567250D01*
X19312890Y6530200D01*
X19289270Y6509040D01*
X19265650Y6503750D01*
G01X19927060Y6673090D02*
X19942810Y6688960D01*
X19954620Y6715410D01*
X19962500Y6752460D01*
X19954620Y6784210D01*
X19938880Y6805370D01*
X19911320Y6821250D01*
X19805020D01*
Y6503750D01*
X19934940D01*
X19962500Y6524910D01*
X19978250Y6556670D01*
X19986120Y6593710D01*
X19978250Y6630740D01*
X19954620Y6662500D01*
X19927060Y6673090D01*
X19805020D01*
G01X20210530Y6503750D02*
X20179030Y6509040D01*
X20151480Y6530200D01*
X20127850Y6561960D01*
X20112100Y6599000D01*
X20104230Y6641330D01*
Y6683670D01*
X20112100Y6726000D01*
X20127850Y6763040D01*
X20151480Y6794790D01*
X20179030Y6815960D01*
X20210530Y6821250D01*
X20242020Y6815960D01*
X20269580Y6794790D01*
X20293210Y6763040D01*
X20308960Y6726000D01*
X20316830Y6683670D01*
Y6641330D01*
X20308960Y6599000D01*
X20293210Y6561960D01*
X20269580Y6530200D01*
X20242020Y6509040D01*
X20210530Y6503750D01*
G01X20525490Y6821250D02*
Y6503750D01*
G01X20434940Y6821250D02*
X20616040D01*
G01X20840450D02*
Y6503750D01*
G01X20749900Y6821250D02*
X20931000D01*
G01X21155410Y6503750D02*
X21123910Y6509040D01*
X21096360Y6530200D01*
X21072730Y6561960D01*
X21056980Y6599000D01*
X21049110Y6641330D01*
Y6683670D01*
X21056980Y6726000D01*
X21072730Y6763040D01*
X21096360Y6794790D01*
X21123910Y6815960D01*
X21155410Y6821250D01*
X21186900Y6815960D01*
X21214460Y6794790D01*
X21238090Y6763040D01*
X21253840Y6726000D01*
X21261710Y6683670D01*
Y6641330D01*
X21253840Y6599000D01*
X21238090Y6561960D01*
X21214460Y6530200D01*
X21186900Y6509040D01*
X21155410Y6503750D01*
G01X21368000D02*
Y6821250D01*
X21470370Y6556670D01*
X21572740Y6821250D01*
Y6503750D01*
G01X14060940Y2742250D02*
X14084550Y2705200D01*
X14116050Y2684040D01*
X14151490Y2678750D01*
X14182990Y2684040D01*
X14214480Y2710490D01*
X14234160Y2742250D01*
X14238100Y2774000D01*
X14230230Y2811030D01*
X14202670Y2837500D01*
X14175110Y2848090D01*
X14139670D01*
G01X14175110D02*
X14198730Y2863960D01*
X14218420Y2890410D01*
X14226290Y2922160D01*
X14218420Y2953920D01*
X14198730Y2980370D01*
X14163300Y2996250D01*
X14127870Y2990960D01*
X14092430Y2969790D01*
G01X14462510Y2668170D02*
X14454630Y2673460D01*
Y2684040D01*
X14462510Y2689330D01*
X14470390Y2684040D01*
Y2673460D01*
X14462510Y2668170D01*
G01X14690860Y2742250D02*
X14714470Y2705200D01*
X14745970Y2684040D01*
X14781410Y2678750D01*
X14812910Y2684040D01*
X14844400Y2710490D01*
X14864080Y2742250D01*
X14868020Y2774000D01*
X14860150Y2811030D01*
X14832590Y2837500D01*
X14805030Y2848090D01*
X14769590D01*
G01X14805030D02*
X14828650Y2863960D01*
X14848340Y2890410D01*
X14856210Y2922160D01*
X14848340Y2953920D01*
X14828650Y2980370D01*
X14793220Y2996250D01*
X14757790Y2990960D01*
X14722350Y2969790D01*
G01X14147550Y3631250D02*
X14116050Y3620670D01*
X14092430Y3594210D01*
X14076680Y3562460D01*
X14064870Y3520120D01*
X14060940Y3472500D01*
X14064870Y3424870D01*
X14076680Y3382540D01*
X14092430Y3350780D01*
X14116050Y3324330D01*
X14147550Y3313750D01*
X14179040Y3324330D01*
X14202670Y3350780D01*
X14218420Y3382540D01*
X14230230Y3424870D01*
X14234160Y3472500D01*
X14230230Y3520120D01*
X14218420Y3562460D01*
X14202670Y3594210D01*
X14179040Y3620670D01*
X14147550Y3631250D01*
G01X14462510Y3303170D02*
X14454630Y3308460D01*
Y3319040D01*
X14462510Y3324330D01*
X14470390Y3319040D01*
Y3308460D01*
X14462510Y3303170D01*
G01X14777470Y3313750D02*
X14805030Y3319040D01*
X14836520Y3334910D01*
X14856210Y3361360D01*
X14864080Y3398420D01*
X14856210Y3435450D01*
X14832590Y3467200D01*
X14797150Y3483090D01*
X14757790D01*
X14734160Y3493670D01*
X14714470Y3520120D01*
X14706600Y3557160D01*
X14718420Y3594210D01*
X14745970Y3620670D01*
X14777470Y3631250D01*
X14808960Y3620670D01*
X14836520Y3594210D01*
X14848340Y3557160D01*
X14840460Y3520120D01*
X14820780Y3493670D01*
X14797150Y3483090D01*
X14757790D01*
X14722350Y3467200D01*
X14698730Y3435450D01*
X14690860Y3398420D01*
X14698730Y3361360D01*
X14718420Y3334910D01*
X14749910Y3319040D01*
X14777470Y3313750D01*
G01X17454630Y5218750D02*
Y5536250D01*
X17553050D01*
X17584550Y5520370D01*
X17604240Y5499210D01*
X17612110Y5456870D01*
X17604240Y5414540D01*
X17580610Y5388090D01*
X17553050Y5372200D01*
X17454630D01*
G01X17553050D02*
X17612110Y5218750D01*
G01X17848330D02*
X17816830Y5224040D01*
X17789280Y5245200D01*
X17765650Y5276960D01*
X17749900Y5314000D01*
X17742030Y5356330D01*
Y5398670D01*
X17749900Y5441000D01*
X17765650Y5478040D01*
X17789280Y5509790D01*
X17816830Y5530960D01*
X17848330Y5536250D01*
X17879820Y5530960D01*
X17907380Y5509790D01*
X17931010Y5478040D01*
X17946760Y5441000D01*
X17954630Y5398670D01*
Y5356330D01*
X17946760Y5314000D01*
X17931010Y5276960D01*
X17907380Y5245200D01*
X17879820Y5224040D01*
X17848330Y5218750D01*
G01X18163290Y5536250D02*
Y5218750D01*
G01X18072740Y5536250D02*
X18253840D01*
G01X18379820Y5218750D02*
X18478250Y5536250D01*
X18576680Y5218750D01*
G01X18541240Y5329870D02*
X18415250D01*
G01X18793210Y5536250D02*
Y5218750D01*
G01X18702660Y5536250D02*
X18883760D01*
G01X19060930D02*
X19155410D01*
G01X19108170D02*
Y5218750D01*
G01X19060930D02*
X19155410D01*
G01X19423130D02*
X19391630Y5224040D01*
X19364080Y5245200D01*
X19340450Y5276960D01*
X19324700Y5314000D01*
X19316830Y5356330D01*
Y5398670D01*
X19324700Y5441000D01*
X19340450Y5478040D01*
X19364080Y5509790D01*
X19391630Y5530960D01*
X19423130Y5536250D01*
X19454620Y5530960D01*
X19482180Y5509790D01*
X19505810Y5478040D01*
X19521560Y5441000D01*
X19529430Y5398670D01*
Y5356330D01*
X19521560Y5314000D01*
X19505810Y5276960D01*
X19482180Y5245200D01*
X19454620Y5224040D01*
X19423130Y5218750D01*
G01X19647540D02*
Y5536250D01*
X19828640Y5218750D01*
Y5536250D01*
G01X18005810Y456250D02*
X17974310Y445670D01*
X17950690Y419210D01*
X17934940Y387460D01*
X17923130Y345120D01*
X17919200Y297500D01*
X17923130Y249870D01*
X17934940Y207540D01*
X17950690Y175780D01*
X17974310Y149330D01*
X18005810Y138750D01*
X18037300Y149330D01*
X18060930Y175780D01*
X18076680Y207540D01*
X18088490Y249870D01*
X18092420Y297500D01*
X18088490Y345120D01*
X18076680Y387460D01*
X18060930Y419210D01*
X18037300Y445670D01*
X18005810Y456250D01*
G01X18320770Y128170D02*
X18312890Y133460D01*
Y144040D01*
X18320770Y149330D01*
X18328650Y144040D01*
Y133460D01*
X18320770Y128170D01*
G01X18635730Y456250D02*
X18604230Y445670D01*
X18580610Y419210D01*
X18564860Y387460D01*
X18553050Y345120D01*
X18549120Y297500D01*
X18553050Y249870D01*
X18564860Y207540D01*
X18580610Y175780D01*
X18604230Y149330D01*
X18635730Y138750D01*
X18667220Y149330D01*
X18690850Y175780D01*
X18706600Y207540D01*
X18718410Y249870D01*
X18722340Y297500D01*
X18718410Y345120D01*
X18706600Y387460D01*
X18690850Y419210D01*
X18667220Y445670D01*
X18635730Y456250D01*
G01X18950690D02*
X18919190Y445670D01*
X18895570Y419210D01*
X18879820Y387460D01*
X18868010Y345120D01*
X18864080Y297500D01*
X18868010Y249870D01*
X18879820Y207540D01*
X18895570Y175780D01*
X18919190Y149330D01*
X18950690Y138750D01*
X18982180Y149330D01*
X19005810Y175780D01*
X19021560Y207540D01*
X19033370Y249870D01*
X19037300Y297500D01*
X19033370Y345120D01*
X19021560Y387460D01*
X19005810Y419210D01*
X18982180Y445670D01*
X18950690Y456250D01*
G01X19265650D02*
X19234150Y445670D01*
X19210530Y419210D01*
X19194780Y387460D01*
X19182970Y345120D01*
X19179040Y297500D01*
X19182970Y249870D01*
X19194780Y207540D01*
X19210530Y175780D01*
X19234150Y149330D01*
X19265650Y138750D01*
X19297140Y149330D01*
X19320770Y175780D01*
X19336520Y207540D01*
X19348330Y249870D01*
X19352260Y297500D01*
X19348330Y345120D01*
X19336520Y387460D01*
X19320770Y419210D01*
X19297140Y445670D01*
X19265650Y456250D01*
G01X17781400Y810780D02*
X17808960Y784330D01*
X17840450Y773750D01*
X17871950Y784330D01*
X17899510Y816070D01*
X17919200Y863710D01*
X17927070Y911330D01*
Y969540D01*
X17919200Y1017160D01*
X17899510Y1059500D01*
X17875890Y1080670D01*
X17848330Y1091250D01*
X17816830Y1080670D01*
X17793210Y1059500D01*
X17777460Y1027750D01*
X17769590Y985410D01*
X17777460Y948380D01*
X17797150Y911330D01*
X17820770Y890160D01*
X17848330Y884870D01*
X17879820Y895450D01*
X17903450Y921910D01*
X17927070Y969540D01*
G01X18163290Y1091250D02*
X18131790Y1080670D01*
X18108170Y1054210D01*
X18092420Y1022460D01*
X18080610Y980120D01*
X18076680Y932500D01*
X18080610Y884870D01*
X18092420Y842540D01*
X18108170Y810780D01*
X18131790Y784330D01*
X18163290Y773750D01*
X18194780Y784330D01*
X18218410Y810780D01*
X18234160Y842540D01*
X18245970Y884870D01*
X18249900Y932500D01*
X18245970Y980120D01*
X18234160Y1022460D01*
X18218410Y1054210D01*
X18194780Y1080670D01*
X18163290Y1091250D01*
G01X18478250Y763170D02*
X18470370Y768460D01*
Y779040D01*
X18478250Y784330D01*
X18486130Y779040D01*
Y768460D01*
X18478250Y763170D01*
G01X18793210Y1091250D02*
X18761710Y1080670D01*
X18738090Y1054210D01*
X18722340Y1022460D01*
X18710530Y980120D01*
X18706600Y932500D01*
X18710530Y884870D01*
X18722340Y842540D01*
X18738090Y810780D01*
X18761710Y784330D01*
X18793210Y773750D01*
X18824700Y784330D01*
X18848330Y810780D01*
X18864080Y842540D01*
X18875890Y884870D01*
X18879820Y932500D01*
X18875890Y980120D01*
X18864080Y1022460D01*
X18848330Y1054210D01*
X18824700Y1080670D01*
X18793210Y1091250D01*
G01X19108170D02*
X19076670Y1080670D01*
X19053050Y1054210D01*
X19037300Y1022460D01*
X19025490Y980120D01*
X19021560Y932500D01*
X19025490Y884870D01*
X19037300Y842540D01*
X19053050Y810780D01*
X19076670Y784330D01*
X19108170Y773750D01*
X19139660Y784330D01*
X19163290Y810780D01*
X19179040Y842540D01*
X19190850Y884870D01*
X19194780Y932500D01*
X19190850Y980120D01*
X19179040Y1022460D01*
X19163290Y1054210D01*
X19139660Y1080670D01*
X19108170Y1091250D01*
G01X19423130D02*
X19391630Y1080670D01*
X19368010Y1054210D01*
X19352260Y1022460D01*
X19340450Y980120D01*
X19336520Y932500D01*
X19340450Y884870D01*
X19352260Y842540D01*
X19368010Y810780D01*
X19391630Y784330D01*
X19423130Y773750D01*
X19454620Y784330D01*
X19478250Y810780D01*
X19494000Y842540D01*
X19505810Y884870D01*
X19509740Y932500D01*
X19505810Y980120D01*
X19494000Y1022460D01*
X19478250Y1054210D01*
X19454620Y1080670D01*
X19423130Y1091250D01*
G01X18005810Y1726250D02*
X17974310Y1715670D01*
X17950690Y1689210D01*
X17934940Y1657460D01*
X17923130Y1615120D01*
X17919200Y1567500D01*
X17923130Y1519870D01*
X17934940Y1477540D01*
X17950690Y1445780D01*
X17974310Y1419330D01*
X18005810Y1408750D01*
X18037300Y1419330D01*
X18060930Y1445780D01*
X18076680Y1477540D01*
X18088490Y1519870D01*
X18092420Y1567500D01*
X18088490Y1615120D01*
X18076680Y1657460D01*
X18060930Y1689210D01*
X18037300Y1715670D01*
X18005810Y1726250D01*
G01X18320770Y1398170D02*
X18312890Y1403460D01*
Y1414040D01*
X18320770Y1419330D01*
X18328650Y1414040D01*
Y1403460D01*
X18320770Y1398170D01*
G01X18635730Y1726250D02*
X18604230Y1715670D01*
X18580610Y1689210D01*
X18564860Y1657460D01*
X18553050Y1615120D01*
X18549120Y1567500D01*
X18553050Y1519870D01*
X18564860Y1477540D01*
X18580610Y1445780D01*
X18604230Y1419330D01*
X18635730Y1408750D01*
X18667220Y1419330D01*
X18690850Y1445780D01*
X18706600Y1477540D01*
X18718410Y1519870D01*
X18722340Y1567500D01*
X18718410Y1615120D01*
X18706600Y1657460D01*
X18690850Y1689210D01*
X18667220Y1715670D01*
X18635730Y1726250D01*
G01X18950690D02*
X18919190Y1715670D01*
X18895570Y1689210D01*
X18879820Y1657460D01*
X18868010Y1615120D01*
X18864080Y1567500D01*
X18868010Y1519870D01*
X18879820Y1477540D01*
X18895570Y1445780D01*
X18919190Y1419330D01*
X18950690Y1408750D01*
X18982180Y1419330D01*
X19005810Y1445780D01*
X19021560Y1477540D01*
X19033370Y1519870D01*
X19037300Y1567500D01*
X19033370Y1615120D01*
X19021560Y1657460D01*
X19005810Y1689210D01*
X18982180Y1715670D01*
X18950690Y1726250D01*
G01X19265650D02*
X19234150Y1715670D01*
X19210530Y1689210D01*
X19194780Y1657460D01*
X19182970Y1615120D01*
X19179040Y1567500D01*
X19182970Y1519870D01*
X19194780Y1477540D01*
X19210530Y1445780D01*
X19234150Y1419330D01*
X19265650Y1408750D01*
X19297140Y1419330D01*
X19320770Y1445780D01*
X19336520Y1477540D01*
X19348330Y1519870D01*
X19352260Y1567500D01*
X19348330Y1615120D01*
X19336520Y1657460D01*
X19320770Y1689210D01*
X19297140Y1715670D01*
X19265650Y1726250D01*
G01X18005810Y2361250D02*
X17974310Y2350670D01*
X17950690Y2324210D01*
X17934940Y2292460D01*
X17923130Y2250120D01*
X17919200Y2202500D01*
X17923130Y2154870D01*
X17934940Y2112540D01*
X17950690Y2080780D01*
X17974310Y2054330D01*
X18005810Y2043750D01*
X18037300Y2054330D01*
X18060930Y2080780D01*
X18076680Y2112540D01*
X18088490Y2154870D01*
X18092420Y2202500D01*
X18088490Y2250120D01*
X18076680Y2292460D01*
X18060930Y2324210D01*
X18037300Y2350670D01*
X18005810Y2361250D01*
G01X18320770Y2033170D02*
X18312890Y2038460D01*
Y2049040D01*
X18320770Y2054330D01*
X18328650Y2049040D01*
Y2038460D01*
X18320770Y2033170D01*
G01X18635730Y2361250D02*
X18604230Y2350670D01*
X18580610Y2324210D01*
X18564860Y2292460D01*
X18553050Y2250120D01*
X18549120Y2202500D01*
X18553050Y2154870D01*
X18564860Y2112540D01*
X18580610Y2080780D01*
X18604230Y2054330D01*
X18635730Y2043750D01*
X18667220Y2054330D01*
X18690850Y2080780D01*
X18706600Y2112540D01*
X18718410Y2154870D01*
X18722340Y2202500D01*
X18718410Y2250120D01*
X18706600Y2292460D01*
X18690850Y2324210D01*
X18667220Y2350670D01*
X18635730Y2361250D01*
G01X18950690D02*
X18919190Y2350670D01*
X18895570Y2324210D01*
X18879820Y2292460D01*
X18868010Y2250120D01*
X18864080Y2202500D01*
X18868010Y2154870D01*
X18879820Y2112540D01*
X18895570Y2080780D01*
X18919190Y2054330D01*
X18950690Y2043750D01*
X18982180Y2054330D01*
X19005810Y2080780D01*
X19021560Y2112540D01*
X19033370Y2154870D01*
X19037300Y2202500D01*
X19033370Y2250120D01*
X19021560Y2292460D01*
X19005810Y2324210D01*
X18982180Y2350670D01*
X18950690Y2361250D01*
G01X19265650D02*
X19234150Y2350670D01*
X19210530Y2324210D01*
X19194780Y2292460D01*
X19182970Y2250120D01*
X19179040Y2202500D01*
X19182970Y2154870D01*
X19194780Y2112540D01*
X19210530Y2080780D01*
X19234150Y2054330D01*
X19265650Y2043750D01*
X19297140Y2054330D01*
X19320770Y2080780D01*
X19336520Y2112540D01*
X19348330Y2154870D01*
X19352260Y2202500D01*
X19348330Y2250120D01*
X19336520Y2292460D01*
X19320770Y2324210D01*
X19297140Y2350670D01*
X19265650Y2361250D01*
G01X18584550Y2784580D02*
X18686910D01*
G01X18584550Y3419580D02*
X18686910D01*
G01X18584550Y4054580D02*
X18686910D01*
G01X18584550Y4689580D02*
X18686910D01*
G01X19578070Y-178750D02*
Y-496250D01*
G01X19487520Y-178750D02*
X19668620D01*
G01X19893030Y-496250D02*
X19861530Y-490960D01*
X19833980Y-469800D01*
X19810350Y-438040D01*
X19794600Y-401000D01*
X19786730Y-358670D01*
Y-316330D01*
X19794600Y-274000D01*
X19810350Y-236960D01*
X19833980Y-205210D01*
X19861530Y-184040D01*
X19893030Y-178750D01*
X19924520Y-184040D01*
X19952080Y-205210D01*
X19975710Y-236960D01*
X19991460Y-274000D01*
X19999330Y-316330D01*
Y-358670D01*
X19991460Y-401000D01*
X19975710Y-438040D01*
X19952080Y-469800D01*
X19924520Y-490960D01*
X19893030Y-496250D01*
G01X20207990Y-178750D02*
Y-496250D01*
G01X20117440Y-178750D02*
X20298540D01*
G01X20424520Y-496250D02*
X20522950Y-178750D01*
X20621380Y-496250D01*
G01X20585940Y-385130D02*
X20459950D01*
G01X20759170Y-178750D02*
Y-496250D01*
X20916650D01*
G01X21385150D02*
Y-178750D01*
G01X21550510D02*
Y-496250D01*
G01Y-337500D02*
X21385150D01*
G01X21782790Y-496250D02*
X21751290Y-490960D01*
X21723740Y-469800D01*
X21700110Y-438040D01*
X21684360Y-401000D01*
X21676490Y-358670D01*
Y-316330D01*
X21684360Y-274000D01*
X21700110Y-236960D01*
X21723740Y-205210D01*
X21751290Y-184040D01*
X21782790Y-178750D01*
X21814280Y-184040D01*
X21841840Y-205210D01*
X21865470Y-236960D01*
X21881220Y-274000D01*
X21889090Y-316330D01*
Y-358670D01*
X21881220Y-401000D01*
X21865470Y-438040D01*
X21841840Y-469800D01*
X21814280Y-490960D01*
X21782790Y-496250D01*
G01X22019010Y-178750D02*
Y-496250D01*
X22176490D01*
G01X22491450D02*
X22333970D01*
Y-178750D01*
X22491450D01*
G01X22428460Y-332200D02*
X22333970D01*
G01X22644990Y-453930D02*
X22676490Y-480380D01*
X22711920Y-496250D01*
X22743420D01*
X22774910Y-480380D01*
X22798540Y-453930D01*
X22810350Y-416870D01*
X22802480Y-379840D01*
X22782790Y-348090D01*
X22747350Y-326910D01*
X22700110Y-316330D01*
X22672550Y-295170D01*
X22660740Y-258130D01*
X22668620Y-221080D01*
X22688300Y-194630D01*
X22715860Y-178750D01*
X22743420D01*
X22770980Y-189330D01*
X22794600Y-215790D01*
G01X23042630Y-506830D02*
X23034750Y-501540D01*
Y-490960D01*
X23042630Y-485670D01*
X23050510Y-490960D01*
Y-501540D01*
X23042630Y-506830D01*
G01Y-363970D02*
X23034750Y-358670D01*
Y-348090D01*
X23042630Y-342800D01*
X23050510Y-348090D01*
Y-358670D01*
X23042630Y-363970D01*
G01X20997930Y138750D02*
Y456250D01*
X21092420D01*
X21123910Y440370D01*
X21147540Y403330D01*
X21155410Y361000D01*
X21147540Y318670D01*
X21127850Y286910D01*
X21092420Y271030D01*
X20997930D01*
G01X21312890Y456250D02*
Y138750D01*
X21470370D01*
G01X21608160D02*
X21706590Y456250D01*
X21805020Y138750D01*
G01X21769580Y249870D02*
X21643590D01*
G01X22021550Y456250D02*
Y138750D01*
G01X21931000Y456250D02*
X22112100D01*
G01X22415250Y138750D02*
X22257770D01*
Y456250D01*
X22415250D01*
G01X22352260Y302800D02*
X22257770D01*
G01X22564860Y138750D02*
Y456250D01*
X22643590D01*
X22675090Y440370D01*
X22698710Y419210D01*
X22718400Y387460D01*
X22734150Y350410D01*
X22738080Y297500D01*
X22734150Y244580D01*
X22718400Y207540D01*
X22698710Y175780D01*
X22675090Y154620D01*
X22643590Y138750D01*
X22564860D01*
G01X20997930Y773750D02*
Y1091250D01*
X21092420D01*
X21123910Y1075370D01*
X21147540Y1038330D01*
X21155410Y996000D01*
X21147540Y953670D01*
X21127850Y921910D01*
X21092420Y906030D01*
X20997930D01*
G01X21312890Y1091250D02*
Y773750D01*
X21470370D01*
G01X21608160D02*
X21706590Y1091250D01*
X21805020Y773750D01*
G01X21769580Y884870D02*
X21643590D01*
G01X22021550Y1091250D02*
Y773750D01*
G01X21931000Y1091250D02*
X22112100D01*
G01X22415250Y773750D02*
X22257770D01*
Y1091250D01*
X22415250D01*
G01X22352260Y937800D02*
X22257770D01*
G01X22564860Y773750D02*
Y1091250D01*
X22643590D01*
X22675090Y1075370D01*
X22698710Y1054210D01*
X22718400Y1022460D01*
X22734150Y985410D01*
X22738080Y932500D01*
X22734150Y879580D01*
X22718400Y842540D01*
X22698710Y810780D01*
X22675090Y789620D01*
X22643590Y773750D01*
X22564860D01*
G01X20997930Y1408750D02*
Y1726250D01*
X21092420D01*
X21123910Y1710370D01*
X21147540Y1673330D01*
X21155410Y1631000D01*
X21147540Y1588670D01*
X21127850Y1556910D01*
X21092420Y1541030D01*
X20997930D01*
G01X21312890Y1726250D02*
Y1408750D01*
X21470370D01*
G01X21608160D02*
X21706590Y1726250D01*
X21805020Y1408750D01*
G01X21769580Y1519870D02*
X21643590D01*
G01X22021550Y1726250D02*
Y1408750D01*
G01X21931000Y1726250D02*
X22112100D01*
G01X22415250Y1408750D02*
X22257770D01*
Y1726250D01*
X22415250D01*
G01X22352260Y1572800D02*
X22257770D01*
G01X22564860Y1408750D02*
Y1726250D01*
X22643590D01*
X22675090Y1710370D01*
X22698710Y1689210D01*
X22718400Y1657460D01*
X22734150Y1620410D01*
X22738080Y1567500D01*
X22734150Y1514580D01*
X22718400Y1477540D01*
X22698710Y1445780D01*
X22675090Y1424620D01*
X22643590Y1408750D01*
X22564860D01*
G01X20997930Y2043750D02*
Y2361250D01*
X21092420D01*
X21123910Y2345370D01*
X21147540Y2308330D01*
X21155410Y2266000D01*
X21147540Y2223670D01*
X21127850Y2191910D01*
X21092420Y2176030D01*
X20997930D01*
G01X21312890Y2361250D02*
Y2043750D01*
X21470370D01*
G01X21608160D02*
X21706590Y2361250D01*
X21805020Y2043750D01*
G01X21769580Y2154870D02*
X21643590D01*
G01X22021550Y2361250D02*
Y2043750D01*
G01X21931000Y2361250D02*
X22112100D01*
G01X22415250Y2043750D02*
X22257770D01*
Y2361250D01*
X22415250D01*
G01X22352260Y2207800D02*
X22257770D01*
G01X22564860Y2043750D02*
Y2361250D01*
X22643590D01*
X22675090Y2345370D01*
X22698710Y2324210D01*
X22718400Y2292460D01*
X22734150Y2255410D01*
X22738080Y2202500D01*
X22734150Y2149580D01*
X22718400Y2112540D01*
X22698710Y2080780D01*
X22675090Y2059620D01*
X22643590Y2043750D01*
X22564860D01*
G01X20997930Y2678750D02*
Y2996250D01*
X21092420D01*
X21123910Y2980370D01*
X21147540Y2943330D01*
X21155410Y2901000D01*
X21147540Y2858670D01*
X21127850Y2826910D01*
X21092420Y2811030D01*
X20997930D01*
G01X21312890Y2996250D02*
Y2678750D01*
X21470370D01*
G01X21608160D02*
X21706590Y2996250D01*
X21805020Y2678750D01*
G01X21769580Y2789870D02*
X21643590D01*
G01X22021550Y2996250D02*
Y2678750D01*
G01X21931000Y2996250D02*
X22112100D01*
G01X22415250Y2678750D02*
X22257770D01*
Y2996250D01*
X22415250D01*
G01X22352260Y2842800D02*
X22257770D01*
G01X22564860Y2678750D02*
Y2996250D01*
X22643590D01*
X22675090Y2980370D01*
X22698710Y2959210D01*
X22718400Y2927460D01*
X22734150Y2890410D01*
X22738080Y2837500D01*
X22734150Y2784580D01*
X22718400Y2747540D01*
X22698710Y2715780D01*
X22675090Y2694620D01*
X22643590Y2678750D01*
X22564860D01*
G01X20997930Y3313750D02*
Y3631250D01*
X21092420D01*
X21123910Y3615370D01*
X21147540Y3578330D01*
X21155410Y3536000D01*
X21147540Y3493670D01*
X21127850Y3461910D01*
X21092420Y3446030D01*
X20997930D01*
G01X21312890Y3631250D02*
Y3313750D01*
X21470370D01*
G01X21608160D02*
X21706590Y3631250D01*
X21805020Y3313750D01*
G01X21769580Y3424870D02*
X21643590D01*
G01X22021550Y3631250D02*
Y3313750D01*
G01X21931000Y3631250D02*
X22112100D01*
G01X22415250Y3313750D02*
X22257770D01*
Y3631250D01*
X22415250D01*
G01X22352260Y3477800D02*
X22257770D01*
G01X22564860Y3313750D02*
Y3631250D01*
X22643590D01*
X22675090Y3615370D01*
X22698710Y3594210D01*
X22718400Y3562460D01*
X22734150Y3525410D01*
X22738080Y3472500D01*
X22734150Y3419580D01*
X22718400Y3382540D01*
X22698710Y3350780D01*
X22675090Y3329620D01*
X22643590Y3313750D01*
X22564860D01*
G01X20997930Y3948750D02*
Y4266250D01*
X21092420D01*
X21123910Y4250370D01*
X21147540Y4213330D01*
X21155410Y4171000D01*
X21147540Y4128670D01*
X21127850Y4096910D01*
X21092420Y4081030D01*
X20997930D01*
G01X21312890Y4266250D02*
Y3948750D01*
X21470370D01*
G01X21608160D02*
X21706590Y4266250D01*
X21805020Y3948750D01*
G01X21769580Y4059870D02*
X21643590D01*
G01X22021550Y4266250D02*
Y3948750D01*
G01X21931000Y4266250D02*
X22112100D01*
G01X22415250Y3948750D02*
X22257770D01*
Y4266250D01*
X22415250D01*
G01X22352260Y4112800D02*
X22257770D01*
G01X22564860Y3948750D02*
Y4266250D01*
X22643590D01*
X22675090Y4250370D01*
X22698710Y4229210D01*
X22718400Y4197460D01*
X22734150Y4160410D01*
X22738080Y4107500D01*
X22734150Y4054580D01*
X22718400Y4017540D01*
X22698710Y3985780D01*
X22675090Y3964620D01*
X22643590Y3948750D01*
X22564860D01*
G01X20997930Y4583750D02*
Y4901250D01*
X21092420D01*
X21123910Y4885370D01*
X21147540Y4848330D01*
X21155410Y4806000D01*
X21147540Y4763670D01*
X21127850Y4731910D01*
X21092420Y4716030D01*
X20997930D01*
G01X21312890Y4901250D02*
Y4583750D01*
X21470370D01*
G01X21608160D02*
X21706590Y4901250D01*
X21805020Y4583750D01*
G01X21769580Y4694870D02*
X21643590D01*
G01X22021550Y4901250D02*
Y4583750D01*
G01X21931000Y4901250D02*
X22112100D01*
G01X22415250Y4583750D02*
X22257770D01*
Y4901250D01*
X22415250D01*
G01X22352260Y4747800D02*
X22257770D01*
G01X22564860Y4583750D02*
Y4901250D01*
X22643590D01*
X22675090Y4885370D01*
X22698710Y4864210D01*
X22718400Y4832460D01*
X22734150Y4795410D01*
X22738080Y4742500D01*
X22734150Y4689580D01*
X22718400Y4652540D01*
X22698710Y4620780D01*
X22675090Y4599620D01*
X22643590Y4583750D01*
X22564860D01*
G01X20997930Y5218750D02*
Y5536250D01*
X21092420D01*
X21123910Y5520370D01*
X21147540Y5483330D01*
X21155410Y5441000D01*
X21147540Y5398670D01*
X21127850Y5366910D01*
X21092420Y5351030D01*
X20997930D01*
G01X21312890Y5536250D02*
Y5218750D01*
X21470370D01*
G01X21608160D02*
X21706590Y5536250D01*
X21805020Y5218750D01*
G01X21769580Y5329870D02*
X21643590D01*
G01X22021550Y5536250D02*
Y5218750D01*
G01X21931000Y5536250D02*
X22112100D01*
G01X22415250Y5218750D02*
X22257770D01*
Y5536250D01*
X22415250D01*
G01X22352260Y5382800D02*
X22257770D01*
G01X22564860Y5218750D02*
Y5536250D01*
X22643590D01*
X22675090Y5520370D01*
X22698710Y5499210D01*
X22718400Y5467460D01*
X22734150Y5430410D01*
X22738080Y5377500D01*
X22734150Y5324580D01*
X22718400Y5287540D01*
X22698710Y5255780D01*
X22675090Y5234620D01*
X22643590Y5218750D01*
X22564860D01*
G01X24147530Y-496250D02*
Y-178750D01*
X24100290Y-242250D01*
G01Y-496250D02*
X24194770D01*
G01X24462490D02*
X24490050Y-490960D01*
X24521540Y-475090D01*
X24541230Y-448640D01*
X24549100Y-411580D01*
X24541230Y-374550D01*
X24517610Y-342800D01*
X24482170Y-326910D01*
X24442810D01*
X24419180Y-316330D01*
X24399490Y-289880D01*
X24391620Y-252840D01*
X24403440Y-215790D01*
X24430990Y-189330D01*
X24462490Y-178750D01*
X24493980Y-189330D01*
X24521540Y-215790D01*
X24533360Y-252840D01*
X24525480Y-289880D01*
X24505800Y-316330D01*
X24482170Y-326910D01*
X24442810D01*
X24407370Y-342800D01*
X24383750Y-374550D01*
X24375880Y-411580D01*
X24383750Y-448640D01*
X24403440Y-475090D01*
X24434930Y-490960D01*
X24462490Y-496250D01*
G01X24710520Y-459220D02*
X24738080Y-485670D01*
X24769570Y-496250D01*
X24801070Y-485670D01*
X24828630Y-453930D01*
X24848320Y-406290D01*
X24856190Y-358670D01*
Y-300460D01*
X24848320Y-252840D01*
X24828630Y-210500D01*
X24805010Y-189330D01*
X24777450Y-178750D01*
X24745950Y-189330D01*
X24722330Y-210500D01*
X24706580Y-242250D01*
X24698710Y-284590D01*
X24706580Y-321620D01*
X24726270Y-358670D01*
X24749890Y-379840D01*
X24777450Y-385130D01*
X24808940Y-374550D01*
X24832570Y-348090D01*
X24856190Y-300460D01*
G01X24147530Y3948750D02*
Y4266250D01*
X24100290Y4202750D01*
G01Y3948750D02*
X24194770D01*
G01X24462490Y4266250D02*
X24430990Y4255670D01*
X24407370Y4229210D01*
X24391620Y4197460D01*
X24379810Y4155120D01*
X24375880Y4107500D01*
X24379810Y4059870D01*
X24391620Y4017540D01*
X24407370Y3985780D01*
X24430990Y3959330D01*
X24462490Y3948750D01*
X24493980Y3959330D01*
X24517610Y3985780D01*
X24533360Y4017540D01*
X24545170Y4059870D01*
X24549100Y4107500D01*
X24545170Y4155120D01*
X24533360Y4197460D01*
X24517610Y4229210D01*
X24493980Y4255670D01*
X24462490Y4266250D01*
G01X24702640Y4081030D02*
X24730210Y4118090D01*
X24753830Y4139250D01*
X24785330Y4149830D01*
X24812890Y4139250D01*
X24832570Y4118090D01*
X24848320Y4086330D01*
X24852260Y4049290D01*
X24848320Y4017540D01*
X24832570Y3985780D01*
X24808940Y3959330D01*
X24781390Y3948750D01*
X24749890Y3959330D01*
X24722330Y3991070D01*
X24706580Y4038710D01*
X24702640Y4091620D01*
X24710520Y4160410D01*
X24722330Y4197460D01*
X24742010Y4234500D01*
X24769570Y4260960D01*
X24797130Y4266250D01*
X24824690Y4255670D01*
X24844380Y4229210D01*
G01X24147530Y5218750D02*
X24116030Y5224040D01*
X24088480Y5245200D01*
X24064850Y5276960D01*
X24049100Y5314000D01*
X24041230Y5356330D01*
Y5398670D01*
X24049100Y5441000D01*
X24064850Y5478040D01*
X24088480Y5509790D01*
X24116030Y5530960D01*
X24147530Y5536250D01*
X24179020Y5530960D01*
X24206580Y5509790D01*
X24230210Y5478040D01*
X24245960Y5441000D01*
X24253830Y5398670D01*
Y5356330D01*
X24245960Y5314000D01*
X24230210Y5276960D01*
X24206580Y5245200D01*
X24179020Y5224040D01*
X24147530Y5218750D01*
G01X24179020Y5303420D02*
X24226270Y5218750D01*
G01X24462490Y5536250D02*
Y5218750D01*
G01X24371940Y5536250D02*
X24553040D01*
G01X24777450Y5218750D02*
Y5361620D01*
X24698710Y5536250D01*
G01X24856190D02*
X24777450Y5361620D01*
G01X24462490Y138750D02*
Y456250D01*
X24415250Y392750D01*
G01Y138750D02*
X24509730D01*
G01X24387680Y1038330D02*
X24411310Y1070080D01*
X24438870Y1085960D01*
X24470370Y1091250D01*
X24509730Y1080670D01*
X24537300Y1054210D01*
X24545170Y1022460D01*
X24541230Y990700D01*
X24525480Y964250D01*
X24446740Y911330D01*
X24411310Y874290D01*
X24387680Y821360D01*
X24379810Y773750D01*
X24545170D01*
G01X24387680Y1673330D02*
X24411310Y1705080D01*
X24438870Y1720960D01*
X24470370Y1726250D01*
X24509730Y1715670D01*
X24537300Y1689210D01*
X24545170Y1657460D01*
X24541230Y1625700D01*
X24525480Y1599250D01*
X24446740Y1546330D01*
X24411310Y1509290D01*
X24387680Y1456360D01*
X24379810Y1408750D01*
X24545170D01*
G01X24387680Y2308330D02*
X24411310Y2340080D01*
X24438870Y2355960D01*
X24470370Y2361250D01*
X24509730Y2350670D01*
X24537300Y2324210D01*
X24545170Y2292460D01*
X24541230Y2260700D01*
X24525480Y2234250D01*
X24446740Y2181330D01*
X24411310Y2144290D01*
X24387680Y2091360D01*
X24379810Y2043750D01*
X24545170D01*
G01X24509730Y2678750D02*
Y2996250D01*
X24364060Y2768710D01*
X24560920D01*
G01X24305010Y3313750D02*
Y3631250D01*
X24257770Y3567750D01*
G01Y3313750D02*
X24352250D01*
G01X24545160Y3446030D02*
X24572730Y3483090D01*
X24596350Y3504250D01*
X24627850Y3514830D01*
X24655410Y3504250D01*
X24675090Y3483090D01*
X24690840Y3451330D01*
X24694780Y3414290D01*
X24690840Y3382540D01*
X24675090Y3350780D01*
X24651460Y3324330D01*
X24623910Y3313750D01*
X24592410Y3324330D01*
X24564850Y3356070D01*
X24549100Y3403710D01*
X24545160Y3456620D01*
X24553040Y3525410D01*
X24564850Y3562460D01*
X24584530Y3599500D01*
X24612090Y3625960D01*
X24639650Y3631250D01*
X24667210Y3620670D01*
X24686900Y3594210D01*
G01X24218400Y4631360D02*
X24242010Y4604910D01*
X24269570Y4589040D01*
X24305010Y4583750D01*
X24340450Y4594330D01*
X24368000Y4615490D01*
X24387690Y4652540D01*
X24391620Y4694870D01*
X24383750Y4737200D01*
X24364060Y4763670D01*
X24336500Y4784830D01*
X24308950Y4790120D01*
X24281390Y4784830D01*
X24245960Y4763670D01*
X24257770Y4901250D01*
X24364060D01*
G01X24545160Y4716030D02*
X24572730Y4753090D01*
X24596350Y4774250D01*
X24627850Y4784830D01*
X24655410Y4774250D01*
X24675090Y4753090D01*
X24690840Y4721330D01*
X24694780Y4684290D01*
X24690840Y4652540D01*
X24675090Y4620780D01*
X24651460Y4594330D01*
X24623910Y4583750D01*
X24592410Y4594330D01*
X24564850Y4626070D01*
X24549100Y4673710D01*
X24545160Y4726620D01*
X24553040Y4795410D01*
X24564850Y4832460D01*
X24584530Y4869500D01*
X24612090Y4895960D01*
X24639650Y4901250D01*
X24667210Y4890670D01*
X24686900Y4864210D01*
G01X-250000Y0D02*
X-1490000D01*
G01X790000Y5400000D02*
X-1490000D01*
G01X-1240000Y2344260D02*
Y0D01*
G01X-1302500Y400000D02*
X-1240000Y0D01*
X-1177500Y400000D01*
X-1302500D01*
G01X-1240000Y2835740D02*
Y5400000D01*
G01X-1177500Y5000000D02*
X-1240000Y5400000D01*
X-1302500Y5000000D01*
X-1177500D01*
G01X110000Y360000D02*
X-770000D01*
G01X7890000Y5040000D02*
X-770000D01*
G01X-520000Y2363930D02*
Y360000D01*
G01X-582500Y760000D02*
X-520000Y360000D01*
X-457500Y760000D01*
X-582500D01*
G01X-520000Y2855410D02*
Y5040000D01*
G01X-457500Y4640000D02*
X-520000Y5040000D01*
X-582500Y4640000D01*
X-457500D01*
G01X0Y-250000D02*
Y-1280000D01*
G01X3683140Y-1030000D02*
X0D01*
G01X400000Y-967500D02*
X0Y-1030000D01*
X400000Y-1092500D01*
Y-967500D01*
G01X360000Y110000D02*
Y-750000D01*
G01X3502640Y-500000D02*
X360000D01*
G01X760000Y-437500D02*
X360000Y-500000D01*
X760000Y-562500D01*
Y-437500D01*
G01X4316860Y-1030000D02*
X8500000D01*
G01X4517360Y-500000D02*
X8140000D01*
G01X7740000Y-562500D02*
X8140000Y-500000D01*
X7740000Y-437500D01*
Y-562500D01*
G01X8100000Y-1092500D02*
X8500000Y-1030000D01*
X8100000Y-967500D01*
Y-1092500D01*
G01X8140000Y110000D02*
Y-750000D01*
G01X8500000Y420000D02*
Y-1280000D01*
G01X9620000Y-20000D02*
Y6980000D01*
X25446740D01*
Y-20000D01*
X9620000D01*
G01Y615000D02*
X25446740D01*
G01X9620000Y1250000D02*
X25446740D01*
G01X9620000Y1885000D02*
X25446740D01*
G01X9620000Y2520000D02*
X25446740D01*
G01X9620000Y3155000D02*
X25446740D01*
G01X9620000Y3790000D02*
X25446740D01*
G01X9620000Y4425000D02*
X25446740D01*
G01X9620000Y5060000D02*
X25446740D01*
G01X9620000Y5695000D02*
X25446740D01*
G01X9620000Y6330000D02*
X25446740D01*
G01X11903460Y5695000D02*
Y-20000D01*
G01X17021560Y5695000D02*
Y-20000D01*
G01X20249900Y5695000D02*
Y-20000D01*
G01X23478240Y5695000D02*
Y-20000D01*
M02*
