M48
METRIC,TZ
T01C.254
T02C.3048
T03C.8
T04C3.3
;LEADER: 12 
;HEADER: 
;CODE  : ASCII 
;FILE  : HY_SW3518S_V10-1-2.drl for board H:/github/MBED-TOOLS/HARDWARE/HY_SW3518S_V10/PCB/#Taaaahf07248.tmp ... layers TOP and BOTTOM
;T01 Holesize 1. = 0.254000 Tolerance = +0.000000/-0.000000 PLATED MM Quantity = 56
;T02 Holesize 2. = 0.304800 Tolerance = +0.000000/-0.000000 PLATED MM Quantity = 106
;T03 Holesize 3. = 0.800000 Tolerance = +0.000000/-0.000000 PLATED MM Quantity = 16
;T04 Holesize 4. = 3.300000 Tolerance = +0.000000/-0.000000 PLATED MM Quantity = 4
%
G90
T01
X3520000Y330000
X3620000Y330000
X3720000Y330000
X3520000Y530000
X3620000Y530000
X3720000Y530000
X3520000Y730000
X3620000Y730000
X3720000Y730000
X3520000Y920000
X3620000Y920000
X3720000Y920000
X3520000Y1120000
X3620000Y1120000
X3720000Y1120000
X3520000Y1320000
X3620000Y1320000
X3720000Y1320000
X3936400Y1816400
X3957500Y2937500
X3980000Y3230000
X3490000Y3890000
X3690000Y3890000
X3890000Y3890000
X4090000Y3890000
X4560000Y3950000
X3490000Y3990000
X3690000Y3990000
X3890000Y3990000
X4090000Y3990000
X3490000Y4090000
X3690000Y4090000
X3890000Y4090000
X4090000Y4090000
X4623500Y3950000
X5620000Y3090000
X5700000Y3030000
X5950000Y2990000
X5870000Y2990000
X5230000Y2840000
X5140000Y2840000
X5300000Y2630000
X5360000Y2490000
X5420000Y1820000
X5480000Y1740000
X4640000Y360000
X4576500Y360000
X6283800Y2043800
X6180000Y2760000
X6120000Y2810000
X6120000Y2873500
X6422500Y4267500
X8120000Y3580000
X7900000Y3580000
X7810000Y2540000
X8320000Y2500000
T02
X2415180Y192730
X2415180Y592730
X2415180Y992730
X2815180Y192730
X2815180Y592730
X2815180Y992730
X3215180Y192730
X3215180Y592730
X3215180Y992730
X4330000Y90000
X4330000Y660000
X4330000Y910000
X4730000Y90000
X4730000Y660000
X5564550Y1078570
X6204550Y1098570
X6544550Y1098570
X7320000Y600000
X7330000Y180000
X7874410Y1145530
X8364410Y1135530
X8364410Y1935530
X8364410Y1535530
X7874410Y1945530
X7874410Y1545530
X6761430Y2234550
X6761430Y1894550
X6544550Y1498570
X6361430Y2234550
X6361430Y1894550
X6204550Y1498570
X6060000Y1920000
X5700000Y2310000
X5700000Y1920000
X5564550Y1478570
X5560000Y2310000
X5171430Y2254550
X4771430Y2254550
X4441430Y2254550
X4041430Y2254550
X3215180Y1792730
X3215180Y1392730
X2815180Y1792730
X2815180Y1392730
X2415180Y1792730
X2415180Y1392730
X4031430Y3144550
X4361430Y3454550
X4431430Y3144550
X4761430Y3144550
X4761430Y3454550
X5161430Y3144550
X5201430Y3454550
X5601430Y3454550
X5670000Y2610000
X5670000Y2690000
X5670000Y2770000
X5750000Y2610000
X5751100Y2690000
X5750000Y2770000
X5830000Y2610000
X5830000Y2690000
X5830000Y2770000
X5940000Y3460000
X6390000Y2980000
X6469500Y3235880
X6510000Y2880000
X6869500Y3235880
X7194410Y2565530
X7250000Y3240000
X7610000Y3230000
X7684410Y2555530
X8370000Y3460000
X8370000Y3990000
X7571430Y4684550
X7171430Y4684550
X6771430Y4684550
X6371430Y4684550
X5971430Y4684550
X5571430Y4684550
X5171430Y4684550
X4771430Y4684550
X4620000Y4130000
X4371430Y4684550
X3971430Y4684550
X3571430Y4684550
X3171430Y4684550
X3142260Y3921330
X2771430Y4684550
X2742260Y3921330
X2371430Y4684550
X2342260Y3921330
X2371430Y5084550
X2771430Y5084550
X3171430Y5084550
X3571430Y5084550
X3971430Y5084550
X4371430Y5084550
X4771430Y5084550
X5171430Y5084550
X5571430Y5084550
X5971430Y5084550
X6371430Y5084550
X6771430Y5084550
X7171430Y5084550
X7571430Y5084550
T03
X6860000Y485000
X6860000Y235000
X5410000Y485000
X5410000Y235000
X4970000Y1435000
X4970000Y1185000
X4290000Y1435000
X4290000Y1185000
X2940000Y1948900
X2940000Y2248900
X2940000Y3070000
X2940000Y3370000
X5410000Y3825000
X5410000Y4075000
X6860000Y3825000
X6860000Y4075000
T04
X360000Y360000
X360000Y5040000
X8140000Y5040000
X8140000Y360000
M30
