G04 ================== begin FILE IDENTIFICATION RECORD ==================*
G04 Layout Name:  H:/github/MBED-TOOLS/HARDWARE/HY_SW3518S_V10/PCB/HY_SW3518S_V10.brd*
G04 Film Name:    SolderMask_Top*
G04 File Format:  Gerber RS274X*
G04 File Origin:  Cadence Allegro 17.2-S067*
G04 Origin Date:  Fri Jan 29 11:43:47 2021*
G04 *
G04 Layer:  PIN/SOLDERMASK_TOP*
G04 Layer:  PACKAGE GEOMETRY/SOLDERMASK_TOP*
G04 Layer:  BOARD GEOMETRY/SOLDERMASK_TOP*
G04 *
G04 Offset:    (0.0000 0.0000)*
G04 Mirror:    No*
G04 Mode:      Positive*
G04 Rotation:  0*
G04 FullContactRelief:  No*
G04 UndefLineWidth:     0.1524*
G04 ================== end FILE IDENTIFICATION RECORD ====================*
%FSLAX55Y55*MOMM*%
%IR0*IPPOS*OFA0.00000B0.00000*MIA0B0*SFA1.00000B1.00000*%
%ADD33R,1.3X.4*%
%ADD32R,1.3X.7*%
%AMMACRO27*
4,1,20,-1.885,-2.4,
-1.885,-2.255,
-2.435,-2.255,
-2.435,-1.555,
-1.885,-1.555,
-1.885,-.985,
-2.435,-.985,
-2.435,-.285,
-1.885,-.285,
-1.885,.285,
-2.435,.285,
-2.435,.985,
-1.885,.985,
-1.885,1.555,
-2.435,1.555,
-2.435,2.255,
-1.885,2.255,
-1.885,2.4,
2.435,2.4,
2.435,-2.4,
-1.885,-2.4,
0.0*
%
%ADD27MACRO27*%
%AMMACRO19*
4,1,20,-2.4,1.885,
-2.255,1.885,
-2.255,2.435,
-1.555,2.435,
-1.555,1.885,
-.985,1.885,
-.985,2.435,
-.285,2.435,
-.285,1.885,
.285,1.885,
.285,2.435,
.985,2.435,
.985,1.885,
1.555,1.885,
1.555,2.435,
2.255,2.435,
2.255,1.885,
2.4,1.885,
2.4,-2.435,
-2.4,-2.435,
-2.4,1.885,
0.0*
%
%ADD19MACRO19*%
%ADD23R,.9X.9*%
%ADD31O,2.2X1.1*%
%ADD35O,1.7X1.1*%
%ADD34R,1.X1.4*%
%ADD29R,3.1X1.3*%
%ADD14R,5.1X5.1*%
%ADD16R,1.5X1.6*%
%ADD26R,2.5X2.5*%
%ADD13O,4.15X2.15*%
%ADD30R,5.X2.8*%
%ADD25R,.8X.3*%
%ADD12O,2.15X4.15*%
%ADD11C,1.1*%
%ADD24R,.3X.8*%
%ADD20R,1.9X3.3*%
%ADD22R,1.9X1.7*%
%ADD17C,1.4*%
%ADD15R,1.7X1.9*%
%ADD28R,.8X.7*%
%ADD18R,.7X.8*%
%ADD10C,7.*%
%ADD21R,3.65X2.65*%
G75*
%LPD*%
G75*
G36*
G01X510000Y980000D02*
G03I-150000J0D01*
G37*
G36*
G01Y4441100D02*
G03I-150000J0D01*
G37*
G36*
G01X7710000Y250000D02*
G03I-150000J0D01*
G37*
G36*
G01X8290000Y4441100D02*
G03I-150000J0D01*
G37*
G54D10*
X360000Y360000D03*
Y5040000D03*
X8140000Y360000D03*
Y5040000D03*
G54D20*
X4280000Y360000D03*
Y3950000D03*
X4920000Y360000D03*
Y3950000D03*
G54D11*
X360000Y980000D03*
Y4441100D03*
X7560000Y250000D03*
X8140000Y4441100D03*
G54D21*
X4540000Y1890000D03*
Y2930000D03*
G54D12*
X810000Y2700000D03*
X1410000D03*
G54D30*
X7370000Y880490D03*
Y2275490D03*
G54D22*
X5410000Y1980000D03*
Y2260000D03*
G54D13*
X1130000Y2220000D03*
G54D31*
X7864000Y3292530D03*
Y4156530D03*
G54D14*
X2010000Y2505000D03*
G54D23*
X5327300Y2951900D03*
X5174900D03*
X5750000Y2043800D03*
Y2196200D03*
X5608100D03*
Y2043800D03*
X5660000Y3346200D03*
Y3193800D03*
X5520000Y3346200D03*
Y3193800D03*
X6031100Y2043800D03*
Y2196200D03*
X5890000Y2043800D03*
Y2196200D03*
X6170000Y2043800D03*
Y2196200D03*
X5950000Y3193800D03*
Y3346200D03*
X6233800Y2875700D03*
X6386200D03*
X7812700Y2631900D03*
X7965100D03*
X7812700Y2840000D03*
X7965100D03*
G54D32*
X7760000Y3484530D03*
Y3404530D03*
Y4044530D03*
Y3964530D03*
G54D15*
X1840000Y2940000D03*
X2120000D03*
G54D24*
X5791100Y2495000D03*
X5751100D03*
X5711100D03*
X5671100D03*
X5631100D03*
Y2885000D03*
X5671100D03*
X5711100D03*
X5751100D03*
X5791100D03*
X5871100Y2495000D03*
X5831100D03*
Y2885000D03*
X5871100D03*
G54D33*
X7760000Y3849530D03*
Y3799530D03*
Y3749530D03*
Y3699530D03*
Y3649530D03*
Y3599530D03*
Y3549530D03*
Y3899530D03*
G54D25*
X5556100Y2570000D03*
Y2610000D03*
Y2650000D03*
Y2690000D03*
Y2730000D03*
Y2770000D03*
Y2810000D03*
X5946100Y2730000D03*
Y2690000D03*
Y2650000D03*
Y2610000D03*
Y2570000D03*
Y2810000D03*
Y2770000D03*
G54D16*
X2395000Y2396000D03*
Y2604000D03*
G54D34*
X8120000Y2631900D03*
X8320000D03*
X8120000Y2840000D03*
X8320000D03*
G54D17*
X2940000Y1948900D03*
Y2248900D03*
Y3070000D03*
Y3370000D03*
X4290000Y1185000D03*
Y1435000D03*
X4970000Y1185000D03*
Y1435000D03*
X5410000Y485000D03*
Y235000D03*
Y3825000D03*
Y4075000D03*
X6860000Y485000D03*
Y235000D03*
Y3825000D03*
Y4075000D03*
G54D26*
X5751100Y2690000D03*
G54D35*
X8282000Y3292530D03*
Y4156530D03*
G54D18*
X3469500Y1816400D03*
Y2937500D03*
X3850500Y1816400D03*
X3723500D03*
X3596500D03*
X3850500Y2937500D03*
X3723500D03*
X3596500D03*
G54D27*
X6056500Y360000D03*
Y3950000D03*
G54D28*
X6422500Y423500D03*
Y296500D03*
Y169500D03*
Y550500D03*
Y3886500D03*
Y3759500D03*
Y4140500D03*
Y4013500D03*
G54D19*
X3660000Y2182400D03*
Y3303500D03*
G54D29*
X7020000Y1227990D03*
Y1477990D03*
Y1677990D03*
Y1927990D03*
M02*
