G04 ================== begin FILE IDENTIFICATION RECORD ==================*
G04 Layout Name:  H:/github/MBED-TOOLS/HARDWARE/HY_BQ24090_V10/PCB/HY_BQ24090_V10.brd*
G04 Film Name:    Drill_Legend*
G04 File Format:  Gerber RS274X*
G04 File Origin:  Cadence Allegro 17.2-S067*
G04 Origin Date:  Thu Dec 17 17:17:56 2020*
G04 *
G04 Layer:  MANUFACTURING/NCLEGEND-1-2*
G04 Layer:  MANUFACTURING/NCDRILL_LEGEND*
G04 Layer:  MANUFACTURING/NCDRILL_FIGURE*
G04 Layer:  BOARD GEOMETRY/DIMENSION*
G04 *
G04 Offset:    (0.0000 0.0000)*
G04 Mirror:    No*
G04 Mode:      Positive*
G04 Rotation:  0*
G04 FullContactRelief:  No*
G04 UndefLineWidth:     0.1524*
G04 ================== end FILE IDENTIFICATION RECORD ====================*
%FSLAX55Y55*MOMM*%
%IR0*IPPOS*OFA0.00000B0.00000*MIA0B0*SFA1.00000B1.00000*%
%AMMACRO10*
1,1,.1524,.127,0.0*
20,1,.1524,.127,0.0,-.127,0.0,0.0*
1,1,.1524,-.127,0.0*
1,1,.1524,0.0,.127*
20,1,.1524,0.0,.127,0.0,-.127,0.0*
1,1,.1524,0.0,-.127*
%
%ADD10MACRO10*%
%ADD11C,.1524*%
G75*
%LPD*%
G75*
G54D10*
X80000Y90000D03*
Y260000D03*
Y980000D03*
X330000Y290000D03*
Y460000D03*
X510000Y80000D03*
X680000D03*
X690000Y800000D03*
X760000D03*
Y730000D03*
X690000D03*
X800000Y1000000D03*
Y910000D03*
X600000Y1000000D03*
X1040000Y90000D03*
X1070000Y460000D03*
X1130000D03*
X1190000D03*
X1040000Y260000D03*
X1130000Y530000D03*
X1190000D03*
X1070000D03*
Y600000D03*
X1130000D03*
X1190000D03*
X1070000Y710000D03*
X1190000D03*
X1130000Y770000D03*
Y850000D03*
X1000000Y910000D03*
Y1000000D03*
X1240000Y90000D03*
X1410000D03*
X1290000Y350000D03*
X1400000D03*
X1600000Y470000D03*
X1710000D03*
X1970000Y700000D03*
X1840000Y860000D03*
X3891730Y592500D03*
G54D11*
G01X-835750Y424750D02*
Y615250D01*
X-864200Y577150D01*
G01Y424750D02*
X-807310D01*
G01X-645250Y615250D02*
X-664220Y608900D01*
X-678440Y593020D01*
X-687920Y573980D01*
X-695030Y548570D01*
X-697400Y520000D01*
X-695030Y491420D01*
X-687920Y466020D01*
X-678440Y446970D01*
X-664220Y431100D01*
X-645250Y424750D01*
X-626290Y431100D01*
X-612060Y446970D01*
X-602580Y466020D01*
X-595470Y491420D01*
X-593100Y520000D01*
X-595470Y548570D01*
X-602580Y573980D01*
X-612060Y593020D01*
X-626290Y608900D01*
X-645250Y615250D01*
G01X-454750Y418400D02*
X-459490Y421580D01*
Y427920D01*
X-454750Y431100D01*
X-450010Y427920D01*
Y421580D01*
X-454750Y418400D01*
G01X-309290Y504120D02*
X-292700Y526350D01*
X-278470Y539050D01*
X-259510Y545400D01*
X-242910Y539050D01*
X-231060Y526350D01*
X-221580Y507300D01*
X-219210Y485070D01*
X-221580Y466020D01*
X-231060Y446970D01*
X-245290Y431100D01*
X-261880Y424750D01*
X-280840Y431100D01*
X-297440Y450140D01*
X-306920Y478730D01*
X-309290Y510470D01*
X-304550Y551750D01*
X-297440Y573980D01*
X-285590Y596200D01*
X-268990Y612080D01*
X-252400Y615250D01*
X-235800Y608900D01*
X-223950Y593020D01*
G01X789210Y-336500D02*
X803430Y-317450D01*
X820030Y-307920D01*
X838990Y-304750D01*
X862700Y-311100D01*
X879290Y-326980D01*
X884030Y-346020D01*
X881660Y-365080D01*
X872180Y-380950D01*
X824770Y-412700D01*
X803430Y-434930D01*
X789210Y-466680D01*
X784470Y-495250D01*
X884030D01*
G01X979710Y-336500D02*
X993930Y-317450D01*
X1010530Y-307920D01*
X1029490Y-304750D01*
X1053200Y-311100D01*
X1069790Y-326980D01*
X1074530Y-346020D01*
X1072160Y-365080D01*
X1062680Y-380950D01*
X1015270Y-412700D01*
X993930Y-434930D01*
X979710Y-466680D01*
X974970Y-495250D01*
X1074530D01*
G01X1215250Y-501600D02*
X1210510Y-498420D01*
Y-492080D01*
X1215250Y-488900D01*
X1219990Y-492080D01*
Y-498420D01*
X1215250Y-501600D01*
G01X1434200Y-495250D02*
Y-304750D01*
X1346480Y-441270D01*
X1465020D01*
G01X3029520Y1068750D02*
Y1386250D01*
X3179140D01*
G01X3124010Y1232800D02*
X3029520D01*
G01X3372050Y1386250D02*
X3466530D01*
G01X3419290D02*
Y1068750D01*
G01X3372050D02*
X3466530D01*
G01X3757870Y1227500D02*
X3836620D01*
Y1132250D01*
X3812990Y1100490D01*
X3785430Y1079330D01*
X3746060Y1068750D01*
X3706690Y1079330D01*
X3679130Y1100490D01*
X3655510Y1132250D01*
X3639760Y1169290D01*
X3631880Y1211620D01*
Y1248670D01*
X3639760Y1280410D01*
X3655510Y1317460D01*
X3679130Y1349210D01*
X3702750Y1370370D01*
X3734250Y1386250D01*
X3761810D01*
X3793300Y1375670D01*
X3816930Y1354500D01*
G01X3962600Y1386250D02*
Y1158710D01*
X3978340Y1111070D01*
X4009840Y1079330D01*
X4049210Y1068750D01*
X4088580Y1079330D01*
X4120080Y1111070D01*
X4135820Y1158710D01*
Y1386250D01*
G01X4285430Y1068750D02*
Y1386250D01*
X4383850D01*
X4415350Y1370370D01*
X4435040Y1349210D01*
X4442910Y1306870D01*
X4435040Y1264540D01*
X4411410Y1238090D01*
X4383850Y1222200D01*
X4285430D01*
G01X4383850D02*
X4442910Y1068750D01*
G01X4757870D02*
X4600390D01*
Y1386250D01*
X4757870D01*
G01X4694880Y1232800D02*
X4600390D01*
G01X4698810Y1703750D02*
X4797240Y2021250D01*
X4895670Y1703750D01*
G01X4860230Y1814870D02*
X4734240D01*
G01X5033460Y2021250D02*
Y1703750D01*
X5190940D01*
G01X5348420Y2021250D02*
Y1703750D01*
X5505900D01*
G01X5970470Y2021250D02*
Y1793710D01*
X5986210Y1746070D01*
X6017710Y1714330D01*
X6057080Y1703750D01*
X6096450Y1714330D01*
X6127950Y1746070D01*
X6143690Y1793710D01*
Y2021250D01*
G01X6281490Y1703750D02*
Y2021250D01*
X6462590Y1703750D01*
Y2021250D01*
G01X6639760D02*
X6734240D01*
G01X6687000D02*
Y1703750D01*
G01X6639760D02*
X6734240D01*
G01X7001960Y2021250D02*
Y1703750D01*
G01X6911410Y2021250D02*
X7092510D01*
G01X7234240Y1746070D02*
X7265740Y1719620D01*
X7301170Y1703750D01*
X7332670D01*
X7364160Y1719620D01*
X7387790Y1746070D01*
X7399600Y1783130D01*
X7391730Y1820160D01*
X7372040Y1851910D01*
X7336600Y1873090D01*
X7289360Y1883670D01*
X7261800Y1904830D01*
X7249990Y1941870D01*
X7257870Y1978920D01*
X7277550Y2005370D01*
X7305110Y2021250D01*
X7332670D01*
X7360230Y2010670D01*
X7383850Y1984210D01*
G01X7848410Y1703750D02*
X7946840Y2021250D01*
X8045270Y1703750D01*
G01X8009830Y1814870D02*
X7883840D01*
G01X8183060Y1703750D02*
Y2021250D01*
X8281480D01*
X8312980Y2005370D01*
X8332670Y1984210D01*
X8340540Y1941870D01*
X8332670Y1899540D01*
X8309040Y1873090D01*
X8281480Y1857200D01*
X8183060D01*
G01X8281480D02*
X8340540Y1703750D01*
G01X8655500D02*
X8498020D01*
Y2021250D01*
X8655500D01*
G01X8592510Y1867800D02*
X8498020D01*
G01X9159440Y2021250D02*
X9253920D01*
G01X9206680D02*
Y1703750D01*
G01X9159440D02*
X9253920D01*
G01X9431090D02*
Y2021250D01*
X9612190Y1703750D01*
Y2021250D01*
G01X10049190Y1703750D02*
Y2021250D01*
X10151560Y1756670D01*
X10253930Y2021250D01*
Y1703750D01*
G01X10419280Y2021250D02*
X10513760D01*
G01X10466520D02*
Y1703750D01*
G01X10419280D02*
X10513760D01*
G01X10702740Y2021250D02*
Y1703750D01*
X10860220D01*
G01X11017700Y2021250D02*
Y1703750D01*
X11175180D01*
G01X11364160Y2021250D02*
X11458640D01*
G01X11411400D02*
Y1703750D01*
G01X11364160D02*
X11458640D01*
G01X11623990D02*
Y2021250D01*
X11726360Y1756670D01*
X11828730Y2021250D01*
Y1703750D01*
G01X12120060D02*
X11962580D01*
Y2021250D01*
X12120060D01*
G01X12057070Y1867800D02*
X11962580D01*
G01X12356280Y2021250D02*
Y1703750D01*
G01X12265730Y2021250D02*
X12446830D01*
G01X12749980Y1703750D02*
X12592500D01*
Y2021250D01*
X12749980D01*
G01X12686990Y1867800D02*
X12592500D01*
G01X12907460Y1703750D02*
Y2021250D01*
X13005880D01*
X13037380Y2005370D01*
X13057070Y1984210D01*
X13064940Y1941870D01*
X13057070Y1899540D01*
X13033440Y1873090D01*
X13005880Y1857200D01*
X12907460D01*
G01X13005880D02*
X13064940Y1703750D01*
G01X13218480Y1746070D02*
X13249980Y1719620D01*
X13285410Y1703750D01*
X13316910D01*
X13348400Y1719620D01*
X13372030Y1746070D01*
X13383840Y1783130D01*
X13375970Y1820160D01*
X13356280Y1851910D01*
X13320840Y1873090D01*
X13273600Y1883670D01*
X13246040Y1904830D01*
X13234230Y1941870D01*
X13242110Y1978920D01*
X13261790Y2005370D01*
X13289350Y2021250D01*
X13316910D01*
X13344470Y2010670D01*
X13368090Y1984210D01*
G01X5025590Y2353750D02*
Y2671250D01*
X5104320D01*
X5135820Y2655370D01*
X5159440Y2634210D01*
X5179130Y2602460D01*
X5194880Y2565410D01*
X5198810Y2512500D01*
X5194880Y2459580D01*
X5179130Y2422540D01*
X5159440Y2390780D01*
X5135820Y2369620D01*
X5104320Y2353750D01*
X5025590D01*
G01X5348420D02*
Y2671250D01*
X5446840D01*
X5478340Y2655370D01*
X5498030Y2634210D01*
X5505900Y2591870D01*
X5498030Y2549540D01*
X5474400Y2523090D01*
X5446840Y2507200D01*
X5348420D01*
G01X5446840D02*
X5505900Y2353750D01*
G01X5694880Y2671250D02*
X5789360D01*
G01X5742120D02*
Y2353750D01*
G01X5694880D02*
X5789360D01*
G01X5978340Y2671250D02*
Y2353750D01*
X6135820D01*
G01X6293300Y2671250D02*
Y2353750D01*
X6450780D01*
G01X7088570Y2644790D02*
X7064950Y2660670D01*
X7037400Y2671250D01*
X7005900D01*
X6970460Y2655370D01*
X6942910Y2628920D01*
X6923220Y2597160D01*
X6907470Y2544250D01*
X6903530Y2496620D01*
X6911410Y2449000D01*
X6923220Y2417250D01*
X6946840Y2385490D01*
X6974400Y2364330D01*
X7001960Y2353750D01*
X7029520D01*
X7057080Y2364330D01*
X7080700Y2380200D01*
X7100390Y2401360D01*
G01X7234240Y2353750D02*
Y2671250D01*
G01X7399600D02*
Y2353750D01*
G01Y2512500D02*
X7234240D01*
G01X7533450Y2353750D02*
X7631880Y2671250D01*
X7730310Y2353750D01*
G01X7694870Y2464870D02*
X7568880D01*
G01X7868100Y2353750D02*
Y2671250D01*
X7966520D01*
X7998020Y2655370D01*
X8017710Y2634210D01*
X8025580Y2591870D01*
X8017710Y2549540D01*
X7994080Y2523090D01*
X7966520Y2507200D01*
X7868100D01*
G01X7966520D02*
X8025580Y2353750D01*
G01X8261800Y2671250D02*
Y2353750D01*
G01X8171250Y2671250D02*
X8352350D01*
G01X8576760Y2343170D02*
X8568880Y2348460D01*
Y2359040D01*
X8576760Y2364330D01*
X8584640Y2359040D01*
Y2348460D01*
X8576760Y2343170D01*
G01Y2486030D02*
X8568880Y2491330D01*
Y2501910D01*
X8576760Y2507200D01*
X8584640Y2501910D01*
Y2491330D01*
X8576760Y2486030D01*
G01X9206680Y2671250D02*
Y2353750D01*
G01X9116130Y2671250D02*
X9297230D01*
G01X9521640Y2353750D02*
X9490140Y2359040D01*
X9462590Y2380200D01*
X9438960Y2411960D01*
X9423210Y2449000D01*
X9415340Y2491330D01*
Y2533670D01*
X9423210Y2576000D01*
X9438960Y2613040D01*
X9462590Y2644790D01*
X9490140Y2665960D01*
X9521640Y2671250D01*
X9553130Y2665960D01*
X9580690Y2644790D01*
X9604320Y2613040D01*
X9620070Y2576000D01*
X9627940Y2533670D01*
Y2491330D01*
X9620070Y2449000D01*
X9604320Y2411960D01*
X9580690Y2380200D01*
X9553130Y2359040D01*
X9521640Y2353750D01*
G01X9757860D02*
Y2671250D01*
X9852350D01*
X9883840Y2655370D01*
X9907470Y2618330D01*
X9915340Y2576000D01*
X9907470Y2533670D01*
X9887780Y2501910D01*
X9852350Y2486030D01*
X9757860D01*
G01X10466520Y2671250D02*
Y2353750D01*
G01X10411400Y2565410D02*
X10521640D01*
G01X10781480Y2353750D02*
X10757860Y2359040D01*
X10734240Y2380200D01*
X10718480Y2417250D01*
X10710610Y2459580D01*
X10718480Y2501910D01*
X10734240Y2538960D01*
X10757860Y2560120D01*
X10781480Y2565410D01*
X10805100Y2560120D01*
X10828720Y2538960D01*
X10844470Y2501910D01*
X10848410Y2459580D01*
X10844470Y2417250D01*
X10828720Y2380200D01*
X10805100Y2359040D01*
X10781480Y2353750D01*
G01X11442890Y2523090D02*
X11458640Y2538960D01*
X11470450Y2565410D01*
X11478330Y2602460D01*
X11470450Y2634210D01*
X11454710Y2655370D01*
X11427150Y2671250D01*
X11320850D01*
Y2353750D01*
X11450770D01*
X11478330Y2374910D01*
X11494080Y2406670D01*
X11501950Y2443710D01*
X11494080Y2480740D01*
X11470450Y2512500D01*
X11442890Y2523090D01*
X11320850D01*
G01X11726360Y2353750D02*
X11694860Y2359040D01*
X11667310Y2380200D01*
X11643680Y2411960D01*
X11627930Y2449000D01*
X11620060Y2491330D01*
Y2533670D01*
X11627930Y2576000D01*
X11643680Y2613040D01*
X11667310Y2644790D01*
X11694860Y2665960D01*
X11726360Y2671250D01*
X11757850Y2665960D01*
X11785410Y2644790D01*
X11809040Y2613040D01*
X11824790Y2576000D01*
X11832660Y2533670D01*
Y2491330D01*
X11824790Y2449000D01*
X11809040Y2411960D01*
X11785410Y2380200D01*
X11757850Y2359040D01*
X11726360Y2353750D01*
G01X12041320Y2671250D02*
Y2353750D01*
G01X11950770Y2671250D02*
X12131870D01*
G01X12356280D02*
Y2353750D01*
G01X12265730Y2671250D02*
X12446830D01*
G01X12671240Y2353750D02*
X12639740Y2359040D01*
X12612190Y2380200D01*
X12588560Y2411960D01*
X12572810Y2449000D01*
X12564940Y2491330D01*
Y2533670D01*
X12572810Y2576000D01*
X12588560Y2613040D01*
X12612190Y2644790D01*
X12639740Y2665960D01*
X12671240Y2671250D01*
X12702730Y2665960D01*
X12730290Y2644790D01*
X12753920Y2613040D01*
X12769670Y2576000D01*
X12777540Y2533670D01*
Y2491330D01*
X12769670Y2449000D01*
X12753920Y2411960D01*
X12730290Y2380200D01*
X12702730Y2359040D01*
X12671240Y2353750D01*
G01X12883830D02*
Y2671250D01*
X12986200Y2406670D01*
X13088570Y2671250D01*
Y2353750D01*
G01X5627940Y1068750D02*
Y1386250D01*
X5777560D01*
G01X5722430Y1232800D02*
X5627940D01*
G01X5970470Y1386250D02*
X6064950D01*
G01X6017710D02*
Y1068750D01*
G01X5970470D02*
X6064950D01*
G01X6242120D02*
Y1386250D01*
X6423220Y1068750D01*
Y1386250D01*
G01X6600390D02*
X6694870D01*
G01X6647630D02*
Y1068750D01*
G01X6600390D02*
X6694870D01*
G01X6879910Y1111070D02*
X6911410Y1084620D01*
X6946840Y1068750D01*
X6978340D01*
X7009830Y1084620D01*
X7033460Y1111070D01*
X7045270Y1148130D01*
X7037400Y1185160D01*
X7017710Y1216910D01*
X6982270Y1238090D01*
X6935030Y1248670D01*
X6907470Y1269830D01*
X6895660Y1306870D01*
X6903540Y1343920D01*
X6923220Y1370370D01*
X6950780Y1386250D01*
X6978340D01*
X7005900Y1375670D01*
X7029520Y1349210D01*
G01X7194870Y1068750D02*
Y1386250D01*
G01X7360230D02*
Y1068750D01*
G01Y1227500D02*
X7194870D01*
G01X7671250Y1068750D02*
X7513770D01*
Y1386250D01*
X7671250D01*
G01X7608260Y1232800D02*
X7513770D01*
G01X7820860Y1068750D02*
Y1386250D01*
X7899590D01*
X7931090Y1370370D01*
X7954710Y1349210D01*
X7974400Y1317460D01*
X7990150Y1280410D01*
X7994080Y1227500D01*
X7990150Y1174580D01*
X7974400Y1137540D01*
X7954710Y1105780D01*
X7931090Y1084620D01*
X7899590Y1068750D01*
X7820860D01*
G01X8104320Y962920D02*
X8340540D01*
G01X8454710Y1111070D02*
X8486210Y1084620D01*
X8521640Y1068750D01*
X8553140D01*
X8584630Y1084620D01*
X8608260Y1111070D01*
X8620070Y1148130D01*
X8612200Y1185160D01*
X8592510Y1216910D01*
X8557070Y1238090D01*
X8509830Y1248670D01*
X8482270Y1269830D01*
X8470460Y1306870D01*
X8478340Y1343920D01*
X8498020Y1370370D01*
X8525580Y1386250D01*
X8553140D01*
X8580700Y1375670D01*
X8604320Y1349210D01*
G01X8805110Y1386250D02*
X8899590D01*
G01X8852350D02*
Y1068750D01*
G01X8805110D02*
X8899590D01*
G01X9092500Y1386250D02*
X9242120D01*
X9092500Y1068750D01*
X9242120D01*
G01X9561010D02*
X9403530D01*
Y1386250D01*
X9561010D01*
G01X9498020Y1232800D02*
X9403530D01*
G01X6962590Y751250D02*
X6931090Y740670D01*
X6907470Y714210D01*
X6891720Y682460D01*
X6879910Y640120D01*
X6875980Y592500D01*
X6879910Y544870D01*
X6891720Y502540D01*
X6907470Y470780D01*
X6931090Y444330D01*
X6962590Y433750D01*
X6994080Y444330D01*
X7017710Y470780D01*
X7033460Y502540D01*
X7045270Y544870D01*
X7049200Y592500D01*
X7045270Y640120D01*
X7033460Y682460D01*
X7017710Y714210D01*
X6994080Y740670D01*
X6962590Y751250D01*
G01X7277550Y423170D02*
X7269670Y428460D01*
Y439040D01*
X7277550Y444330D01*
X7285430Y439040D01*
Y428460D01*
X7277550Y423170D01*
G01X7517700Y698330D02*
X7541330Y730080D01*
X7568890Y745960D01*
X7600390Y751250D01*
X7639750Y740670D01*
X7667320Y714210D01*
X7675190Y682460D01*
X7671250Y650700D01*
X7655500Y624250D01*
X7576760Y571330D01*
X7541330Y534290D01*
X7517700Y481360D01*
X7509830Y433750D01*
X7675190D01*
G01X7820860Y481360D02*
X7844470Y454910D01*
X7872030Y439040D01*
X7907470Y433750D01*
X7942910Y444330D01*
X7970460Y465490D01*
X7990150Y502540D01*
X7994080Y544870D01*
X7986210Y587200D01*
X7966520Y613670D01*
X7938960Y634830D01*
X7911410Y640120D01*
X7883850Y634830D01*
X7848420Y613670D01*
X7860230Y751250D01*
X7966520D01*
G01X8269670Y433750D02*
Y751250D01*
X8124000Y523710D01*
X8320860D01*
G01X9479730Y116250D02*
Y-201250D01*
G01X9389180Y116250D02*
X9570280D01*
G01X9794690Y-201250D02*
X9763190Y-195960D01*
X9735640Y-174800D01*
X9712010Y-143040D01*
X9696260Y-106000D01*
X9688390Y-63670D01*
Y-21330D01*
X9696260Y21000D01*
X9712010Y58040D01*
X9735640Y89790D01*
X9763190Y110960D01*
X9794690Y116250D01*
X9826180Y110960D01*
X9853740Y89790D01*
X9877370Y58040D01*
X9893120Y21000D01*
X9900990Y-21330D01*
Y-63670D01*
X9893120Y-106000D01*
X9877370Y-143040D01*
X9853740Y-174800D01*
X9826180Y-195960D01*
X9794690Y-201250D01*
G01X10109650Y116250D02*
Y-201250D01*
G01X10019100Y116250D02*
X10200200D01*
G01X10326180Y-201250D02*
X10424610Y116250D01*
X10523040Y-201250D01*
G01X10487600Y-90130D02*
X10361610D01*
G01X10660830Y116250D02*
Y-201250D01*
X10818310D01*
G01X11286810D02*
Y116250D01*
G01X11452170D02*
Y-201250D01*
G01Y-42500D02*
X11286810D01*
G01X11684450Y-201250D02*
X11652950Y-195960D01*
X11625400Y-174800D01*
X11601770Y-143040D01*
X11586020Y-106000D01*
X11578150Y-63670D01*
Y-21330D01*
X11586020Y21000D01*
X11601770Y58040D01*
X11625400Y89790D01*
X11652950Y110960D01*
X11684450Y116250D01*
X11715940Y110960D01*
X11743500Y89790D01*
X11767130Y58040D01*
X11782880Y21000D01*
X11790750Y-21330D01*
Y-63670D01*
X11782880Y-106000D01*
X11767130Y-143040D01*
X11743500Y-174800D01*
X11715940Y-195960D01*
X11684450Y-201250D01*
G01X11920670Y116250D02*
Y-201250D01*
X12078150D01*
G01X12393110D02*
X12235630D01*
Y116250D01*
X12393110D01*
G01X12330120Y-37200D02*
X12235630D01*
G01X12546650Y-158930D02*
X12578150Y-185380D01*
X12613580Y-201250D01*
X12645080D01*
X12676570Y-185380D01*
X12700200Y-158930D01*
X12712010Y-121870D01*
X12704140Y-84840D01*
X12684450Y-53090D01*
X12649010Y-31910D01*
X12601770Y-21330D01*
X12574210Y-170D01*
X12562400Y36870D01*
X12570280Y73920D01*
X12589960Y100370D01*
X12617520Y116250D01*
X12645080D01*
X12672640Y105670D01*
X12696260Y79210D01*
G01X12944290Y-211830D02*
X12936410Y-206540D01*
Y-195960D01*
X12944290Y-190670D01*
X12952170Y-195960D01*
Y-206540D01*
X12944290Y-211830D01*
G01Y-68970D02*
X12936410Y-63670D01*
Y-53090D01*
X12944290Y-47800D01*
X12952170Y-53090D01*
Y-63670D01*
X12944290Y-68970D01*
G01X10899590Y433750D02*
Y751250D01*
X10994080D01*
X11025570Y735370D01*
X11049200Y698330D01*
X11057070Y656000D01*
X11049200Y613670D01*
X11029510Y581910D01*
X10994080Y566030D01*
X10899590D01*
G01X11214550Y751250D02*
Y433750D01*
X11372030D01*
G01X11509820D02*
X11608250Y751250D01*
X11706680Y433750D01*
G01X11671240Y544870D02*
X11545250D01*
G01X11923210Y751250D02*
Y433750D01*
G01X11832660Y751250D02*
X12013760D01*
G01X12316910Y433750D02*
X12159430D01*
Y751250D01*
X12316910D01*
G01X12253920Y597800D02*
X12159430D01*
G01X12466520Y433750D02*
Y751250D01*
X12545250D01*
X12576750Y735370D01*
X12600370Y714210D01*
X12620060Y682460D01*
X12635810Y645410D01*
X12639740Y592500D01*
X12635810Y539580D01*
X12620060Y502540D01*
X12600370Y470780D01*
X12576750Y449620D01*
X12545250Y433750D01*
X12466520D01*
G01X10899590Y1068750D02*
Y1386250D01*
X10994080D01*
X11025570Y1370370D01*
X11049200Y1333330D01*
X11057070Y1291000D01*
X11049200Y1248670D01*
X11029510Y1216910D01*
X10994080Y1201030D01*
X10899590D01*
G01X11214550Y1386250D02*
Y1068750D01*
X11372030D01*
G01X11509820D02*
X11608250Y1386250D01*
X11706680Y1068750D01*
G01X11671240Y1179870D02*
X11545250D01*
G01X11923210Y1386250D02*
Y1068750D01*
G01X11832660Y1386250D02*
X12013760D01*
G01X12316910Y1068750D02*
X12159430D01*
Y1386250D01*
X12316910D01*
G01X12253920Y1232800D02*
X12159430D01*
G01X12466520Y1068750D02*
Y1386250D01*
X12545250D01*
X12576750Y1370370D01*
X12600370Y1349210D01*
X12620060Y1317460D01*
X12635810Y1280410D01*
X12639740Y1227500D01*
X12635810Y1174580D01*
X12620060Y1137540D01*
X12600370Y1105780D01*
X12576750Y1084620D01*
X12545250Y1068750D01*
X12466520D01*
G01X14120060Y-137750D02*
X14143670Y-174800D01*
X14175170Y-195960D01*
X14210610Y-201250D01*
X14242110Y-195960D01*
X14273600Y-169510D01*
X14293280Y-137750D01*
X14297220Y-106000D01*
X14289350Y-68970D01*
X14261790Y-42500D01*
X14234230Y-31910D01*
X14198790D01*
G01X14234230D02*
X14257850Y-16040D01*
X14277540Y10410D01*
X14285410Y42160D01*
X14277540Y73920D01*
X14257850Y100370D01*
X14222420Y116250D01*
X14186990Y110960D01*
X14151550Y89790D01*
G01X14454700Y-164220D02*
X14482260Y-190670D01*
X14513750Y-201250D01*
X14545250Y-190670D01*
X14572810Y-158930D01*
X14592500Y-111290D01*
X14600370Y-63670D01*
Y-5460D01*
X14592500Y42160D01*
X14572810Y84500D01*
X14549190Y105670D01*
X14521630Y116250D01*
X14490130Y105670D01*
X14466510Y84500D01*
X14450760Y52750D01*
X14442890Y10410D01*
X14450760Y-26620D01*
X14470450Y-63670D01*
X14494070Y-84840D01*
X14521630Y-90130D01*
X14553120Y-79550D01*
X14576750Y-53090D01*
X14600370Y-5460D01*
G01X14120060Y497250D02*
X14143670Y460200D01*
X14175170Y439040D01*
X14210610Y433750D01*
X14242110Y439040D01*
X14273600Y465490D01*
X14293280Y497250D01*
X14297220Y529000D01*
X14289350Y566030D01*
X14261790Y592500D01*
X14234230Y603090D01*
X14198790D01*
G01X14234230D02*
X14257850Y618960D01*
X14277540Y645410D01*
X14285410Y677160D01*
X14277540Y708920D01*
X14257850Y735370D01*
X14222420Y751250D01*
X14186990Y745960D01*
X14151550Y724790D01*
G01X14454700Y470780D02*
X14482260Y444330D01*
X14513750Y433750D01*
X14545250Y444330D01*
X14572810Y476070D01*
X14592500Y523710D01*
X14600370Y571330D01*
Y629540D01*
X14592500Y677160D01*
X14572810Y719500D01*
X14549190Y740670D01*
X14521630Y751250D01*
X14490130Y740670D01*
X14466510Y719500D01*
X14450760Y687750D01*
X14442890Y645410D01*
X14450760Y608380D01*
X14470450Y571330D01*
X14494070Y550160D01*
X14521630Y544870D01*
X14553120Y555450D01*
X14576750Y581910D01*
X14600370Y629540D01*
G01X14049190Y1068750D02*
X14017690Y1074040D01*
X13990140Y1095200D01*
X13966510Y1126960D01*
X13950760Y1164000D01*
X13942890Y1206330D01*
Y1248670D01*
X13950760Y1291000D01*
X13966510Y1328040D01*
X13990140Y1359790D01*
X14017690Y1380960D01*
X14049190Y1386250D01*
X14080680Y1380960D01*
X14108240Y1359790D01*
X14131870Y1328040D01*
X14147620Y1291000D01*
X14155490Y1248670D01*
Y1206330D01*
X14147620Y1164000D01*
X14131870Y1126960D01*
X14108240Y1095200D01*
X14080680Y1074040D01*
X14049190Y1068750D01*
G01X14080680Y1153420D02*
X14127930Y1068750D01*
G01X14364150Y1386250D02*
Y1068750D01*
G01X14273600Y1386250D02*
X14454700D01*
G01X14679110Y1068750D02*
Y1211620D01*
X14600370Y1386250D01*
G01X14757850D02*
X14679110Y1211620D01*
G01X-250000Y0D02*
X-800000D01*
G01X-110000Y1060000D02*
X-800000D01*
G01X-550000Y274260D02*
Y0D01*
G01X-612500Y400000D02*
X-550000Y0D01*
X-487500Y400000D01*
X-612500D01*
G01X-550000Y765740D02*
Y1060000D01*
G01X-487500Y660000D02*
X-550000Y1060000D01*
X-612500Y660000D01*
X-487500D01*
G01X0Y-250000D02*
Y-650000D01*
G01X612640Y-400000D02*
X0D01*
G01X400000Y-337500D02*
X0Y-400000D01*
X400000Y-462500D01*
Y-337500D01*
G01X1627360Y-400000D02*
X2240000D01*
G01X1840000Y-462500D02*
X2240000Y-400000D01*
X1840000Y-337500D01*
Y-462500D01*
G01X2240000Y-90000D02*
Y-650000D01*
G01X2750000Y275000D02*
Y2830000D01*
X15348400D01*
Y275000D01*
X2750000D01*
G01Y910000D02*
X15348400D01*
G01X2750000Y1545000D02*
X15348400D01*
G01X2750000Y2180000D02*
X15348400D01*
G01X5033460Y1545000D02*
Y275000D01*
G01X10151560Y1545000D02*
Y275000D01*
G01X13379900Y1545000D02*
Y275000D01*
M02*
