G04 ================== begin FILE IDENTIFICATION RECORD ==================*
G04 Layout Name:  H:/MBED-TOOLS/HARDWARE/EZFET_V10B/PCB/EZFET_V10B.brd*
G04 Film Name:    Drill_Legend*
G04 File Format:  Gerber RS274X*
G04 File Origin:  Cadence Allegro 17.2-S037*
G04 Origin Date:  Fri May 18 10:52:10 2018*
G04 *
G04 Layer:  BOARD GEOMETRY/OUTLINE*
G04 Layer:  MANUFACTURING/NCDRILL_FIGURE*
G04 Layer:  BOARD GEOMETRY/DIMENSION*
G04 Layer:  MANUFACTURING/NCDRILL_LEGEND*
G04 Layer:  MANUFACTURING/NCLEGEND-1-2*
G04 *
G04 Offset:    (0.0000 0.0000)*
G04 Mirror:    No*
G04 Mode:      Positive*
G04 Rotation:  0*
G04 FullContactRelief:  No*
G04 UndefLineWidth:     0.1524*
G04 ================== end FILE IDENTIFICATION RECORD ====================*
%FSLAX55Y55*MOMM*%
%IR0*IPPOS*OFA0.00000B0.00000*MIA0B0*SFA1.00000B1.00000*%
%AMMACRO12*
1,1,.1524,.186396,-.45*
20,1,.1524,.186396,-.45,-.186396,-.45,0.0*
1,1,.1524,-.186396,-.45*
20,1,.1524,-.186396,-.45,-.45,-.186396,0.0*
1,1,.1524,-.45,-.186396*
20,1,.1524,-.45,-.186396,-.45,.186396,0.0*
1,1,.1524,-.45,.186396*
20,1,.1524,-.45,.186396,-.186396,.45,0.0*
1,1,.1524,-.186396,.45*
20,1,.1524,-.186396,.45,.186396,.45,0.0*
1,1,.1524,.186396,.45*
20,1,.1524,.186396,.45,.45,.186396,0.0*
1,1,.1524,.45,.186396*
20,1,.1524,.45,.186396,.45,-.186396,0.0*
1,1,.1524,.45,-.186396*
20,1,.1524,.45,-.186396,.186396,-.45,0.0*
1,1,.1524,.186396,-.45*
%
%ADD12MACRO12*%
%AMMACRO10*
1,1,.1524,.1524,0.0*
20,1,.1524,.1524,0.0,-.1524,0.0,0.0*
1,1,.1524,-.1524,0.0*
1,1,.1524,0.0,.1524*
20,1,.1524,0.0,.1524,0.0,-.1524,0.0*
1,1,.1524,0.0,-.1524*
%
%ADD10MACRO10*%
%AMMACRO14*
1,1,.1524,.2286,.2286*
20,1,.1524,.2286,.2286,.2286,-.2286,0.0*
1,1,.1524,.2286,-.2286*
20,1,.1524,.2286,-.2286,-.2286,-.2286,0.0*
1,1,.1524,-.2286,-.2286*
20,1,.1524,-.2286,-.2286,-.2286,.2286,0.0*
1,1,.1524,-.2286,.2286*
20,1,.1524,-.2286,.2286,.2286,.2286,0.0*
1,1,.1524,.2286,.2286*
%
%ADD14MACRO14*%
%AMMACRO11*
1,1,.1524,0.0,1.15*
20,1,.1524,0.0,1.15,1.15,-1.15,0.0*
1,1,.1524,1.15,-1.15*
20,1,.1524,1.15,-1.15,-1.15,-1.15,0.0*
1,1,.1524,-1.15,-1.15*
20,1,.1524,-1.15,-1.15,0.0,1.15,0.0*
1,1,.1524,0.0,1.15*
%
%ADD11MACRO11*%
%AMMACRO13*
1,1,.1524,.4445,0.0*
20,1,.1524,.4445,0.0,.22225,.384948,0.0*
1,1,.1524,.22225,.384948*
20,1,.1524,.22225,.384948,-.22225,.384948,0.0*
1,1,.1524,-.22225,.384948*
20,1,.1524,-.22225,.384948,-.4445,0.0,0.0*
1,1,.1524,-.4445,0.0*
20,1,.1524,-.4445,0.0,-.22225,-.384948,0.0*
1,1,.1524,-.22225,-.384948*
20,1,.1524,-.22225,-.384948,.22225,-.384948,0.0*
1,1,.1524,.22225,-.384948*
20,1,.1524,.22225,-.384948,.4445,0.0,0.0*
1,1,.1524,.4445,0.0*
%
%ADD13MACRO13*%
%ADD15C,.1524*%
G75*
%LPD*%
G75*
G54D10*
X403210Y128680D03*
X203210D03*
X403210Y528680D03*
X203210D03*
X403210Y328680D03*
X203210D03*
X403210Y1128680D03*
X203210D03*
X403210Y928680D03*
X203210D03*
X403210Y728680D03*
X203210D03*
X403210Y1528680D03*
X203210D03*
X403210Y1328680D03*
X203210D03*
X613210Y1528680D03*
X403210Y1728680D03*
X203210D03*
X613210D03*
X958680Y856790D03*
Y1066790D03*
X1620000Y150000D03*
X1313210Y248680D03*
X1523210D03*
X1473210Y1608680D03*
Y1418680D03*
Y1808680D03*
X1870000Y430000D03*
X2030000D03*
X2150000Y410000D03*
X1773210Y1088680D03*
X1983210D03*
Y938680D03*
X2090000Y1260000D03*
X1883210Y1608680D03*
X1673210D03*
X1683210Y1418680D03*
X1870000Y1260000D03*
X1883210Y1808680D03*
X1673210D03*
X2113210D03*
X2340000Y410000D03*
X2580000D03*
X2660000Y670000D03*
X2685000Y415000D03*
X2193210Y938680D03*
X2655000Y1175000D03*
X2460000Y1150000D03*
X2462710Y1050000D03*
X2460000Y1390000D03*
X2655000Y1275000D03*
X2450000Y1490000D03*
X2323210Y1808680D03*
X2850000Y410000D03*
X3008100Y408100D03*
X3008680Y706790D03*
X2808680D03*
X2730000Y875000D03*
X2835000Y1350000D03*
X2930000Y1351620D03*
X2840000Y1570000D03*
X3240000Y440000D03*
X3580000Y420000D03*
X3690000Y210000D03*
X3660000Y420000D03*
X3323210Y798680D03*
Y998680D03*
X3208680Y706790D03*
X3323210Y1198680D03*
X3608680Y1766790D03*
X4170000Y120000D03*
X4043800Y123800D03*
X4173210Y288680D03*
X3730000Y480000D03*
X3840000Y530000D03*
X4200000Y1020000D03*
X3840000Y680000D03*
X4200000Y730000D03*
X3840000Y880000D03*
Y800000D03*
X3830000Y1630000D03*
X3808680Y1766790D03*
X4903210Y148680D03*
Y348680D03*
Y548680D03*
Y948680D03*
Y748680D03*
Y1148680D03*
Y1348680D03*
Y1548680D03*
Y1748680D03*
X6461730Y2852500D03*
G54D11*
X1049000Y358000D03*
Y1562000D03*
X6461730Y312500D03*
G54D12*
X1320000Y835000D03*
X1520000Y1085000D03*
X1320000D03*
X1520000Y835000D03*
X6461730Y947500D03*
G54D13*
X2639000Y1720000D03*
X2893000D03*
X3147000D03*
X3401000D03*
X4654000Y196000D03*
X4400000D03*
X4654000Y450000D03*
X4400000D03*
X4654000Y704000D03*
X4400000D03*
X4654000Y958000D03*
X4400000D03*
X4654000Y1212000D03*
X4400000D03*
X4654000Y1466000D03*
X4400000D03*
X4654000Y1720000D03*
X4400000D03*
X6461730Y1582500D03*
G54D14*
X3010000Y1000000D03*
X2920000Y1100000D03*
Y910000D03*
X3100000D03*
Y1100000D03*
X6461730Y2217500D03*
G54D15*
G01X-565250Y834750D02*
Y1025250D01*
X-593700Y987150D01*
G01Y834750D02*
X-536810D01*
G01X-415050Y856970D02*
X-398460Y841100D01*
X-379490Y834750D01*
X-360530Y841100D01*
X-343930Y860140D01*
X-332080Y888730D01*
X-327340Y917300D01*
Y952220D01*
X-332080Y980800D01*
X-343930Y1006200D01*
X-358160Y1018900D01*
X-374750Y1025250D01*
X-393720Y1018900D01*
X-407940Y1006200D01*
X-417420Y987150D01*
X-422160Y961750D01*
X-417420Y939530D01*
X-405570Y917300D01*
X-391340Y904600D01*
X-374750Y901420D01*
X-355790Y907770D01*
X-341560Y923650D01*
X-327340Y952220D01*
G01X4800000Y1900000D02*
X200000D01*
G03X0Y1700000I0J-200000D01*
G01Y200000D01*
G03X200000Y0I200000J0D01*
G01X4800000D01*
G03X5000000Y200000I0J200000D01*
G01Y1700000D01*
G03X4800000Y1900000I-200000J0D01*
G01X2322600Y-386680D02*
X2336820Y-402550D01*
X2353410Y-412080D01*
X2374750Y-415250D01*
X2396090Y-408900D01*
X2412680Y-396200D01*
X2424530Y-373980D01*
X2426900Y-348580D01*
X2422160Y-323180D01*
X2410310Y-307300D01*
X2393710Y-294600D01*
X2377120Y-291430D01*
X2360530Y-294600D01*
X2339190Y-307300D01*
X2346300Y-224750D01*
X2410310D01*
G01X2565250D02*
X2546280Y-231100D01*
X2532060Y-246980D01*
X2522580Y-266020D01*
X2515470Y-291430D01*
X2513100Y-320000D01*
X2515470Y-348580D01*
X2522580Y-373980D01*
X2532060Y-393030D01*
X2546280Y-408900D01*
X2565250Y-415250D01*
X2584210Y-408900D01*
X2598440Y-393030D01*
X2607920Y-373980D01*
X2615030Y-348580D01*
X2617400Y-320000D01*
X2615030Y-291430D01*
X2607920Y-266020D01*
X2598440Y-246980D01*
X2584210Y-231100D01*
X2565250Y-224750D01*
G01X-250000Y0D02*
X-720000D01*
G01X-470000Y684260D02*
Y0D01*
G01X-532500Y400000D02*
X-470000Y0D01*
X-407500Y400000D01*
X-532500D01*
G01X-470000Y1175740D02*
Y1900000D01*
G01X-407500Y1500000D02*
X-470000Y1900000D01*
X-532500Y1500000D01*
X-407500D01*
G01X70000Y1900000D02*
X-720000D01*
G01X0Y-250000D02*
Y-570000D01*
G01X2153140Y-320000D02*
X0D01*
G01X400000Y-257500D02*
X0Y-320000D01*
X400000Y-382500D01*
Y-257500D01*
G01X2786860Y-320000D02*
X5000000D01*
G01X4600000Y-382500D02*
X5000000Y-320000D01*
X4600000Y-257500D01*
Y-382500D01*
G01X5000000Y10000D02*
Y-570000D01*
G01X5320000Y-5000D02*
Y5090000D01*
X17918400D01*
Y-5000D01*
X5320000D01*
G01Y630000D02*
X17918400D01*
G01X5320000Y1265000D02*
X17918400D01*
G01X5320000Y1900000D02*
X17918400D01*
G01X5320000Y2535000D02*
X17918400D01*
G01X5320000Y3170000D02*
X17918400D01*
G01X5599520Y3328750D02*
Y3646250D01*
X5749140D01*
G01X5694010Y3492800D02*
X5599520D01*
G01X5942050Y3646250D02*
X6036530D01*
G01X5989290D02*
Y3328750D01*
G01X5942050D02*
X6036530D01*
G01X6327870Y3487500D02*
X6406620D01*
Y3392250D01*
X6382990Y3360490D01*
X6355430Y3339330D01*
X6316060Y3328750D01*
X6276690Y3339330D01*
X6249130Y3360490D01*
X6225510Y3392250D01*
X6209760Y3429290D01*
X6201880Y3471620D01*
Y3508670D01*
X6209760Y3540410D01*
X6225510Y3577460D01*
X6249130Y3609210D01*
X6272750Y3630370D01*
X6304250Y3646250D01*
X6331810D01*
X6363300Y3635670D01*
X6386930Y3614500D01*
G01X6532600Y3646250D02*
Y3418710D01*
X6548340Y3371070D01*
X6579840Y3339330D01*
X6619210Y3328750D01*
X6658580Y3339330D01*
X6690080Y3371070D01*
X6705820Y3418710D01*
Y3646250D01*
G01X6855430Y3328750D02*
Y3646250D01*
X6953850D01*
X6985350Y3630370D01*
X7005040Y3609210D01*
X7012910Y3566870D01*
X7005040Y3524540D01*
X6981410Y3498090D01*
X6953850Y3482200D01*
X6855430D01*
G01X6953850D02*
X7012910Y3328750D01*
G01X7327870D02*
X7170390D01*
Y3646250D01*
X7327870D01*
G01X7264880Y3492800D02*
X7170390D01*
G01X5320000Y3805000D02*
X17918400D01*
G01X5320000Y4440000D02*
X17918400D01*
G01X7268810Y3963750D02*
X7367240Y4281250D01*
X7465670Y3963750D01*
G01X7430230Y4074870D02*
X7304240D01*
G01X7603460Y4281250D02*
Y3963750D01*
X7760940D01*
G01X7918420Y4281250D02*
Y3963750D01*
X8075900D01*
G01X8540470Y4281250D02*
Y4053710D01*
X8556210Y4006070D01*
X8587710Y3974330D01*
X8627080Y3963750D01*
X8666450Y3974330D01*
X8697950Y4006070D01*
X8713690Y4053710D01*
Y4281250D01*
G01X8851490Y3963750D02*
Y4281250D01*
X9032590Y3963750D01*
Y4281250D01*
G01X9209760D02*
X9304240D01*
G01X9257000D02*
Y3963750D01*
G01X9209760D02*
X9304240D01*
G01X9571960Y4281250D02*
Y3963750D01*
G01X9481410Y4281250D02*
X9662510D01*
G01X9804240Y4006070D02*
X9835740Y3979620D01*
X9871170Y3963750D01*
X9902670D01*
X9934160Y3979620D01*
X9957790Y4006070D01*
X9969600Y4043130D01*
X9961730Y4080160D01*
X9942040Y4111910D01*
X9906600Y4133090D01*
X9859360Y4143670D01*
X9831800Y4164830D01*
X9819990Y4201870D01*
X9827870Y4238920D01*
X9847550Y4265370D01*
X9875110Y4281250D01*
X9902670D01*
X9930230Y4270670D01*
X9953850Y4244210D01*
G01X10418410Y3963750D02*
X10516840Y4281250D01*
X10615270Y3963750D01*
G01X10579830Y4074870D02*
X10453840D01*
G01X10753060Y3963750D02*
Y4281250D01*
X10851480D01*
X10882980Y4265370D01*
X10902670Y4244210D01*
X10910540Y4201870D01*
X10902670Y4159540D01*
X10879040Y4133090D01*
X10851480Y4117200D01*
X10753060D01*
G01X10851480D02*
X10910540Y3963750D01*
G01X11225500D02*
X11068020D01*
Y4281250D01*
X11225500D01*
G01X11162510Y4127800D02*
X11068020D01*
G01X11729440Y4281250D02*
X11823920D01*
G01X11776680D02*
Y3963750D01*
G01X11729440D02*
X11823920D01*
G01X12001090D02*
Y4281250D01*
X12182190Y3963750D01*
Y4281250D01*
G01X12619190Y3963750D02*
Y4281250D01*
X12721560Y4016670D01*
X12823930Y4281250D01*
Y3963750D01*
G01X12989280Y4281250D02*
X13083760D01*
G01X13036520D02*
Y3963750D01*
G01X12989280D02*
X13083760D01*
G01X13272740Y4281250D02*
Y3963750D01*
X13430220D01*
G01X13587700Y4281250D02*
Y3963750D01*
X13745180D01*
G01X13934160Y4281250D02*
X14028640D01*
G01X13981400D02*
Y3963750D01*
G01X13934160D02*
X14028640D01*
G01X14193990D02*
Y4281250D01*
X14296360Y4016670D01*
X14398730Y4281250D01*
Y3963750D01*
G01X14690060D02*
X14532580D01*
Y4281250D01*
X14690060D01*
G01X14627070Y4127800D02*
X14532580D01*
G01X14926280Y4281250D02*
Y3963750D01*
G01X14835730Y4281250D02*
X15016830D01*
G01X15319980Y3963750D02*
X15162500D01*
Y4281250D01*
X15319980D01*
G01X15256990Y4127800D02*
X15162500D01*
G01X15477460Y3963750D02*
Y4281250D01*
X15575880D01*
X15607380Y4265370D01*
X15627070Y4244210D01*
X15634940Y4201870D01*
X15627070Y4159540D01*
X15603440Y4133090D01*
X15575880Y4117200D01*
X15477460D01*
G01X15575880D02*
X15634940Y3963750D01*
G01X15788480Y4006070D02*
X15819980Y3979620D01*
X15855410Y3963750D01*
X15886910D01*
X15918400Y3979620D01*
X15942030Y4006070D01*
X15953840Y4043130D01*
X15945970Y4080160D01*
X15926280Y4111910D01*
X15890840Y4133090D01*
X15843600Y4143670D01*
X15816040Y4164830D01*
X15804230Y4201870D01*
X15812110Y4238920D01*
X15831790Y4265370D01*
X15859350Y4281250D01*
X15886910D01*
X15914470Y4270670D01*
X15938090Y4244210D01*
G01X7603460Y3805000D02*
Y-5000D01*
G01X7595590Y4613750D02*
Y4931250D01*
X7674320D01*
X7705820Y4915370D01*
X7729440Y4894210D01*
X7749130Y4862460D01*
X7764880Y4825410D01*
X7768810Y4772500D01*
X7764880Y4719580D01*
X7749130Y4682540D01*
X7729440Y4650780D01*
X7705820Y4629620D01*
X7674320Y4613750D01*
X7595590D01*
G01X7918420D02*
Y4931250D01*
X8016840D01*
X8048340Y4915370D01*
X8068030Y4894210D01*
X8075900Y4851870D01*
X8068030Y4809540D01*
X8044400Y4783090D01*
X8016840Y4767200D01*
X7918420D01*
G01X8016840D02*
X8075900Y4613750D01*
G01X8264880Y4931250D02*
X8359360D01*
G01X8312120D02*
Y4613750D01*
G01X8264880D02*
X8359360D01*
G01X8548340Y4931250D02*
Y4613750D01*
X8705820D01*
G01X8863300Y4931250D02*
Y4613750D01*
X9020780D01*
G01X9658570Y4904790D02*
X9634950Y4920670D01*
X9607400Y4931250D01*
X9575900D01*
X9540460Y4915370D01*
X9512910Y4888920D01*
X9493220Y4857160D01*
X9477470Y4804250D01*
X9473530Y4756620D01*
X9481410Y4709000D01*
X9493220Y4677250D01*
X9516840Y4645490D01*
X9544400Y4624330D01*
X9571960Y4613750D01*
X9599520D01*
X9627080Y4624330D01*
X9650700Y4640200D01*
X9670390Y4661360D01*
G01X9804240Y4613750D02*
Y4931250D01*
G01X9969600D02*
Y4613750D01*
G01Y4772500D02*
X9804240D01*
G01X10103450Y4613750D02*
X10201880Y4931250D01*
X10300310Y4613750D01*
G01X10264870Y4724870D02*
X10138880D01*
G01X10438100Y4613750D02*
Y4931250D01*
X10536520D01*
X10568020Y4915370D01*
X10587710Y4894210D01*
X10595580Y4851870D01*
X10587710Y4809540D01*
X10564080Y4783090D01*
X10536520Y4767200D01*
X10438100D01*
G01X10536520D02*
X10595580Y4613750D01*
G01X10831800Y4931250D02*
Y4613750D01*
G01X10741250Y4931250D02*
X10922350D01*
G01X11146760Y4603170D02*
X11138880Y4608460D01*
Y4619040D01*
X11146760Y4624330D01*
X11154640Y4619040D01*
Y4608460D01*
X11146760Y4603170D01*
G01Y4746030D02*
X11138880Y4751330D01*
Y4761910D01*
X11146760Y4767200D01*
X11154640Y4761910D01*
Y4751330D01*
X11146760Y4746030D01*
G01X11776680Y4931250D02*
Y4613750D01*
G01X11686130Y4931250D02*
X11867230D01*
G01X12091640Y4613750D02*
X12060140Y4619040D01*
X12032590Y4640200D01*
X12008960Y4671960D01*
X11993210Y4709000D01*
X11985340Y4751330D01*
Y4793670D01*
X11993210Y4836000D01*
X12008960Y4873040D01*
X12032590Y4904790D01*
X12060140Y4925960D01*
X12091640Y4931250D01*
X12123130Y4925960D01*
X12150690Y4904790D01*
X12174320Y4873040D01*
X12190070Y4836000D01*
X12197940Y4793670D01*
Y4751330D01*
X12190070Y4709000D01*
X12174320Y4671960D01*
X12150690Y4640200D01*
X12123130Y4619040D01*
X12091640Y4613750D01*
G01X12327860D02*
Y4931250D01*
X12422350D01*
X12453840Y4915370D01*
X12477470Y4878330D01*
X12485340Y4836000D01*
X12477470Y4793670D01*
X12457780Y4761910D01*
X12422350Y4746030D01*
X12327860D01*
G01X13036520Y4931250D02*
Y4613750D01*
G01X12981400Y4825410D02*
X13091640D01*
G01X13351480Y4613750D02*
X13327860Y4619040D01*
X13304240Y4640200D01*
X13288480Y4677250D01*
X13280610Y4719580D01*
X13288480Y4761910D01*
X13304240Y4798960D01*
X13327860Y4820120D01*
X13351480Y4825410D01*
X13375100Y4820120D01*
X13398720Y4798960D01*
X13414470Y4761910D01*
X13418410Y4719580D01*
X13414470Y4677250D01*
X13398720Y4640200D01*
X13375100Y4619040D01*
X13351480Y4613750D01*
G01X14012890Y4783090D02*
X14028640Y4798960D01*
X14040450Y4825410D01*
X14048330Y4862460D01*
X14040450Y4894210D01*
X14024710Y4915370D01*
X13997150Y4931250D01*
X13890850D01*
Y4613750D01*
X14020770D01*
X14048330Y4634910D01*
X14064080Y4666670D01*
X14071950Y4703710D01*
X14064080Y4740740D01*
X14040450Y4772500D01*
X14012890Y4783090D01*
X13890850D01*
G01X14296360Y4613750D02*
X14264860Y4619040D01*
X14237310Y4640200D01*
X14213680Y4671960D01*
X14197930Y4709000D01*
X14190060Y4751330D01*
Y4793670D01*
X14197930Y4836000D01*
X14213680Y4873040D01*
X14237310Y4904790D01*
X14264860Y4925960D01*
X14296360Y4931250D01*
X14327850Y4925960D01*
X14355410Y4904790D01*
X14379040Y4873040D01*
X14394790Y4836000D01*
X14402660Y4793670D01*
Y4751330D01*
X14394790Y4709000D01*
X14379040Y4671960D01*
X14355410Y4640200D01*
X14327850Y4619040D01*
X14296360Y4613750D01*
G01X14611320Y4931250D02*
Y4613750D01*
G01X14520770Y4931250D02*
X14701870D01*
G01X14926280D02*
Y4613750D01*
G01X14835730Y4931250D02*
X15016830D01*
G01X15241240Y4613750D02*
X15209740Y4619040D01*
X15182190Y4640200D01*
X15158560Y4671960D01*
X15142810Y4709000D01*
X15134940Y4751330D01*
Y4793670D01*
X15142810Y4836000D01*
X15158560Y4873040D01*
X15182190Y4904790D01*
X15209740Y4925960D01*
X15241240Y4931250D01*
X15272730Y4925960D01*
X15300290Y4904790D01*
X15323920Y4873040D01*
X15339670Y4836000D01*
X15347540Y4793670D01*
Y4751330D01*
X15339670Y4709000D01*
X15323920Y4671960D01*
X15300290Y4640200D01*
X15272730Y4619040D01*
X15241240Y4613750D01*
G01X15453830D02*
Y4931250D01*
X15556200Y4666670D01*
X15658570Y4931250D01*
Y4613750D01*
G01X8197940Y3328750D02*
Y3646250D01*
X8347560D01*
G01X8292430Y3492800D02*
X8197940D01*
G01X8540470Y3646250D02*
X8634950D01*
G01X8587710D02*
Y3328750D01*
G01X8540470D02*
X8634950D01*
G01X8812120D02*
Y3646250D01*
X8993220Y3328750D01*
Y3646250D01*
G01X9170390D02*
X9264870D01*
G01X9217630D02*
Y3328750D01*
G01X9170390D02*
X9264870D01*
G01X9449910Y3371070D02*
X9481410Y3344620D01*
X9516840Y3328750D01*
X9548340D01*
X9579830Y3344620D01*
X9603460Y3371070D01*
X9615270Y3408130D01*
X9607400Y3445160D01*
X9587710Y3476910D01*
X9552270Y3498090D01*
X9505030Y3508670D01*
X9477470Y3529830D01*
X9465660Y3566870D01*
X9473540Y3603920D01*
X9493220Y3630370D01*
X9520780Y3646250D01*
X9548340D01*
X9575900Y3635670D01*
X9599520Y3609210D01*
G01X9764870Y3328750D02*
Y3646250D01*
G01X9930230D02*
Y3328750D01*
G01Y3487500D02*
X9764870D01*
G01X10241250Y3328750D02*
X10083770D01*
Y3646250D01*
X10241250D01*
G01X10178260Y3492800D02*
X10083770D01*
G01X10390860Y3328750D02*
Y3646250D01*
X10469590D01*
X10501090Y3630370D01*
X10524710Y3609210D01*
X10544400Y3577460D01*
X10560150Y3540410D01*
X10564080Y3487500D01*
X10560150Y3434580D01*
X10544400Y3397540D01*
X10524710Y3365780D01*
X10501090Y3344620D01*
X10469590Y3328750D01*
X10390860D01*
G01X10674320Y3222920D02*
X10910540D01*
G01X11024710Y3371070D02*
X11056210Y3344620D01*
X11091640Y3328750D01*
X11123140D01*
X11154630Y3344620D01*
X11178260Y3371070D01*
X11190070Y3408130D01*
X11182200Y3445160D01*
X11162510Y3476910D01*
X11127070Y3498090D01*
X11079830Y3508670D01*
X11052270Y3529830D01*
X11040460Y3566870D01*
X11048340Y3603920D01*
X11068020Y3630370D01*
X11095580Y3646250D01*
X11123140D01*
X11150700Y3635670D01*
X11174320Y3609210D01*
G01X11375110Y3646250D02*
X11469590D01*
G01X11422350D02*
Y3328750D01*
G01X11375110D02*
X11469590D01*
G01X11662500Y3646250D02*
X11812120D01*
X11662500Y3328750D01*
X11812120D01*
G01X12131010D02*
X11973530D01*
Y3646250D01*
X12131010D01*
G01X12068020Y3492800D02*
X11973530D01*
G01X9375110Y2376250D02*
X9343610Y2365670D01*
X9319990Y2339210D01*
X9304240Y2307460D01*
X9292430Y2265120D01*
X9288500Y2217500D01*
X9292430Y2169870D01*
X9304240Y2127540D01*
X9319990Y2095780D01*
X9343610Y2069330D01*
X9375110Y2058750D01*
X9406600Y2069330D01*
X9430230Y2095780D01*
X9445980Y2127540D01*
X9457790Y2169870D01*
X9461720Y2217500D01*
X9457790Y2265120D01*
X9445980Y2307460D01*
X9430230Y2339210D01*
X9406600Y2365670D01*
X9375110Y2376250D01*
G01X9690070Y2048170D02*
X9682190Y2053460D01*
Y2064040D01*
X9690070Y2069330D01*
X9697950Y2064040D01*
Y2053460D01*
X9690070Y2048170D01*
G01X10052270Y2058750D02*
Y2376250D01*
X9906600Y2148710D01*
X10103460D01*
G01X10233380Y2106360D02*
X10256990Y2079910D01*
X10284550Y2064040D01*
X10319990Y2058750D01*
X10355430Y2069330D01*
X10382980Y2090490D01*
X10402670Y2127540D01*
X10406600Y2169870D01*
X10398730Y2212200D01*
X10379040Y2238670D01*
X10351480Y2259830D01*
X10323930Y2265120D01*
X10296370Y2259830D01*
X10260940Y2238670D01*
X10272750Y2376250D01*
X10379040D01*
G01X10627070Y2058750D02*
X10634950Y2127540D01*
X10646760Y2185740D01*
X10662510Y2238670D01*
X10682190Y2296870D01*
X10713690Y2376250D01*
X10556210D01*
G01X10875100Y2323330D02*
X10898730Y2355080D01*
X10926290Y2370960D01*
X10957790Y2376250D01*
X10997150Y2365670D01*
X11024720Y2339210D01*
X11032590Y2307460D01*
X11028650Y2275700D01*
X11012900Y2249250D01*
X10934160Y2196330D01*
X10898730Y2159290D01*
X10875100Y2106360D01*
X10867230Y2058750D01*
X11032590D01*
G01X9375110Y3011250D02*
X9343610Y3000670D01*
X9319990Y2974210D01*
X9304240Y2942460D01*
X9292430Y2900120D01*
X9288500Y2852500D01*
X9292430Y2804870D01*
X9304240Y2762540D01*
X9319990Y2730780D01*
X9343610Y2704330D01*
X9375110Y2693750D01*
X9406600Y2704330D01*
X9430230Y2730780D01*
X9445980Y2762540D01*
X9457790Y2804870D01*
X9461720Y2852500D01*
X9457790Y2900120D01*
X9445980Y2942460D01*
X9430230Y2974210D01*
X9406600Y3000670D01*
X9375110Y3011250D01*
G01X9690070Y2683170D02*
X9682190Y2688460D01*
Y2699040D01*
X9690070Y2704330D01*
X9697950Y2699040D01*
Y2688460D01*
X9690070Y2683170D01*
G01X9918420Y2757250D02*
X9942030Y2720200D01*
X9973530Y2699040D01*
X10008970Y2693750D01*
X10040470Y2699040D01*
X10071960Y2725490D01*
X10091640Y2757250D01*
X10095580Y2789000D01*
X10087710Y2826030D01*
X10060150Y2852500D01*
X10032590Y2863090D01*
X9997150D01*
G01X10032590D02*
X10056210Y2878960D01*
X10075900Y2905410D01*
X10083770Y2937160D01*
X10075900Y2968920D01*
X10056210Y2995370D01*
X10020780Y3011250D01*
X9985350Y3005960D01*
X9949910Y2984790D01*
G01X10319990Y3011250D02*
X10288490Y3000670D01*
X10264870Y2974210D01*
X10249120Y2942460D01*
X10237310Y2900120D01*
X10233380Y2852500D01*
X10237310Y2804870D01*
X10249120Y2762540D01*
X10264870Y2730780D01*
X10288490Y2704330D01*
X10319990Y2693750D01*
X10351480Y2704330D01*
X10375110Y2730780D01*
X10390860Y2762540D01*
X10402670Y2804870D01*
X10406600Y2852500D01*
X10402670Y2900120D01*
X10390860Y2942460D01*
X10375110Y2974210D01*
X10351480Y3000670D01*
X10319990Y3011250D01*
G01X10682190Y2693750D02*
Y3011250D01*
X10536520Y2783710D01*
X10733380D01*
G01X10949910Y2693750D02*
X10977470Y2699040D01*
X11008960Y2714910D01*
X11028650Y2741360D01*
X11036520Y2778420D01*
X11028650Y2815450D01*
X11005030Y2847200D01*
X10969590Y2863090D01*
X10930230D01*
X10906600Y2873670D01*
X10886910Y2900120D01*
X10879040Y2937160D01*
X10890860Y2974210D01*
X10918410Y3000670D01*
X10949910Y3011250D01*
X10981400Y3000670D01*
X11008960Y2974210D01*
X11020780Y2937160D01*
X11012900Y2900120D01*
X10993220Y2873670D01*
X10969590Y2863090D01*
X10930230D01*
X10894790Y2847200D01*
X10871170Y2815450D01*
X10863300Y2778420D01*
X10871170Y2741360D01*
X10890860Y2714910D01*
X10922350Y2699040D01*
X10949910Y2693750D01*
G01X9772740Y418330D02*
X9796370Y450080D01*
X9823930Y465960D01*
X9855430Y471250D01*
X9894790Y460670D01*
X9922360Y434210D01*
X9930230Y402460D01*
X9926290Y370700D01*
X9910540Y344250D01*
X9831800Y291330D01*
X9796370Y254290D01*
X9772740Y201360D01*
X9764870Y153750D01*
X9930230D01*
G01X10162510Y143170D02*
X10154630Y148460D01*
Y159040D01*
X10162510Y164330D01*
X10170390Y159040D01*
Y148460D01*
X10162510Y143170D01*
G01X10390860Y217250D02*
X10414470Y180200D01*
X10445970Y159040D01*
X10481410Y153750D01*
X10512910Y159040D01*
X10544400Y185490D01*
X10564080Y217250D01*
X10568020Y249000D01*
X10560150Y286030D01*
X10532590Y312500D01*
X10505030Y323090D01*
X10469590D01*
G01X10505030D02*
X10528650Y338960D01*
X10548340Y365410D01*
X10556210Y397160D01*
X10548340Y428920D01*
X10528650Y455370D01*
X10493220Y471250D01*
X10457790Y465960D01*
X10422350Y444790D01*
G01X9847550Y1106250D02*
X9816050Y1095670D01*
X9792430Y1069210D01*
X9776680Y1037460D01*
X9764870Y995120D01*
X9760940Y947500D01*
X9764870Y899870D01*
X9776680Y857540D01*
X9792430Y825780D01*
X9816050Y799330D01*
X9847550Y788750D01*
X9879040Y799330D01*
X9902670Y825780D01*
X9918420Y857540D01*
X9930230Y899870D01*
X9934160Y947500D01*
X9930230Y995120D01*
X9918420Y1037460D01*
X9902670Y1069210D01*
X9879040Y1095670D01*
X9847550Y1106250D01*
G01X10162510Y778170D02*
X10154630Y783460D01*
Y794040D01*
X10162510Y799330D01*
X10170390Y794040D01*
Y783460D01*
X10162510Y778170D01*
G01X10410540Y825780D02*
X10438100Y799330D01*
X10469590Y788750D01*
X10501090Y799330D01*
X10528650Y831070D01*
X10548340Y878710D01*
X10556210Y926330D01*
Y984540D01*
X10548340Y1032160D01*
X10528650Y1074500D01*
X10505030Y1095670D01*
X10477470Y1106250D01*
X10445970Y1095670D01*
X10422350Y1074500D01*
X10406600Y1042750D01*
X10398730Y1000410D01*
X10406600Y963380D01*
X10426290Y926330D01*
X10449910Y905160D01*
X10477470Y899870D01*
X10508960Y910450D01*
X10532590Y936910D01*
X10556210Y984540D01*
G01X9532590Y1741250D02*
X9501090Y1730670D01*
X9477470Y1704210D01*
X9461720Y1672460D01*
X9449910Y1630120D01*
X9445980Y1582500D01*
X9449910Y1534870D01*
X9461720Y1492540D01*
X9477470Y1460780D01*
X9501090Y1434330D01*
X9532590Y1423750D01*
X9564080Y1434330D01*
X9587710Y1460780D01*
X9603460Y1492540D01*
X9615270Y1534870D01*
X9619200Y1582500D01*
X9615270Y1630120D01*
X9603460Y1672460D01*
X9587710Y1704210D01*
X9564080Y1730670D01*
X9532590Y1741250D01*
G01X9847550Y1413170D02*
X9839670Y1418460D01*
Y1429040D01*
X9847550Y1434330D01*
X9855430Y1429040D01*
Y1418460D01*
X9847550Y1413170D01*
G01X10162510Y1423750D02*
X10190070Y1429040D01*
X10221560Y1444910D01*
X10241250Y1471360D01*
X10249120Y1508420D01*
X10241250Y1545450D01*
X10217630Y1577200D01*
X10182190Y1593090D01*
X10142830D01*
X10119200Y1603670D01*
X10099510Y1630120D01*
X10091640Y1667160D01*
X10103460Y1704210D01*
X10131010Y1730670D01*
X10162510Y1741250D01*
X10194000Y1730670D01*
X10221560Y1704210D01*
X10233380Y1667160D01*
X10225500Y1630120D01*
X10205820Y1603670D01*
X10182190Y1593090D01*
X10142830D01*
X10107390Y1577200D01*
X10083770Y1545450D01*
X10075900Y1508420D01*
X10083770Y1471360D01*
X10103460Y1444910D01*
X10134950Y1429040D01*
X10162510Y1423750D01*
G01X10477470D02*
X10505030Y1429040D01*
X10536520Y1444910D01*
X10556210Y1471360D01*
X10564080Y1508420D01*
X10556210Y1545450D01*
X10532590Y1577200D01*
X10497150Y1593090D01*
X10457790D01*
X10434160Y1603670D01*
X10414470Y1630120D01*
X10406600Y1667160D01*
X10418420Y1704210D01*
X10445970Y1730670D01*
X10477470Y1741250D01*
X10508960Y1730670D01*
X10536520Y1704210D01*
X10548340Y1667160D01*
X10540460Y1630120D01*
X10520780Y1603670D01*
X10497150Y1593090D01*
X10457790D01*
X10422350Y1577200D01*
X10398730Y1545450D01*
X10390860Y1508420D01*
X10398730Y1471360D01*
X10418420Y1444910D01*
X10449910Y1429040D01*
X10477470Y1423750D01*
G01X10725500Y1460780D02*
X10753060Y1434330D01*
X10784550Y1423750D01*
X10816050Y1434330D01*
X10843610Y1466070D01*
X10863300Y1513710D01*
X10871170Y1561330D01*
Y1619540D01*
X10863300Y1667160D01*
X10843610Y1709500D01*
X10819990Y1730670D01*
X10792430Y1741250D01*
X10760930Y1730670D01*
X10737310Y1709500D01*
X10721560Y1677750D01*
X10713690Y1635410D01*
X10721560Y1598380D01*
X10741250Y1561330D01*
X10764870Y1540160D01*
X10792430Y1534870D01*
X10823920Y1545450D01*
X10847550Y1571910D01*
X10871170Y1619540D01*
G01X12721560Y3805000D02*
Y-5000D01*
G01X13469590Y153750D02*
Y471250D01*
X13564080D01*
X13595570Y455370D01*
X13619200Y418330D01*
X13627070Y376000D01*
X13619200Y333670D01*
X13599510Y301910D01*
X13564080Y286030D01*
X13469590D01*
G01X13784550Y471250D02*
Y153750D01*
X13942030D01*
G01X14079820D02*
X14178250Y471250D01*
X14276680Y153750D01*
G01X14241240Y264870D02*
X14115250D01*
G01X14493210Y471250D02*
Y153750D01*
G01X14402660Y471250D02*
X14583760D01*
G01X14886910Y153750D02*
X14729430D01*
Y471250D01*
X14886910D01*
G01X14823920Y317800D02*
X14729430D01*
G01X15036520Y153750D02*
Y471250D01*
X15115250D01*
X15146750Y455370D01*
X15170370Y434210D01*
X15190060Y402460D01*
X15205810Y365410D01*
X15209740Y312500D01*
X15205810Y259580D01*
X15190060Y222540D01*
X15170370Y190780D01*
X15146750Y169620D01*
X15115250Y153750D01*
X15036520D01*
G01X13469590Y788750D02*
Y1106250D01*
X13564080D01*
X13595570Y1090370D01*
X13619200Y1053330D01*
X13627070Y1011000D01*
X13619200Y968670D01*
X13599510Y936910D01*
X13564080Y921030D01*
X13469590D01*
G01X13784550Y1106250D02*
Y788750D01*
X13942030D01*
G01X14079820D02*
X14178250Y1106250D01*
X14276680Y788750D01*
G01X14241240Y899870D02*
X14115250D01*
G01X14493210Y1106250D02*
Y788750D01*
G01X14402660Y1106250D02*
X14583760D01*
G01X14886910Y788750D02*
X14729430D01*
Y1106250D01*
X14886910D01*
G01X14823920Y952800D02*
X14729430D01*
G01X15036520Y788750D02*
Y1106250D01*
X15115250D01*
X15146750Y1090370D01*
X15170370Y1069210D01*
X15190060Y1037460D01*
X15205810Y1000410D01*
X15209740Y947500D01*
X15205810Y894580D01*
X15190060Y857540D01*
X15170370Y825780D01*
X15146750Y804620D01*
X15115250Y788750D01*
X15036520D01*
G01X13469590Y1423750D02*
Y1741250D01*
X13564080D01*
X13595570Y1725370D01*
X13619200Y1688330D01*
X13627070Y1646000D01*
X13619200Y1603670D01*
X13599510Y1571910D01*
X13564080Y1556030D01*
X13469590D01*
G01X13784550Y1741250D02*
Y1423750D01*
X13942030D01*
G01X14079820D02*
X14178250Y1741250D01*
X14276680Y1423750D01*
G01X14241240Y1534870D02*
X14115250D01*
G01X14493210Y1741250D02*
Y1423750D01*
G01X14402660Y1741250D02*
X14583760D01*
G01X14886910Y1423750D02*
X14729430D01*
Y1741250D01*
X14886910D01*
G01X14823920Y1587800D02*
X14729430D01*
G01X15036520Y1423750D02*
Y1741250D01*
X15115250D01*
X15146750Y1725370D01*
X15170370Y1704210D01*
X15190060Y1672460D01*
X15205810Y1635410D01*
X15209740Y1582500D01*
X15205810Y1529580D01*
X15190060Y1492540D01*
X15170370Y1460780D01*
X15146750Y1439620D01*
X15115250Y1423750D01*
X15036520D01*
G01X13469590Y2058750D02*
Y2376250D01*
X13564080D01*
X13595570Y2360370D01*
X13619200Y2323330D01*
X13627070Y2281000D01*
X13619200Y2238670D01*
X13599510Y2206910D01*
X13564080Y2191030D01*
X13469590D01*
G01X13784550Y2376250D02*
Y2058750D01*
X13942030D01*
G01X14079820D02*
X14178250Y2376250D01*
X14276680Y2058750D01*
G01X14241240Y2169870D02*
X14115250D01*
G01X14493210Y2376250D02*
Y2058750D01*
G01X14402660Y2376250D02*
X14583760D01*
G01X14886910Y2058750D02*
X14729430D01*
Y2376250D01*
X14886910D01*
G01X14823920Y2222800D02*
X14729430D01*
G01X15036520Y2058750D02*
Y2376250D01*
X15115250D01*
X15146750Y2360370D01*
X15170370Y2339210D01*
X15190060Y2307460D01*
X15205810Y2270410D01*
X15209740Y2217500D01*
X15205810Y2164580D01*
X15190060Y2127540D01*
X15170370Y2095780D01*
X15146750Y2074620D01*
X15115250Y2058750D01*
X15036520D01*
G01X13469590Y2693750D02*
Y3011250D01*
X13564080D01*
X13595570Y2995370D01*
X13619200Y2958330D01*
X13627070Y2916000D01*
X13619200Y2873670D01*
X13599510Y2841910D01*
X13564080Y2826030D01*
X13469590D01*
G01X13784550Y3011250D02*
Y2693750D01*
X13942030D01*
G01X14079820D02*
X14178250Y3011250D01*
X14276680Y2693750D01*
G01X14241240Y2804870D02*
X14115250D01*
G01X14493210Y3011250D02*
Y2693750D01*
G01X14402660Y3011250D02*
X14583760D01*
G01X14886910Y2693750D02*
X14729430D01*
Y3011250D01*
X14886910D01*
G01X14823920Y2857800D02*
X14729430D01*
G01X15036520Y2693750D02*
Y3011250D01*
X15115250D01*
X15146750Y2995370D01*
X15170370Y2974210D01*
X15190060Y2942460D01*
X15205810Y2905410D01*
X15209740Y2852500D01*
X15205810Y2799580D01*
X15190060Y2762540D01*
X15170370Y2730780D01*
X15146750Y2709620D01*
X15115250Y2693750D01*
X15036520D01*
G01X13469590Y3328750D02*
Y3646250D01*
X13564080D01*
X13595570Y3630370D01*
X13619200Y3593330D01*
X13627070Y3551000D01*
X13619200Y3508670D01*
X13599510Y3476910D01*
X13564080Y3461030D01*
X13469590D01*
G01X13784550Y3646250D02*
Y3328750D01*
X13942030D01*
G01X14079820D02*
X14178250Y3646250D01*
X14276680Y3328750D01*
G01X14241240Y3439870D02*
X14115250D01*
G01X14493210Y3646250D02*
Y3328750D01*
G01X14402660Y3646250D02*
X14583760D01*
G01X14886910Y3328750D02*
X14729430D01*
Y3646250D01*
X14886910D01*
G01X14823920Y3492800D02*
X14729430D01*
G01X15036520Y3328750D02*
Y3646250D01*
X15115250D01*
X15146750Y3630370D01*
X15170370Y3609210D01*
X15190060Y3577460D01*
X15205810Y3540410D01*
X15209740Y3487500D01*
X15205810Y3434580D01*
X15190060Y3397540D01*
X15170370Y3365780D01*
X15146750Y3344620D01*
X15115250Y3328750D01*
X15036520D01*
G01X15949900Y3805000D02*
Y-5000D01*
G01X16619190Y3328750D02*
X16587690Y3334040D01*
X16560140Y3355200D01*
X16536510Y3386960D01*
X16520760Y3424000D01*
X16512890Y3466330D01*
Y3508670D01*
X16520760Y3551000D01*
X16536510Y3588040D01*
X16560140Y3619790D01*
X16587690Y3640960D01*
X16619190Y3646250D01*
X16650680Y3640960D01*
X16678240Y3619790D01*
X16701870Y3588040D01*
X16717620Y3551000D01*
X16725490Y3508670D01*
Y3466330D01*
X16717620Y3424000D01*
X16701870Y3386960D01*
X16678240Y3355200D01*
X16650680Y3334040D01*
X16619190Y3328750D01*
G01X16650680Y3413420D02*
X16697930Y3328750D01*
G01X16934150Y3646250D02*
Y3328750D01*
G01X16843600Y3646250D02*
X17024700D01*
G01X17249110Y3328750D02*
Y3471620D01*
X17170370Y3646250D01*
G01X17327850D02*
X17249110Y3471620D01*
G01X16859340Y418330D02*
X16882970Y450080D01*
X16910530Y465960D01*
X16942030Y471250D01*
X16981390Y460670D01*
X17008960Y434210D01*
X17016830Y402460D01*
X17012890Y370700D01*
X16997140Y344250D01*
X16918400Y291330D01*
X16882970Y254290D01*
X16859340Y201360D01*
X16851470Y153750D01*
X17016830D01*
G01X16981390Y788750D02*
Y1106250D01*
X16835720Y878710D01*
X17032580D01*
G01X16776670Y1423750D02*
Y1741250D01*
X16729430Y1677750D01*
G01Y1423750D02*
X16823910D01*
G01X17091630D02*
X17119190Y1429040D01*
X17150680Y1444910D01*
X17170370Y1471360D01*
X17178240Y1508420D01*
X17170370Y1545450D01*
X17146750Y1577200D01*
X17111310Y1593090D01*
X17071950D01*
X17048320Y1603670D01*
X17028630Y1630120D01*
X17020760Y1667160D01*
X17032580Y1704210D01*
X17060130Y1730670D01*
X17091630Y1741250D01*
X17123120Y1730670D01*
X17150680Y1704210D01*
X17162500Y1667160D01*
X17154620Y1630120D01*
X17134940Y1603670D01*
X17111310Y1593090D01*
X17071950D01*
X17036510Y1577200D01*
X17012890Y1545450D01*
X17005020Y1508420D01*
X17012890Y1471360D01*
X17032580Y1444910D01*
X17064070Y1429040D01*
X17091630Y1423750D01*
G01X16847540Y2106360D02*
X16871150Y2079910D01*
X16898710Y2064040D01*
X16934150Y2058750D01*
X16969590Y2069330D01*
X16997140Y2090490D01*
X17016830Y2127540D01*
X17020760Y2169870D01*
X17012890Y2212200D01*
X16993200Y2238670D01*
X16965640Y2259830D01*
X16938090Y2265120D01*
X16910530Y2259830D01*
X16875100Y2238670D01*
X16886910Y2376250D01*
X16993200D01*
G01X16709740Y2730780D02*
X16737300Y2704330D01*
X16768790Y2693750D01*
X16800290Y2704330D01*
X16827850Y2736070D01*
X16847540Y2783710D01*
X16855410Y2831330D01*
Y2889540D01*
X16847540Y2937160D01*
X16827850Y2979500D01*
X16804230Y3000670D01*
X16776670Y3011250D01*
X16745170Y3000670D01*
X16721550Y2979500D01*
X16705800Y2947750D01*
X16697930Y2905410D01*
X16705800Y2868380D01*
X16725490Y2831330D01*
X16749110Y2810160D01*
X16776670Y2804870D01*
X16808160Y2815450D01*
X16831790Y2841910D01*
X16855410Y2889540D01*
G01X17016820Y2958330D02*
X17040450Y2990080D01*
X17068010Y3005960D01*
X17099510Y3011250D01*
X17138870Y3000670D01*
X17166440Y2974210D01*
X17174310Y2942460D01*
X17170370Y2910700D01*
X17154620Y2884250D01*
X17075880Y2831330D01*
X17040450Y2794290D01*
X17016820Y2741360D01*
X17008950Y2693750D01*
X17174310D01*
M02*
