G04 ================== begin FILE IDENTIFICATION RECORD ==================*
G04 Layout Name:  H:/GitHub/MBED-TOOLS/HARDWARE/EZFET_V10B/PCB/EZFET_V10B.brd*
G04 Film Name:    SilkScreen_Top*
G04 File Format:  Gerber RS274X*
G04 File Origin:  Cadence Allegro 17.2-S033*
G04 Origin Date:  Tue Mar 27 14:50:14 2018*
G04 *
G04 Layer:  BOARD GEOMETRY/OUTLINE*
G04 Layer:  REF DES/SILKSCREEN_TOP*
G04 Layer:  PACKAGE GEOMETRY/SILKSCREEN_TOP*
G04 Layer:  BOARD GEOMETRY/SILKSCREEN_TOP*
G04 *
G04 Offset:    (0.0000 0.0000)*
G04 Mirror:    No*
G04 Mode:      Positive*
G04 Rotation:  0*
G04 FullContactRelief:  No*
G04 UndefLineWidth:     0.1524*
G04 ================== end FILE IDENTIFICATION RECORD ====================*
%FSLAX55Y55*MOMM*%
%IR0*IPPOS*OFA0.00000B0.00000*MIA0B0*SFA1.00000B1.00000*%
%ADD10C,.25*%
%ADD11C,.2032*%
%ADD12C,.254*%
%ADD13C,.1524*%
%ADD14C,.1778*%
G75*
%LPD*%
G75*
G36*
G01X2118600Y1196500D02*
G03I-25400J0D01*
G37*
G36*
G01X2665000Y460000D02*
G03I-30000J0D01*
G37*
G36*
G01X3531000Y1800000D02*
Y1850000D01*
X3481000D01*
Y1800000D01*
X3531000D01*
G37*
G36*
G01X4090000Y1890000D02*
Y1760000D01*
X4220000D01*
Y1890000D01*
X4090000D01*
G37*
G36*
G01X4325000Y2220000D02*
X4100000D01*
Y1970000D01*
X4325000D01*
Y2220000D01*
G37*
G54D10*
G01X4091000Y2213000D02*
X4981000D01*
Y-330000D01*
X4091000D01*
Y2213000D01*
G01X4100000Y695000D02*
X4250000D01*
Y1220000D01*
X4100000D01*
G54D11*
G01X2050000Y1150000D02*
X1690000D01*
Y1370000D01*
X2050000D01*
Y1150000D01*
G01X2409700Y1103500D02*
X2130300D01*
G01Y976500D02*
X2409700D01*
G01X2130300Y1103500D02*
G03Y976500I71651J-63500D01*
G01X2409700Y1126500D02*
X2130300D01*
Y1253500D01*
X2409700D01*
G01X1844600Y1183800D02*
X1819200D01*
Y1336200D01*
X1920800D01*
Y1183800D01*
X1895400D01*
G01D02*
G03X1844600I-25400J0D01*
G01X2130300Y1576500D02*
X2409700D01*
G01X2127760D02*
G02Y1703500I73330J63500D01*
G01X2409700Y1276500D02*
X2130300D01*
Y1403500D01*
X2409700D01*
G01Y1426500D02*
X2130300D01*
Y1553500D01*
X2409700D01*
G01X2109700D02*
Y1426500D01*
G01D02*
X1830300D01*
Y1553500D01*
X2109700D01*
G01X2409700Y1703500D02*
X2130300D01*
G01X2412240Y1103500D02*
G02Y976500I-73330J-63500D01*
G01X2409700Y1253500D02*
Y1126500D01*
G01Y1576500D02*
G03Y1703500I-71651J63500D01*
G01Y1403500D02*
Y1276500D01*
G01Y1553500D02*
Y1426500D01*
G01X3132200Y21100D02*
X3487800D01*
Y198900D01*
X3132200D01*
Y21100D01*
G01Y221100D02*
X3487800D01*
Y398900D01*
X3132200D01*
Y221100D01*
G01X4090000Y20000D02*
X3530000D01*
Y1880000D01*
X4080000D01*
Y20000D01*
X4090000D01*
G01X3530000Y320000D02*
X4080000D01*
G01X3530000Y580000D02*
X4080000D01*
G01X3530000Y820000D02*
X4080000D01*
G01X3530000Y1080000D02*
X4080000D01*
G01X3530000Y1330000D02*
X4080000D01*
G01X3530000Y1590000D02*
X4080000D01*
G54D12*
G01X1620000Y1560000D02*
Y360000D01*
X20000D01*
Y1560000D01*
X1620000D01*
G01X2070000Y830000D02*
X2410000D01*
Y630000D01*
X2070000D01*
Y830000D01*
G01X2610000Y530000D02*
X2540000D01*
Y600000D01*
G01Y1400000D02*
Y1470000D01*
X2610000D01*
G01X2512000Y1593000D02*
Y1847000D01*
G01X3528000Y1593000D02*
X2512000D01*
G01Y1847000D02*
X3528000D01*
G01X3480000Y600000D02*
Y530000D01*
X3410000D01*
G01Y1470000D02*
X3480000D01*
Y1400000D01*
G01X3528000Y1847000D02*
Y1593000D01*
G54D13*
G01X4800000Y1900000D02*
X200000D01*
G03X0Y1700000I0J-200000D01*
G01Y200000D01*
G03X200000Y0I200000J0D01*
G01X4800000D01*
G03X5000000Y200000I0J200000D01*
G01Y1700000D01*
G03X4800000Y1900000I-200000J0D01*
G01X40670Y1710000D02*
Y1631170D01*
X46000Y1614660D01*
X56670Y1603670D01*
X70000Y1600000D01*
X83330Y1603670D01*
X94000Y1614660D01*
X99330Y1631170D01*
Y1710000D01*
G01X132000Y1614660D02*
X142670Y1605500D01*
X154670Y1600000D01*
X165330D01*
X176000Y1605500D01*
X184000Y1614660D01*
X188000Y1627500D01*
X185330Y1640330D01*
X178670Y1651330D01*
X166670Y1658670D01*
X150670Y1662330D01*
X141330Y1669670D01*
X137330Y1682500D01*
X140000Y1695330D01*
X146670Y1704500D01*
X156000Y1710000D01*
X165330D01*
X174670Y1706330D01*
X182670Y1697170D01*
G01X260670Y1658670D02*
X266000Y1664170D01*
X270000Y1673330D01*
X272670Y1686170D01*
X270000Y1697170D01*
X264670Y1704500D01*
X255330Y1710000D01*
X219330D01*
Y1600000D01*
X263330D01*
X272670Y1607330D01*
X278000Y1618330D01*
X280670Y1631170D01*
X278000Y1644000D01*
X270000Y1655000D01*
X260670Y1658670D01*
X219330D01*
G01X340000Y1600000D02*
Y1710000D01*
X324000Y1688000D01*
G01Y1600000D02*
X356000D01*
G01X1869330Y370830D02*
X1861330Y376330D01*
X1852000Y380000D01*
X1841330D01*
X1829330Y374500D01*
X1820000Y365330D01*
X1813330Y354330D01*
X1808000Y336000D01*
X1806670Y319500D01*
X1809330Y303000D01*
X1813330Y292000D01*
X1821330Y281000D01*
X1830670Y273670D01*
X1840000Y270000D01*
X1849330D01*
X1858670Y273670D01*
X1866670Y279160D01*
X1873330Y286500D01*
G01X1930000Y270000D02*
Y380000D01*
X1914000Y358000D01*
G01Y270000D02*
X1946000D01*
G01X2036000D02*
Y380000D01*
X1986670Y301170D01*
X2053330D01*
G01X1813330Y420000D02*
Y530000D01*
X1846670D01*
X1857330Y524500D01*
X1864000Y517170D01*
X1866670Y502500D01*
X1864000Y487830D01*
X1856000Y478670D01*
X1846670Y473170D01*
X1813330D01*
G01X1846670D02*
X1866670Y420000D01*
G01X1930000D02*
Y530000D01*
X1914000Y508000D01*
G01Y420000D02*
X1946000D01*
G01X1997330Y432830D02*
X2006670Y423670D01*
X2017330Y420000D01*
X2028000Y423670D01*
X2037330Y434660D01*
X2044000Y451170D01*
X2046670Y467670D01*
Y487830D01*
X2044000Y504330D01*
X2037330Y519000D01*
X2029330Y526330D01*
X2020000Y530000D01*
X2009330Y526330D01*
X2001330Y519000D01*
X1996000Y508000D01*
X1993330Y493330D01*
X1996000Y480500D01*
X2002670Y467670D01*
X2010670Y460330D01*
X2020000Y458500D01*
X2030670Y462160D01*
X2038670Y471330D01*
X2046670Y487830D01*
G01X1813330Y560000D02*
Y670000D01*
X1846670D01*
X1857330Y664500D01*
X1864000Y657170D01*
X1866670Y642500D01*
X1864000Y627830D01*
X1856000Y618670D01*
X1846670Y613170D01*
X1813330D01*
G01X1846670D02*
X1866670Y560000D01*
G01X1904670Y651670D02*
X1912670Y662660D01*
X1922000Y668170D01*
X1932670Y670000D01*
X1946000Y666330D01*
X1955330Y657170D01*
X1958000Y646170D01*
X1956670Y635160D01*
X1951330Y626000D01*
X1924670Y607670D01*
X1912670Y594830D01*
X1904670Y576500D01*
X1902000Y560000D01*
X1958000D01*
G01X2020000Y670000D02*
X2009330Y666330D01*
X2001330Y657170D01*
X1996000Y646170D01*
X1992000Y631500D01*
X1990670Y615000D01*
X1992000Y598500D01*
X1996000Y583830D01*
X2001330Y572830D01*
X2009330Y563670D01*
X2020000Y560000D01*
X2030670Y563670D01*
X2038670Y572830D01*
X2044000Y583830D01*
X2048000Y598500D01*
X2049330Y615000D01*
X2048000Y631500D01*
X2044000Y646170D01*
X2038670Y657170D01*
X2030670Y666330D01*
X2020000Y670000D01*
G01X1700670Y1120000D02*
Y1041170D01*
X1706000Y1024660D01*
X1716670Y1013670D01*
X1730000Y1010000D01*
X1743330Y1013670D01*
X1754000Y1024660D01*
X1759330Y1041170D01*
Y1120000D01*
G01X1790670Y1032000D02*
X1798670Y1019160D01*
X1809330Y1011830D01*
X1821330Y1010000D01*
X1832000Y1011830D01*
X1842670Y1021000D01*
X1849330Y1032000D01*
X1850670Y1043000D01*
X1848000Y1055830D01*
X1838670Y1065000D01*
X1829330Y1068670D01*
X1817330D01*
G01X1829330D02*
X1837330Y1074170D01*
X1844000Y1083330D01*
X1846670Y1094330D01*
X1844000Y1105330D01*
X1837330Y1114500D01*
X1825330Y1120000D01*
X1813330Y1118170D01*
X1801330Y1110830D01*
G01X1869330Y960830D02*
X1861330Y966330D01*
X1852000Y970000D01*
X1841330D01*
X1829330Y964500D01*
X1820000Y955330D01*
X1813330Y944330D01*
X1808000Y926000D01*
X1806670Y909500D01*
X1809330Y893000D01*
X1813330Y882000D01*
X1821330Y871000D01*
X1830670Y863670D01*
X1840000Y860000D01*
X1849330D01*
X1858670Y863670D01*
X1866670Y869160D01*
X1873330Y876500D01*
G01X1930000Y860000D02*
Y970000D01*
X1914000Y948000D01*
G01Y860000D02*
X1946000D01*
G01X1994670Y905830D02*
X2004000Y918670D01*
X2012000Y926000D01*
X2022670Y929670D01*
X2032000Y926000D01*
X2038670Y918670D01*
X2044000Y907670D01*
X2045330Y894830D01*
X2044000Y883830D01*
X2038670Y872830D01*
X2030670Y863670D01*
X2021330Y860000D01*
X2010670Y863670D01*
X2001330Y874660D01*
X1996000Y891170D01*
X1994670Y909500D01*
X1997330Y933330D01*
X2001330Y946170D01*
X2008000Y959000D01*
X2017330Y968170D01*
X2026670Y970000D01*
X2036000Y966330D01*
X2042670Y957170D01*
G01X1813330Y710000D02*
Y820000D01*
X1846670D01*
X1857330Y814500D01*
X1864000Y807170D01*
X1866670Y792500D01*
X1864000Y777830D01*
X1856000Y768670D01*
X1846670Y763170D01*
X1813330D01*
G01X1846670D02*
X1866670Y710000D01*
G01X1904670Y801670D02*
X1912670Y812660D01*
X1922000Y818170D01*
X1932670Y820000D01*
X1946000Y816330D01*
X1955330Y807170D01*
X1958000Y796170D01*
X1956670Y785160D01*
X1951330Y776000D01*
X1924670Y757670D01*
X1912670Y744830D01*
X1904670Y726500D01*
X1902000Y710000D01*
X1958000D01*
G01X1990670Y732000D02*
X1998670Y719160D01*
X2009330Y711830D01*
X2021330Y710000D01*
X2032000Y711830D01*
X2042670Y721000D01*
X2049330Y732000D01*
X2050670Y743000D01*
X2048000Y755830D01*
X2038670Y765000D01*
X2029330Y768670D01*
X2017330D01*
G01X2029330D02*
X2037330Y774170D01*
X2044000Y783330D01*
X2046670Y794330D01*
X2044000Y805330D01*
X2037330Y814500D01*
X2025330Y820000D01*
X2013330Y818170D01*
X2001330Y810830D01*
G01X1843330Y1580000D02*
Y1690000D01*
X1876670D01*
X1887330Y1684500D01*
X1894000Y1677170D01*
X1896670Y1662500D01*
X1894000Y1647830D01*
X1886000Y1638670D01*
X1876670Y1633170D01*
X1843330D01*
G01X1876670D02*
X1896670Y1580000D01*
G01X1934670Y1671670D02*
X1942670Y1682660D01*
X1952000Y1688170D01*
X1962670Y1690000D01*
X1976000Y1686330D01*
X1985330Y1677170D01*
X1988000Y1666170D01*
X1986670Y1655160D01*
X1981330Y1646000D01*
X1954670Y1627670D01*
X1942670Y1614830D01*
X1934670Y1596500D01*
X1932000Y1580000D01*
X1988000D01*
G01X2050000D02*
Y1690000D01*
X2034000Y1668000D01*
G01Y1580000D02*
X2066000D01*
G01X2292000Y480000D02*
X2348000Y590000D01*
G01X2292000D02*
X2348000Y480000D01*
G01X2410000D02*
Y590000D01*
X2394000Y568000D01*
G01Y480000D02*
X2426000D01*
G01X2343330Y1762000D02*
X2350000Y1751000D01*
X2358000Y1743670D01*
X2367330Y1740000D01*
X2378000Y1743670D01*
X2386000Y1751000D01*
X2394000Y1762000D01*
X2396670Y1776670D01*
Y1850000D01*
G01X2460000Y1740000D02*
Y1850000D01*
X2444000Y1828000D01*
G01Y1740000D02*
X2476000D01*
G01X2953070Y58100D02*
Y168100D01*
X2979730D01*
X2990400Y162600D01*
X2998400Y155270D01*
X3005070Y144270D01*
X3010400Y131430D01*
X3011730Y113100D01*
X3010400Y94770D01*
X3005070Y81930D01*
X2998400Y70930D01*
X2990400Y63600D01*
X2979730Y58100D01*
X2953070D01*
G01X3047070Y149770D02*
X3055070Y160760D01*
X3064400Y166270D01*
X3075070Y168100D01*
X3088400Y164430D01*
X3097730Y155270D01*
X3100400Y144270D01*
X3099070Y133260D01*
X3093730Y124100D01*
X3067070Y105770D01*
X3055070Y92930D01*
X3047070Y74600D01*
X3044400Y58100D01*
X3100400D01*
G01X2700670Y470000D02*
Y391170D01*
X2706000Y374660D01*
X2716670Y363670D01*
X2730000Y360000D01*
X2743330Y363670D01*
X2754000Y374660D01*
X2759330Y391170D01*
Y470000D01*
G01X2820000Y360000D02*
Y470000D01*
X2804000Y448000D01*
G01Y360000D02*
X2836000D01*
G01X2953070Y258100D02*
Y368100D01*
X2979730D01*
X2990400Y362600D01*
X2998400Y355270D01*
X3005070Y344270D01*
X3010400Y331430D01*
X3011730Y313100D01*
X3010400Y294770D01*
X3005070Y281930D01*
X2998400Y270930D01*
X2990400Y263600D01*
X2979730Y258100D01*
X2953070D01*
G01X3072400D02*
Y368100D01*
X3056400Y346100D01*
G01Y258100D02*
X3088400D01*
G01X3619330Y240830D02*
X3611330Y246330D01*
X3602000Y250000D01*
X3591330D01*
X3579330Y244500D01*
X3570000Y235330D01*
X3563330Y224330D01*
X3558000Y206000D01*
X3556670Y189500D01*
X3559330Y173000D01*
X3563330Y162000D01*
X3571330Y151000D01*
X3580670Y143670D01*
X3590000Y140000D01*
X3599330D01*
X3608670Y143670D01*
X3616670Y149160D01*
X3623330Y156500D01*
G01X3680000Y250000D02*
Y140000D01*
G01X3649330Y250000D02*
X3710670D01*
G01X3742000Y154660D02*
X3752670Y145500D01*
X3764670Y140000D01*
X3775330D01*
X3786000Y145500D01*
X3794000Y154660D01*
X3798000Y167500D01*
X3795330Y180330D01*
X3788670Y191330D01*
X3776670Y198670D01*
X3760670Y202330D01*
X3751330Y209670D01*
X3747330Y222500D01*
X3750000Y235330D01*
X3756670Y244500D01*
X3766000Y250000D01*
X3775330D01*
X3784670Y246330D01*
X3792670Y237170D01*
G01X3688000Y695000D02*
X3714670D01*
Y662000D01*
X3706670Y651000D01*
X3697330Y643670D01*
X3684000Y640000D01*
X3670670Y643670D01*
X3661330Y651000D01*
X3653330Y662000D01*
X3648000Y674830D01*
X3645330Y689500D01*
Y702330D01*
X3648000Y713330D01*
X3653330Y726170D01*
X3661330Y737170D01*
X3669330Y744500D01*
X3680000Y750000D01*
X3689330D01*
X3700000Y746330D01*
X3708000Y739000D01*
G01X3573330Y400000D02*
Y510000D01*
X3606670D01*
X3617330Y504500D01*
X3624000Y497170D01*
X3626670Y482500D01*
X3624000Y467830D01*
X3616000Y458670D01*
X3606670Y453170D01*
X3573330D01*
G01X3606670D02*
X3626670Y400000D01*
G01X3662000Y414660D02*
X3672670Y405500D01*
X3684670Y400000D01*
X3695330D01*
X3706000Y405500D01*
X3714000Y414660D01*
X3718000Y427500D01*
X3715330Y440330D01*
X3708670Y451330D01*
X3696670Y458670D01*
X3680670Y462330D01*
X3671330Y469670D01*
X3667330Y482500D01*
X3670000Y495330D01*
X3676670Y504500D01*
X3686000Y510000D01*
X3695330D01*
X3704670Y506330D01*
X3712670Y497170D01*
G01X3780000Y510000D02*
Y400000D01*
G01X3749330Y510000D02*
X3810670D01*
G01X3910000Y250000D02*
Y140000D01*
G01X3879330Y250000D02*
X3940670D01*
G01X3972000Y140000D02*
X4028000Y250000D01*
G01X3972000D02*
X4028000Y140000D01*
G01X3813330Y640000D02*
Y750000D01*
X3846670D01*
X3857330Y744500D01*
X3864000Y737170D01*
X3866670Y722500D01*
X3864000Y707830D01*
X3856000Y698670D01*
X3846670Y693170D01*
X3813330D01*
G01X3846670D02*
X3866670Y640000D01*
G01X3930000Y750000D02*
Y640000D01*
G01X3899330Y750000D02*
X3960670D01*
G01X3992000Y654660D02*
X4002670Y645500D01*
X4014670Y640000D01*
X4025330D01*
X4036000Y645500D01*
X4044000Y654660D01*
X4048000Y667500D01*
X4045330Y680330D01*
X4038670Y691330D01*
X4026670Y698670D01*
X4010670Y702330D01*
X4001330Y709670D01*
X3997330Y722500D01*
X4000000Y735330D01*
X4006670Y744500D01*
X4016000Y750000D01*
X4025330D01*
X4034670Y746330D01*
X4042670Y737170D01*
G01X3893330Y400000D02*
Y510000D01*
X3926670D01*
X3937330Y504500D01*
X3944000Y497170D01*
X3946670Y482500D01*
X3944000Y467830D01*
X3936000Y458670D01*
X3926670Y453170D01*
X3893330D01*
G01X3926670D02*
X3946670Y400000D01*
G01X3982000D02*
X4038000Y510000D01*
G01X3982000D02*
X4038000Y400000D01*
G01X3760000Y1000000D02*
Y890000D01*
G01X3729330Y1000000D02*
X3790670D01*
G01X3876670Y890000D02*
X3823330D01*
Y1000000D01*
X3876670D01*
G01X3855330Y946830D02*
X3823330D01*
G01X3912000Y904660D02*
X3922670Y895500D01*
X3934670Y890000D01*
X3945330D01*
X3956000Y895500D01*
X3964000Y904660D01*
X3968000Y917500D01*
X3965330Y930330D01*
X3958670Y941330D01*
X3946670Y948670D01*
X3930670Y952330D01*
X3921330Y959670D01*
X3917330Y972500D01*
X3920000Y985330D01*
X3926670Y994500D01*
X3936000Y1000000D01*
X3945330D01*
X3954670Y996330D01*
X3962670Y987170D01*
G01X4030000Y1000000D02*
Y890000D01*
G01X3999330Y1000000D02*
X4060670D01*
G01X4198000Y843330D02*
X4209000Y850000D01*
X4216330Y858000D01*
X4220000Y867330D01*
X4216330Y878000D01*
X4209000Y886000D01*
X4198000Y894000D01*
X4183330Y896670D01*
X4110000D01*
G01X4220000Y933330D02*
X4110000D01*
Y965330D01*
X4115500Y976000D01*
X4128330Y984000D01*
X4143000Y986670D01*
X4157670Y984000D01*
X4168670Y977330D01*
X4174170Y965330D01*
Y933330D01*
G01X4128330Y1024670D02*
X4117340Y1032670D01*
X4111830Y1042000D01*
X4110000Y1052670D01*
X4113670Y1066000D01*
X4122830Y1075330D01*
X4133830Y1078000D01*
X4144840Y1076670D01*
X4154000Y1071330D01*
X4172330Y1044670D01*
X4185170Y1032670D01*
X4203500Y1024670D01*
X4220000Y1022000D01*
Y1078000D01*
G01X3820670Y1682000D02*
X3828670Y1669160D01*
X3839330Y1661830D01*
X3851330Y1660000D01*
X3862000Y1661830D01*
X3872670Y1671000D01*
X3879330Y1682000D01*
X3880670Y1693000D01*
X3878000Y1705830D01*
X3868670Y1715000D01*
X3859330Y1718670D01*
X3847330D01*
G01X3859330D02*
X3867330Y1724170D01*
X3874000Y1733330D01*
X3876670Y1744330D01*
X3874000Y1755330D01*
X3867330Y1764500D01*
X3855330Y1770000D01*
X3843330Y1768170D01*
X3831330Y1760830D01*
G01X3906670Y1770000D02*
X3940000Y1660000D01*
X3973330Y1770000D01*
G01X4000670Y1682000D02*
X4008670Y1669160D01*
X4019330Y1661830D01*
X4031330Y1660000D01*
X4042000Y1661830D01*
X4052670Y1671000D01*
X4059330Y1682000D01*
X4060670Y1693000D01*
X4058000Y1705830D01*
X4048670Y1715000D01*
X4039330Y1718670D01*
X4027330D01*
G01X4039330D02*
X4047330Y1724170D01*
X4054000Y1733330D01*
X4056670Y1744330D01*
X4054000Y1755330D01*
X4047330Y1764500D01*
X4035330Y1770000D01*
X4023330Y1768170D01*
X4011330Y1760830D01*
G54D14*
G01X3340480Y46500D02*
X3276980Y110000D01*
X3340480Y173500D01*
Y46500D01*
X3322700Y64280D01*
Y148100D01*
X3310000Y135400D01*
Y84600D01*
X3297300Y97300D01*
Y122700D01*
G01X3340480Y246500D02*
X3276980Y310000D01*
X3340480Y373500D01*
Y246500D01*
X3322700Y264280D01*
Y348100D01*
X3310000Y335400D01*
Y284600D01*
X3297300Y297300D01*
Y322700D01*
M02*
