G04 ================== begin FILE IDENTIFICATION RECORD ==================*
G04 Layout Name:  STLINKV3_PINOUT_V10B.brd*
G04 Film Name:    SilkScreen_Bottom*
G04 File Format:  Gerber RS274X*
G04 File Origin:  Cadence Allegro 17.2-S058*
G04 Origin Date:  Wed Jul 22 08:20:25 2020*
G04 *
G04 Layer:  REF DES/SILKSCREEN_BOTTOM*
G04 Layer:  PACKAGE GEOMETRY/SILKSCREEN_BOTTOM*
G04 Layer:  BOARD GEOMETRY/SILKSCREEN_BOTTOM*
G04 *
G04 Offset:    (0.0000 0.0000)*
G04 Mirror:    No*
G04 Mode:      Positive*
G04 Rotation:  0*
G04 FullContactRelief:  No*
G04 UndefLineWidth:     0.1524*
G04 ================== end FILE IDENTIFICATION RECORD ====================*
%FSLAX55Y55*MOMM*%
%IR0*IPPOS*OFA0.00000B0.00000*MIA0B0*SFA1.00000B1.00000*%
%ADD10C,.2*%
%ADD11C,.1524*%
G75*
%LPD*%
G75*
G36*
G01X640000Y320000D02*
G03I-320000J0D01*
G37*
G36*
G01Y2680000D02*
G03I-320000J0D01*
G37*
G36*
G01X3160000Y320000D02*
G03I-320000J0D01*
G37*
G36*
G01Y2680000D02*
G03I-320000J0D01*
G37*
G36*
G01X3519500Y1242000D02*
X3479500Y1202000D01*
Y1282000D01*
X3519500Y1242000D01*
G37*
G36*
G01X3410000Y2826000D02*
X3360000D01*
Y2876000D01*
X3410000D01*
Y2826000D01*
G37*
G36*
G01X3830000Y240000D02*
X3780000Y190000D01*
Y290000D01*
X3830000Y240000D01*
G37*
G36*
G01X3890000Y2276000D02*
X4090000D01*
Y1976000D01*
Y1726000D01*
Y1466000D01*
Y1216000D01*
Y716000D01*
X3890000D01*
Y1216000D01*
Y1466000D01*
Y1726000D01*
Y1976000D01*
Y2276000D01*
G37*
G36*
G01X3830000Y2500000D02*
X3780000Y2450000D01*
Y2550000D01*
X3830000Y2500000D01*
G37*
G54D10*
G01X560000Y720000D02*
X20000D01*
Y2270000D01*
X560000D01*
Y720000D01*
G01X3350000Y516000D02*
Y476000D01*
G01X3460000Y266000D02*
X3350000D01*
G01X3460000Y516000D02*
X3350000D01*
G01X3460000Y266000D02*
Y476000D01*
G01X3350000D02*
X3460000D01*
G01Y516000D02*
Y726000D01*
G01X3350000Y266000D02*
Y106000D01*
X4090000D01*
Y606000D01*
G01X3350000Y726000D02*
X3460000D01*
G01Y766000D02*
X3350000D01*
G01X3460000Y1016000D02*
X3350000D01*
G01D02*
Y976000D01*
G01X3460000Y766000D02*
Y976000D01*
G01X3350000D02*
X3460000D01*
G01Y1016000D02*
Y1226000D01*
G01X3350000Y766000D02*
Y726000D01*
G01X3460000Y1266000D02*
X3350000D01*
G01D02*
Y1226000D01*
G01D02*
X3460000D01*
G01X3350000Y1516000D02*
Y1476000D01*
G01D02*
X3460000D01*
G01Y1266000D02*
Y1476000D01*
G01Y1516000D02*
Y1726000D01*
G01Y1516000D02*
X3350000D01*
G01X3460000Y1766000D02*
X3350000D01*
G01D02*
Y1726000D01*
G01D02*
X3460000D01*
G01Y1766000D02*
Y1976000D01*
G01Y2016000D02*
X3350000D01*
Y1976000D01*
X3460000D01*
G01Y2016000D02*
Y2226000D01*
G01X4090000Y2806000D02*
Y2886000D01*
X3350000D01*
Y2726000D01*
X3460000D01*
Y2516000D01*
X3350000D01*
Y2476000D01*
X3460000D01*
Y2266000D01*
X3350000D01*
Y2226000D01*
X3460000D01*
G01X3750000Y2804000D02*
X3570000D01*
Y2704000D01*
X3750000D01*
Y2804000D01*
G01X4090000Y107000D02*
X3830000D01*
Y627000D01*
X4090000D01*
Y107000D01*
G01X3890000Y716000D02*
X4090000D01*
G01Y2806000D02*
Y606000D01*
G01X3890000Y2276000D02*
Y716000D01*
G01X4310000Y866000D02*
Y2126000D01*
X3810000D01*
Y866000D01*
X4310000D01*
G01Y1626000D02*
X4000000D01*
Y1366000D01*
X4310000D01*
G01X4090000Y2276000D02*
X3890000D01*
G01X4090000Y2367000D02*
X3830000D01*
Y2887000D01*
X4090000D01*
Y2367000D01*
G54D11*
G01X315000Y801000D02*
X324000Y807000D01*
X328500Y814000D01*
X330000Y822000D01*
X327000Y832000D01*
X319500Y839000D01*
X310500Y841000D01*
X301500Y840000D01*
X294000Y836000D01*
X279000Y816000D01*
X268500Y807000D01*
X253500Y801000D01*
X240000Y799000D01*
Y841000D01*
G01X330000Y890000D02*
X327000Y882000D01*
X319500Y876000D01*
X310500Y872000D01*
X298500Y869000D01*
X285000Y868000D01*
X271500Y869000D01*
X259500Y872000D01*
X250500Y876000D01*
X243000Y882000D01*
X240000Y890000D01*
X243000Y898000D01*
X250500Y904000D01*
X259500Y908000D01*
X271500Y911000D01*
X285000Y912000D01*
X298500Y911000D01*
X310500Y908000D01*
X319500Y904000D01*
X327000Y898000D01*
X330000Y890000D01*
G01X315000Y941000D02*
X324000Y947000D01*
X328500Y954000D01*
X330000Y962000D01*
X327000Y972000D01*
X319500Y979000D01*
X310500Y981000D01*
X301500Y980000D01*
X294000Y976000D01*
X279000Y956000D01*
X268500Y947000D01*
X253500Y941000D01*
X240000Y939000D01*
Y981000D01*
G01X330000Y1030000D02*
X327000Y1022000D01*
X319500Y1016000D01*
X310500Y1012000D01*
X298500Y1009000D01*
X285000Y1008000D01*
X271500Y1009000D01*
X259500Y1012000D01*
X250500Y1016000D01*
X243000Y1022000D01*
X240000Y1030000D01*
X243000Y1038000D01*
X250500Y1044000D01*
X259500Y1048000D01*
X271500Y1051000D01*
X285000Y1052000D01*
X298500Y1051000D01*
X310500Y1048000D01*
X319500Y1044000D01*
X327000Y1038000D01*
X330000Y1030000D01*
G01X210000Y1070000D02*
Y1130000D01*
G01X330000Y1170000D02*
X327000Y1162000D01*
X319500Y1156000D01*
X310500Y1152000D01*
X298500Y1149000D01*
X285000Y1148000D01*
X271500Y1149000D01*
X259500Y1152000D01*
X250500Y1156000D01*
X243000Y1162000D01*
X240000Y1170000D01*
X243000Y1178000D01*
X250500Y1184000D01*
X259500Y1188000D01*
X271500Y1191000D01*
X285000Y1192000D01*
X298500Y1191000D01*
X310500Y1188000D01*
X319500Y1184000D01*
X327000Y1178000D01*
X330000Y1170000D01*
G01X240000Y1238000D02*
X259500Y1240000D01*
X276000Y1243000D01*
X291000Y1247000D01*
X307500Y1252000D01*
X330000Y1260000D01*
Y1220000D01*
G01X210000Y1280000D02*
Y1340000D01*
G01X315000Y1361000D02*
X324000Y1367000D01*
X328500Y1374000D01*
X330000Y1382000D01*
X327000Y1392000D01*
X319500Y1399000D01*
X310500Y1401000D01*
X301500Y1400000D01*
X294000Y1396000D01*
X279000Y1376000D01*
X268500Y1367000D01*
X253500Y1361000D01*
X240000Y1359000D01*
Y1401000D01*
G01X315000Y1431000D02*
X324000Y1437000D01*
X328500Y1444000D01*
X330000Y1452000D01*
X327000Y1462000D01*
X319500Y1469000D01*
X310500Y1471000D01*
X301500Y1470000D01*
X294000Y1466000D01*
X279000Y1446000D01*
X268500Y1437000D01*
X253500Y1431000D01*
X240000Y1429000D01*
Y1471000D01*
G01X70000Y799000D02*
X160000Y841000D01*
G01Y799000D02*
X70000Y841000D01*
G01Y869000D02*
X160000Y911000D01*
G01Y869000D02*
X70000Y911000D01*
G01Y939000D02*
X160000Y981000D01*
G01Y939000D02*
X70000Y981000D01*
G01X160000Y1010000D02*
X70000D01*
Y1050000D01*
G01X160000Y1081000D02*
Y1119000D01*
X70000Y1081000D01*
Y1119000D01*
G01X88000Y1150000D02*
X79000Y1155000D01*
X73000Y1161000D01*
X70000Y1168000D01*
X73000Y1176000D01*
X79000Y1182000D01*
X88000Y1188000D01*
X100000Y1190000D01*
X160000D01*
G01X70000Y1219000D02*
X160000Y1261000D01*
G01Y1219000D02*
X70000Y1261000D01*
G01Y1289000D02*
X160000Y1331000D01*
G01Y1289000D02*
X70000Y1331000D01*
G01Y1359000D02*
X160000Y1401000D01*
G01Y1359000D02*
X70000Y1401000D01*
G01X412000Y799000D02*
X404500Y807000D01*
X400000Y816000D01*
Y824000D01*
X404500Y832000D01*
X412000Y838000D01*
X422500Y841000D01*
X433000Y839000D01*
X442000Y834000D01*
X448000Y825000D01*
X451000Y813000D01*
X457000Y806000D01*
X467500Y803000D01*
X478000Y805000D01*
X485500Y810000D01*
X490000Y817000D01*
Y824000D01*
X487000Y831000D01*
X479500Y837000D01*
G01X490000Y890000D02*
X400000D01*
G01X490000Y867000D02*
Y913000D01*
G01Y940000D02*
X400000D01*
Y980000D01*
G01X490000Y1018000D02*
Y1042000D01*
G01Y1030000D02*
X400000D01*
G01Y1018000D02*
Y1042000D01*
G01Y1077000D02*
X490000D01*
X400000Y1123000D01*
X490000D01*
G01X400000Y1148000D02*
X490000D01*
G01Y1186000D02*
X434500Y1148000D01*
G01X400000Y1192000D02*
X460000Y1165000D01*
G01X490000Y1215000D02*
X400000Y1240000D01*
X490000Y1265000D01*
G01X418000Y1288000D02*
X407500Y1294000D01*
X401500Y1302000D01*
X400000Y1311000D01*
X401500Y1319000D01*
X409000Y1327000D01*
X418000Y1332000D01*
X427000Y1333000D01*
X437500Y1331000D01*
X445000Y1324000D01*
X448000Y1317000D01*
Y1308000D01*
G01Y1317000D02*
X452500Y1323000D01*
X460000Y1328000D01*
X469000Y1330000D01*
X478000Y1328000D01*
X485500Y1323000D01*
X490000Y1314000D01*
X488500Y1305000D01*
X482500Y1296000D01*
G01X370000Y1350000D02*
Y1410000D01*
G01X400000Y1430000D02*
X490000D01*
Y1454000D01*
X485500Y1462000D01*
X475000Y1468000D01*
X463000Y1470000D01*
X451000Y1468000D01*
X442000Y1463000D01*
X437500Y1454000D01*
Y1430000D01*
G01X490000Y1508000D02*
Y1532000D01*
G01Y1520000D02*
X400000D01*
G01Y1508000D02*
Y1532000D01*
G01Y1567000D02*
X490000D01*
X400000Y1613000D01*
X490000D01*
G01X400000Y1660000D02*
X401500Y1652000D01*
X407500Y1645000D01*
X416500Y1639000D01*
X427000Y1635000D01*
X439000Y1633000D01*
X451000D01*
X463000Y1635000D01*
X473500Y1639000D01*
X482500Y1645000D01*
X488500Y1652000D01*
X490000Y1660000D01*
X488500Y1668000D01*
X482500Y1675000D01*
X473500Y1681000D01*
X463000Y1685000D01*
X451000Y1687000D01*
X439000D01*
X427000Y1685000D01*
X416500Y1681000D01*
X407500Y1675000D01*
X401500Y1668000D01*
X400000Y1660000D01*
G01X490000Y1708000D02*
X425500D01*
X412000Y1712000D01*
X403000Y1720000D01*
X400000Y1730000D01*
X403000Y1740000D01*
X412000Y1748000D01*
X425500Y1752000D01*
X490000D01*
G01Y1800000D02*
X400000D01*
G01X490000Y1777000D02*
Y1823000D01*
G01X370000Y1840000D02*
Y1900000D01*
G01X490000Y1915000D02*
X400000Y1940000D01*
X490000Y1965000D01*
G01X400000Y2010000D02*
X490000D01*
X472000Y1998000D01*
G01X400000D02*
Y2022000D01*
G01X490000Y2080000D02*
X487000Y2072000D01*
X479500Y2066000D01*
X470500Y2062000D01*
X458500Y2059000D01*
X445000Y2058000D01*
X431500Y2059000D01*
X419500Y2062000D01*
X410500Y2066000D01*
X403000Y2072000D01*
X400000Y2080000D01*
X403000Y2088000D01*
X410500Y2094000D01*
X419500Y2098000D01*
X431500Y2101000D01*
X445000Y2102000D01*
X458500Y2101000D01*
X470500Y2098000D01*
X479500Y2094000D01*
X487000Y2088000D01*
X490000Y2080000D01*
G01X448000Y2158000D02*
X452500Y2162000D01*
X460000Y2165000D01*
X470500Y2167000D01*
X479500Y2165000D01*
X485500Y2161000D01*
X490000Y2154000D01*
Y2127000D01*
X400000D01*
Y2160000D01*
X406000Y2167000D01*
X415000Y2171000D01*
X425500Y2173000D01*
X436000Y2171000D01*
X445000Y2165000D01*
X448000Y2158000D01*
Y2127000D01*
G01X3660000Y2590000D02*
Y2680000D01*
X3635000D01*
X3627000Y2675500D01*
X3622000Y2669500D01*
X3620000Y2657500D01*
X3622000Y2645500D01*
X3628000Y2638000D01*
X3635000Y2633500D01*
X3660000D01*
G01X3635000D02*
X3620000Y2590000D01*
G01X3570000D02*
Y2680000D01*
X3582000Y2662000D01*
G01Y2590000D02*
X3558000D01*
G01X3320000Y2808000D02*
X3315000Y2799000D01*
X3309000Y2793000D01*
X3302000Y2790000D01*
X3294000Y2793000D01*
X3288000Y2799000D01*
X3282000Y2808000D01*
X3280000Y2820000D01*
Y2880000D01*
G01X3230000Y2790000D02*
Y2880000D01*
X3242000Y2862000D01*
G01Y2790000D02*
X3218000D01*
G01X3795000Y538000D02*
X3790000Y529000D01*
X3784000Y523000D01*
X3777000Y520000D01*
X3769000Y523000D01*
X3763000Y529000D01*
X3757000Y538000D01*
X3755000Y550000D01*
Y610000D01*
G01X3693000Y520000D02*
Y610000D01*
X3730000Y545500D01*
X3680000D01*
G01X3765000Y2028000D02*
X3760000Y2019000D01*
X3754000Y2013000D01*
X3747000Y2010000D01*
X3739000Y2013000D01*
X3733000Y2019000D01*
X3727000Y2028000D01*
X3725000Y2040000D01*
Y2100000D01*
G01X3694000Y2085000D02*
X3688000Y2094000D01*
X3681000Y2098500D01*
X3673000Y2100000D01*
X3663000Y2097000D01*
X3656000Y2089500D01*
X3654000Y2080500D01*
X3655000Y2071500D01*
X3659000Y2064000D01*
X3679000Y2049000D01*
X3688000Y2038500D01*
X3694000Y2023500D01*
X3696000Y2010000D01*
X3654000D01*
G01X3785000Y2398000D02*
X3780000Y2389000D01*
X3774000Y2383000D01*
X3767000Y2380000D01*
X3759000Y2383000D01*
X3753000Y2389000D01*
X3747000Y2398000D01*
X3745000Y2410000D01*
Y2470000D01*
G01X3717000Y2398000D02*
X3711000Y2387500D01*
X3703000Y2381500D01*
X3694000Y2380000D01*
X3686000Y2381500D01*
X3678000Y2389000D01*
X3673000Y2398000D01*
X3672000Y2407000D01*
X3674000Y2417500D01*
X3681000Y2425000D01*
X3688000Y2428000D01*
X3697000D01*
G01X3688000D02*
X3682000Y2432500D01*
X3677000Y2440000D01*
X3675000Y2449000D01*
X3677000Y2458000D01*
X3682000Y2465500D01*
X3691000Y2470000D01*
X3700000Y2468500D01*
X3709000Y2462500D01*
M02*
