G04 ================== begin FILE IDENTIFICATION RECORD ==================*
G04 Layout Name:  STLINKV3_PINOUT_V10B.brd*
G04 Film Name:    TOP*
G04 File Format:  Gerber RS274X*
G04 File Origin:  Cadence Allegro 17.2-S058*
G04 Origin Date:  Wed Jul 22 08:20:25 2020*
G04 *
G04 Layer:  VIA CLASS/TOP*
G04 Layer:  PIN/TOP*
G04 Layer:  ETCH/TOP*
G04 *
G04 Offset:    (0.0000 0.0000)*
G04 Mirror:    No*
G04 Mode:      Positive*
G04 Rotation:  0*
G04 FullContactRelief:  No*
G04 UndefLineWidth:     0.1524*
G04 ================== end FILE IDENTIFICATION RECORD ====================*
%FSLAX55Y55*MOMM*%
%IR0*IPPOS*OFA0.00000B0.00000*MIA0B0*SFA1.00000B1.00000*%
%ADD11R,.8X1.4*%
%ADD10C,.6096*%
%ADD14C,1.*%
%ADD12C,1.6*%
%ADD13R,1.X1.*%
%ADD17C,1.8*%
%ADD15R,1.6X1.6*%
%ADD16R,1.8X1.8*%
%ADD18C,.2032*%
%ADD19C,.254*%
%ADD20C,.508*%
%ADD21R,.5X1.6*%
G75*
%LPD*%
G75*
G36*
G01X3180000Y2980000D02*
X4000000D01*
X4080000Y2900000D01*
Y2874080D01*
G02X4046700Y2858440I-20321J-5D01*
G03X3960000Y2889740I-86700J-104428D01*
G03X3824260Y2754000I0J-135740D01*
G03X3858470Y2663900I135742J-5D01*
G02X3851500Y2631830I-15195J-13490D01*
G03X3824260Y2590000I18497J-41830D01*
G01Y2410000D01*
G03X3870000Y2364260I45740J0D01*
G01X3904100D01*
Y1583150D01*
X3872850Y1551900D01*
X3817860D01*
G02X3799590Y1581110I1J20319D01*
G03X3809240Y1623000I-86096J41890D01*
G03X3785150Y1686500I-95736J0D01*
G03X3809240Y1750000I-71646J63500D01*
G03X3784640Y1814070I-95734J0D01*
G01Y2266500D01*
G03X3763800Y2316800I-71123J0D01*
G01X3660300Y2420300D01*
G03X3610000Y2441140I-50306J-50297D01*
G01X3454360D01*
G03X3350000Y2496740I-104360J-70141D01*
G03X3224260Y2371000I0J-125740D01*
G03X3284960Y2263390I125736J0D01*
G02Y2228610I-10514J-17390D01*
G03Y2013390I65036J-107610D01*
G02Y1978610I-10514J-17390D01*
G03X3224260Y1871000I65036J-107610D01*
G03X3475740I125740J0D01*
G03X3415040Y1978610I-125736J0D01*
G02Y2013390I10514J17390D01*
G03Y2228610I-65036J107610D01*
G02Y2263390I10514J17390D01*
G03X3452990Y2298860I-65033J107617D01*
G01X3580530D01*
X3642360Y2237030D01*
Y1814070D01*
G03X3617760Y1750000I71134J-64070D01*
G03X3618230Y1740500I95741J-25D01*
G02X3596000Y1718270I-20217J-2013D01*
G03X3586500Y1718740I-9475J-95271D01*
G03X3491340Y1633550I0J-95743D01*
G01X3490950Y1630000D01*
X3420470Y1559530D01*
G03X3404100Y1520000I39543J-39530D01*
G01Y1513100D01*
G02X3379080Y1493330I-20320J-1D01*
G03X3350000Y1496740I-29085J-122329D01*
G03Y1245260I0J-125740D01*
G03X3379490Y1248770I-12J125739D01*
G02X3404580Y1229020I4769J-19753D01*
G01Y1012980D01*
G02X3379490Y993230I-20321J3D01*
G03X3350000Y996740I-29502J-122229D01*
G03X3224260Y871000I0J-125740D01*
G03X3243680Y803870I125736J0D01*
G02X3242000Y790990I-8590J-5429D01*
G03X3240470Y789530I37819J-41164D01*
G01X3160430Y709480D01*
G02X3125740Y723850I-14369J14369D01*
G01Y801000D01*
G03X3124640Y810980I-45741J9D01*
G03X3150020Y860000I-34650J49020D01*
G01Y2130000D01*
G03X3124220Y2179310I-60022J0D01*
G03X3125740Y2191000I-44220J11693D01*
G01Y2331000D01*
G03X3080000Y2376740I-45740J0D01*
G01X2238000D01*
G03X2192260Y2331000I0J-45740D01*
G01Y2190020D01*
X2109740D01*
Y2331000D01*
G03X2064000Y2376740I-45740J0D01*
G01X1984000D01*
G03X1938260Y2331000I0J-45740D01*
G01Y2191000D01*
G03X1955530Y2155200I45741J0D01*
G03X1949980Y2130000I54468J-25207D01*
G01Y860000D01*
G03X1950040Y857280I60021J-37D01*
G02X1939370Y846680I-10149J-455D01*
G03X1937000Y846740I-2342J-45681D01*
G01X1730000D01*
G03X1684260Y801000I0J-45740D01*
G01Y661000D01*
G03X1730000Y615260I45740J0D01*
G01X1937000D01*
G03X1982740Y661000I0J45740D01*
G01Y779960D01*
G02X2004820Y800200I20318J-2D01*
G03X2010000Y799980I5135J59802D01*
G01X2065260D01*
Y661000D01*
G03X2111000Y615260I45740J0D01*
G01X2475550D01*
X2477180Y607080D01*
G03X2492470Y578470I54825J10910D01*
G01X2503600Y567340D01*
G02X2496420Y550000I-7185J-7181D01*
G01X1601050D01*
G02X1583150Y579930I1J20318D01*
G03X1592220Y616000I-67152J36061D01*
G03X1590690Y631190I-76219J-5D01*
G03X1601740Y661000I-34685J29810D01*
G01Y801000D01*
G03X1556000Y846740I-45740J0D01*
G01X1095000D01*
G03X1049260Y801000I0J-45740D01*
G01Y661000D01*
G03X1095000Y615260I45740J0D01*
G01X1439260D01*
X1440390Y606380D01*
G03X1448850Y579930I75613J9607D01*
G02X1430950Y550000I-17901J-9612D01*
G01X20000D01*
Y2460000D01*
X1186120D01*
G02X1202090Y2427120I-3J-20320D01*
G03X1186020Y2386090I59907J-47126D01*
G01X1185270Y2376740D01*
X1095000D01*
G03X1049260Y2331000I0J-45740D01*
G01Y2191000D01*
G03X1095000Y2145260I45740J0D01*
G01X1429000D01*
G03X1474740Y2191000I0J45740D01*
G01Y2331000D01*
G03X1429000Y2376740I-45740J0D01*
G01X1338730D01*
X1337980Y2386090D01*
G03X1321910Y2427120I-75977J-6096D01*
G02X1337880Y2460000I15973J12560D01*
G01X3130000D01*
X3180000Y2510000D01*
Y2980000D01*
G37*
G36*
G01X3636500Y1146260D02*
G03X3667270Y1158160I0J45731D01*
G03X3713500Y1146260I46230J83849D01*
G03X3746730Y1152210I5J95741D01*
G02X3774100Y1133150I7051J-19057D01*
G01Y370000D01*
G03X3790470Y330470I55913J0D01*
G01X3824260Y296690D01*
Y150000D01*
G03X3870000Y104260I45740J0D01*
G01X4050000D01*
G03X4058820Y105120I-8J45739D01*
G01X4064140Y106160D01*
X4075150Y95150D01*
X4000000Y20000D01*
X3180000D01*
Y236580D01*
X3197750Y243330D01*
G03X3199990Y240950I41810J37106D01*
G01X3240470Y200470D01*
G03X3280000Y184100I39530J39543D01*
G01X3440000D01*
G03X3479530Y200470I0J55913D01*
G01X3589530Y310470D01*
G03X3605900Y350000I-39543J39530D01*
G01Y710290D01*
G03X3589530Y749820I-55913J0D01*
G01X3555900Y783440D01*
Y1146260D01*
X3636500D01*
G37*
G36*
G01X4050000Y2364260D02*
G03X4056700Y2364750I23J45742D01*
G02X4080000Y2344650I2981J-20099D01*
G01Y395350D01*
G02X4056700Y375250I-20319J-1D01*
G03X4050000Y375740I-6677J-45252D01*
G01X3903310D01*
X3885900Y393150D01*
Y1330000D01*
G03X3869530Y1369530I-55913J0D01*
G01X3830530Y1408530D01*
G03X3812580Y1420570I-39528J-39530D01*
G01X3806340Y1423180D01*
Y1440100D01*
X3896000D01*
G03X3935530Y1456470I0J55913D01*
G01X3999530Y1520470D01*
G03X4015900Y1560000I-39543J39530D01*
G01Y2364260D01*
X4050000D01*
G37*
%LPC*%
G75*
G36*
G01X1557260Y2191000D02*
Y2331000D01*
G02X1603000Y2376740I45740J0D01*
G01X1683000D01*
G02X1728740Y2331000I0J-45740D01*
G01Y2191000D01*
G02X1683000Y2145260I-45740J0D01*
G01X1603000D01*
G02X1557260Y2191000I0J45740D01*
G37*
G54D21*
X1835000Y2260000D03*
%LPD*%
G75*
G54D10*
X191680Y1118930D03*
Y1518930D03*
Y1918930D03*
X591680Y1118930D03*
Y1518930D03*
Y1918930D03*
X991680Y1118930D03*
X1391680D03*
X991680Y1518930D03*
X1391680D03*
X991680Y1918930D03*
X1391680D03*
X1262000Y2380000D03*
X1516000Y616000D03*
X1791680Y1118930D03*
Y1518930D03*
Y1918930D03*
X2659000Y617820D03*
X3268930Y118320D03*
X3200000Y2170000D03*
X3600000Y1970000D03*
Y2160000D03*
X3220000Y2490000D03*
X3520000Y2500000D03*
X3248930Y2898320D03*
X3448930D03*
X3668930Y118320D03*
X3681680Y598930D03*
Y998930D03*
X4021680Y978930D03*
Y1378930D03*
X4041680Y1858930D03*
Y2258930D03*
X3720000Y2500000D03*
X3648930Y2898320D03*
X3848930D03*
G54D20*
G01X3350000Y2371000D02*
X3351000Y2370000D01*
X3610000D01*
X3713500Y2266500D01*
Y1750000D01*
G54D11*
X1389000Y731000D03*
X1262000D03*
X1135000D03*
Y2261000D03*
X1262000D03*
X1389000D03*
X1897000Y731000D03*
X1770000D03*
X1643000D03*
X1516000D03*
Y2261000D03*
X1643000D03*
X1770000D03*
X1897000D03*
X2532000Y731000D03*
X2405000D03*
X2278000D03*
X2151000D03*
X2024000D03*
Y2261000D03*
X2151000D03*
X2278000D03*
X2405000D03*
X2532000D03*
X3040000Y731000D03*
X2913000D03*
X2786000D03*
X2659000D03*
Y2261000D03*
X2786000D03*
X2913000D03*
X3040000D03*
G54D12*
X3350000Y371000D03*
Y621000D03*
Y871000D03*
Y1121000D03*
Y1371000D03*
Y1621000D03*
Y1871000D03*
Y2121000D03*
Y2371000D03*
G54D13*
X3586500Y1242000D03*
G54D14*
Y1623000D03*
Y1496000D03*
Y1369000D03*
Y1750000D03*
X3713500Y1623000D03*
Y1496000D03*
Y1369000D03*
Y1242000D03*
Y1750000D03*
G54D15*
X3350000Y2621000D03*
G54D16*
X3960000Y240000D03*
Y2500000D03*
G54D17*
Y494000D03*
Y2754000D03*
G54D18*
G01X1262000Y2261000D02*
Y2380000D01*
G01X1600000Y560000D02*
X1595040Y555040D01*
X1434960D01*
X1430000Y560000D01*
G01X1516000Y731000D02*
Y616000D01*
G01X2490000Y560000D02*
X2539840Y510160D01*
X3159840D01*
X3190000Y480000D01*
Y220000D01*
G01X3239520Y550000D02*
X2600000D01*
X2532000Y618000D01*
Y731000D01*
G01X2659000D02*
Y617820D01*
G01X2913000Y731000D02*
Y687000D01*
X2979000Y621000D01*
X3151000D01*
X3280000Y750000D01*
X3460000D01*
G01X3350000Y621000D02*
X3310520D01*
X3239520Y550000D01*
G01D02*
Y280480D01*
X3280000Y240000D01*
X3440000D01*
X3550000Y350000D01*
Y710290D01*
X3500000Y760290D01*
Y1410000D01*
X3586000Y1496000D01*
X3586500D01*
G01X3460000Y750000D02*
X3500000Y710000D01*
Y521000D01*
X3350000Y371000D01*
G01X3460000Y750000D02*
X3460480Y750480D01*
Y1416770D01*
X3460000Y1417250D01*
Y1520000D01*
X3563000Y1623000D01*
X3586500D01*
G01X3960000Y240000D02*
X3830000Y370000D01*
Y1330000D01*
X3791000Y1369000D01*
X3713500D01*
G01Y1496000D02*
X3896000D01*
X3960000Y1560000D01*
Y2500000D01*
G54D19*
G01X1350000Y2450000D02*
X1190000D01*
X1180000Y2440000D01*
M02*
