G04 ================== begin FILE IDENTIFICATION RECORD ==================*
G04 Layout Name:  H:/github/MBED-TOOLS/HARDWARE/CH340E_TEST_V10/PCB/CH340E_TEST_V10.brd*
G04 Film Name:    SolderMask_Top*
G04 File Format:  Gerber RS274X*
G04 File Origin:  Cadence Allegro 17.2-S067*
G04 Origin Date:  Sat Sep 19 10:12:25 2020*
G04 *
G04 Layer:  PIN/SOLDERMASK_TOP*
G04 Layer:  PACKAGE GEOMETRY/SOLDERMASK_TOP*
G04 Layer:  BOARD GEOMETRY/SOLDERMASK_TOP*
G04 *
G04 Offset:    (0.0000 0.0000)*
G04 Mirror:    No*
G04 Mode:      Positive*
G04 Rotation:  0*
G04 FullContactRelief:  No*
G04 UndefLineWidth:     0.1524*
G04 ================== end FILE IDENTIFICATION RECORD ====================*
%FSLAX55Y55*MOMM*%
%IR0*IPPOS*OFA0.00000B0.00000*MIA0B0*SFA1.00000B1.00000*%
%ADD13R,1.3X.4*%
%ADD20R,.7X1.1*%
%ADD21R,.8X1.3*%
%ADD22R,.9X.9*%
%ADD18R,1.4X1.*%
%ADD17R,2.6X1.1*%
%ADD24R,.6X.7*%
%ADD15R,.7X.5*%
%ADD16R,.7X.6*%
%ADD14C,1.4*%
%ADD10C,3.4*%
%ADD23R,.9X.35*%
%ADD12C,1.7*%
%ADD26C,1.9*%
%ADD19R,1.4X1.4*%
%ADD11R,1.7X1.7*%
%ADD25R,1.9X1.9*%
%LPD*%
G75*
G54D10*
X709000Y198000D03*
X260000Y200000D03*
X709000Y1402000D03*
X260000Y1400000D03*
G54D11*
X460000Y450000D03*
G54D20*
X3003800Y160000D03*
X2803800D03*
X2903800Y400000D03*
G54D12*
X460000Y700000D03*
Y900000D03*
Y1150000D03*
G54D21*
X2675000Y150000D03*
X2485000D03*
Y410000D03*
X2580000D03*
X2675000D03*
G54D22*
Y786200D03*
Y633800D03*
X3003800D03*
Y786200D03*
G54D13*
X1830000Y560000D03*
Y610000D03*
Y660000D03*
Y710000D03*
Y760000D03*
X2320000D03*
Y710000D03*
Y660000D03*
Y610000D03*
Y560000D03*
G54D23*
X2835000Y1304550D03*
Y1254550D03*
Y1204550D03*
Y1154550D03*
X2525000D03*
Y1204550D03*
Y1254550D03*
Y1304550D03*
G54D14*
X1180000Y675000D03*
X980000D03*
Y925000D03*
G54D15*
X1390000Y740000D03*
X1610000D03*
G54D24*
X2635000Y1040000D03*
X2725000D03*
G54D25*
X3250000Y440000D03*
G54D16*
X1390000Y675000D03*
Y805000D03*
X1610000D03*
Y675000D03*
X2510000Y610000D03*
Y700000D03*
X2980000Y1274550D03*
Y1184550D03*
X2360000D03*
Y1274550D03*
G54D26*
X3250000Y694000D03*
Y1202000D03*
Y948000D03*
G54D17*
X1500000Y1330000D03*
Y1030000D03*
G54D18*
X1900000Y1329550D03*
Y1129550D03*
X2100000Y1329550D03*
Y1129550D03*
G54D19*
X1180000Y925000D03*
M02*
