G04 ================== begin FILE IDENTIFICATION RECORD ==================*
G04 Layout Name:  H:/MBED-TOOLS/HARDWARE/LAN9500_TEST_V10A/PCB/LAN9500_TEST_V10A.brd*
G04 Film Name:    Drill_Legend*
G04 File Format:  Gerber RS274X*
G04 File Origin:  Cadence Allegro 17.2-S058*
G04 Origin Date:  Wed Jun 17 16:05:57 2020*
G04 *
G04 Layer:  MANUFACTURING/NCLEGEND-1-4*
G04 Layer:  MANUFACTURING/NCDRILL_LEGEND*
G04 Layer:  MANUFACTURING/NCDRILL_FIGURE*
G04 Layer:  BOARD GEOMETRY/DIMENSION*
G04 *
G04 Offset:    (0.0000 0.0000)*
G04 Mirror:    No*
G04 Mode:      Positive*
G04 Rotation:  0*
G04 FullContactRelief:  No*
G04 UndefLineWidth:     0.1524*
G04 ================== end FILE IDENTIFICATION RECORD ====================*
%FSLAX55Y55*MOMM*%
%IR0*IPPOS*OFA0.00000B0.00000*MIA0B0*SFA1.00000B1.00000*%
%AMMACRO12*
1,1,.1524,.45,.45*
20,1,.1524,.45,.45,.45,-.45,0.0*
1,1,.1524,.45,-.45*
20,1,.1524,.45,-.45,-.45,-.45,0.0*
1,1,.1524,-.45,-.45*
20,1,.1524,-.45,-.45,-.45,.45,0.0*
1,1,.1524,-.45,.45*
20,1,.1524,-.45,.45,.45,.45,0.0*
1,1,.1524,.45,.45*
%
%ADD12MACRO12*%
%AMMACRO11*
1,1,.1524,.127,0.0*
20,1,.1524,.127,0.0,-.127,0.0,0.0*
1,1,.1524,-.127,0.0*
1,1,.1524,0.0,.127*
20,1,.1524,0.0,.127,0.0,-.127,0.0*
1,1,.1524,0.0,-.127*
%
%ADD11MACRO11*%
%AMMACRO10*
1,1,.1524,0.0,1.15*
20,1,.1524,0.0,1.15,-.995929,.575,0.0*
1,1,.1524,-.995929,.575*
20,1,.1524,-.995929,.575,-.995929,-.575,0.0*
1,1,.1524,-.995929,-.575*
20,1,.1524,-.995929,-.575,0.0,-1.15,0.0*
1,1,.1524,0.0,-1.15*
20,1,.1524,0.0,-1.15,.995929,-.575,0.0*
1,1,.1524,.995929,-.575*
20,1,.1524,.995929,-.575,.995929,.575,0.0*
1,1,.1524,.995929,.575*
20,1,.1524,.995929,.575,0.0,1.15,0.0*
1,1,.1524,0.0,1.15*
%
%ADD10MACRO10*%
%AMMACRO13*
1,1,.1524,.9,0.0*
20,1,.1524,.9,0.0,.45,.779423,0.0*
1,1,.1524,.45,.779423*
20,1,.1524,.45,.779423,-.45,.779423,0.0*
1,1,.1524,-.45,.779423*
20,1,.1524,-.45,.779423,-.9,0.0,0.0*
1,1,.1524,-.9,0.0*
20,1,.1524,-.9,0.0,-.45,-.779423,0.0*
1,1,.1524,-.45,-.779423*
20,1,.1524,-.45,-.779423,.45,-.779423,0.0*
1,1,.1524,.45,-.779423*
20,1,.1524,.45,-.779423,.9,0.0,0.0*
1,1,.1524,.9,0.0*
%
%ADD13MACRO13*%
%ADD14C,.1524*%
G75*
%LPD*%
G75*
G54D10*
X250000Y330000D03*
Y1530000D03*
X6981730Y67500D03*
G54D11*
X396960Y80000D03*
X490000Y240000D03*
X510000Y1570000D03*
X785800Y80000D03*
X1070000Y350000D03*
X630000Y230000D03*
X1050000Y520000D03*
X1006500Y230000D03*
X1110000Y410000D03*
X1070000Y230000D03*
X1050000Y870000D03*
X1110000Y620000D03*
X1060000Y785000D03*
X1100000Y1570000D03*
X920000D03*
X930000Y1280000D03*
X1620000Y70000D03*
X1180000Y90000D03*
X1406500Y40000D03*
X1270000D03*
X1339120D03*
X1470000D03*
X1620000Y540000D03*
X1410000D03*
Y420000D03*
X1620000D03*
X1230000Y170000D03*
X1410000Y780000D03*
X1620000D03*
X1195000Y1000000D03*
X1480000Y1070000D03*
X1500000Y1530000D03*
Y1470000D03*
Y1410000D03*
X1520000Y1130000D03*
X1795000Y75000D03*
X1820000Y420000D03*
Y540000D03*
X2034680Y170000D03*
X1820000Y780000D03*
X1645000Y1060000D03*
X1795000D03*
X2060000Y1580000D03*
X2050000Y1230000D03*
X1890000Y1240000D03*
X1800000Y1580000D03*
X2180000Y541800D03*
X2400000Y180000D03*
X2280000Y240000D03*
X2340000Y120000D03*
X2470000Y640000D03*
X2310000Y840000D03*
X2180000Y710000D03*
X2179170Y620000D03*
X2330000Y1010000D03*
X2450000Y1210000D03*
X2330000Y1448590D03*
Y1300000D03*
X6981730Y1972500D03*
G54D12*
X450000Y580000D03*
Y830000D03*
Y1030000D03*
Y1280000D03*
X2651600Y612000D03*
Y1120000D03*
Y866000D03*
Y1374000D03*
X2905600Y485000D03*
Y993000D03*
Y739000D03*
Y1247000D03*
X4030600Y521500D03*
Y267500D03*
Y1592500D03*
Y1338500D03*
X6981730Y1337500D03*
G54D13*
X3235600Y155500D03*
Y1704500D03*
X6981730Y702500D03*
G54D14*
G01X-2275750Y774750D02*
Y965250D01*
X-2304200Y927150D01*
G01Y774750D02*
X-2247310D01*
G01X-2085250D02*
X-2068660Y777920D01*
X-2049690Y787450D01*
X-2037840Y803320D01*
X-2033100Y825550D01*
X-2037840Y847770D01*
X-2052060Y866820D01*
X-2073400Y876350D01*
X-2097100D01*
X-2111330Y882700D01*
X-2123180Y898570D01*
X-2127920Y920800D01*
X-2120810Y943020D01*
X-2104220Y958900D01*
X-2085250Y965250D01*
X-2066290Y958900D01*
X-2049690Y943020D01*
X-2042580Y920800D01*
X-2047320Y898570D01*
X-2059170Y882700D01*
X-2073400Y876350D01*
X-2097100D01*
X-2118440Y866820D01*
X-2132660Y847770D01*
X-2137400Y825550D01*
X-2132660Y803320D01*
X-2120810Y787450D01*
X-2101840Y777920D01*
X-2085250Y774750D01*
G01X-1894750Y768400D02*
X-1899490Y771580D01*
Y777920D01*
X-1894750Y781100D01*
X-1890010Y777920D01*
Y771580D01*
X-1894750Y768400D01*
G01X-1749290Y854120D02*
X-1732700Y876350D01*
X-1718470Y889050D01*
X-1699510Y895400D01*
X-1682910Y889050D01*
X-1671060Y876350D01*
X-1661580Y857300D01*
X-1659210Y835070D01*
X-1661580Y816020D01*
X-1671060Y796970D01*
X-1685290Y781100D01*
X-1701880Y774750D01*
X-1720840Y781100D01*
X-1737440Y800140D01*
X-1746920Y828730D01*
X-1749290Y860470D01*
X-1744550Y901750D01*
X-1737440Y923980D01*
X-1725590Y946200D01*
X-1708990Y962080D01*
X-1692400Y965250D01*
X-1675800Y958900D01*
X-1663950Y943020D01*
G01X2083200Y-565250D02*
Y-374750D01*
X1995480Y-511270D01*
X2114020D01*
G01X2273700Y-565250D02*
Y-374750D01*
X2185980Y-511270D01*
X2304520D01*
G01X-250000Y0D02*
X-2240000D01*
G01X-1990000Y624260D02*
Y0D01*
G01X-2052500Y400000D02*
X-1990000Y0D01*
X-1927500Y400000D01*
X-2052500D01*
G01X-1990000Y1115740D02*
Y1860000D01*
G01X-1927500Y1460000D02*
X-1990000Y1860000D01*
X-2052500Y1460000D01*
X-1927500D01*
G01X180000Y1860000D02*
X-2240000D01*
G01X0Y-250000D02*
Y-720000D01*
G01X1833140Y-470000D02*
X0D01*
G01X400000Y-407500D02*
X0Y-470000D01*
X400000Y-532500D01*
Y-407500D01*
G01X2466860Y-470000D02*
X4400000D01*
G01X4000000Y-532500D02*
X4400000Y-470000D01*
X4000000Y-407500D01*
Y-532500D01*
G01X4400000Y-90000D02*
Y-720000D01*
G01X5840000Y-250000D02*
Y4210000D01*
X18438400D01*
Y-250000D01*
X5840000D01*
G01Y385000D02*
X18438400D01*
G01X5840000Y1020000D02*
X18438400D01*
G01X5840000Y1655000D02*
X18438400D01*
G01X6119520Y2448750D02*
Y2766250D01*
X6269140D01*
G01X6214010Y2612800D02*
X6119520D01*
G01X6462050Y2766250D02*
X6556530D01*
G01X6509290D02*
Y2448750D01*
G01X6462050D02*
X6556530D01*
G01X6847870Y2607500D02*
X6926620D01*
Y2512250D01*
X6902990Y2480490D01*
X6875430Y2459330D01*
X6836060Y2448750D01*
X6796690Y2459330D01*
X6769130Y2480490D01*
X6745510Y2512250D01*
X6729760Y2549290D01*
X6721880Y2591620D01*
Y2628670D01*
X6729760Y2660410D01*
X6745510Y2697460D01*
X6769130Y2729210D01*
X6792750Y2750370D01*
X6824250Y2766250D01*
X6851810D01*
X6883300Y2755670D01*
X6906930Y2734500D01*
G01X7052600Y2766250D02*
Y2538710D01*
X7068340Y2491070D01*
X7099840Y2459330D01*
X7139210Y2448750D01*
X7178580Y2459330D01*
X7210080Y2491070D01*
X7225820Y2538710D01*
Y2766250D01*
G01X7375430Y2448750D02*
Y2766250D01*
X7473850D01*
X7505350Y2750370D01*
X7525040Y2729210D01*
X7532910Y2686870D01*
X7525040Y2644540D01*
X7501410Y2618090D01*
X7473850Y2602200D01*
X7375430D01*
G01X7473850D02*
X7532910Y2448750D01*
G01X7847870D02*
X7690390D01*
Y2766250D01*
X7847870D01*
G01X7784880Y2612800D02*
X7690390D01*
G01X5840000Y2290000D02*
X18438400D01*
G01X5840000Y2925000D02*
X18438400D01*
G01X5840000Y3560000D02*
X18438400D01*
G01X8123460Y2925000D02*
Y-250000D01*
G01X7788810Y3083750D02*
X7887240Y3401250D01*
X7985670Y3083750D01*
G01X7950230Y3194870D02*
X7824240D01*
G01X8123460Y3401250D02*
Y3083750D01*
X8280940D01*
G01X8438420Y3401250D02*
Y3083750D01*
X8595900D01*
G01X9060470Y3401250D02*
Y3173710D01*
X9076210Y3126070D01*
X9107710Y3094330D01*
X9147080Y3083750D01*
X9186450Y3094330D01*
X9217950Y3126070D01*
X9233690Y3173710D01*
Y3401250D01*
G01X9371490Y3083750D02*
Y3401250D01*
X9552590Y3083750D01*
Y3401250D01*
G01X9729760D02*
X9824240D01*
G01X9777000D02*
Y3083750D01*
G01X9729760D02*
X9824240D01*
G01X10091960Y3401250D02*
Y3083750D01*
G01X10001410Y3401250D02*
X10182510D01*
G01X10324240Y3126070D02*
X10355740Y3099620D01*
X10391170Y3083750D01*
X10422670D01*
X10454160Y3099620D01*
X10477790Y3126070D01*
X10489600Y3163130D01*
X10481730Y3200160D01*
X10462040Y3231910D01*
X10426600Y3253090D01*
X10379360Y3263670D01*
X10351800Y3284830D01*
X10339990Y3321870D01*
X10347870Y3358920D01*
X10367550Y3385370D01*
X10395110Y3401250D01*
X10422670D01*
X10450230Y3390670D01*
X10473850Y3364210D01*
G01X10938410Y3083750D02*
X11036840Y3401250D01*
X11135270Y3083750D01*
G01X11099830Y3194870D02*
X10973840D01*
G01X11273060Y3083750D02*
Y3401250D01*
X11371480D01*
X11402980Y3385370D01*
X11422670Y3364210D01*
X11430540Y3321870D01*
X11422670Y3279540D01*
X11399040Y3253090D01*
X11371480Y3237200D01*
X11273060D01*
G01X11371480D02*
X11430540Y3083750D01*
G01X11745500D02*
X11588020D01*
Y3401250D01*
X11745500D01*
G01X11682510Y3247800D02*
X11588020D01*
G01X12249440Y3401250D02*
X12343920D01*
G01X12296680D02*
Y3083750D01*
G01X12249440D02*
X12343920D01*
G01X12521090D02*
Y3401250D01*
X12702190Y3083750D01*
Y3401250D01*
G01X13139190Y3083750D02*
Y3401250D01*
X13241560Y3136670D01*
X13343930Y3401250D01*
Y3083750D01*
G01X13509280Y3401250D02*
X13603760D01*
G01X13556520D02*
Y3083750D01*
G01X13509280D02*
X13603760D01*
G01X13792740Y3401250D02*
Y3083750D01*
X13950220D01*
G01X14107700Y3401250D02*
Y3083750D01*
X14265180D01*
G01X14454160Y3401250D02*
X14548640D01*
G01X14501400D02*
Y3083750D01*
G01X14454160D02*
X14548640D01*
G01X14713990D02*
Y3401250D01*
X14816360Y3136670D01*
X14918730Y3401250D01*
Y3083750D01*
G01X15210060D02*
X15052580D01*
Y3401250D01*
X15210060D01*
G01X15147070Y3247800D02*
X15052580D01*
G01X15446280Y3401250D02*
Y3083750D01*
G01X15355730Y3401250D02*
X15536830D01*
G01X15839980Y3083750D02*
X15682500D01*
Y3401250D01*
X15839980D01*
G01X15776990Y3247800D02*
X15682500D01*
G01X15997460Y3083750D02*
Y3401250D01*
X16095880D01*
X16127380Y3385370D01*
X16147070Y3364210D01*
X16154940Y3321870D01*
X16147070Y3279540D01*
X16123440Y3253090D01*
X16095880Y3237200D01*
X15997460D01*
G01X16095880D02*
X16154940Y3083750D01*
G01X16308480Y3126070D02*
X16339980Y3099620D01*
X16375410Y3083750D01*
X16406910D01*
X16438400Y3099620D01*
X16462030Y3126070D01*
X16473840Y3163130D01*
X16465970Y3200160D01*
X16446280Y3231910D01*
X16410840Y3253090D01*
X16363600Y3263670D01*
X16336040Y3284830D01*
X16324230Y3321870D01*
X16332110Y3358920D01*
X16351790Y3385370D01*
X16379350Y3401250D01*
X16406910D01*
X16434470Y3390670D01*
X16458090Y3364210D01*
G01X8115590Y3733750D02*
Y4051250D01*
X8194320D01*
X8225820Y4035370D01*
X8249440Y4014210D01*
X8269130Y3982460D01*
X8284880Y3945410D01*
X8288810Y3892500D01*
X8284880Y3839580D01*
X8269130Y3802540D01*
X8249440Y3770780D01*
X8225820Y3749620D01*
X8194320Y3733750D01*
X8115590D01*
G01X8438420D02*
Y4051250D01*
X8536840D01*
X8568340Y4035370D01*
X8588030Y4014210D01*
X8595900Y3971870D01*
X8588030Y3929540D01*
X8564400Y3903090D01*
X8536840Y3887200D01*
X8438420D01*
G01X8536840D02*
X8595900Y3733750D01*
G01X8784880Y4051250D02*
X8879360D01*
G01X8832120D02*
Y3733750D01*
G01X8784880D02*
X8879360D01*
G01X9068340Y4051250D02*
Y3733750D01*
X9225820D01*
G01X9383300Y4051250D02*
Y3733750D01*
X9540780D01*
G01X10178570Y4024790D02*
X10154950Y4040670D01*
X10127400Y4051250D01*
X10095900D01*
X10060460Y4035370D01*
X10032910Y4008920D01*
X10013220Y3977160D01*
X9997470Y3924250D01*
X9993530Y3876620D01*
X10001410Y3829000D01*
X10013220Y3797250D01*
X10036840Y3765490D01*
X10064400Y3744330D01*
X10091960Y3733750D01*
X10119520D01*
X10147080Y3744330D01*
X10170700Y3760200D01*
X10190390Y3781360D01*
G01X10324240Y3733750D02*
Y4051250D01*
G01X10489600D02*
Y3733750D01*
G01Y3892500D02*
X10324240D01*
G01X10623450Y3733750D02*
X10721880Y4051250D01*
X10820310Y3733750D01*
G01X10784870Y3844870D02*
X10658880D01*
G01X10958100Y3733750D02*
Y4051250D01*
X11056520D01*
X11088020Y4035370D01*
X11107710Y4014210D01*
X11115580Y3971870D01*
X11107710Y3929540D01*
X11084080Y3903090D01*
X11056520Y3887200D01*
X10958100D01*
G01X11056520D02*
X11115580Y3733750D01*
G01X11351800Y4051250D02*
Y3733750D01*
G01X11261250Y4051250D02*
X11442350D01*
G01X11666760Y3723170D02*
X11658880Y3728460D01*
Y3739040D01*
X11666760Y3744330D01*
X11674640Y3739040D01*
Y3728460D01*
X11666760Y3723170D01*
G01Y3866030D02*
X11658880Y3871330D01*
Y3881910D01*
X11666760Y3887200D01*
X11674640Y3881910D01*
Y3871330D01*
X11666760Y3866030D01*
G01X12296680Y4051250D02*
Y3733750D01*
G01X12206130Y4051250D02*
X12387230D01*
G01X12611640Y3733750D02*
X12580140Y3739040D01*
X12552590Y3760200D01*
X12528960Y3791960D01*
X12513210Y3829000D01*
X12505340Y3871330D01*
Y3913670D01*
X12513210Y3956000D01*
X12528960Y3993040D01*
X12552590Y4024790D01*
X12580140Y4045960D01*
X12611640Y4051250D01*
X12643130Y4045960D01*
X12670690Y4024790D01*
X12694320Y3993040D01*
X12710070Y3956000D01*
X12717940Y3913670D01*
Y3871330D01*
X12710070Y3829000D01*
X12694320Y3791960D01*
X12670690Y3760200D01*
X12643130Y3739040D01*
X12611640Y3733750D01*
G01X12847860D02*
Y4051250D01*
X12942350D01*
X12973840Y4035370D01*
X12997470Y3998330D01*
X13005340Y3956000D01*
X12997470Y3913670D01*
X12977780Y3881910D01*
X12942350Y3866030D01*
X12847860D01*
G01X13556520Y4051250D02*
Y3733750D01*
G01X13501400Y3945410D02*
X13611640D01*
G01X13871480Y3733750D02*
X13847860Y3739040D01*
X13824240Y3760200D01*
X13808480Y3797250D01*
X13800610Y3839580D01*
X13808480Y3881910D01*
X13824240Y3918960D01*
X13847860Y3940120D01*
X13871480Y3945410D01*
X13895100Y3940120D01*
X13918720Y3918960D01*
X13934470Y3881910D01*
X13938410Y3839580D01*
X13934470Y3797250D01*
X13918720Y3760200D01*
X13895100Y3739040D01*
X13871480Y3733750D01*
G01X14532890Y3903090D02*
X14548640Y3918960D01*
X14560450Y3945410D01*
X14568330Y3982460D01*
X14560450Y4014210D01*
X14544710Y4035370D01*
X14517150Y4051250D01*
X14410850D01*
Y3733750D01*
X14540770D01*
X14568330Y3754910D01*
X14584080Y3786670D01*
X14591950Y3823710D01*
X14584080Y3860740D01*
X14560450Y3892500D01*
X14532890Y3903090D01*
X14410850D01*
G01X14816360Y3733750D02*
X14784860Y3739040D01*
X14757310Y3760200D01*
X14733680Y3791960D01*
X14717930Y3829000D01*
X14710060Y3871330D01*
Y3913670D01*
X14717930Y3956000D01*
X14733680Y3993040D01*
X14757310Y4024790D01*
X14784860Y4045960D01*
X14816360Y4051250D01*
X14847850Y4045960D01*
X14875410Y4024790D01*
X14899040Y3993040D01*
X14914790Y3956000D01*
X14922660Y3913670D01*
Y3871330D01*
X14914790Y3829000D01*
X14899040Y3791960D01*
X14875410Y3760200D01*
X14847850Y3739040D01*
X14816360Y3733750D01*
G01X15131320Y4051250D02*
Y3733750D01*
G01X15040770Y4051250D02*
X15221870D01*
G01X15446280D02*
Y3733750D01*
G01X15355730Y4051250D02*
X15536830D01*
G01X15761240Y3733750D02*
X15729740Y3739040D01*
X15702190Y3760200D01*
X15678560Y3791960D01*
X15662810Y3829000D01*
X15654940Y3871330D01*
Y3913670D01*
X15662810Y3956000D01*
X15678560Y3993040D01*
X15702190Y4024790D01*
X15729740Y4045960D01*
X15761240Y4051250D01*
X15792730Y4045960D01*
X15820290Y4024790D01*
X15843920Y3993040D01*
X15859670Y3956000D01*
X15867540Y3913670D01*
Y3871330D01*
X15859670Y3829000D01*
X15843920Y3791960D01*
X15820290Y3760200D01*
X15792730Y3739040D01*
X15761240Y3733750D01*
G01X15973830D02*
Y4051250D01*
X16076200Y3786670D01*
X16178570Y4051250D01*
Y3733750D01*
G01X8717940Y2448750D02*
Y2766250D01*
X8867560D01*
G01X8812430Y2612800D02*
X8717940D01*
G01X9060470Y2766250D02*
X9154950D01*
G01X9107710D02*
Y2448750D01*
G01X9060470D02*
X9154950D01*
G01X9332120D02*
Y2766250D01*
X9513220Y2448750D01*
Y2766250D01*
G01X9690390D02*
X9784870D01*
G01X9737630D02*
Y2448750D01*
G01X9690390D02*
X9784870D01*
G01X9969910Y2491070D02*
X10001410Y2464620D01*
X10036840Y2448750D01*
X10068340D01*
X10099830Y2464620D01*
X10123460Y2491070D01*
X10135270Y2528130D01*
X10127400Y2565160D01*
X10107710Y2596910D01*
X10072270Y2618090D01*
X10025030Y2628670D01*
X9997470Y2649830D01*
X9985660Y2686870D01*
X9993540Y2723920D01*
X10013220Y2750370D01*
X10040780Y2766250D01*
X10068340D01*
X10095900Y2755670D01*
X10119520Y2729210D01*
G01X10284870Y2448750D02*
Y2766250D01*
G01X10450230D02*
Y2448750D01*
G01Y2607500D02*
X10284870D01*
G01X10761250Y2448750D02*
X10603770D01*
Y2766250D01*
X10761250D01*
G01X10698260Y2612800D02*
X10603770D01*
G01X10910860Y2448750D02*
Y2766250D01*
X10989590D01*
X11021090Y2750370D01*
X11044710Y2729210D01*
X11064400Y2697460D01*
X11080150Y2660410D01*
X11084080Y2607500D01*
X11080150Y2554580D01*
X11064400Y2517540D01*
X11044710Y2485780D01*
X11021090Y2464620D01*
X10989590Y2448750D01*
X10910860D01*
G01X11194320Y2342920D02*
X11430540D01*
G01X11544710Y2491070D02*
X11576210Y2464620D01*
X11611640Y2448750D01*
X11643140D01*
X11674630Y2464620D01*
X11698260Y2491070D01*
X11710070Y2528130D01*
X11702200Y2565160D01*
X11682510Y2596910D01*
X11647070Y2618090D01*
X11599830Y2628670D01*
X11572270Y2649830D01*
X11560460Y2686870D01*
X11568340Y2723920D01*
X11588020Y2750370D01*
X11615580Y2766250D01*
X11643140D01*
X11670700Y2755670D01*
X11694320Y2729210D01*
G01X11895110Y2766250D02*
X11989590D01*
G01X11942350D02*
Y2448750D01*
G01X11895110D02*
X11989590D01*
G01X12182500Y2766250D02*
X12332120D01*
X12182500Y2448750D01*
X12332120D01*
G01X12651010D02*
X12493530D01*
Y2766250D01*
X12651010D01*
G01X12588020Y2612800D02*
X12493530D01*
G01X10292740Y173330D02*
X10316370Y205080D01*
X10343930Y220960D01*
X10375430Y226250D01*
X10414790Y215670D01*
X10442360Y189210D01*
X10450230Y157460D01*
X10446290Y125700D01*
X10430540Y99250D01*
X10351800Y46330D01*
X10316370Y9290D01*
X10292740Y-43640D01*
X10284870Y-91250D01*
X10450230D01*
G01X10682510Y-101830D02*
X10674630Y-96540D01*
Y-85960D01*
X10682510Y-80670D01*
X10690390Y-85960D01*
Y-96540D01*
X10682510Y-101830D01*
G01X10910860Y-27750D02*
X10934470Y-64800D01*
X10965970Y-85960D01*
X11001410Y-91250D01*
X11032910Y-85960D01*
X11064400Y-59510D01*
X11084080Y-27750D01*
X11088020Y4000D01*
X11080150Y41030D01*
X11052590Y67500D01*
X11025030Y78090D01*
X10989590D01*
G01X11025030D02*
X11048650Y93960D01*
X11068340Y120410D01*
X11076210Y152160D01*
X11068340Y183920D01*
X11048650Y210370D01*
X11013220Y226250D01*
X10977790Y220960D01*
X10942350Y199790D01*
G01X10367550Y543750D02*
Y861250D01*
X10320310Y797750D01*
G01Y543750D02*
X10414790D01*
G01X10682510Y533170D02*
X10674630Y538460D01*
Y549040D01*
X10682510Y554330D01*
X10690390Y549040D01*
Y538460D01*
X10682510Y533170D01*
G01X10997470Y543750D02*
X11025030Y549040D01*
X11056520Y564910D01*
X11076210Y591360D01*
X11084080Y628420D01*
X11076210Y665450D01*
X11052590Y697200D01*
X11017150Y713090D01*
X10977790D01*
X10954160Y723670D01*
X10934470Y750120D01*
X10926600Y787160D01*
X10938420Y824210D01*
X10965970Y850670D01*
X10997470Y861250D01*
X11028960Y850670D01*
X11056520Y824210D01*
X11068340Y787160D01*
X11060460Y750120D01*
X11040780Y723670D01*
X11017150Y713090D01*
X10977790D01*
X10942350Y697200D01*
X10918730Y665450D01*
X10910860Y628420D01*
X10918730Y591360D01*
X10938420Y564910D01*
X10969910Y549040D01*
X10997470Y543750D01*
G01X10367550Y1496250D02*
X10336050Y1485670D01*
X10312430Y1459210D01*
X10296680Y1427460D01*
X10284870Y1385120D01*
X10280940Y1337500D01*
X10284870Y1289870D01*
X10296680Y1247540D01*
X10312430Y1215780D01*
X10336050Y1189330D01*
X10367550Y1178750D01*
X10399040Y1189330D01*
X10422670Y1215780D01*
X10438420Y1247540D01*
X10450230Y1289870D01*
X10454160Y1337500D01*
X10450230Y1385120D01*
X10438420Y1427460D01*
X10422670Y1459210D01*
X10399040Y1485670D01*
X10367550Y1496250D01*
G01X10682510Y1168170D02*
X10674630Y1173460D01*
Y1184040D01*
X10682510Y1189330D01*
X10690390Y1184040D01*
Y1173460D01*
X10682510Y1168170D01*
G01X10930540Y1215780D02*
X10958100Y1189330D01*
X10989590Y1178750D01*
X11021090Y1189330D01*
X11048650Y1221070D01*
X11068340Y1268710D01*
X11076210Y1316330D01*
Y1374540D01*
X11068340Y1422160D01*
X11048650Y1464500D01*
X11025030Y1485670D01*
X10997470Y1496250D01*
X10965970Y1485670D01*
X10942350Y1464500D01*
X10926600Y1432750D01*
X10918730Y1390410D01*
X10926600Y1353380D01*
X10946290Y1316330D01*
X10969910Y1295160D01*
X10997470Y1289870D01*
X11028960Y1300450D01*
X11052590Y1326910D01*
X11076210Y1374540D01*
G01X10052590Y2131250D02*
X10021090Y2120670D01*
X9997470Y2094210D01*
X9981720Y2062460D01*
X9969910Y2020120D01*
X9965980Y1972500D01*
X9969910Y1924870D01*
X9981720Y1882540D01*
X9997470Y1850780D01*
X10021090Y1824330D01*
X10052590Y1813750D01*
X10084080Y1824330D01*
X10107710Y1850780D01*
X10123460Y1882540D01*
X10135270Y1924870D01*
X10139200Y1972500D01*
X10135270Y2020120D01*
X10123460Y2062460D01*
X10107710Y2094210D01*
X10084080Y2120670D01*
X10052590Y2131250D01*
G01X10367550Y1803170D02*
X10359670Y1808460D01*
Y1819040D01*
X10367550Y1824330D01*
X10375430Y1819040D01*
Y1808460D01*
X10367550Y1803170D01*
G01X10607700Y2078330D02*
X10631330Y2110080D01*
X10658890Y2125960D01*
X10690390Y2131250D01*
X10729750Y2120670D01*
X10757320Y2094210D01*
X10765190Y2062460D01*
X10761250Y2030700D01*
X10745500Y2004250D01*
X10666760Y1951330D01*
X10631330Y1914290D01*
X10607700Y1861360D01*
X10599830Y1813750D01*
X10765190D01*
G01X10910860Y1861360D02*
X10934470Y1834910D01*
X10962030Y1819040D01*
X10997470Y1813750D01*
X11032910Y1824330D01*
X11060460Y1845490D01*
X11080150Y1882540D01*
X11084080Y1924870D01*
X11076210Y1967200D01*
X11056520Y1993670D01*
X11028960Y2014830D01*
X11001410Y2020120D01*
X10973850Y2014830D01*
X10938420Y1993670D01*
X10950230Y2131250D01*
X11056520D01*
G01X11359670Y1813750D02*
Y2131250D01*
X11214000Y1903710D01*
X11410860D01*
G01X12569730Y-408750D02*
Y-726250D01*
G01X12479180Y-408750D02*
X12660280D01*
G01X12884690Y-726250D02*
X12853190Y-720960D01*
X12825640Y-699800D01*
X12802010Y-668040D01*
X12786260Y-631000D01*
X12778390Y-588670D01*
Y-546330D01*
X12786260Y-504000D01*
X12802010Y-466960D01*
X12825640Y-435210D01*
X12853190Y-414040D01*
X12884690Y-408750D01*
X12916180Y-414040D01*
X12943740Y-435210D01*
X12967370Y-466960D01*
X12983120Y-504000D01*
X12990990Y-546330D01*
Y-588670D01*
X12983120Y-631000D01*
X12967370Y-668040D01*
X12943740Y-699800D01*
X12916180Y-720960D01*
X12884690Y-726250D01*
G01X13199650Y-408750D02*
Y-726250D01*
G01X13109100Y-408750D02*
X13290200D01*
G01X13416180Y-726250D02*
X13514610Y-408750D01*
X13613040Y-726250D01*
G01X13577600Y-615130D02*
X13451610D01*
G01X13750830Y-408750D02*
Y-726250D01*
X13908310D01*
G01X14376810D02*
Y-408750D01*
G01X14542170D02*
Y-726250D01*
G01Y-567500D02*
X14376810D01*
G01X14774450Y-726250D02*
X14742950Y-720960D01*
X14715400Y-699800D01*
X14691770Y-668040D01*
X14676020Y-631000D01*
X14668150Y-588670D01*
Y-546330D01*
X14676020Y-504000D01*
X14691770Y-466960D01*
X14715400Y-435210D01*
X14742950Y-414040D01*
X14774450Y-408750D01*
X14805940Y-414040D01*
X14833500Y-435210D01*
X14857130Y-466960D01*
X14872880Y-504000D01*
X14880750Y-546330D01*
Y-588670D01*
X14872880Y-631000D01*
X14857130Y-668040D01*
X14833500Y-699800D01*
X14805940Y-720960D01*
X14774450Y-726250D01*
G01X15010670Y-408750D02*
Y-726250D01*
X15168150D01*
G01X15483110D02*
X15325630D01*
Y-408750D01*
X15483110D01*
G01X15420120Y-562200D02*
X15325630D01*
G01X15636650Y-683930D02*
X15668150Y-710380D01*
X15703580Y-726250D01*
X15735080D01*
X15766570Y-710380D01*
X15790200Y-683930D01*
X15802010Y-646870D01*
X15794140Y-609840D01*
X15774450Y-578090D01*
X15739010Y-556910D01*
X15691770Y-546330D01*
X15664210Y-525170D01*
X15652400Y-488130D01*
X15660280Y-451080D01*
X15679960Y-424630D01*
X15707520Y-408750D01*
X15735080D01*
X15762640Y-419330D01*
X15786260Y-445790D01*
G01X16034290Y-736830D02*
X16026410Y-731540D01*
Y-720960D01*
X16034290Y-715670D01*
X16042170Y-720960D01*
Y-731540D01*
X16034290Y-736830D01*
G01Y-593970D02*
X16026410Y-588670D01*
Y-578090D01*
X16034290Y-572800D01*
X16042170Y-578090D01*
Y-588670D01*
X16034290Y-593970D01*
G01X13241560Y2925000D02*
Y-250000D01*
G01X13989590Y-91250D02*
Y226250D01*
X14084080D01*
X14115570Y210370D01*
X14139200Y173330D01*
X14147070Y131000D01*
X14139200Y88670D01*
X14119510Y56910D01*
X14084080Y41030D01*
X13989590D01*
G01X14304550Y226250D02*
Y-91250D01*
X14462030D01*
G01X14599820D02*
X14698250Y226250D01*
X14796680Y-91250D01*
G01X14761240Y19870D02*
X14635250D01*
G01X15013210Y226250D02*
Y-91250D01*
G01X14922660Y226250D02*
X15103760D01*
G01X15406910Y-91250D02*
X15249430D01*
Y226250D01*
X15406910D01*
G01X15343920Y72800D02*
X15249430D01*
G01X15556520Y-91250D02*
Y226250D01*
X15635250D01*
X15666750Y210370D01*
X15690370Y189210D01*
X15710060Y157460D01*
X15725810Y120410D01*
X15729740Y67500D01*
X15725810Y14580D01*
X15710060Y-22460D01*
X15690370Y-54220D01*
X15666750Y-75380D01*
X15635250Y-91250D01*
X15556520D01*
G01X13989590Y543750D02*
Y861250D01*
X14084080D01*
X14115570Y845370D01*
X14139200Y808330D01*
X14147070Y766000D01*
X14139200Y723670D01*
X14119510Y691910D01*
X14084080Y676030D01*
X13989590D01*
G01X14304550Y861250D02*
Y543750D01*
X14462030D01*
G01X14599820D02*
X14698250Y861250D01*
X14796680Y543750D01*
G01X14761240Y654870D02*
X14635250D01*
G01X15013210Y861250D02*
Y543750D01*
G01X14922660Y861250D02*
X15103760D01*
G01X15406910Y543750D02*
X15249430D01*
Y861250D01*
X15406910D01*
G01X15343920Y707800D02*
X15249430D01*
G01X15556520Y543750D02*
Y861250D01*
X15635250D01*
X15666750Y845370D01*
X15690370Y824210D01*
X15710060Y792460D01*
X15725810Y755410D01*
X15729740Y702500D01*
X15725810Y649580D01*
X15710060Y612540D01*
X15690370Y580780D01*
X15666750Y559620D01*
X15635250Y543750D01*
X15556520D01*
G01X13989590Y1178750D02*
Y1496250D01*
X14084080D01*
X14115570Y1480370D01*
X14139200Y1443330D01*
X14147070Y1401000D01*
X14139200Y1358670D01*
X14119510Y1326910D01*
X14084080Y1311030D01*
X13989590D01*
G01X14304550Y1496250D02*
Y1178750D01*
X14462030D01*
G01X14599820D02*
X14698250Y1496250D01*
X14796680Y1178750D01*
G01X14761240Y1289870D02*
X14635250D01*
G01X15013210Y1496250D02*
Y1178750D01*
G01X14922660Y1496250D02*
X15103760D01*
G01X15406910Y1178750D02*
X15249430D01*
Y1496250D01*
X15406910D01*
G01X15343920Y1342800D02*
X15249430D01*
G01X15556520Y1178750D02*
Y1496250D01*
X15635250D01*
X15666750Y1480370D01*
X15690370Y1459210D01*
X15710060Y1427460D01*
X15725810Y1390410D01*
X15729740Y1337500D01*
X15725810Y1284580D01*
X15710060Y1247540D01*
X15690370Y1215780D01*
X15666750Y1194620D01*
X15635250Y1178750D01*
X15556520D01*
G01X13989590Y1813750D02*
Y2131250D01*
X14084080D01*
X14115570Y2115370D01*
X14139200Y2078330D01*
X14147070Y2036000D01*
X14139200Y1993670D01*
X14119510Y1961910D01*
X14084080Y1946030D01*
X13989590D01*
G01X14304550Y2131250D02*
Y1813750D01*
X14462030D01*
G01X14599820D02*
X14698250Y2131250D01*
X14796680Y1813750D01*
G01X14761240Y1924870D02*
X14635250D01*
G01X15013210Y2131250D02*
Y1813750D01*
G01X14922660Y2131250D02*
X15103760D01*
G01X15406910Y1813750D02*
X15249430D01*
Y2131250D01*
X15406910D01*
G01X15343920Y1977800D02*
X15249430D01*
G01X15556520Y1813750D02*
Y2131250D01*
X15635250D01*
X15666750Y2115370D01*
X15690370Y2094210D01*
X15710060Y2062460D01*
X15725810Y2025410D01*
X15729740Y1972500D01*
X15725810Y1919580D01*
X15710060Y1882540D01*
X15690370Y1850780D01*
X15666750Y1829620D01*
X15635250Y1813750D01*
X15556520D01*
G01X13989590Y2448750D02*
Y2766250D01*
X14084080D01*
X14115570Y2750370D01*
X14139200Y2713330D01*
X14147070Y2671000D01*
X14139200Y2628670D01*
X14119510Y2596910D01*
X14084080Y2581030D01*
X13989590D01*
G01X14304550Y2766250D02*
Y2448750D01*
X14462030D01*
G01X14599820D02*
X14698250Y2766250D01*
X14796680Y2448750D01*
G01X14761240Y2559870D02*
X14635250D01*
G01X15013210Y2766250D02*
Y2448750D01*
G01X14922660Y2766250D02*
X15103760D01*
G01X15406910Y2448750D02*
X15249430D01*
Y2766250D01*
X15406910D01*
G01X15343920Y2612800D02*
X15249430D01*
G01X15556520Y2448750D02*
Y2766250D01*
X15635250D01*
X15666750Y2750370D01*
X15690370Y2729210D01*
X15710060Y2697460D01*
X15725810Y2660410D01*
X15729740Y2607500D01*
X15725810Y2554580D01*
X15710060Y2517540D01*
X15690370Y2485780D01*
X15666750Y2464620D01*
X15635250Y2448750D01*
X15556520D01*
G01X16469900Y2925000D02*
Y-250000D01*
G01X17288790Y-726250D02*
X17296670Y-657460D01*
X17308480Y-599260D01*
X17324230Y-546330D01*
X17343910Y-488130D01*
X17375410Y-408750D01*
X17217930D01*
G01X17611630Y-726250D02*
X17639190Y-720960D01*
X17670680Y-705090D01*
X17690370Y-678640D01*
X17698240Y-641580D01*
X17690370Y-604550D01*
X17666750Y-572800D01*
X17631310Y-556910D01*
X17591950D01*
X17568320Y-546330D01*
X17548630Y-519880D01*
X17540760Y-482840D01*
X17552580Y-445790D01*
X17580130Y-419330D01*
X17611630Y-408750D01*
X17643120Y-419330D01*
X17670680Y-445790D01*
X17682500Y-482840D01*
X17674620Y-519880D01*
X17654940Y-546330D01*
X17631310Y-556910D01*
X17591950D01*
X17556510Y-572800D01*
X17532890Y-604550D01*
X17525020Y-641580D01*
X17532890Y-678640D01*
X17552580Y-705090D01*
X17584070Y-720960D01*
X17611630Y-726250D01*
G01X17379340Y173330D02*
X17402970Y205080D01*
X17430530Y220960D01*
X17462030Y226250D01*
X17501390Y215670D01*
X17528960Y189210D01*
X17536830Y157460D01*
X17532890Y125700D01*
X17517140Y99250D01*
X17438400Y46330D01*
X17402970Y9290D01*
X17379340Y-43640D01*
X17371470Y-91250D01*
X17536830D01*
G01X17379340Y808330D02*
X17402970Y840080D01*
X17430530Y855960D01*
X17462030Y861250D01*
X17501390Y850670D01*
X17528960Y824210D01*
X17536830Y792460D01*
X17532890Y760700D01*
X17517140Y734250D01*
X17438400Y681330D01*
X17402970Y644290D01*
X17379340Y591360D01*
X17371470Y543750D01*
X17536830D01*
G01X17296670Y1178750D02*
Y1496250D01*
X17249430Y1432750D01*
G01Y1178750D02*
X17343910D01*
G01X17536820Y1311030D02*
X17564390Y1348090D01*
X17588010Y1369250D01*
X17619510Y1379830D01*
X17647070Y1369250D01*
X17666750Y1348090D01*
X17682500Y1316330D01*
X17686440Y1279290D01*
X17682500Y1247540D01*
X17666750Y1215780D01*
X17643120Y1189330D01*
X17615570Y1178750D01*
X17584070Y1189330D01*
X17556510Y1221070D01*
X17540760Y1268710D01*
X17536820Y1321620D01*
X17544700Y1390410D01*
X17556510Y1427460D01*
X17576190Y1464500D01*
X17603750Y1490960D01*
X17631310Y1496250D01*
X17658870Y1485670D01*
X17678560Y1459210D01*
G01X17210060Y1861360D02*
X17233670Y1834910D01*
X17261230Y1819040D01*
X17296670Y1813750D01*
X17332110Y1824330D01*
X17359660Y1845490D01*
X17379350Y1882540D01*
X17383280Y1924870D01*
X17375410Y1967200D01*
X17355720Y1993670D01*
X17328160Y2014830D01*
X17300610Y2020120D01*
X17273050Y2014830D01*
X17237620Y1993670D01*
X17249430Y2131250D01*
X17355720D01*
G01X17611630Y1813750D02*
X17639190Y1819040D01*
X17670680Y1834910D01*
X17690370Y1861360D01*
X17698240Y1898420D01*
X17690370Y1935450D01*
X17666750Y1967200D01*
X17631310Y1983090D01*
X17591950D01*
X17568320Y1993670D01*
X17548630Y2020120D01*
X17540760Y2057160D01*
X17552580Y2094210D01*
X17580130Y2120670D01*
X17611630Y2131250D01*
X17643120Y2120670D01*
X17670680Y2094210D01*
X17682500Y2057160D01*
X17674620Y2020120D01*
X17654940Y1993670D01*
X17631310Y1983090D01*
X17591950D01*
X17556510Y1967200D01*
X17532890Y1935450D01*
X17525020Y1898420D01*
X17532890Y1861360D01*
X17552580Y1834910D01*
X17584070Y1819040D01*
X17611630Y1813750D01*
G01X17139190Y2448750D02*
X17107690Y2454040D01*
X17080140Y2475200D01*
X17056510Y2506960D01*
X17040760Y2544000D01*
X17032890Y2586330D01*
Y2628670D01*
X17040760Y2671000D01*
X17056510Y2708040D01*
X17080140Y2739790D01*
X17107690Y2760960D01*
X17139190Y2766250D01*
X17170680Y2760960D01*
X17198240Y2739790D01*
X17221870Y2708040D01*
X17237620Y2671000D01*
X17245490Y2628670D01*
Y2586330D01*
X17237620Y2544000D01*
X17221870Y2506960D01*
X17198240Y2475200D01*
X17170680Y2454040D01*
X17139190Y2448750D01*
G01X17170680Y2533420D02*
X17217930Y2448750D01*
G01X17454150Y2766250D02*
Y2448750D01*
G01X17363600Y2766250D02*
X17544700D01*
G01X17769110Y2448750D02*
Y2591620D01*
X17690370Y2766250D01*
G01X17847850D02*
X17769110Y2591620D01*
M02*
