G04 ================== begin FILE IDENTIFICATION RECORD ==================*
G04 Layout Name:  STLINKV3_PINOUT_V10A.brd*
G04 Film Name:    BOTTOM*
G04 File Format:  Gerber RS274X*
G04 File Origin:  Cadence Allegro 17.2-S058*
G04 Origin Date:  Fri Jul 10 11:46:01 2020*
G04 *
G04 Layer:  ETCH/BOTTOM*
G04 Layer:  PIN/BOTTOM*
G04 Layer:  VIA CLASS/BOTTOM*
G04 *
G04 Offset:    (0.0000 0.0000)*
G04 Mirror:    No*
G04 Mode:      Positive*
G04 Rotation:  0*
G04 FullContactRelief:  No*
G04 UndefLineWidth:     0.1524*
G04 ================== end FILE IDENTIFICATION RECORD ====================*
%FSLAX55Y55*MOMM*%
%IR0*IPPOS*OFA0.00000B0.00000*MIA0B0*SFA1.00000B1.00000*%
%ADD10C,.6096*%
%ADD11C,1.6*%
%ADD12R,1.6X1.6*%
%ADD13C,.2032*%
%ADD14C,.254*%
G75*
%LPD*%
G75*
G36*
G01X20000Y2460000D02*
X1186120D01*
G02X1202090Y2427120I-3J-20320D01*
G03X1185780Y2380000I59910J-47120D01*
G03X1262000Y2303780I76220J0D01*
G03X1313810Y2324100I0J76210D01*
G01X3096850D01*
X3210470Y2210470D01*
G03X3225780Y2199620I39519J39537D01*
G02X3235480Y2172920I-8808J-18312D01*
G03X3224260Y2121000I114519J-51920D01*
G03X3229080Y2086520I125737J0D01*
G01X3230720Y2080770D01*
X3184710Y2034760D01*
G02X3150020Y2049130I-14369J14369D01*
G01Y2130000D01*
G03X3090000Y2190020I-60020J0D01*
G01X2010000D01*
G03X1949980Y2130000I0J-60020D01*
G01Y860000D01*
G03X2010000Y799980I60020J0D01*
G01X3090000D01*
G03X3107770Y802670I3J60020D01*
G02X3134100Y783260I6011J-19410D01*
G01Y693150D01*
X3114670Y673720D01*
X2710810D01*
G03X2659000Y694040I-51810J-55890D01*
G03X2599660Y665660I0J-76227D01*
G03X2574000Y671900I-25665J-49659D01*
G01X1567810D01*
G03X1516000Y692220I-51810J-55890D01*
G03X1439780Y616000I0J-76220D01*
G03X1448850Y579930I76222J-9D01*
G02X1430950Y550000I-17901J-9612D01*
G01X20000D01*
Y2460000D01*
G37*
G36*
G01X3180000Y2980000D02*
X4000000D01*
X4080000Y2900000D01*
Y100000D01*
X4000000Y20000D01*
X3180000D01*
Y502830D01*
G03X3189530Y510470I-29992J47175D01*
G01X3222290Y543240D01*
G02X3252430Y541690I14371J-14368D01*
G03X3284960Y513390I97572J79309D01*
G02Y478610I-10514J-17390D01*
G03X3224260Y371000I65036J-107610D01*
G03X3475740I125740J0D01*
G03X3415040Y478610I-125736J0D01*
G02Y513390I10514J17390D01*
G03Y728610I-65036J107610D01*
G02Y763390I10514J17390D01*
G03X3475740Y871000I-65036J107610D01*
G03X3350000Y996740I-125740J0D01*
G03X3317100Y992360I0J-125753D01*
G02X3291460Y1011970I-5320J19611D01*
G01Y1230030D01*
G02X3317100Y1249640I20320J-1D01*
G03X3350000Y1245260I32900J121373D01*
G03X3475740Y1371000I0J125740D01*
G03X3470920Y1405480I-125737J0D01*
G01X3469280Y1411230D01*
X3509530Y1451470D01*
G03X3525900Y1491000I-39543J39530D01*
G01Y2200000D01*
G03X3509530Y2239530I-55913J0D01*
G01X3459530Y2289530D01*
G03X3458000Y2290990I-39348J-39703D01*
G02X3456320Y2303870I6910J7451D01*
G03X3475740Y2371000I-106316J67130D01*
G03X3350000Y2496740I-125740J0D01*
G03X3226900Y2396640I0J-125742D01*
G02X3192640Y2386410I-19894J4141D01*
G01X3159530Y2419530D01*
G03X3120000Y2435900I-39530J-39543D01*
G01X1313810D01*
G03X1306850Y2441630I-51840J-55876D01*
G01X1312830Y2460000D01*
X3130000D01*
X3180000Y2510000D01*
Y2980000D01*
G37*
G36*
G01X3309770Y1751720D02*
X3315520Y1750080D01*
G03X3350000Y1745260I34480J120917D01*
G03X3387690Y1751040I5J125741D01*
G02X3414100Y1731660I6091J-19385D01*
G01Y1514150D01*
X3390230Y1490280D01*
X3384480Y1491920D01*
G03X3350000Y1496740I-34480J-120917D01*
G03X3317100Y1492360I0J-125753D01*
G02X3291460Y1511970I-5320J19611D01*
G01Y1733410D01*
X3309770Y1751720D01*
G37*
G54D10*
X191680Y1118930D03*
Y1518930D03*
Y1918930D03*
X591680Y1118930D03*
Y1518930D03*
Y1918930D03*
X991680Y1118930D03*
X1391680D03*
X991680Y1518930D03*
X1391680D03*
X991680Y1918930D03*
X1391680D03*
X1262000Y2380000D03*
X1516000Y616000D03*
X1791680Y1118930D03*
Y1518930D03*
Y1918930D03*
X2659000Y617820D03*
X3588930Y278320D03*
Y1078320D03*
Y678320D03*
Y1478320D03*
Y1878320D03*
X3200000Y2170000D03*
X3588930Y2678320D03*
Y2278320D03*
X3988930Y278320D03*
Y1078320D03*
Y678320D03*
Y1478320D03*
Y1878320D03*
Y2678320D03*
Y2278320D03*
G54D11*
X3350000Y371000D03*
Y621000D03*
Y871000D03*
Y1121000D03*
Y1371000D03*
Y1621000D03*
Y1871000D03*
Y2121000D03*
Y2371000D03*
G54D12*
Y2621000D03*
G54D13*
G01Y1371000D02*
X3470000Y1491000D01*
Y2200000D01*
X3420000Y2250000D01*
X3250000D01*
X3120000Y2380000D01*
X1262000D01*
G01X3190000Y480000D02*
X3160000Y510000D01*
X3159190Y510160D01*
X2821270D01*
X2820460Y510000D01*
X2540000D01*
X2494960Y555040D01*
X1444960D01*
X1430000Y570000D01*
G01X1516000Y616000D02*
X2574000D01*
X2640000Y550000D01*
X3150000D01*
X3235560Y635560D01*
Y1756560D01*
X3350000Y1871000D01*
G01Y2121000D02*
X3190000Y1961000D01*
Y670000D01*
X3137820Y617820D01*
X2659000D01*
G54D14*
G01X1320000Y2450000D02*
X1200000D01*
G01D02*
X1190000Y2440000D01*
M02*
