G04 ================== begin FILE IDENTIFICATION RECORD ==================*
G04 Layout Name:  STLINKV3_PINOUT_V10A.brd*
G04 Film Name:    SilkScreen_Top*
G04 File Format:  Gerber RS274X*
G04 File Origin:  Cadence Allegro 17.2-S058*
G04 Origin Date:  Fri Jul 10 11:46:01 2020*
G04 *
G04 Layer:  REF DES/SILKSCREEN_TOP*
G04 Layer:  PACKAGE GEOMETRY/SILKSCREEN_TOP*
G04 Layer:  BOARD GEOMETRY/SILKSCREEN_TOP*
G04 *
G04 Offset:    (0.0000 0.0000)*
G04 Mirror:    No*
G04 Mode:      Positive*
G04 Rotation:  0*
G04 FullContactRelief:  No*
G04 UndefLineWidth:     0.1524*
G04 ================== end FILE IDENTIFICATION RECORD ====================*
%FSLAX55Y55*MOMM*%
%IR0*IPPOS*OFA0.00000B0.00000*MIA0B0*SFA1.00000B1.00000*%
%ADD10C,.2*%
%ADD11C,.1524*%
G75*
%LPD*%
G75*
G36*
G01X640000Y320000D02*
G03I-320000J0D01*
G37*
G36*
G01X3130000Y811000D02*
X1080000D01*
Y741000D01*
X140000D01*
Y1031000D01*
X40000D01*
Y1961000D01*
X140000D01*
Y2251000D01*
X1080000D01*
Y2181000D01*
X3130000D01*
Y811000D01*
G37*
G36*
G01X640000Y2680000D02*
G03I-320000J0D01*
G37*
G36*
G01X1165000Y621000D02*
G03I-30000J0D01*
G37*
G36*
G01X3160000Y320000D02*
G03I-320000J0D01*
G37*
G36*
G01Y2680000D02*
G03I-320000J0D01*
G37*
G54D10*
G01X1070000Y721000D02*
X120000D01*
Y911000D01*
G03X20000Y1011000I-100000J0D01*
G01Y1981000D01*
G03X120000Y2081000I0J100000D01*
G01Y2271000D01*
X1070000D01*
G01X3240000Y2730000D02*
X4080000D01*
Y260000D01*
X3240000D01*
Y2730000D01*
G01Y500000D02*
X4080000D01*
G01X3240000Y1000000D02*
X4080000D01*
G01X3240000Y750000D02*
X4080000D01*
G01X3100000Y2271000D02*
X3150000D01*
Y721000D01*
X3100000D01*
G01X3240000Y1500000D02*
X4080000D01*
G01X3240000Y1250000D02*
X4080000D01*
G01X3240000Y2000000D02*
X4080000D01*
G01X3240000Y1750000D02*
X4080000D01*
G01X3240000Y2490000D02*
X4080000D01*
G01X3240000Y2250000D02*
X4080000D01*
G01X3820000Y440000D02*
X3890000Y370000D01*
X3820000Y300000D01*
G01X3890000Y440000D02*
X3960000Y370000D01*
X3890000Y300000D01*
G01X3960000Y440000D02*
X4030000Y370000D01*
X3960000Y300000D01*
G01X3890000Y550000D02*
X3820000Y620000D01*
X3890000Y690000D01*
G01X3960000Y550000D02*
X3890000Y620000D01*
X3960000Y690000D01*
G01X4030000Y550000D02*
X3960000Y620000D01*
X4030000Y690000D01*
G54D11*
G01X10000Y723000D02*
X74500D01*
X88000Y727000D01*
X97000Y735000D01*
X100000Y745000D01*
X97000Y755000D01*
X88000Y763000D01*
X74500Y767000D01*
X10000D01*
G01X100000Y815000D02*
X10000D01*
X28000Y803000D01*
G01X100000D02*
Y827000D01*
G01X3493330Y320000D02*
Y430000D01*
X3526670D01*
X3537330Y424500D01*
X3544000Y417170D01*
X3546670Y402500D01*
X3544000Y387830D01*
X3536000Y378670D01*
X3526670Y373170D01*
X3493330D01*
G01X3526670D02*
X3546670Y320000D01*
G01X3582000D02*
X3638000Y430000D01*
G01X3582000D02*
X3638000Y320000D01*
G01X3520000Y680000D02*
Y570000D01*
G01X3489330Y680000D02*
X3550670D01*
G01X3582000Y570000D02*
X3638000Y680000D01*
G01X3582000D02*
X3638000Y570000D01*
G01X3538000Y1125000D02*
X3564670D01*
Y1092000D01*
X3556670Y1081000D01*
X3547330Y1073670D01*
X3534000Y1070000D01*
X3520670Y1073670D01*
X3511330Y1081000D01*
X3503330Y1092000D01*
X3498000Y1104830D01*
X3495330Y1119500D01*
Y1132330D01*
X3498000Y1143330D01*
X3503330Y1156170D01*
X3511330Y1167170D01*
X3519330Y1174500D01*
X3530000Y1180000D01*
X3539330D01*
X3550000Y1176330D01*
X3558000Y1169000D01*
G01X3589330Y1070000D02*
Y1180000D01*
X3650670Y1070000D01*
Y1180000D01*
G01X3680670Y1070000D02*
Y1180000D01*
X3707330D01*
X3718000Y1174500D01*
X3726000Y1167170D01*
X3732670Y1156170D01*
X3738000Y1143330D01*
X3739330Y1125000D01*
X3738000Y1106670D01*
X3732670Y1093830D01*
X3726000Y1082830D01*
X3718000Y1075500D01*
X3707330Y1070000D01*
X3680670D01*
G01X3499330Y1320000D02*
Y1430000D01*
X3560670Y1320000D01*
Y1430000D01*
G01X3593330Y1320000D02*
Y1430000D01*
X3626670D01*
X3637330Y1424500D01*
X3644000Y1417170D01*
X3646670Y1402500D01*
X3644000Y1387830D01*
X3636000Y1378670D01*
X3626670Y1373170D01*
X3593330D01*
G01X3626670D02*
X3646670Y1320000D01*
G01X3682000Y1334660D02*
X3692670Y1325500D01*
X3704670Y1320000D01*
X3715330D01*
X3726000Y1325500D01*
X3734000Y1334660D01*
X3738000Y1347500D01*
X3735330Y1360330D01*
X3728670Y1371330D01*
X3716670Y1378670D01*
X3700670Y1382330D01*
X3691330Y1389670D01*
X3687330Y1402500D01*
X3690000Y1415330D01*
X3696670Y1424500D01*
X3706000Y1430000D01*
X3715330D01*
X3724670Y1426330D01*
X3732670Y1417170D01*
G01X3800000Y1430000D02*
Y1320000D01*
G01X3769330Y1430000D02*
X3830670D01*
G01X3538000Y1625000D02*
X3564670D01*
Y1592000D01*
X3556670Y1581000D01*
X3547330Y1573670D01*
X3534000Y1570000D01*
X3520670Y1573670D01*
X3511330Y1581000D01*
X3503330Y1592000D01*
X3498000Y1604830D01*
X3495330Y1619500D01*
Y1632330D01*
X3498000Y1643330D01*
X3503330Y1656170D01*
X3511330Y1667170D01*
X3519330Y1674500D01*
X3530000Y1680000D01*
X3539330D01*
X3550000Y1676330D01*
X3558000Y1669000D01*
G01X3589330Y1570000D02*
Y1680000D01*
X3650670Y1570000D01*
Y1680000D01*
G01X3680670Y1570000D02*
Y1680000D01*
X3707330D01*
X3718000Y1674500D01*
X3726000Y1667170D01*
X3732670Y1656170D01*
X3738000Y1643330D01*
X3739330Y1625000D01*
X3738000Y1606670D01*
X3732670Y1593830D01*
X3726000Y1582830D01*
X3718000Y1575500D01*
X3707330Y1570000D01*
X3680670D01*
G01X3492000Y2084660D02*
X3502670Y2075500D01*
X3514670Y2070000D01*
X3525330D01*
X3536000Y2075500D01*
X3544000Y2084660D01*
X3548000Y2097500D01*
X3545330Y2110330D01*
X3538670Y2121330D01*
X3526670Y2128670D01*
X3510670Y2132330D01*
X3501330Y2139670D01*
X3497330Y2152500D01*
X3500000Y2165330D01*
X3506670Y2174500D01*
X3516000Y2180000D01*
X3525330D01*
X3534670Y2176330D01*
X3542670Y2167170D01*
G01X3570000Y2180000D02*
X3588670Y2070000D01*
X3610000Y2180000D01*
X3631330Y2070000D01*
X3650000Y2180000D01*
G01X3729330Y2170830D02*
X3721330Y2176330D01*
X3712000Y2180000D01*
X3701330D01*
X3689330Y2174500D01*
X3680000Y2165330D01*
X3673330Y2154330D01*
X3668000Y2136000D01*
X3666670Y2119500D01*
X3669330Y2103000D01*
X3673330Y2092000D01*
X3681330Y2081000D01*
X3690670Y2073670D01*
X3700000Y2070000D01*
X3709330D01*
X3718670Y2073670D01*
X3726670Y2079160D01*
X3733330Y2086500D01*
G01X3763330Y2180000D02*
Y2070000D01*
X3816670D01*
G01X3850670D02*
Y2180000D01*
G01X3901330D02*
X3850670Y2112160D01*
G01X3909330Y2070000D02*
X3873330Y2143330D01*
G01X3492000Y1834660D02*
X3502670Y1825500D01*
X3514670Y1820000D01*
X3525330D01*
X3536000Y1825500D01*
X3544000Y1834660D01*
X3548000Y1847500D01*
X3545330Y1860330D01*
X3538670Y1871330D01*
X3526670Y1878670D01*
X3510670Y1882330D01*
X3501330Y1889670D01*
X3497330Y1902500D01*
X3500000Y1915330D01*
X3506670Y1924500D01*
X3516000Y1930000D01*
X3525330D01*
X3534670Y1926330D01*
X3542670Y1917170D01*
G01X3570000Y1930000D02*
X3588670Y1820000D01*
X3610000Y1930000D01*
X3631330Y1820000D01*
X3650000Y1930000D01*
G01X3670670Y1820000D02*
Y1930000D01*
X3697330D01*
X3708000Y1924500D01*
X3716000Y1917170D01*
X3722670Y1906170D01*
X3728000Y1893330D01*
X3729330Y1875000D01*
X3728000Y1856670D01*
X3722670Y1843830D01*
X3716000Y1832830D01*
X3708000Y1825500D01*
X3697330Y1820000D01*
X3670670D01*
G01X3774000Y1930000D02*
X3806000D01*
G01X3790000D02*
Y1820000D01*
G01X3774000D02*
X3806000D01*
G01X3880000D02*
X3869330Y1821830D01*
X3860000Y1829160D01*
X3852000Y1840170D01*
X3846670Y1853000D01*
X3844000Y1867670D01*
Y1882330D01*
X3846670Y1897000D01*
X3852000Y1909830D01*
X3860000Y1920830D01*
X3869330Y1928170D01*
X3880000Y1930000D01*
X3890670Y1928170D01*
X3900000Y1920830D01*
X3908000Y1909830D01*
X3913330Y1897000D01*
X3916000Y1882330D01*
Y1867670D01*
X3913330Y1853000D01*
X3908000Y1840170D01*
X3900000Y1829160D01*
X3890670Y1821830D01*
X3880000Y1820000D01*
G01X3538000Y2615000D02*
X3564670D01*
Y2582000D01*
X3556670Y2571000D01*
X3547330Y2563670D01*
X3534000Y2560000D01*
X3520670Y2563670D01*
X3511330Y2571000D01*
X3503330Y2582000D01*
X3498000Y2594830D01*
X3495330Y2609500D01*
Y2622330D01*
X3498000Y2633330D01*
X3503330Y2646170D01*
X3511330Y2657170D01*
X3519330Y2664500D01*
X3530000Y2670000D01*
X3539330D01*
X3550000Y2666330D01*
X3558000Y2659000D01*
G01X3589330Y2560000D02*
Y2670000D01*
X3650670Y2560000D01*
Y2670000D01*
G01X3680670Y2560000D02*
Y2670000D01*
X3707330D01*
X3718000Y2664500D01*
X3726000Y2657170D01*
X3732670Y2646170D01*
X3738000Y2633330D01*
X3739330Y2615000D01*
X3738000Y2596670D01*
X3732670Y2583830D01*
X3726000Y2572830D01*
X3718000Y2565500D01*
X3707330Y2560000D01*
X3680670D01*
M02*
