M48
METRIC,TZ
T01C.3048
T02C.9
;LEADER: 12 
;HEADER: 
;CODE  : ASCII 
;FILE  : STLINKV3_PINOUT_V10A-1-2.drl for board H:/github/MBED-TOOLS/HARDWARE/STLINKV3_PINOUT_V10A/PCB/#Taaaacw13600.tmp ... layers TOP and BOTTOM
;T01 Holesize 1. = 0.304800 Tolerance = +0.000000/-0.000000 PLATED MM Quantity = 33
;T02 Holesize 2. = 0.900000 Tolerance = +0.000000/-0.000000 PLATED MM Quantity = 10
%
G90
T01
X191680Y1118930
X191680Y1518930
X191680Y1918930
X591680Y1918930
X591680Y1518930
X591680Y1118930
X991680Y1118930
X991680Y1518930
X991680Y1918930
X1262000Y2380000
X1391680Y1918930
X1391680Y1518930
X1391680Y1118930
X1516000Y616000
X1791680Y1118930
X1791680Y1518930
X1791680Y1918930
X2659000Y617820
X3200000Y2170000
X3588930Y2678320
X3588930Y2278320
X3588930Y1878320
X3588930Y1478320
X3588930Y1078320
X3588930Y678320
X3588930Y278320
X3988930Y278320
X3988930Y678320
X3988930Y1078320
X3988930Y1478320
X3988930Y1878320
X3988930Y2278320
X3988930Y2678320
T02
X3350000Y371000
X3350000Y621000
X3350000Y871000
X3350000Y1121000
X3350000Y1371000
X3350000Y1621000
X3350000Y1871000
X3350000Y2121000
X3350000Y2371000
X3350000Y2621000
M30
