G04 ================== begin FILE IDENTIFICATION RECORD ==================*
G04 Layout Name:  H:/github/MBED-TOOLS/HARDWARE/RM08K_TEST_V10/PCB/RM08K_TEST_V10.brd*
G04 Film Name:    Drill_Legend*
G04 File Format:  Gerber RS274X*
G04 File Origin:  Cadence Allegro 17.2-S067*
G04 Origin Date:  Sat Aug 01 17:15:10 2020*
G04 *
G04 Layer:  MANUFACTURING/NCLEGEND-1-2*
G04 Layer:  MANUFACTURING/NCDRILL_LEGEND*
G04 Layer:  MANUFACTURING/NCDRILL_FIGURE*
G04 Layer:  BOARD GEOMETRY/DIMENSION*
G04 *
G04 Offset:    (0.0000 0.0000)*
G04 Mirror:    No*
G04 Mode:      Positive*
G04 Rotation:  0*
G04 FullContactRelief:  No*
G04 UndefLineWidth:     0.1524*
G04 ================== end FILE IDENTIFICATION RECORD ====================*
%FSLAX55Y55*MOMM*%
%IR0*IPPOS*OFA0.00000B0.00000*MIA0B0*SFA1.00000B1.00000*%
%AMMACRO17*
1,1,.1524,.269239,-.65*
20,1,.1524,.269239,-.65,-.269239,-.65,0.0*
1,1,.1524,-.269239,-.65*
20,1,.1524,-.269239,-.65,-.65,-.269239,0.0*
1,1,.1524,-.65,-.269239*
20,1,.1524,-.65,-.269239,-.65,.269239,0.0*
1,1,.1524,-.65,.269239*
20,1,.1524,-.65,.269239,-.269239,.65,0.0*
1,1,.1524,-.269239,.65*
20,1,.1524,-.269239,.65,.269239,.65,0.0*
1,1,.1524,.269239,.65*
20,1,.1524,.269239,.65,.65,.269239,0.0*
1,1,.1524,.65,.269239*
20,1,.1524,.65,.269239,.65,-.269239,0.0*
1,1,.1524,.65,-.269239*
20,1,.1524,.65,-.269239,.269239,-.65,0.0*
1,1,.1524,.269239,-.65*
%
%ADD17MACRO17*%
%AMMACRO13*
1,1,.1524,.9,0.0*
20,1,.1524,.9,0.0,0.0,-.9,0.0*
1,1,.1524,0.0,-.9*
20,1,.1524,0.0,-.9,-.9,0.0,0.0*
1,1,.1524,-.9,0.0*
20,1,.1524,-.9,0.0,0.0,.9,0.0*
1,1,.1524,0.0,.9*
20,1,.1524,0.0,.9,.9,0.0,0.0*
1,1,.1524,.9,0.0*
%
%ADD13MACRO13*%
%AMMACRO12*
1,1,.1524,.45,.45*
20,1,.1524,.45,.45,.45,-.45,0.0*
1,1,.1524,.45,-.45*
20,1,.1524,.45,-.45,-.45,-.45,0.0*
1,1,.1524,-.45,-.45*
20,1,.1524,-.45,-.45,-.45,.45,0.0*
1,1,.1524,-.45,.45*
20,1,.1524,-.45,.45,.45,.45,0.0*
1,1,.1524,.45,.45*
%
%ADD12MACRO12*%
%AMMACRO10*
1,1,.1524,.1524,0.0*
20,1,.1524,.1524,0.0,-.1524,0.0,0.0*
1,1,.1524,-.1524,0.0*
1,1,.1524,0.0,.1524*
20,1,.1524,0.0,.1524,0.0,-.1524,0.0*
1,1,.1524,0.0,-.1524*
%
%ADD10MACRO10*%
%AMMACRO11*
1,1,.1524,.5,0.0*
20,1,.1524,.5,0.0,.25,.433013,0.0*
1,1,.1524,.25,.433013*
20,1,.1524,.25,.433013,-.25,.433013,0.0*
1,1,.1524,-.25,.433013*
20,1,.1524,-.25,.433013,-.5,0.0,0.0*
1,1,.1524,-.5,0.0*
20,1,.1524,-.5,0.0,-.25,-.433013,0.0*
1,1,.1524,-.25,-.433013*
20,1,.1524,-.25,-.433013,.25,-.433013,0.0*
1,1,.1524,.25,-.433013*
20,1,.1524,.25,-.433013,.5,0.0,0.0*
1,1,.1524,.5,0.0*
%
%ADD11MACRO11*%
%AMMACRO14*
1,1,.1524,0.0,.55*
20,1,.1524,0.0,.55,-.476314,.275,0.0*
1,1,.1524,-.476314,.275*
20,1,.1524,-.476314,.275,-.476314,-.275,0.0*
1,1,.1524,-.476314,-.275*
20,1,.1524,-.476314,-.275,0.0,-.55,0.0*
1,1,.1524,0.0,-.55*
20,1,.1524,0.0,-.55,.476314,-.275,0.0*
1,1,.1524,.476314,-.275*
20,1,.1524,.476314,-.275,.476314,.275,0.0*
1,1,.1524,.476314,.275*
20,1,.1524,.476314,.275,0.0,.55,0.0*
1,1,.1524,0.0,.55*
%
%ADD14MACRO14*%
%AMMACRO15*
1,1,.1524,-.5,-1.*
20,1,.1524,-.5,-1.,-.5,1.,0.0*
1,1,.1524,-.5,1.*
20,1,.1524,-.5,1.,-.492404,1.086824,0.0*
1,1,.1524,-.492404,1.086824*
20,1,.1524,-.492404,1.086824,-.469846,1.17101,0.0*
1,1,.1524,-.469846,1.17101*
20,1,.1524,-.469846,1.17101,-.433013,1.25,0.0*
1,1,.1524,-.433013,1.25*
20,1,.1524,-.433013,1.25,-.383022,1.321394,0.0*
1,1,.1524,-.383022,1.321394*
20,1,.1524,-.383022,1.321394,-.321394,1.383022,0.0*
1,1,.1524,-.321394,1.383022*
20,1,.1524,-.321394,1.383022,-.25,1.433013,0.0*
1,1,.1524,-.25,1.433013*
20,1,.1524,-.25,1.433013,-.17101,1.469846,0.0*
1,1,.1524,-.17101,1.469846*
20,1,.1524,-.17101,1.469846,-.086824,1.492404,0.0*
1,1,.1524,-.086824,1.492404*
20,1,.1524,-.086824,1.492404,0.0,1.5,0.0*
1,1,.1524,0.0,1.5*
20,1,.1524,0.0,1.5,.086824,1.492404,0.0*
1,1,.1524,.086824,1.492404*
20,1,.1524,.086824,1.492404,.17101,1.469846,0.0*
1,1,.1524,.17101,1.469846*
20,1,.1524,.17101,1.469846,.25,1.433013,0.0*
1,1,.1524,.25,1.433013*
20,1,.1524,.25,1.433013,.321394,1.383022,0.0*
1,1,.1524,.321394,1.383022*
20,1,.1524,.321394,1.383022,.383022,1.321394,0.0*
1,1,.1524,.383022,1.321394*
20,1,.1524,.383022,1.321394,.433013,1.25,0.0*
1,1,.1524,.433013,1.25*
20,1,.1524,.433013,1.25,.469846,1.17101,0.0*
1,1,.1524,.469846,1.17101*
20,1,.1524,.469846,1.17101,.492404,1.086824,0.0*
1,1,.1524,.492404,1.086824*
20,1,.1524,.492404,1.086824,.5,1.,0.0*
1,1,.1524,.5,1.*
20,1,.1524,.5,1.,.5,-1.,0.0*
1,1,.1524,.5,-1.*
20,1,.1524,.5,-1.,.492404,-1.086824,0.0*
1,1,.1524,.492404,-1.086824*
20,1,.1524,.492404,-1.086824,.469846,-1.17101,0.0*
1,1,.1524,.469846,-1.17101*
20,1,.1524,.469846,-1.17101,.433013,-1.25,0.0*
1,1,.1524,.433013,-1.25*
20,1,.1524,.433013,-1.25,.383022,-1.321394,0.0*
1,1,.1524,.383022,-1.321394*
20,1,.1524,.383022,-1.321394,.321394,-1.383022,0.0*
1,1,.1524,.321394,-1.383022*
20,1,.1524,.321394,-1.383022,.25,-1.433013,0.0*
1,1,.1524,.25,-1.433013*
20,1,.1524,.25,-1.433013,.17101,-1.469846,0.0*
1,1,.1524,.17101,-1.469846*
20,1,.1524,.17101,-1.469846,.086824,-1.492404,0.0*
1,1,.1524,.086824,-1.492404*
20,1,.1524,.086824,-1.492404,0.0,-1.5,0.0*
1,1,.1524,0.0,-1.5*
20,1,.1524,0.0,-1.5,-.086824,-1.492404,0.0*
1,1,.1524,-.086824,-1.492404*
20,1,.1524,-.086824,-1.492404,-.17101,-1.469846,0.0*
1,1,.1524,-.17101,-1.469846*
20,1,.1524,-.17101,-1.469846,-.25,-1.433013,0.0*
1,1,.1524,-.25,-1.433013*
20,1,.1524,-.25,-1.433013,-.321394,-1.383022,0.0*
1,1,.1524,-.321394,-1.383022*
20,1,.1524,-.321394,-1.383022,-.383022,-1.321394,0.0*
1,1,.1524,-.383022,-1.321394*
20,1,.1524,-.383022,-1.321394,-.433013,-1.25,0.0*
1,1,.1524,-.433013,-1.25*
20,1,.1524,-.433013,-1.25,-.469846,-1.17101,0.0*
1,1,.1524,-.469846,-1.17101*
20,1,.1524,-.469846,-1.17101,-.492404,-1.086824,0.0*
1,1,.1524,-.492404,-1.086824*
20,1,.1524,-.492404,-1.086824,-.5,-1.,0.0*
1,1,.1524,-.5,-1.*
1,1,.1524,-.25,-.25*
20,1,.1524,-.25,-.25,-.3167,-.2417,0.0*
1,1,.1524,-.3167,-.2417*
20,1,.1524,-.3167,-.2417,-.375,-.2083,0.0*
1,1,.1524,-.375,-.2083*
20,1,.1524,-.375,-.2083,-.425,-.1583,0.0*
1,1,.1524,-.425,-.1583*
20,1,.1524,-.425,-.1583,-.4583,-.1,0.0*
1,1,.1524,-.4583,-.1*
20,1,.1524,-.4583,-.1,-.475,-.0333,0.0*
1,1,.1524,-.475,-.0333*
20,1,.1524,-.475,-.0333,-.475,.0333,0.0*
1,1,.1524,-.475,.0333*
20,1,.1524,-.475,.0333,-.4583,.1,0.0*
1,1,.1524,-.4583,.1*
20,1,.1524,-.4583,.1,-.425,.1583,0.0*
1,1,.1524,-.425,.1583*
20,1,.1524,-.425,.1583,-.375,.2083,0.0*
1,1,.1524,-.375,.2083*
20,1,.1524,-.375,.2083,-.3167,.2417,0.0*
1,1,.1524,-.3167,.2417*
20,1,.1524,-.3167,.2417,-.25,.25,0.0*
1,1,.1524,-.25,.25*
20,1,.1524,-.25,.25,-.1833,.2417,0.0*
1,1,.1524,-.1833,.2417*
20,1,.1524,-.1833,.2417,-.125,.2083,0.0*
1,1,.1524,-.125,.2083*
20,1,.1524,-.125,.2083,-.075,.1583,0.0*
1,1,.1524,-.075,.1583*
20,1,.1524,-.075,.1583,-.0417,.1,0.0*
1,1,.1524,-.0417,.1*
20,1,.1524,-.0417,.1,-.025,.0333,0.0*
1,1,.1524,-.025,.0333*
20,1,.1524,-.025,.0333,-.025,-.0333,0.0*
1,1,.1524,-.025,-.0333*
20,1,.1524,-.025,-.0333,-.0417,-.1,0.0*
1,1,.1524,-.0417,-.1*
20,1,.1524,-.0417,-.1,-.075,-.1583,0.0*
1,1,.1524,-.075,-.1583*
20,1,.1524,-.075,-.1583,-.125,-.2083,0.0*
1,1,.1524,-.125,-.2083*
20,1,.1524,-.125,-.2083,-.1833,-.2417,0.0*
1,1,.1524,-.1833,-.2417*
20,1,.1524,-.1833,-.2417,-.25,-.25,0.0*
1,1,.1524,-.25,-.25*
1,1,.1524,.0418,-.25*
20,1,.1524,.0418,-.25,.2501,.25,0.0*
1,1,.1524,.2501,.25*
20,1,.1524,.2501,.25,.4584,-.25,0.0*
1,1,.1524,.4584,-.25*
1,1,.1524,.3834,-.075*
20,1,.1524,.3834,-.075,.1168,-.075,0.0*
1,1,.1524,.1168,-.075*
%
%ADD15MACRO15*%
%AMMACRO16*
1,1,.1524,-1.,.5*
20,1,.1524,-1.,.5,1.,.5,0.0*
1,1,.1524,1.,.5*
20,1,.1524,1.,.5,1.086824,.492404,0.0*
1,1,.1524,1.086824,.492404*
20,1,.1524,1.086824,.492404,1.17101,.469846,0.0*
1,1,.1524,1.17101,.469846*
20,1,.1524,1.17101,.469846,1.25,.433013,0.0*
1,1,.1524,1.25,.433013*
20,1,.1524,1.25,.433013,1.321394,.383022,0.0*
1,1,.1524,1.321394,.383022*
20,1,.1524,1.321394,.383022,1.383022,.321394,0.0*
1,1,.1524,1.383022,.321394*
20,1,.1524,1.383022,.321394,1.433013,.25,0.0*
1,1,.1524,1.433013,.25*
20,1,.1524,1.433013,.25,1.469846,.17101,0.0*
1,1,.1524,1.469846,.17101*
20,1,.1524,1.469846,.17101,1.492404,.086824,0.0*
1,1,.1524,1.492404,.086824*
20,1,.1524,1.492404,.086824,1.5,0.0,0.0*
1,1,.1524,1.5,0.0*
20,1,.1524,1.5,0.0,1.492404,-.086824,0.0*
1,1,.1524,1.492404,-.086824*
20,1,.1524,1.492404,-.086824,1.469846,-.17101,0.0*
1,1,.1524,1.469846,-.17101*
20,1,.1524,1.469846,-.17101,1.433013,-.25,0.0*
1,1,.1524,1.433013,-.25*
20,1,.1524,1.433013,-.25,1.383022,-.321394,0.0*
1,1,.1524,1.383022,-.321394*
20,1,.1524,1.383022,-.321394,1.321394,-.383022,0.0*
1,1,.1524,1.321394,-.383022*
20,1,.1524,1.321394,-.383022,1.25,-.433013,0.0*
1,1,.1524,1.25,-.433013*
20,1,.1524,1.25,-.433013,1.17101,-.469846,0.0*
1,1,.1524,1.17101,-.469846*
20,1,.1524,1.17101,-.469846,1.086824,-.492404,0.0*
1,1,.1524,1.086824,-.492404*
20,1,.1524,1.086824,-.492404,1.,-.5,0.0*
1,1,.1524,1.,-.5*
20,1,.1524,1.,-.5,-1.,-.5,0.0*
1,1,.1524,-1.,-.5*
20,1,.1524,-1.,-.5,-1.086824,-.492404,0.0*
1,1,.1524,-1.086824,-.492404*
20,1,.1524,-1.086824,-.492404,-1.17101,-.469846,0.0*
1,1,.1524,-1.17101,-.469846*
20,1,.1524,-1.17101,-.469846,-1.25,-.433013,0.0*
1,1,.1524,-1.25,-.433013*
20,1,.1524,-1.25,-.433013,-1.321394,-.383022,0.0*
1,1,.1524,-1.321394,-.383022*
20,1,.1524,-1.321394,-.383022,-1.383022,-.321394,0.0*
1,1,.1524,-1.383022,-.321394*
20,1,.1524,-1.383022,-.321394,-1.433013,-.25,0.0*
1,1,.1524,-1.433013,-.25*
20,1,.1524,-1.433013,-.25,-1.469846,-.17101,0.0*
1,1,.1524,-1.469846,-.17101*
20,1,.1524,-1.469846,-.17101,-1.492404,-.086824,0.0*
1,1,.1524,-1.492404,-.086824*
20,1,.1524,-1.492404,-.086824,-1.5,0.0,0.0*
1,1,.1524,-1.5,0.0*
20,1,.1524,-1.5,0.0,-1.492404,.086824,0.0*
1,1,.1524,-1.492404,.086824*
20,1,.1524,-1.492404,.086824,-1.469846,.17101,0.0*
1,1,.1524,-1.469846,.17101*
20,1,.1524,-1.469846,.17101,-1.433013,.25,0.0*
1,1,.1524,-1.433013,.25*
20,1,.1524,-1.433013,.25,-1.383022,.321394,0.0*
1,1,.1524,-1.383022,.321394*
20,1,.1524,-1.383022,.321394,-1.321394,.383022,0.0*
1,1,.1524,-1.321394,.383022*
20,1,.1524,-1.321394,.383022,-1.25,.433013,0.0*
1,1,.1524,-1.25,.433013*
20,1,.1524,-1.25,.433013,-1.17101,.469846,0.0*
1,1,.1524,-1.17101,.469846*
20,1,.1524,-1.17101,.469846,-1.086824,.492404,0.0*
1,1,.1524,-1.086824,.492404*
20,1,.1524,-1.086824,.492404,-1.,.5,0.0*
1,1,.1524,-1.,.5*
1,1,.1524,-.25,-.25*
20,1,.1524,-.25,-.25,-.3167,-.2417,0.0*
1,1,.1524,-.3167,-.2417*
20,1,.1524,-.3167,-.2417,-.375,-.2083,0.0*
1,1,.1524,-.375,-.2083*
20,1,.1524,-.375,-.2083,-.425,-.1583,0.0*
1,1,.1524,-.425,-.1583*
20,1,.1524,-.425,-.1583,-.4583,-.1,0.0*
1,1,.1524,-.4583,-.1*
20,1,.1524,-.4583,-.1,-.475,-.0333,0.0*
1,1,.1524,-.475,-.0333*
20,1,.1524,-.475,-.0333,-.475,.0333,0.0*
1,1,.1524,-.475,.0333*
20,1,.1524,-.475,.0333,-.4583,.1,0.0*
1,1,.1524,-.4583,.1*
20,1,.1524,-.4583,.1,-.425,.1583,0.0*
1,1,.1524,-.425,.1583*
20,1,.1524,-.425,.1583,-.375,.2083,0.0*
1,1,.1524,-.375,.2083*
20,1,.1524,-.375,.2083,-.3167,.2417,0.0*
1,1,.1524,-.3167,.2417*
20,1,.1524,-.3167,.2417,-.25,.25,0.0*
1,1,.1524,-.25,.25*
20,1,.1524,-.25,.25,-.1833,.2417,0.0*
1,1,.1524,-.1833,.2417*
20,1,.1524,-.1833,.2417,-.125,.2083,0.0*
1,1,.1524,-.125,.2083*
20,1,.1524,-.125,.2083,-.075,.1583,0.0*
1,1,.1524,-.075,.1583*
20,1,.1524,-.075,.1583,-.0417,.1,0.0*
1,1,.1524,-.0417,.1*
20,1,.1524,-.0417,.1,-.025,.0333,0.0*
1,1,.1524,-.025,.0333*
20,1,.1524,-.025,.0333,-.025,-.0333,0.0*
1,1,.1524,-.025,-.0333*
20,1,.1524,-.025,-.0333,-.0417,-.1,0.0*
1,1,.1524,-.0417,-.1*
20,1,.1524,-.0417,-.1,-.075,-.1583,0.0*
1,1,.1524,-.075,-.1583*
20,1,.1524,-.075,-.1583,-.125,-.2083,0.0*
1,1,.1524,-.125,-.2083*
20,1,.1524,-.125,-.2083,-.1833,-.2417,0.0*
1,1,.1524,-.1833,-.2417*
20,1,.1524,-.1833,-.2417,-.25,-.25,0.0*
1,1,.1524,-.25,-.25*
1,1,.1524,.0418,-.25*
20,1,.1524,.0418,-.25,.2501,.25,0.0*
1,1,.1524,.2501,.25*
20,1,.1524,.2501,.25,.4584,-.25,0.0*
1,1,.1524,.4584,-.25*
1,1,.1524,.3834,-.075*
20,1,.1524,.3834,-.075,.1168,-.075,0.0*
1,1,.1524,.1168,-.075*
%
%ADD16MACRO16*%
%ADD18C,.1524*%
G75*
%LPD*%
G75*
G54D10*
X100000Y760000D03*
X280000Y780000D03*
X100000Y1160000D03*
X280000Y1230000D03*
X260010Y2448470D03*
Y2948470D03*
X193340Y4051460D03*
X293790Y6143790D03*
X510010Y5228470D03*
Y5728470D03*
X1270010Y2618470D03*
Y3118470D03*
X1208050Y3873300D03*
Y4373300D03*
X1910010Y2618470D03*
Y3118470D03*
X1970010Y3848470D03*
Y4348470D03*
X2408650Y2347370D03*
X2420010Y2618470D03*
Y3118470D03*
X2430010Y3848470D03*
Y4348470D03*
X2490010Y6358470D03*
Y6858470D03*
X2908650Y2347370D03*
X2527130Y2960230D03*
Y2844260D03*
X2700000Y4802240D03*
X2630000Y4690000D03*
X3508470Y2359990D03*
X3589260Y3193590D03*
X3579260Y2893590D03*
X3460000Y2972330D03*
Y3088300D03*
X3270000Y3244260D03*
X3609260Y3803590D03*
X3270000Y3360230D03*
X3110000Y4802240D03*
Y4690000D03*
X3102240Y4402240D03*
X3415610Y5992190D03*
Y5492190D03*
X4008470Y2359990D03*
X4089260Y3193590D03*
X4079260Y2893590D03*
X4109260Y3803590D03*
X3690000Y4602240D03*
X3915610Y5992190D03*
Y5492190D03*
X4298470Y2369990D03*
X4589260Y3193590D03*
X4579260Y2893590D03*
X4609260Y3803590D03*
X4273800Y6746200D03*
X4798470Y2369990D03*
X5089260Y3193590D03*
X5079260Y2893590D03*
X5109260Y3803590D03*
X5127450Y5383740D03*
Y5883740D03*
X5600000Y5802240D03*
Y5602240D03*
Y6002240D03*
X6199260Y2603590D03*
X6080000Y3040000D03*
X6090000Y2750000D03*
X6230000Y3230000D03*
X6320000D03*
Y3150000D03*
X6230000D03*
X6320000Y3070000D03*
X6230000D03*
X6070000Y3700000D03*
Y3590000D03*
X6220000Y5520000D03*
X6308700Y6425570D03*
X6699260Y2603590D03*
X6753590Y3150740D03*
X6580000Y3150000D03*
X6753590Y3650740D03*
X6750000Y3330000D03*
Y3510000D03*
X6350000Y5400000D03*
X6808700Y6425570D03*
X7029060Y4299340D03*
Y4799340D03*
X7880000Y710000D03*
X7750000Y1080000D03*
Y780000D03*
X7880000Y1320000D03*
X7800000Y2020000D03*
X7529060Y4299340D03*
Y4799340D03*
X10661730Y4892500D03*
G54D11*
X140000Y1355000D03*
Y2105000D03*
Y3135000D03*
Y3885000D03*
Y4905000D03*
Y5655000D03*
X10661730Y3622500D03*
G54D12*
X897500Y600000D03*
Y6400000D03*
X1151500Y600000D03*
X1242000Y1979000D03*
X1369000Y1725000D03*
X1115000D03*
X1116000Y5021000D03*
X1370000D03*
X1243000Y5275000D03*
X1151500Y6400000D03*
X1968500Y600000D03*
X2004000Y1979000D03*
X1750000D03*
X1496000D03*
X1877000Y1725000D03*
X1623000D03*
X1624000Y5021000D03*
X1878000D03*
X1497000Y5275000D03*
X1751000D03*
X2005000D03*
X1968500Y6400000D03*
X2222500Y600000D03*
X2527500D03*
X2222500Y6400000D03*
X2781500Y600000D03*
X2872000Y1979000D03*
X2999000Y1725000D03*
X2745000D03*
X3598500Y600000D03*
X3634000Y1979000D03*
X3380000D03*
X3126000D03*
X3507000Y1725000D03*
X3253000D03*
X3852500Y600000D03*
X4157500D03*
X4411500D03*
X4502000Y1979000D03*
X4629000Y1725000D03*
X4375000D03*
X5228500Y600000D03*
X5264000Y1979000D03*
X5010000D03*
X4756000D03*
X5137000Y1725000D03*
X4883000D03*
X5787500Y600000D03*
X5482500D03*
X6041500D03*
X6132000Y1979000D03*
X6259000Y1725000D03*
X6005000D03*
X6858500Y600000D03*
X6894000Y1979000D03*
X6640000D03*
X6386000D03*
X6767000Y1725000D03*
X6513000D03*
X7112500Y600000D03*
X10661730Y4257500D03*
G54D13*
X785500Y1395000D03*
Y5605000D03*
X2334500Y1395000D03*
X2415500D03*
X2334500Y5605000D03*
X3964500Y1395000D03*
X4045500D03*
X5675500D03*
X5594500D03*
X6930000Y4626000D03*
Y5134000D03*
X7224500Y1395000D03*
X10661730Y1717500D03*
G54D14*
X6340000Y4432000D03*
Y4940000D03*
Y4686000D03*
X10661730Y2987500D03*
G54D15*
X6230000Y5860000D03*
X10661730Y447500D03*
G54D16*
X6710000Y5580000D03*
Y6180000D03*
X10661730Y1082500D03*
G54D17*
X7306000Y2396000D03*
Y2904000D03*
X7558400Y2651600D03*
X7814000Y2396000D03*
Y2904000D03*
X10661730Y2352500D03*
G54D18*
G01X9799520Y5368750D02*
Y5686250D01*
X9949140D01*
G01X9894010Y5532800D02*
X9799520D01*
G01X10142050Y5686250D02*
X10236530D01*
G01X10189290D02*
Y5368750D01*
G01X10142050D02*
X10236530D01*
G01X10527870Y5527500D02*
X10606620D01*
Y5432250D01*
X10582990Y5400490D01*
X10555430Y5379330D01*
X10516060Y5368750D01*
X10476690Y5379330D01*
X10449130Y5400490D01*
X10425510Y5432250D01*
X10409760Y5469290D01*
X10401880Y5511620D01*
Y5548670D01*
X10409760Y5580410D01*
X10425510Y5617460D01*
X10449130Y5649210D01*
X10472750Y5670370D01*
X10504250Y5686250D01*
X10531810D01*
X10563300Y5675670D01*
X10586930Y5654500D01*
G01X10732600Y5686250D02*
Y5458710D01*
X10748340Y5411070D01*
X10779840Y5379330D01*
X10819210Y5368750D01*
X10858580Y5379330D01*
X10890080Y5411070D01*
X10905820Y5458710D01*
Y5686250D01*
G01X11055430Y5368750D02*
Y5686250D01*
X11153850D01*
X11185350Y5670370D01*
X11205040Y5649210D01*
X11212910Y5606870D01*
X11205040Y5564540D01*
X11181410Y5538090D01*
X11153850Y5522200D01*
X11055430D01*
G01X11153850D02*
X11212910Y5368750D01*
G01X11527870D02*
X11370390D01*
Y5686250D01*
X11527870D01*
G01X11464880Y5532800D02*
X11370390D01*
G01X12397940Y5368750D02*
Y5686250D01*
X12547560D01*
G01X12492430Y5532800D02*
X12397940D01*
G01X12740470Y5686250D02*
X12834950D01*
G01X12787710D02*
Y5368750D01*
G01X12740470D02*
X12834950D01*
G01X13012120D02*
Y5686250D01*
X13193220Y5368750D01*
Y5686250D01*
G01X13370390D02*
X13464870D01*
G01X13417630D02*
Y5368750D01*
G01X13370390D02*
X13464870D01*
G01X13649910Y5411070D02*
X13681410Y5384620D01*
X13716840Y5368750D01*
X13748340D01*
X13779830Y5384620D01*
X13803460Y5411070D01*
X13815270Y5448130D01*
X13807400Y5485160D01*
X13787710Y5516910D01*
X13752270Y5538090D01*
X13705030Y5548670D01*
X13677470Y5569830D01*
X13665660Y5606870D01*
X13673540Y5643920D01*
X13693220Y5670370D01*
X13720780Y5686250D01*
X13748340D01*
X13775900Y5675670D01*
X13799520Y5649210D01*
G01X13964870Y5368750D02*
Y5686250D01*
G01X14130230D02*
Y5368750D01*
G01Y5527500D02*
X13964870D01*
G01X14441250Y5368750D02*
X14283770D01*
Y5686250D01*
X14441250D01*
G01X14378260Y5532800D02*
X14283770D01*
G01X14590860Y5368750D02*
Y5686250D01*
X14669590D01*
X14701090Y5670370D01*
X14724710Y5649210D01*
X14744400Y5617460D01*
X14760150Y5580410D01*
X14764080Y5527500D01*
X14760150Y5474580D01*
X14744400Y5437540D01*
X14724710Y5405780D01*
X14701090Y5384620D01*
X14669590Y5368750D01*
X14590860D01*
G01X14874320Y5262920D02*
X15110540D01*
G01X15224710Y5411070D02*
X15256210Y5384620D01*
X15291640Y5368750D01*
X15323140D01*
X15354630Y5384620D01*
X15378260Y5411070D01*
X15390070Y5448130D01*
X15382200Y5485160D01*
X15362510Y5516910D01*
X15327070Y5538090D01*
X15279830Y5548670D01*
X15252270Y5569830D01*
X15240460Y5606870D01*
X15248340Y5643920D01*
X15268020Y5670370D01*
X15295580Y5686250D01*
X15323140D01*
X15350700Y5675670D01*
X15374320Y5649210D01*
G01X15575110Y5686250D02*
X15669590D01*
G01X15622350D02*
Y5368750D01*
G01X15575110D02*
X15669590D01*
G01X15862500Y5686250D02*
X16012120D01*
X15862500Y5368750D01*
X16012120D01*
G01X16331010D02*
X16173530D01*
Y5686250D01*
X16331010D01*
G01X16268020Y5532800D02*
X16173530D01*
G01X13331020Y352250D02*
X13354630Y315200D01*
X13386130Y294040D01*
X13421570Y288750D01*
X13453070Y294040D01*
X13484560Y320490D01*
X13504240Y352250D01*
X13508180Y384000D01*
X13500310Y421030D01*
X13472750Y447500D01*
X13445190Y458090D01*
X13409750D01*
G01X13445190D02*
X13468810Y473960D01*
X13488500Y500410D01*
X13496370Y532160D01*
X13488500Y563920D01*
X13468810Y590370D01*
X13433380Y606250D01*
X13397950Y600960D01*
X13362510Y579790D01*
G01X13732590Y278170D02*
X13724710Y283460D01*
Y294040D01*
X13732590Y299330D01*
X13740470Y294040D01*
Y283460D01*
X13732590Y278170D01*
G01X14047550Y606250D02*
X14016050Y595670D01*
X13992430Y569210D01*
X13976680Y537460D01*
X13964870Y495120D01*
X13960940Y447500D01*
X13964870Y399870D01*
X13976680Y357540D01*
X13992430Y325780D01*
X14016050Y299330D01*
X14047550Y288750D01*
X14079040Y299330D01*
X14102670Y325780D01*
X14118420Y357540D01*
X14130230Y399870D01*
X14134160Y447500D01*
X14130230Y495120D01*
X14118420Y537460D01*
X14102670Y569210D01*
X14079040Y595670D01*
X14047550Y606250D01*
G01X14303460Y500410D02*
X14421560Y288750D01*
G01Y500410D02*
X14303460Y288750D01*
G01X14677470D02*
Y606250D01*
X14630230Y542750D01*
G01Y288750D02*
X14724710D01*
G01X14992430Y278170D02*
X14984550Y283460D01*
Y294040D01*
X14992430Y299330D01*
X15000310Y294040D01*
Y283460D01*
X14992430Y278170D01*
G01X15307390Y606250D02*
X15275890Y595670D01*
X15252270Y569210D01*
X15236520Y537460D01*
X15224710Y495120D01*
X15220780Y447500D01*
X15224710Y399870D01*
X15236520Y357540D01*
X15252270Y325780D01*
X15275890Y299330D01*
X15307390Y288750D01*
X15338880Y299330D01*
X15362510Y325780D01*
X15378260Y357540D01*
X15390070Y399870D01*
X15394000Y447500D01*
X15390070Y495120D01*
X15378260Y537460D01*
X15362510Y569210D01*
X15338880Y595670D01*
X15307390Y606250D01*
G01X13331020Y987250D02*
X13354630Y950200D01*
X13386130Y929040D01*
X13421570Y923750D01*
X13453070Y929040D01*
X13484560Y955490D01*
X13504240Y987250D01*
X13508180Y1019000D01*
X13500310Y1056030D01*
X13472750Y1082500D01*
X13445190Y1093090D01*
X13409750D01*
G01X13445190D02*
X13468810Y1108960D01*
X13488500Y1135410D01*
X13496370Y1167160D01*
X13488500Y1198920D01*
X13468810Y1225370D01*
X13433380Y1241250D01*
X13397950Y1235960D01*
X13362510Y1214790D01*
G01X13732590Y913170D02*
X13724710Y918460D01*
Y929040D01*
X13732590Y934330D01*
X13740470Y929040D01*
Y918460D01*
X13732590Y913170D01*
G01X14047550Y1241250D02*
X14016050Y1230670D01*
X13992430Y1204210D01*
X13976680Y1172460D01*
X13964870Y1130120D01*
X13960940Y1082500D01*
X13964870Y1034870D01*
X13976680Y992540D01*
X13992430Y960780D01*
X14016050Y934330D01*
X14047550Y923750D01*
X14079040Y934330D01*
X14102670Y960780D01*
X14118420Y992540D01*
X14130230Y1034870D01*
X14134160Y1082500D01*
X14130230Y1130120D01*
X14118420Y1172460D01*
X14102670Y1204210D01*
X14079040Y1230670D01*
X14047550Y1241250D01*
G01X14303460Y1135410D02*
X14421560Y923750D01*
G01Y1135410D02*
X14303460Y923750D01*
G01X14677470D02*
Y1241250D01*
X14630230Y1177750D01*
G01Y923750D02*
X14724710D01*
G01X14992430Y913170D02*
X14984550Y918460D01*
Y929040D01*
X14992430Y934330D01*
X15000310Y929040D01*
Y918460D01*
X14992430Y913170D01*
G01X15307390Y1241250D02*
X15275890Y1230670D01*
X15252270Y1204210D01*
X15236520Y1172460D01*
X15224710Y1130120D01*
X15220780Y1082500D01*
X15224710Y1034870D01*
X15236520Y992540D01*
X15252270Y960780D01*
X15275890Y934330D01*
X15307390Y923750D01*
X15338880Y934330D01*
X15362510Y960780D01*
X15378260Y992540D01*
X15390070Y1034870D01*
X15394000Y1082500D01*
X15390070Y1130120D01*
X15378260Y1172460D01*
X15362510Y1204210D01*
X15338880Y1230670D01*
X15307390Y1241250D01*
G01X13082980Y6003750D02*
X13181410Y6321250D01*
X13279840Y6003750D01*
G01X13244400Y6114870D02*
X13118410D01*
G01X13417630Y6321250D02*
Y6003750D01*
X13575110D01*
G01X13732590Y6321250D02*
Y6003750D01*
X13890070D01*
G01X14354640Y6321250D02*
Y6093710D01*
X14370380Y6046070D01*
X14401880Y6014330D01*
X14441250Y6003750D01*
X14480620Y6014330D01*
X14512120Y6046070D01*
X14527860Y6093710D01*
Y6321250D01*
G01X14665660Y6003750D02*
Y6321250D01*
X14846760Y6003750D01*
Y6321250D01*
G01X15023930D02*
X15118410D01*
G01X15071170D02*
Y6003750D01*
G01X15023930D02*
X15118410D01*
G01X15386130Y6321250D02*
Y6003750D01*
G01X15295580Y6321250D02*
X15476680D01*
G01X15618410Y6046070D02*
X15649910Y6019620D01*
X15685340Y6003750D01*
X15716840D01*
X15748330Y6019620D01*
X15771960Y6046070D01*
X15783770Y6083130D01*
X15775900Y6120160D01*
X15756210Y6151910D01*
X15720770Y6173090D01*
X15673530Y6183670D01*
X15645970Y6204830D01*
X15634160Y6241870D01*
X15642040Y6278920D01*
X15661720Y6305370D01*
X15689280Y6321250D01*
X15716840D01*
X15744400Y6310670D01*
X15768020Y6284210D01*
G01X16232580Y6003750D02*
X16331010Y6321250D01*
X16429440Y6003750D01*
G01X16394000Y6114870D02*
X16268010D01*
G01X16567230Y6003750D02*
Y6321250D01*
X16665650D01*
X16697150Y6305370D01*
X16716840Y6284210D01*
X16724710Y6241870D01*
X16716840Y6199540D01*
X16693210Y6173090D01*
X16665650Y6157200D01*
X16567230D01*
G01X16665650D02*
X16724710Y6003750D01*
G01X17039670D02*
X16882190D01*
Y6321250D01*
X17039670D01*
G01X16976680Y6167800D02*
X16882190D01*
G01X17543610Y6321250D02*
X17638090D01*
G01X17590850D02*
Y6003750D01*
G01X17543610D02*
X17638090D01*
G01X17815260D02*
Y6321250D01*
X17996360Y6003750D01*
Y6321250D01*
G01X18433360Y6003750D02*
Y6321250D01*
X18535730Y6056670D01*
X18638100Y6321250D01*
Y6003750D01*
G01X18803450Y6321250D02*
X18897930D01*
G01X18850690D02*
Y6003750D01*
G01X18803450D02*
X18897930D01*
G01X19086910Y6321250D02*
Y6003750D01*
X19244390D01*
G01X19401870Y6321250D02*
Y6003750D01*
X19559350D01*
G01X19748330Y6321250D02*
X19842810D01*
G01X19795570D02*
Y6003750D01*
G01X19748330D02*
X19842810D01*
G01X20008160D02*
Y6321250D01*
X20110530Y6056670D01*
X20212900Y6321250D01*
Y6003750D01*
G01X20504230D02*
X20346750D01*
Y6321250D01*
X20504230D01*
G01X20441240Y6167800D02*
X20346750D01*
G01X20740450Y6321250D02*
Y6003750D01*
G01X20649900Y6321250D02*
X20831000D01*
G01X21134150Y6003750D02*
X20976670D01*
Y6321250D01*
X21134150D01*
G01X21071160Y6167800D02*
X20976670D01*
G01X21291630Y6003750D02*
Y6321250D01*
X21390050D01*
X21421550Y6305370D01*
X21441240Y6284210D01*
X21449110Y6241870D01*
X21441240Y6199540D01*
X21417610Y6173090D01*
X21390050Y6157200D01*
X21291630D01*
G01X21390050D02*
X21449110Y6003750D01*
G01X21602650Y6046070D02*
X21634150Y6019620D01*
X21669580Y6003750D01*
X21701080D01*
X21732570Y6019620D01*
X21756200Y6046070D01*
X21768010Y6083130D01*
X21760140Y6120160D01*
X21740450Y6151910D01*
X21705010Y6173090D01*
X21657770Y6183670D01*
X21630210Y6204830D01*
X21618400Y6241870D01*
X21626280Y6278920D01*
X21645960Y6305370D01*
X21673520Y6321250D01*
X21701080D01*
X21728640Y6310670D01*
X21752260Y6284210D01*
G01X13575110Y5051250D02*
X13543610Y5040670D01*
X13519990Y5014210D01*
X13504240Y4982460D01*
X13492430Y4940120D01*
X13488500Y4892500D01*
X13492430Y4844870D01*
X13504240Y4802540D01*
X13519990Y4770780D01*
X13543610Y4744330D01*
X13575110Y4733750D01*
X13606600Y4744330D01*
X13630230Y4770780D01*
X13645980Y4802540D01*
X13657790Y4844870D01*
X13661720Y4892500D01*
X13657790Y4940120D01*
X13645980Y4982460D01*
X13630230Y5014210D01*
X13606600Y5040670D01*
X13575110Y5051250D01*
G01X13890070Y4723170D02*
X13882190Y4728460D01*
Y4739040D01*
X13890070Y4744330D01*
X13897950Y4739040D01*
Y4728460D01*
X13890070Y4723170D01*
G01X14118420Y4797250D02*
X14142030Y4760200D01*
X14173530Y4739040D01*
X14208970Y4733750D01*
X14240470Y4739040D01*
X14271960Y4765490D01*
X14291640Y4797250D01*
X14295580Y4829000D01*
X14287710Y4866030D01*
X14260150Y4892500D01*
X14232590Y4903090D01*
X14197150D01*
G01X14232590D02*
X14256210Y4918960D01*
X14275900Y4945410D01*
X14283770Y4977160D01*
X14275900Y5008920D01*
X14256210Y5035370D01*
X14220780Y5051250D01*
X14185350Y5045960D01*
X14149910Y5024790D01*
G01X14519990Y5051250D02*
X14488490Y5040670D01*
X14464870Y5014210D01*
X14449120Y4982460D01*
X14437310Y4940120D01*
X14433380Y4892500D01*
X14437310Y4844870D01*
X14449120Y4802540D01*
X14464870Y4770780D01*
X14488490Y4744330D01*
X14519990Y4733750D01*
X14551480Y4744330D01*
X14575110Y4770780D01*
X14590860Y4802540D01*
X14602670Y4844870D01*
X14606600Y4892500D01*
X14602670Y4940120D01*
X14590860Y4982460D01*
X14575110Y5014210D01*
X14551480Y5040670D01*
X14519990Y5051250D01*
G01X14882190Y4733750D02*
Y5051250D01*
X14736520Y4823710D01*
X14933380D01*
G01X15149910Y4733750D02*
X15177470Y4739040D01*
X15208960Y4754910D01*
X15228650Y4781360D01*
X15236520Y4818420D01*
X15228650Y4855450D01*
X15205030Y4887200D01*
X15169590Y4903090D01*
X15130230D01*
X15106600Y4913670D01*
X15086910Y4940120D01*
X15079040Y4977160D01*
X15090860Y5014210D01*
X15118410Y5040670D01*
X15149910Y5051250D01*
X15181400Y5040670D01*
X15208960Y5014210D01*
X15220780Y4977160D01*
X15212900Y4940120D01*
X15193220Y4913670D01*
X15169590Y4903090D01*
X15130230D01*
X15094790Y4887200D01*
X15071170Y4855450D01*
X15063300Y4818420D01*
X15071170Y4781360D01*
X15090860Y4754910D01*
X15122350Y4739040D01*
X15149910Y4733750D01*
G01X13409760Y6653750D02*
Y6971250D01*
X13488490D01*
X13519990Y6955370D01*
X13543610Y6934210D01*
X13563300Y6902460D01*
X13579050Y6865410D01*
X13582980Y6812500D01*
X13579050Y6759580D01*
X13563300Y6722540D01*
X13543610Y6690780D01*
X13519990Y6669620D01*
X13488490Y6653750D01*
X13409760D01*
G01X13732590D02*
Y6971250D01*
X13831010D01*
X13862510Y6955370D01*
X13882200Y6934210D01*
X13890070Y6891870D01*
X13882200Y6849540D01*
X13858570Y6823090D01*
X13831010Y6807200D01*
X13732590D01*
G01X13831010D02*
X13890070Y6653750D01*
G01X14079050Y6971250D02*
X14173530D01*
G01X14126290D02*
Y6653750D01*
G01X14079050D02*
X14173530D01*
G01X14362510Y6971250D02*
Y6653750D01*
X14519990D01*
G01X14677470Y6971250D02*
Y6653750D01*
X14834950D01*
G01X15472740Y6944790D02*
X15449120Y6960670D01*
X15421570Y6971250D01*
X15390070D01*
X15354630Y6955370D01*
X15327080Y6928920D01*
X15307390Y6897160D01*
X15291640Y6844250D01*
X15287700Y6796620D01*
X15295580Y6749000D01*
X15307390Y6717250D01*
X15331010Y6685490D01*
X15358570Y6664330D01*
X15386130Y6653750D01*
X15413690D01*
X15441250Y6664330D01*
X15464870Y6680200D01*
X15484560Y6701360D01*
G01X15618410Y6653750D02*
Y6971250D01*
G01X15783770D02*
Y6653750D01*
G01Y6812500D02*
X15618410D01*
G01X15917620Y6653750D02*
X16016050Y6971250D01*
X16114480Y6653750D01*
G01X16079040Y6764870D02*
X15953050D01*
G01X16252270Y6653750D02*
Y6971250D01*
X16350690D01*
X16382190Y6955370D01*
X16401880Y6934210D01*
X16409750Y6891870D01*
X16401880Y6849540D01*
X16378250Y6823090D01*
X16350690Y6807200D01*
X16252270D01*
G01X16350690D02*
X16409750Y6653750D01*
G01X16645970Y6971250D02*
Y6653750D01*
G01X16555420Y6971250D02*
X16736520D01*
G01X16960930Y6643170D02*
X16953050Y6648460D01*
Y6659040D01*
X16960930Y6664330D01*
X16968810Y6659040D01*
Y6648460D01*
X16960930Y6643170D01*
G01Y6786030D02*
X16953050Y6791330D01*
Y6801910D01*
X16960930Y6807200D01*
X16968810Y6801910D01*
Y6791330D01*
X16960930Y6786030D01*
G01X17590850Y6971250D02*
Y6653750D01*
G01X17500300Y6971250D02*
X17681400D01*
G01X17905810Y6653750D02*
X17874310Y6659040D01*
X17846760Y6680200D01*
X17823130Y6711960D01*
X17807380Y6749000D01*
X17799510Y6791330D01*
Y6833670D01*
X17807380Y6876000D01*
X17823130Y6913040D01*
X17846760Y6944790D01*
X17874310Y6965960D01*
X17905810Y6971250D01*
X17937300Y6965960D01*
X17964860Y6944790D01*
X17988490Y6913040D01*
X18004240Y6876000D01*
X18012110Y6833670D01*
Y6791330D01*
X18004240Y6749000D01*
X17988490Y6711960D01*
X17964860Y6680200D01*
X17937300Y6659040D01*
X17905810Y6653750D01*
G01X18142030D02*
Y6971250D01*
X18236520D01*
X18268010Y6955370D01*
X18291640Y6918330D01*
X18299510Y6876000D01*
X18291640Y6833670D01*
X18271950Y6801910D01*
X18236520Y6786030D01*
X18142030D01*
G01X18850690Y6971250D02*
Y6653750D01*
G01X18795570Y6865410D02*
X18905810D01*
G01X19165650Y6653750D02*
X19142030Y6659040D01*
X19118410Y6680200D01*
X19102650Y6717250D01*
X19094780Y6759580D01*
X19102650Y6801910D01*
X19118410Y6838960D01*
X19142030Y6860120D01*
X19165650Y6865410D01*
X19189270Y6860120D01*
X19212890Y6838960D01*
X19228640Y6801910D01*
X19232580Y6759580D01*
X19228640Y6717250D01*
X19212890Y6680200D01*
X19189270Y6659040D01*
X19165650Y6653750D01*
G01X19827060Y6823090D02*
X19842810Y6838960D01*
X19854620Y6865410D01*
X19862500Y6902460D01*
X19854620Y6934210D01*
X19838880Y6955370D01*
X19811320Y6971250D01*
X19705020D01*
Y6653750D01*
X19834940D01*
X19862500Y6674910D01*
X19878250Y6706670D01*
X19886120Y6743710D01*
X19878250Y6780740D01*
X19854620Y6812500D01*
X19827060Y6823090D01*
X19705020D01*
G01X20110530Y6653750D02*
X20079030Y6659040D01*
X20051480Y6680200D01*
X20027850Y6711960D01*
X20012100Y6749000D01*
X20004230Y6791330D01*
Y6833670D01*
X20012100Y6876000D01*
X20027850Y6913040D01*
X20051480Y6944790D01*
X20079030Y6965960D01*
X20110530Y6971250D01*
X20142020Y6965960D01*
X20169580Y6944790D01*
X20193210Y6913040D01*
X20208960Y6876000D01*
X20216830Y6833670D01*
Y6791330D01*
X20208960Y6749000D01*
X20193210Y6711960D01*
X20169580Y6680200D01*
X20142020Y6659040D01*
X20110530Y6653750D01*
G01X20425490Y6971250D02*
Y6653750D01*
G01X20334940Y6971250D02*
X20516040D01*
G01X20740450D02*
Y6653750D01*
G01X20649900Y6971250D02*
X20831000D01*
G01X21055410Y6653750D02*
X21023910Y6659040D01*
X20996360Y6680200D01*
X20972730Y6711960D01*
X20956980Y6749000D01*
X20949110Y6791330D01*
Y6833670D01*
X20956980Y6876000D01*
X20972730Y6913040D01*
X20996360Y6944790D01*
X21023910Y6965960D01*
X21055410Y6971250D01*
X21086900Y6965960D01*
X21114460Y6944790D01*
X21138090Y6913040D01*
X21153840Y6876000D01*
X21161710Y6833670D01*
Y6791330D01*
X21153840Y6749000D01*
X21138090Y6711960D01*
X21114460Y6680200D01*
X21086900Y6659040D01*
X21055410Y6653750D01*
G01X21268000D02*
Y6971250D01*
X21370370Y6706670D01*
X21472740Y6971250D01*
Y6653750D01*
G01X14047550Y1558750D02*
Y1876250D01*
X14000310Y1812750D01*
G01Y1558750D02*
X14094790D01*
G01X14362510Y1548170D02*
X14354630Y1553460D01*
Y1564040D01*
X14362510Y1569330D01*
X14370390Y1564040D01*
Y1553460D01*
X14362510Y1548170D01*
G01X14677470Y1558750D02*
X14705030Y1564040D01*
X14736520Y1579910D01*
X14756210Y1606360D01*
X14764080Y1643420D01*
X14756210Y1680450D01*
X14732590Y1712200D01*
X14697150Y1728090D01*
X14657790D01*
X14634160Y1738670D01*
X14614470Y1765120D01*
X14606600Y1802160D01*
X14618420Y1839210D01*
X14645970Y1865670D01*
X14677470Y1876250D01*
X14708960Y1865670D01*
X14736520Y1839210D01*
X14748340Y1802160D01*
X14740460Y1765120D01*
X14720780Y1738670D01*
X14697150Y1728090D01*
X14657790D01*
X14622350Y1712200D01*
X14598730Y1680450D01*
X14590860Y1643420D01*
X14598730Y1606360D01*
X14618420Y1579910D01*
X14649910Y1564040D01*
X14677470Y1558750D01*
G01X14047550Y2193750D02*
Y2511250D01*
X14000310Y2447750D01*
G01Y2193750D02*
X14094790D01*
G01X14362510Y2183170D02*
X14354630Y2188460D01*
Y2199040D01*
X14362510Y2204330D01*
X14370390Y2199040D01*
Y2188460D01*
X14362510Y2183170D01*
G01X14590860Y2257250D02*
X14614470Y2220200D01*
X14645970Y2199040D01*
X14681410Y2193750D01*
X14712910Y2199040D01*
X14744400Y2225490D01*
X14764080Y2257250D01*
X14768020Y2289000D01*
X14760150Y2326030D01*
X14732590Y2352500D01*
X14705030Y2363090D01*
X14669590D01*
G01X14705030D02*
X14728650Y2378960D01*
X14748340Y2405410D01*
X14756210Y2437160D01*
X14748340Y2468920D01*
X14728650Y2495370D01*
X14693220Y2511250D01*
X14657790Y2505960D01*
X14622350Y2484790D01*
G01X14047550Y2828750D02*
Y3146250D01*
X14000310Y3082750D01*
G01Y2828750D02*
X14094790D01*
G01X14362510Y2818170D02*
X14354630Y2823460D01*
Y2834040D01*
X14362510Y2839330D01*
X14370390Y2834040D01*
Y2823460D01*
X14362510Y2818170D01*
G01X14677470Y2828750D02*
Y3146250D01*
X14630230Y3082750D01*
G01Y2828750D02*
X14724710D01*
G01X14047550Y3463750D02*
Y3781250D01*
X14000310Y3717750D01*
G01Y3463750D02*
X14094790D01*
G01X14362510Y3453170D02*
X14354630Y3458460D01*
Y3469040D01*
X14362510Y3474330D01*
X14370390Y3469040D01*
Y3458460D01*
X14362510Y3453170D01*
G01X14677470Y3781250D02*
X14645970Y3770670D01*
X14622350Y3744210D01*
X14606600Y3712460D01*
X14594790Y3670120D01*
X14590860Y3622500D01*
X14594790Y3574870D01*
X14606600Y3532540D01*
X14622350Y3500780D01*
X14645970Y3474330D01*
X14677470Y3463750D01*
X14708960Y3474330D01*
X14732590Y3500780D01*
X14748340Y3532540D01*
X14760150Y3574870D01*
X14764080Y3622500D01*
X14760150Y3670120D01*
X14748340Y3712460D01*
X14732590Y3744210D01*
X14708960Y3770670D01*
X14677470Y3781250D01*
G01X14047550Y4416250D02*
X14016050Y4405670D01*
X13992430Y4379210D01*
X13976680Y4347460D01*
X13964870Y4305120D01*
X13960940Y4257500D01*
X13964870Y4209870D01*
X13976680Y4167540D01*
X13992430Y4135780D01*
X14016050Y4109330D01*
X14047550Y4098750D01*
X14079040Y4109330D01*
X14102670Y4135780D01*
X14118420Y4167540D01*
X14130230Y4209870D01*
X14134160Y4257500D01*
X14130230Y4305120D01*
X14118420Y4347460D01*
X14102670Y4379210D01*
X14079040Y4405670D01*
X14047550Y4416250D01*
G01X14362510Y4088170D02*
X14354630Y4093460D01*
Y4104040D01*
X14362510Y4109330D01*
X14370390Y4104040D01*
Y4093460D01*
X14362510Y4088170D01*
G01X14610540Y4135780D02*
X14638100Y4109330D01*
X14669590Y4098750D01*
X14701090Y4109330D01*
X14728650Y4141070D01*
X14748340Y4188710D01*
X14756210Y4236330D01*
Y4294540D01*
X14748340Y4342160D01*
X14728650Y4384500D01*
X14705030Y4405670D01*
X14677470Y4416250D01*
X14645970Y4405670D01*
X14622350Y4384500D01*
X14606600Y4352750D01*
X14598730Y4310410D01*
X14606600Y4273380D01*
X14626290Y4236330D01*
X14649910Y4215160D01*
X14677470Y4209870D01*
X14708960Y4220450D01*
X14732590Y4246910D01*
X14756210Y4294540D01*
G01X17681400Y325780D02*
X17708960Y299330D01*
X17740450Y288750D01*
X17771950Y299330D01*
X17799510Y331070D01*
X17819200Y378710D01*
X17827070Y426330D01*
Y484540D01*
X17819200Y532160D01*
X17799510Y574500D01*
X17775890Y595670D01*
X17748330Y606250D01*
X17716830Y595670D01*
X17693210Y574500D01*
X17677460Y542750D01*
X17669590Y500410D01*
X17677460Y463380D01*
X17697150Y426330D01*
X17720770Y405160D01*
X17748330Y399870D01*
X17779820Y410450D01*
X17803450Y436910D01*
X17827070Y484540D01*
G01X18063290Y606250D02*
X18031790Y595670D01*
X18008170Y569210D01*
X17992420Y537460D01*
X17980610Y495120D01*
X17976680Y447500D01*
X17980610Y399870D01*
X17992420Y357540D01*
X18008170Y325780D01*
X18031790Y299330D01*
X18063290Y288750D01*
X18094780Y299330D01*
X18118410Y325780D01*
X18134160Y357540D01*
X18145970Y399870D01*
X18149900Y447500D01*
X18145970Y495120D01*
X18134160Y537460D01*
X18118410Y569210D01*
X18094780Y595670D01*
X18063290Y606250D01*
G01X18378250Y278170D02*
X18370370Y283460D01*
Y294040D01*
X18378250Y299330D01*
X18386130Y294040D01*
Y283460D01*
X18378250Y278170D01*
G01X18693210Y606250D02*
X18661710Y595670D01*
X18638090Y569210D01*
X18622340Y537460D01*
X18610530Y495120D01*
X18606600Y447500D01*
X18610530Y399870D01*
X18622340Y357540D01*
X18638090Y325780D01*
X18661710Y299330D01*
X18693210Y288750D01*
X18724700Y299330D01*
X18748330Y325780D01*
X18764080Y357540D01*
X18775890Y399870D01*
X18779820Y447500D01*
X18775890Y495120D01*
X18764080Y537460D01*
X18748330Y569210D01*
X18724700Y595670D01*
X18693210Y606250D01*
G01X19008170D02*
X18976670Y595670D01*
X18953050Y569210D01*
X18937300Y537460D01*
X18925490Y495120D01*
X18921560Y447500D01*
X18925490Y399870D01*
X18937300Y357540D01*
X18953050Y325780D01*
X18976670Y299330D01*
X19008170Y288750D01*
X19039660Y299330D01*
X19063290Y325780D01*
X19079040Y357540D01*
X19090850Y399870D01*
X19094780Y447500D01*
X19090850Y495120D01*
X19079040Y537460D01*
X19063290Y569210D01*
X19039660Y595670D01*
X19008170Y606250D01*
G01X19323130D02*
X19291630Y595670D01*
X19268010Y569210D01*
X19252260Y537460D01*
X19240450Y495120D01*
X19236520Y447500D01*
X19240450Y399870D01*
X19252260Y357540D01*
X19268010Y325780D01*
X19291630Y299330D01*
X19323130Y288750D01*
X19354620Y299330D01*
X19378250Y325780D01*
X19394000Y357540D01*
X19405810Y399870D01*
X19409740Y447500D01*
X19405810Y495120D01*
X19394000Y537460D01*
X19378250Y569210D01*
X19354620Y595670D01*
X19323130Y606250D01*
G01X17354630Y5368750D02*
Y5686250D01*
X17453050D01*
X17484550Y5670370D01*
X17504240Y5649210D01*
X17512110Y5606870D01*
X17504240Y5564540D01*
X17480610Y5538090D01*
X17453050Y5522200D01*
X17354630D01*
G01X17453050D02*
X17512110Y5368750D01*
G01X17748330D02*
X17716830Y5374040D01*
X17689280Y5395200D01*
X17665650Y5426960D01*
X17649900Y5464000D01*
X17642030Y5506330D01*
Y5548670D01*
X17649900Y5591000D01*
X17665650Y5628040D01*
X17689280Y5659790D01*
X17716830Y5680960D01*
X17748330Y5686250D01*
X17779820Y5680960D01*
X17807380Y5659790D01*
X17831010Y5628040D01*
X17846760Y5591000D01*
X17854630Y5548670D01*
Y5506330D01*
X17846760Y5464000D01*
X17831010Y5426960D01*
X17807380Y5395200D01*
X17779820Y5374040D01*
X17748330Y5368750D01*
G01X18063290Y5686250D02*
Y5368750D01*
G01X17972740Y5686250D02*
X18153840D01*
G01X18279820Y5368750D02*
X18378250Y5686250D01*
X18476680Y5368750D01*
G01X18441240Y5479870D02*
X18315250D01*
G01X18693210Y5686250D02*
Y5368750D01*
G01X18602660Y5686250D02*
X18783760D01*
G01X18960930D02*
X19055410D01*
G01X19008170D02*
Y5368750D01*
G01X18960930D02*
X19055410D01*
G01X19323130D02*
X19291630Y5374040D01*
X19264080Y5395200D01*
X19240450Y5426960D01*
X19224700Y5464000D01*
X19216830Y5506330D01*
Y5548670D01*
X19224700Y5591000D01*
X19240450Y5628040D01*
X19264080Y5659790D01*
X19291630Y5680960D01*
X19323130Y5686250D01*
X19354620Y5680960D01*
X19382180Y5659790D01*
X19405810Y5628040D01*
X19421560Y5591000D01*
X19429430Y5548670D01*
Y5506330D01*
X19421560Y5464000D01*
X19405810Y5426960D01*
X19382180Y5395200D01*
X19354620Y5374040D01*
X19323130Y5368750D01*
G01X19547540D02*
Y5686250D01*
X19728640Y5368750D01*
Y5686250D01*
G01X17905810Y1241250D02*
X17874310Y1230670D01*
X17850690Y1204210D01*
X17834940Y1172460D01*
X17823130Y1130120D01*
X17819200Y1082500D01*
X17823130Y1034870D01*
X17834940Y992540D01*
X17850690Y960780D01*
X17874310Y934330D01*
X17905810Y923750D01*
X17937300Y934330D01*
X17960930Y960780D01*
X17976680Y992540D01*
X17988490Y1034870D01*
X17992420Y1082500D01*
X17988490Y1130120D01*
X17976680Y1172460D01*
X17960930Y1204210D01*
X17937300Y1230670D01*
X17905810Y1241250D01*
G01X18220770Y913170D02*
X18212890Y918460D01*
Y929040D01*
X18220770Y934330D01*
X18228650Y929040D01*
Y918460D01*
X18220770Y913170D01*
G01X18535730Y1241250D02*
X18504230Y1230670D01*
X18480610Y1204210D01*
X18464860Y1172460D01*
X18453050Y1130120D01*
X18449120Y1082500D01*
X18453050Y1034870D01*
X18464860Y992540D01*
X18480610Y960780D01*
X18504230Y934330D01*
X18535730Y923750D01*
X18567220Y934330D01*
X18590850Y960780D01*
X18606600Y992540D01*
X18618410Y1034870D01*
X18622340Y1082500D01*
X18618410Y1130120D01*
X18606600Y1172460D01*
X18590850Y1204210D01*
X18567220Y1230670D01*
X18535730Y1241250D01*
G01X18850690D02*
X18819190Y1230670D01*
X18795570Y1204210D01*
X18779820Y1172460D01*
X18768010Y1130120D01*
X18764080Y1082500D01*
X18768010Y1034870D01*
X18779820Y992540D01*
X18795570Y960780D01*
X18819190Y934330D01*
X18850690Y923750D01*
X18882180Y934330D01*
X18905810Y960780D01*
X18921560Y992540D01*
X18933370Y1034870D01*
X18937300Y1082500D01*
X18933370Y1130120D01*
X18921560Y1172460D01*
X18905810Y1204210D01*
X18882180Y1230670D01*
X18850690Y1241250D01*
G01X19165650D02*
X19134150Y1230670D01*
X19110530Y1204210D01*
X19094780Y1172460D01*
X19082970Y1130120D01*
X19079040Y1082500D01*
X19082970Y1034870D01*
X19094780Y992540D01*
X19110530Y960780D01*
X19134150Y934330D01*
X19165650Y923750D01*
X19197140Y934330D01*
X19220770Y960780D01*
X19236520Y992540D01*
X19248330Y1034870D01*
X19252260Y1082500D01*
X19248330Y1130120D01*
X19236520Y1172460D01*
X19220770Y1204210D01*
X19197140Y1230670D01*
X19165650Y1241250D01*
G01X18484550Y1664580D02*
X18586910D01*
G01X18484550Y2299580D02*
X18586910D01*
G01X18484550Y2934580D02*
X18586910D01*
G01X18484550Y3569580D02*
X18586910D01*
G01X18484550Y4204580D02*
X18586910D01*
G01X18484550Y4839580D02*
X18586910D01*
G01X19478070Y-28750D02*
Y-346250D01*
G01X19387520Y-28750D02*
X19568620D01*
G01X19793030Y-346250D02*
X19761530Y-340960D01*
X19733980Y-319800D01*
X19710350Y-288040D01*
X19694600Y-251000D01*
X19686730Y-208670D01*
Y-166330D01*
X19694600Y-124000D01*
X19710350Y-86960D01*
X19733980Y-55210D01*
X19761530Y-34040D01*
X19793030Y-28750D01*
X19824520Y-34040D01*
X19852080Y-55210D01*
X19875710Y-86960D01*
X19891460Y-124000D01*
X19899330Y-166330D01*
Y-208670D01*
X19891460Y-251000D01*
X19875710Y-288040D01*
X19852080Y-319800D01*
X19824520Y-340960D01*
X19793030Y-346250D01*
G01X20107990Y-28750D02*
Y-346250D01*
G01X20017440Y-28750D02*
X20198540D01*
G01X20324520Y-346250D02*
X20422950Y-28750D01*
X20521380Y-346250D01*
G01X20485940Y-235130D02*
X20359950D01*
G01X20659170Y-28750D02*
Y-346250D01*
X20816650D01*
G01X21285150D02*
Y-28750D01*
G01X21450510D02*
Y-346250D01*
G01Y-187500D02*
X21285150D01*
G01X21682790Y-346250D02*
X21651290Y-340960D01*
X21623740Y-319800D01*
X21600110Y-288040D01*
X21584360Y-251000D01*
X21576490Y-208670D01*
Y-166330D01*
X21584360Y-124000D01*
X21600110Y-86960D01*
X21623740Y-55210D01*
X21651290Y-34040D01*
X21682790Y-28750D01*
X21714280Y-34040D01*
X21741840Y-55210D01*
X21765470Y-86960D01*
X21781220Y-124000D01*
X21789090Y-166330D01*
Y-208670D01*
X21781220Y-251000D01*
X21765470Y-288040D01*
X21741840Y-319800D01*
X21714280Y-340960D01*
X21682790Y-346250D01*
G01X21919010Y-28750D02*
Y-346250D01*
X22076490D01*
G01X22391450D02*
X22233970D01*
Y-28750D01*
X22391450D01*
G01X22328460Y-182200D02*
X22233970D01*
G01X22544990Y-303930D02*
X22576490Y-330380D01*
X22611920Y-346250D01*
X22643420D01*
X22674910Y-330380D01*
X22698540Y-303930D01*
X22710350Y-266870D01*
X22702480Y-229840D01*
X22682790Y-198090D01*
X22647350Y-176910D01*
X22600110Y-166330D01*
X22572550Y-145170D01*
X22560740Y-108130D01*
X22568620Y-71080D01*
X22588300Y-44630D01*
X22615860Y-28750D01*
X22643420D01*
X22670980Y-39330D01*
X22694600Y-65790D01*
G01X22942630Y-356830D02*
X22934750Y-351540D01*
Y-340960D01*
X22942630Y-335670D01*
X22950510Y-340960D01*
Y-351540D01*
X22942630Y-356830D01*
G01Y-213970D02*
X22934750Y-208670D01*
Y-198090D01*
X22942630Y-192800D01*
X22950510Y-198090D01*
Y-208670D01*
X22942630Y-213970D01*
G01X20897930Y288750D02*
Y606250D01*
X20992420D01*
X21023910Y590370D01*
X21047540Y553330D01*
X21055410Y511000D01*
X21047540Y468670D01*
X21027850Y436910D01*
X20992420Y421030D01*
X20897930D01*
G01X21212890Y606250D02*
Y288750D01*
X21370370D01*
G01X21508160D02*
X21606590Y606250D01*
X21705020Y288750D01*
G01X21669580Y399870D02*
X21543590D01*
G01X21921550Y606250D02*
Y288750D01*
G01X21831000Y606250D02*
X22012100D01*
G01X22315250Y288750D02*
X22157770D01*
Y606250D01*
X22315250D01*
G01X22252260Y452800D02*
X22157770D01*
G01X22464860Y288750D02*
Y606250D01*
X22543590D01*
X22575090Y590370D01*
X22598710Y569210D01*
X22618400Y537460D01*
X22634150Y500410D01*
X22638080Y447500D01*
X22634150Y394580D01*
X22618400Y357540D01*
X22598710Y325780D01*
X22575090Y304620D01*
X22543590Y288750D01*
X22464860D01*
G01X20897930Y923750D02*
Y1241250D01*
X20992420D01*
X21023910Y1225370D01*
X21047540Y1188330D01*
X21055410Y1146000D01*
X21047540Y1103670D01*
X21027850Y1071910D01*
X20992420Y1056030D01*
X20897930D01*
G01X21212890Y1241250D02*
Y923750D01*
X21370370D01*
G01X21508160D02*
X21606590Y1241250D01*
X21705020Y923750D01*
G01X21669580Y1034870D02*
X21543590D01*
G01X21921550Y1241250D02*
Y923750D01*
G01X21831000Y1241250D02*
X22012100D01*
G01X22315250Y923750D02*
X22157770D01*
Y1241250D01*
X22315250D01*
G01X22252260Y1087800D02*
X22157770D01*
G01X22464860Y923750D02*
Y1241250D01*
X22543590D01*
X22575090Y1225370D01*
X22598710Y1204210D01*
X22618400Y1172460D01*
X22634150Y1135410D01*
X22638080Y1082500D01*
X22634150Y1029580D01*
X22618400Y992540D01*
X22598710Y960780D01*
X22575090Y939620D01*
X22543590Y923750D01*
X22464860D01*
G01X20897930Y1558750D02*
Y1876250D01*
X20992420D01*
X21023910Y1860370D01*
X21047540Y1823330D01*
X21055410Y1781000D01*
X21047540Y1738670D01*
X21027850Y1706910D01*
X20992420Y1691030D01*
X20897930D01*
G01X21212890Y1876250D02*
Y1558750D01*
X21370370D01*
G01X21508160D02*
X21606590Y1876250D01*
X21705020Y1558750D01*
G01X21669580Y1669870D02*
X21543590D01*
G01X21921550Y1876250D02*
Y1558750D01*
G01X21831000Y1876250D02*
X22012100D01*
G01X22315250Y1558750D02*
X22157770D01*
Y1876250D01*
X22315250D01*
G01X22252260Y1722800D02*
X22157770D01*
G01X22464860Y1558750D02*
Y1876250D01*
X22543590D01*
X22575090Y1860370D01*
X22598710Y1839210D01*
X22618400Y1807460D01*
X22634150Y1770410D01*
X22638080Y1717500D01*
X22634150Y1664580D01*
X22618400Y1627540D01*
X22598710Y1595780D01*
X22575090Y1574620D01*
X22543590Y1558750D01*
X22464860D01*
G01X20897930Y2193750D02*
Y2511250D01*
X20992420D01*
X21023910Y2495370D01*
X21047540Y2458330D01*
X21055410Y2416000D01*
X21047540Y2373670D01*
X21027850Y2341910D01*
X20992420Y2326030D01*
X20897930D01*
G01X21212890Y2511250D02*
Y2193750D01*
X21370370D01*
G01X21508160D02*
X21606590Y2511250D01*
X21705020Y2193750D01*
G01X21669580Y2304870D02*
X21543590D01*
G01X21921550Y2511250D02*
Y2193750D01*
G01X21831000Y2511250D02*
X22012100D01*
G01X22315250Y2193750D02*
X22157770D01*
Y2511250D01*
X22315250D01*
G01X22252260Y2357800D02*
X22157770D01*
G01X22464860Y2193750D02*
Y2511250D01*
X22543590D01*
X22575090Y2495370D01*
X22598710Y2474210D01*
X22618400Y2442460D01*
X22634150Y2405410D01*
X22638080Y2352500D01*
X22634150Y2299580D01*
X22618400Y2262540D01*
X22598710Y2230780D01*
X22575090Y2209620D01*
X22543590Y2193750D01*
X22464860D01*
G01X20897930Y2828750D02*
Y3146250D01*
X20992420D01*
X21023910Y3130370D01*
X21047540Y3093330D01*
X21055410Y3051000D01*
X21047540Y3008670D01*
X21027850Y2976910D01*
X20992420Y2961030D01*
X20897930D01*
G01X21212890Y3146250D02*
Y2828750D01*
X21370370D01*
G01X21508160D02*
X21606590Y3146250D01*
X21705020Y2828750D01*
G01X21669580Y2939870D02*
X21543590D01*
G01X21921550Y3146250D02*
Y2828750D01*
G01X21831000Y3146250D02*
X22012100D01*
G01X22315250Y2828750D02*
X22157770D01*
Y3146250D01*
X22315250D01*
G01X22252260Y2992800D02*
X22157770D01*
G01X22464860Y2828750D02*
Y3146250D01*
X22543590D01*
X22575090Y3130370D01*
X22598710Y3109210D01*
X22618400Y3077460D01*
X22634150Y3040410D01*
X22638080Y2987500D01*
X22634150Y2934580D01*
X22618400Y2897540D01*
X22598710Y2865780D01*
X22575090Y2844620D01*
X22543590Y2828750D01*
X22464860D01*
G01X20897930Y3463750D02*
Y3781250D01*
X20992420D01*
X21023910Y3765370D01*
X21047540Y3728330D01*
X21055410Y3686000D01*
X21047540Y3643670D01*
X21027850Y3611910D01*
X20992420Y3596030D01*
X20897930D01*
G01X21212890Y3781250D02*
Y3463750D01*
X21370370D01*
G01X21508160D02*
X21606590Y3781250D01*
X21705020Y3463750D01*
G01X21669580Y3574870D02*
X21543590D01*
G01X21921550Y3781250D02*
Y3463750D01*
G01X21831000Y3781250D02*
X22012100D01*
G01X22315250Y3463750D02*
X22157770D01*
Y3781250D01*
X22315250D01*
G01X22252260Y3627800D02*
X22157770D01*
G01X22464860Y3463750D02*
Y3781250D01*
X22543590D01*
X22575090Y3765370D01*
X22598710Y3744210D01*
X22618400Y3712460D01*
X22634150Y3675410D01*
X22638080Y3622500D01*
X22634150Y3569580D01*
X22618400Y3532540D01*
X22598710Y3500780D01*
X22575090Y3479620D01*
X22543590Y3463750D01*
X22464860D01*
G01X20897930Y4098750D02*
Y4416250D01*
X20992420D01*
X21023910Y4400370D01*
X21047540Y4363330D01*
X21055410Y4321000D01*
X21047540Y4278670D01*
X21027850Y4246910D01*
X20992420Y4231030D01*
X20897930D01*
G01X21212890Y4416250D02*
Y4098750D01*
X21370370D01*
G01X21508160D02*
X21606590Y4416250D01*
X21705020Y4098750D01*
G01X21669580Y4209870D02*
X21543590D01*
G01X21921550Y4416250D02*
Y4098750D01*
G01X21831000Y4416250D02*
X22012100D01*
G01X22315250Y4098750D02*
X22157770D01*
Y4416250D01*
X22315250D01*
G01X22252260Y4262800D02*
X22157770D01*
G01X22464860Y4098750D02*
Y4416250D01*
X22543590D01*
X22575090Y4400370D01*
X22598710Y4379210D01*
X22618400Y4347460D01*
X22634150Y4310410D01*
X22638080Y4257500D01*
X22634150Y4204580D01*
X22618400Y4167540D01*
X22598710Y4135780D01*
X22575090Y4114620D01*
X22543590Y4098750D01*
X22464860D01*
G01X20897930Y4733750D02*
Y5051250D01*
X20992420D01*
X21023910Y5035370D01*
X21047540Y4998330D01*
X21055410Y4956000D01*
X21047540Y4913670D01*
X21027850Y4881910D01*
X20992420Y4866030D01*
X20897930D01*
G01X21212890Y5051250D02*
Y4733750D01*
X21370370D01*
G01X21508160D02*
X21606590Y5051250D01*
X21705020Y4733750D01*
G01X21669580Y4844870D02*
X21543590D01*
G01X21921550Y5051250D02*
Y4733750D01*
G01X21831000Y5051250D02*
X22012100D01*
G01X22315250Y4733750D02*
X22157770D01*
Y5051250D01*
X22315250D01*
G01X22252260Y4897800D02*
X22157770D01*
G01X22464860Y4733750D02*
Y5051250D01*
X22543590D01*
X22575090Y5035370D01*
X22598710Y5014210D01*
X22618400Y4982460D01*
X22634150Y4945410D01*
X22638080Y4892500D01*
X22634150Y4839580D01*
X22618400Y4802540D01*
X22598710Y4770780D01*
X22575090Y4749620D01*
X22543590Y4733750D01*
X22464860D01*
G01X20897930Y5368750D02*
Y5686250D01*
X20992420D01*
X21023910Y5670370D01*
X21047540Y5633330D01*
X21055410Y5591000D01*
X21047540Y5548670D01*
X21027850Y5516910D01*
X20992420Y5501030D01*
X20897930D01*
G01X21212890Y5686250D02*
Y5368750D01*
X21370370D01*
G01X21508160D02*
X21606590Y5686250D01*
X21705020Y5368750D01*
G01X21669580Y5479870D02*
X21543590D01*
G01X21921550Y5686250D02*
Y5368750D01*
G01X21831000Y5686250D02*
X22012100D01*
G01X22315250Y5368750D02*
X22157770D01*
Y5686250D01*
X22315250D01*
G01X22252260Y5532800D02*
X22157770D01*
G01X22464860Y5368750D02*
Y5686250D01*
X22543590D01*
X22575090Y5670370D01*
X22598710Y5649210D01*
X22618400Y5617460D01*
X22634150Y5580410D01*
X22638080Y5527500D01*
X22634150Y5474580D01*
X22618400Y5437540D01*
X22598710Y5405780D01*
X22575090Y5384620D01*
X22543590Y5368750D01*
X22464860D01*
G01X24047530Y-346250D02*
Y-28750D01*
X24000290Y-92250D01*
G01Y-346250D02*
X24094770D01*
G01X24362490D02*
X24390050Y-340960D01*
X24421540Y-325090D01*
X24441230Y-298640D01*
X24449100Y-261580D01*
X24441230Y-224550D01*
X24417610Y-192800D01*
X24382170Y-176910D01*
X24342810D01*
X24319180Y-166330D01*
X24299490Y-139880D01*
X24291620Y-102840D01*
X24303440Y-65790D01*
X24330990Y-39330D01*
X24362490Y-28750D01*
X24393980Y-39330D01*
X24421540Y-65790D01*
X24433360Y-102840D01*
X24425480Y-139880D01*
X24405800Y-166330D01*
X24382170Y-176910D01*
X24342810D01*
X24307370Y-192800D01*
X24283750Y-224550D01*
X24275880Y-261580D01*
X24283750Y-298640D01*
X24303440Y-325090D01*
X24334930Y-340960D01*
X24362490Y-346250D01*
G01X24590840Y-282750D02*
X24614450Y-319800D01*
X24645950Y-340960D01*
X24681390Y-346250D01*
X24712890Y-340960D01*
X24744380Y-314510D01*
X24764060Y-282750D01*
X24768000Y-251000D01*
X24760130Y-213970D01*
X24732570Y-187500D01*
X24705010Y-176910D01*
X24669570D01*
G01X24705010D02*
X24728630Y-161040D01*
X24748320Y-134590D01*
X24756190Y-102840D01*
X24748320Y-71080D01*
X24728630Y-44630D01*
X24693200Y-28750D01*
X24657770Y-34040D01*
X24622330Y-55210D01*
G01X24205010Y1558750D02*
Y1876250D01*
X24157770Y1812750D01*
G01Y1558750D02*
X24252250D01*
G01X24445160Y1823330D02*
X24468790Y1855080D01*
X24496350Y1870960D01*
X24527850Y1876250D01*
X24567210Y1865670D01*
X24594780Y1839210D01*
X24602650Y1807460D01*
X24598710Y1775700D01*
X24582960Y1749250D01*
X24504220Y1696330D01*
X24468790Y1659290D01*
X24445160Y1606360D01*
X24437290Y1558750D01*
X24602650D01*
G01X24130200Y4231030D02*
X24157770Y4268090D01*
X24181390Y4289250D01*
X24212890Y4299830D01*
X24240450Y4289250D01*
X24260130Y4268090D01*
X24275880Y4236330D01*
X24279820Y4199290D01*
X24275880Y4167540D01*
X24260130Y4135780D01*
X24236500Y4109330D01*
X24208950Y4098750D01*
X24177450Y4109330D01*
X24149890Y4141070D01*
X24134140Y4188710D01*
X24130200Y4241620D01*
X24138080Y4310410D01*
X24149890Y4347460D01*
X24169570Y4384500D01*
X24197130Y4410960D01*
X24224690Y4416250D01*
X24252250Y4405670D01*
X24271940Y4379210D01*
G01X24519970Y4416250D02*
X24488470Y4405670D01*
X24464850Y4379210D01*
X24449100Y4347460D01*
X24437290Y4305120D01*
X24433360Y4257500D01*
X24437290Y4209870D01*
X24449100Y4167540D01*
X24464850Y4135780D01*
X24488470Y4109330D01*
X24519970Y4098750D01*
X24551460Y4109330D01*
X24575090Y4135780D01*
X24590840Y4167540D01*
X24602650Y4209870D01*
X24606580Y4257500D01*
X24602650Y4305120D01*
X24590840Y4347460D01*
X24575090Y4379210D01*
X24551460Y4405670D01*
X24519970Y4416250D01*
G01X24138080Y4770780D02*
X24165640Y4744330D01*
X24197130Y4733750D01*
X24228630Y4744330D01*
X24256190Y4776070D01*
X24275880Y4823710D01*
X24283750Y4871330D01*
Y4929540D01*
X24275880Y4977160D01*
X24256190Y5019500D01*
X24232570Y5040670D01*
X24205010Y5051250D01*
X24173510Y5040670D01*
X24149890Y5019500D01*
X24134140Y4987750D01*
X24126270Y4945410D01*
X24134140Y4908380D01*
X24153830Y4871330D01*
X24177450Y4850160D01*
X24205010Y4844870D01*
X24236500Y4855450D01*
X24260130Y4881910D01*
X24283750Y4929540D01*
G01X24567210Y4733750D02*
Y5051250D01*
X24421540Y4823710D01*
X24618400D01*
G01X24047530Y5368750D02*
X24016030Y5374040D01*
X23988480Y5395200D01*
X23964850Y5426960D01*
X23949100Y5464000D01*
X23941230Y5506330D01*
Y5548670D01*
X23949100Y5591000D01*
X23964850Y5628040D01*
X23988480Y5659790D01*
X24016030Y5680960D01*
X24047530Y5686250D01*
X24079020Y5680960D01*
X24106580Y5659790D01*
X24130210Y5628040D01*
X24145960Y5591000D01*
X24153830Y5548670D01*
Y5506330D01*
X24145960Y5464000D01*
X24130210Y5426960D01*
X24106580Y5395200D01*
X24079020Y5374040D01*
X24047530Y5368750D01*
G01X24079020Y5453420D02*
X24126270Y5368750D01*
G01X24362490Y5686250D02*
Y5368750D01*
G01X24271940Y5686250D02*
X24453040D01*
G01X24677450Y5368750D02*
Y5511620D01*
X24598710Y5686250D01*
G01X24756190D02*
X24677450Y5511620D01*
G01X24362490Y288750D02*
Y606250D01*
X24315250Y542750D01*
G01Y288750D02*
X24409730D01*
G01X24287680Y1188330D02*
X24311310Y1220080D01*
X24338870Y1235960D01*
X24370370Y1241250D01*
X24409730Y1230670D01*
X24437300Y1204210D01*
X24445170Y1172460D01*
X24441230Y1140700D01*
X24425480Y1114250D01*
X24346740Y1061330D01*
X24311310Y1024290D01*
X24287680Y971360D01*
X24279810Y923750D01*
X24445170D01*
G01X24275880Y2241360D02*
X24299490Y2214910D01*
X24327050Y2199040D01*
X24362490Y2193750D01*
X24397930Y2204330D01*
X24425480Y2225490D01*
X24445170Y2262540D01*
X24449100Y2304870D01*
X24441230Y2347200D01*
X24421540Y2373670D01*
X24393980Y2394830D01*
X24366430Y2400120D01*
X24338870Y2394830D01*
X24303440Y2373670D01*
X24315250Y2511250D01*
X24421540D01*
G01X24275880Y2892250D02*
X24299490Y2855200D01*
X24330990Y2834040D01*
X24366430Y2828750D01*
X24397930Y2834040D01*
X24429420Y2860490D01*
X24449100Y2892250D01*
X24453040Y2924000D01*
X24445170Y2961030D01*
X24417610Y2987500D01*
X24390050Y2998090D01*
X24354610D01*
G01X24390050D02*
X24413670Y3013960D01*
X24433360Y3040410D01*
X24441230Y3072160D01*
X24433360Y3103920D01*
X24413670Y3130370D01*
X24378240Y3146250D01*
X24342810Y3140960D01*
X24307370Y3119790D01*
G01X24287680Y3596030D02*
X24315250Y3633090D01*
X24338870Y3654250D01*
X24370370Y3664830D01*
X24397930Y3654250D01*
X24417610Y3633090D01*
X24433360Y3601330D01*
X24437300Y3564290D01*
X24433360Y3532540D01*
X24417610Y3500780D01*
X24393980Y3474330D01*
X24366430Y3463750D01*
X24334930Y3474330D01*
X24307370Y3506070D01*
X24291620Y3553710D01*
X24287680Y3606620D01*
X24295560Y3675410D01*
X24307370Y3712460D01*
X24327050Y3749500D01*
X24354610Y3775960D01*
X24382170Y3781250D01*
X24409730Y3770670D01*
X24429420Y3744210D01*
G01X9520000Y130000D02*
Y7130000D01*
X25346740D01*
Y130000D01*
X9520000D01*
G01Y765000D02*
X25346740D01*
G01X9520000Y1400000D02*
X25346740D01*
G01X9520000Y2035000D02*
X25346740D01*
G01X9520000Y2670000D02*
X25346740D01*
G01X9520000Y3305000D02*
X25346740D01*
G01X9520000Y3940000D02*
X25346740D01*
G01X9520000Y4575000D02*
X25346740D01*
G01X9520000Y5210000D02*
X25346740D01*
G01X9520000Y5845000D02*
X25346740D01*
G01X9520000Y6480000D02*
X25346740D01*
G01X11803460Y5845000D02*
Y130000D01*
G01X16921560Y5845000D02*
Y130000D01*
G01X20149900Y5845000D02*
Y130000D01*
G01X23378240Y5845000D02*
Y130000D01*
M02*
