G04 ================== begin FILE IDENTIFICATION RECORD ==================*
G04 Layout Name:  H:/github/MBED-TOOLS/HARDWARE/RM08K_TEST_V10/PCB/RM08K_TEST_V10.brd*
G04 Film Name:    SilkScreen_Top*
G04 File Format:  Gerber RS274X*
G04 File Origin:  Cadence Allegro 17.2-S067*
G04 Origin Date:  Sat Aug 01 17:15:10 2020*
G04 *
G04 Layer:  REF DES/SILKSCREEN_TOP*
G04 Layer:  PACKAGE GEOMETRY/SILKSCREEN_TOP*
G04 Layer:  BOARD GEOMETRY/SILKSCREEN_TOP*
G04 *
G04 Offset:    (0.0000 0.0000)*
G04 Mirror:    No*
G04 Mode:      Positive*
G04 Rotation:  0*
G04 FullContactRelief:  No*
G04 UndefLineWidth:     0.1524*
G04 ================== end FILE IDENTIFICATION RECORD ====================*
%FSLAX55Y55*MOMM*%
%IR0*IPPOS*OFA0.00000B0.00000*MIA0B0*SFA1.00000B1.00000*%
%ADD10C,.2*%
%ADD11C,.2032*%
%ADD12C,.254*%
%ADD13C,.1524*%
%ADD14C,.1778*%
G75*
%LPD*%
G75*
G36*
G01X640000Y320000D02*
G03I-320000J0D01*
G37*
G36*
G01Y6680000D02*
G03I-320000J0D01*
G37*
G36*
G01X5787500Y6702240D02*
X2887500D01*
Y2692240D01*
X5787500D01*
Y6702240D01*
G37*
G36*
G01X2757500Y6602240D02*
G03I-30000J0D01*
G37*
G36*
G01X6210000Y4940000D02*
X6160000Y4990000D01*
Y4890000D01*
X6210000Y4940000D01*
G37*
G36*
G01X6731620Y4628000D02*
G03I-31620J0D01*
G37*
G36*
G01X8000000Y320000D02*
G03I-320000J0D01*
G37*
G36*
G01Y6680000D02*
G03I-320000J0D01*
G37*
G54D10*
G01X329080Y990870D02*
Y870870D01*
X609080D01*
Y990870D01*
X329080D01*
G01Y839320D02*
Y719320D01*
X609080D01*
Y839320D01*
X329080D01*
G01X330000Y1140000D02*
Y1020000D01*
X610000D01*
Y1140000D01*
X330000D01*
G01Y1290000D02*
Y1170000D01*
X610000D01*
Y1290000D01*
X330000D01*
G01X760000Y1250000D02*
Y0D01*
X2360000D01*
Y1250000D01*
G01Y1540000D02*
Y2130000D01*
X760000D01*
Y1540000D01*
G01Y5460000D02*
Y4870000D01*
X2360000D01*
Y5460000D01*
G01Y5750000D02*
Y7000000D01*
X760000D01*
Y5750000D01*
G01X349080Y6050000D02*
Y5930000D01*
X629080D01*
Y6050000D01*
X349080D01*
G01Y6203790D02*
Y6083790D01*
X629080D01*
Y6203790D01*
X349080D01*
G01X2390000Y1250000D02*
Y0D01*
X3990000D01*
Y1250000D01*
G01Y1540000D02*
Y2130000D01*
X2390000D01*
Y1540000D01*
G01X3790000Y6800000D02*
Y6920000D01*
X3510000D01*
Y6800000D01*
X3790000D01*
G01X4020000Y1250000D02*
Y0D01*
X5620000D01*
Y1250000D01*
G01Y1540000D02*
Y2130000D01*
X4020000D01*
Y1540000D01*
G01X3810000Y6950000D02*
Y6770000D01*
X4150000D01*
Y6950000D01*
X3810000D01*
G01X4150000D02*
X4180000D01*
Y6770000D01*
X4150000D01*
G01X4520000Y6950000D02*
Y6770000D01*
X4860000D01*
Y6950000D01*
X4520000D01*
G01X4490000Y6800000D02*
Y6920000D01*
X4210000D01*
Y6800000D01*
X4490000D01*
G01X4860000Y6950000D02*
X4890000D01*
Y6770000D01*
X4860000D01*
G01X5650000Y1250000D02*
Y0D01*
X7250000D01*
Y1250000D01*
G01Y1540000D02*
Y2130000D01*
X5650000D01*
Y1540000D01*
G01X6504800Y2890000D02*
Y3010000D01*
X6224800D01*
Y2890000D01*
X6504800D01*
G01X6343500Y2800000D02*
G03I-63500J0D01*
G01X5984800Y3910000D02*
G03Y3750000I147500J-80000D01*
G01X6324800D02*
X5984800D01*
G01X6024800Y3550000D02*
G03Y3430000I77500J-60000D01*
G01X6284800D02*
G03Y3550000I-77500J60000D01*
G01X6024800Y3430000D02*
X6284800D01*
G01Y3550000D02*
X6024800D01*
G01Y3400000D02*
G03Y3280000I77500J-60000D01*
G01X6284800D02*
G03Y3400000I-77500J60000D01*
G01X6024800Y3280000D02*
X6284800D01*
G01Y3400000D02*
X6024800D01*
G01X6470000Y5073000D02*
X6210000D01*
Y4299000D01*
X6470000D01*
Y5073000D01*
G01X5984800Y3910000D02*
X6324800D01*
G01X5984800Y4100000D02*
G03Y3940000I147500J-80000D01*
G01Y4100000D02*
X6324800D01*
G01Y3940000D02*
X5984800D01*
G01X6284800Y5342240D02*
G03Y5462240I-77500J60000D01*
G01X6024800D02*
G03Y5342240I77500J-60000D01*
G01D02*
X6284800D01*
G01X6480000Y5580000D02*
X6230000D01*
Y5630000D01*
G01X6284800Y5462240D02*
X6024800D01*
G01X6230000Y6090000D02*
Y6980000D01*
X7130000D01*
Y5580000D01*
X6940000D01*
G01X6850000Y2890000D02*
Y3010000D01*
X6570000D01*
Y2890000D01*
X6850000D01*
G01X6324800Y3750000D02*
G03Y3910000I-147500J80000D01*
G01X6750000Y4280000D02*
Y5470000D01*
X7990000D01*
Y4280000D01*
X6750000D01*
G01X6324800Y3940000D02*
G03Y4100000I-147500J80000D01*
G01X6560000Y4630000D02*
X6700000D01*
G01X6560000Y5140000D02*
X6700000D01*
G01X6630000Y5210000D02*
Y5070000D01*
G01X7240000Y2490000D02*
Y2810000D01*
G01X7070000Y4528000D02*
X7680000D01*
X7830000Y4568000D01*
Y4678000D01*
X7680000Y4718000D01*
X7070000D01*
G01Y5038000D02*
X7680000D01*
X7830000Y5078000D01*
Y5188000D01*
X7680000Y5228000D01*
X7070000D01*
G01X7700000Y720000D02*
Y840000D01*
X7420000D01*
Y720000D01*
X7700000D01*
G01Y1020000D02*
Y1140000D01*
X7420000D01*
Y1020000D01*
X7700000D01*
G01Y870870D02*
Y990870D01*
X7420000D01*
Y870870D01*
X7700000D01*
G01Y1170000D02*
Y1290000D01*
X7420000D01*
Y1170000D01*
X7700000D01*
G01X7420000Y1455000D02*
Y1335000D01*
X7700000D01*
Y1455000D01*
X7420000D01*
G01X7400000Y2330000D02*
X7720000D01*
G01X7880000Y2490000D02*
Y2810000D01*
G01X7711330Y2650000D02*
G03I-151330J0D01*
G01X7920000Y2450000D02*
X8720000D01*
Y2850000D01*
X7920000D01*
G01X7400000Y2970000D02*
X7720000D01*
G01X7990000Y4280000D02*
X7680000D01*
Y5470000D01*
X7990000D01*
G01X8400000Y2850000D02*
X8500000Y2450000D01*
G01X8290000Y2850000D02*
X8390000Y2450000D01*
G01X8170000D02*
X8120000Y2650000D01*
G01X8180000Y2850000D02*
X8280000Y2450000D01*
G01X8230000Y2290000D02*
X8170000Y2450000D01*
X8120000Y2290000D01*
G01X8450000D02*
X8390000Y2450000D01*
X8340000Y2290000D01*
G01D02*
X8280000Y2450000D01*
X8230000Y2290000D01*
G01X8560000D02*
X8500000Y2450000D01*
X8450000Y2290000D01*
G01X8560000Y3010000D02*
X8620000Y2850000D01*
X8670000Y3010000D01*
X8720000Y2850000D01*
Y3010000D01*
X8120000D01*
Y2290000D01*
X8720000D01*
Y2450000D01*
X8670000Y2290000D01*
X8610000Y2450000D01*
X8560000Y2290000D01*
G01X8450000Y3010000D02*
X8510000Y2850000D01*
X8560000Y3010000D01*
G01X8340000D02*
X8400000Y2850000D01*
X8450000Y3010000D01*
G01X8230000D02*
X8290000Y2850000D01*
X8340000Y3010000D01*
G01X8120000D02*
X8180000Y2850000D01*
X8230000Y3010000D01*
G01X7990000Y4878000D02*
X7988000Y4880000D01*
G01X8620000Y2850000D02*
X8720000Y2450000D01*
G01X8510000Y2850000D02*
X8610000Y2450000D01*
G54D11*
G01X30000Y1340000D02*
Y1560000D01*
X-80000D01*
Y1900000D01*
X30000D01*
Y2120000D01*
G01X310000Y1420000D02*
Y1330000D01*
X250000D01*
G01X310000Y1860000D02*
Y1600000D01*
G01X250000Y2130000D02*
X310000D01*
Y2040000D01*
G01X30000Y3120000D02*
Y3340000D01*
X-80000D01*
Y3680000D01*
X30000D01*
Y3900000D01*
G01X310000Y3200000D02*
Y3110000D01*
X250000D01*
G01X310000Y3640000D02*
Y3380000D01*
G01X250000Y3910000D02*
X310000D01*
Y3820000D01*
G01X30000Y4890000D02*
Y5110000D01*
X-80000D01*
Y5450000D01*
X30000D01*
Y5670000D01*
G01X310000Y4970000D02*
Y4880000D01*
X250000D01*
G01X310000Y5410000D02*
Y5150000D01*
G01X250000Y5680000D02*
X310000D01*
Y5590000D01*
G01X7200000Y5520000D02*
X7950000D01*
Y6070000D01*
X7200000D01*
Y5520000D01*
G54D12*
G01X2867500Y2722240D02*
Y2672240D01*
X3157500D01*
G01X5807500Y6682240D02*
Y6722240D01*
X2867500D01*
Y6682240D01*
G01X5517500Y2672240D02*
X5807500D01*
Y2722240D01*
G01X6703000Y3320000D02*
X6863000D01*
G01X6703000Y3490000D02*
X6863000D01*
G01X6703000Y3660000D02*
X6863000D01*
G01X6703000Y3830000D02*
X6863000D01*
G01X6703000Y4000000D02*
X6863000D01*
G01X7883000Y3080000D02*
X6863000D01*
Y4240000D01*
X7953000D01*
Y3080000D01*
X7883000D01*
G54D13*
G01X144080Y865870D02*
Y955870D01*
X169080D01*
X177080Y951370D01*
X182080Y945370D01*
X184080Y933370D01*
X182080Y921370D01*
X176080Y913870D01*
X169080Y909370D01*
X144080D01*
G01X169080D02*
X184080Y865870D01*
G01X217080Y876370D02*
X224080Y868870D01*
X232080Y865870D01*
X240080Y868870D01*
X247080Y877870D01*
X252080Y891370D01*
X254080Y904870D01*
Y921370D01*
X252080Y934870D01*
X247080Y946870D01*
X241080Y952870D01*
X234080Y955870D01*
X226080Y952870D01*
X220080Y946870D01*
X216080Y937870D01*
X214080Y925870D01*
X216080Y915370D01*
X221080Y904870D01*
X227080Y898870D01*
X234080Y897370D01*
X242080Y900370D01*
X248080Y907870D01*
X254080Y921370D01*
G01X109080Y714320D02*
Y804320D01*
X134080D01*
X142080Y799820D01*
X147080Y793820D01*
X149080Y781820D01*
X147080Y769820D01*
X141080Y762320D01*
X134080Y757820D01*
X109080D01*
G01X134080D02*
X149080Y714320D01*
G01X199080D02*
Y804320D01*
X187080Y786320D01*
G01Y714320D02*
X211080D01*
G01X269080Y804320D02*
X261080Y801320D01*
X255080Y793820D01*
X251080Y784820D01*
X248080Y772820D01*
X247080Y759320D01*
X248080Y745820D01*
X251080Y733820D01*
X255080Y724820D01*
X261080Y717320D01*
X269080Y714320D01*
X277080Y717320D01*
X283080Y724820D01*
X287080Y733820D01*
X290080Y745820D01*
X291080Y759320D01*
X290080Y772820D01*
X287080Y784820D01*
X283080Y793820D01*
X277080Y801320D01*
X269080Y804320D01*
G01X110000Y1015000D02*
Y1105000D01*
X135000D01*
X143000Y1100500D01*
X148000Y1094500D01*
X150000Y1082500D01*
X148000Y1070500D01*
X142000Y1063000D01*
X135000Y1058500D01*
X110000D01*
G01X135000D02*
X150000Y1015000D01*
G01X200000D02*
Y1105000D01*
X188000Y1087000D01*
G01Y1015000D02*
X212000D01*
G01X251000Y1090000D02*
X257000Y1099000D01*
X264000Y1103500D01*
X272000Y1105000D01*
X282000Y1102000D01*
X289000Y1094500D01*
X291000Y1085500D01*
X290000Y1076500D01*
X286000Y1069000D01*
X266000Y1054000D01*
X257000Y1043500D01*
X251000Y1028500D01*
X249000Y1015000D01*
X291000D01*
G01X110000Y1165000D02*
Y1255000D01*
X135000D01*
X143000Y1250500D01*
X148000Y1244500D01*
X150000Y1232500D01*
X148000Y1220500D01*
X142000Y1213000D01*
X135000Y1208500D01*
X110000D01*
G01X135000D02*
X150000Y1165000D01*
G01X200000D02*
Y1255000D01*
X188000Y1237000D01*
G01Y1165000D02*
X212000D01*
G01X282000D02*
Y1255000D01*
X245000Y1190500D01*
X295000D01*
G01X204080Y5955000D02*
Y6045000D01*
X229080D01*
X237080Y6040500D01*
X242080Y6034500D01*
X244080Y6022500D01*
X242080Y6010500D01*
X236080Y6003000D01*
X229080Y5998500D01*
X204080D01*
G01X229080D02*
X244080Y5955000D01*
G01X294080D02*
Y6045000D01*
X282080Y6027000D01*
G01Y5955000D02*
X306080D01*
G01X204080Y6108790D02*
Y6198790D01*
X229080D01*
X237080Y6194290D01*
X242080Y6188290D01*
X244080Y6176290D01*
X242080Y6164290D01*
X236080Y6156790D01*
X229080Y6152290D01*
X204080D01*
G01X229080D02*
X244080Y6108790D01*
G01X306080D02*
Y6198790D01*
X269080Y6134290D01*
X319080D01*
G01X650000Y1686670D02*
Y1633330D01*
X540000D01*
Y1686670D01*
G01X593170Y1665330D02*
Y1633330D01*
G01X635340Y1722000D02*
X644500Y1732670D01*
X650000Y1744670D01*
Y1755330D01*
X644500Y1766000D01*
X635340Y1774000D01*
X622500Y1778000D01*
X609670Y1775330D01*
X598670Y1768670D01*
X591330Y1756670D01*
X587670Y1740670D01*
X580330Y1731330D01*
X567500Y1727330D01*
X554670Y1730000D01*
X545500Y1736670D01*
X540000Y1746000D01*
Y1755330D01*
X543670Y1764670D01*
X552830Y1772670D01*
G01X540000Y1840000D02*
X543670Y1829330D01*
X552830Y1821330D01*
X563830Y1816000D01*
X578500Y1812000D01*
X595000Y1810670D01*
X611500Y1812000D01*
X626170Y1816000D01*
X637170Y1821330D01*
X646330Y1829330D01*
X650000Y1840000D01*
X646330Y1850670D01*
X637170Y1858670D01*
X626170Y1864000D01*
X611500Y1868000D01*
X595000Y1869330D01*
X578500Y1868000D01*
X563830Y1864000D01*
X552830Y1858670D01*
X543670Y1850670D01*
X540000Y1840000D01*
G01X770000Y2183000D02*
X775000Y2174000D01*
X781000Y2168000D01*
X788000Y2165000D01*
X796000Y2168000D01*
X802000Y2174000D01*
X808000Y2183000D01*
X810000Y2195000D01*
Y2255000D01*
G01X838000Y2178500D02*
X844000Y2171000D01*
X851000Y2166500D01*
X860000Y2165000D01*
X869000Y2168000D01*
X876000Y2174000D01*
X881000Y2184500D01*
X882000Y2196500D01*
X880000Y2208500D01*
X875000Y2216000D01*
X868000Y2222000D01*
X861000Y2223500D01*
X854000Y2222000D01*
X845000Y2216000D01*
X848000Y2255000D01*
X875000D01*
G01X488000Y1669000D02*
X495500Y1677000D01*
X500000Y1686000D01*
Y1694000D01*
X495500Y1702000D01*
X488000Y1708000D01*
X477500Y1711000D01*
X467000Y1709000D01*
X458000Y1704000D01*
X452000Y1695000D01*
X449000Y1683000D01*
X443000Y1676000D01*
X432500Y1673000D01*
X422000Y1675000D01*
X414500Y1680000D01*
X410000Y1687000D01*
Y1694000D01*
X413000Y1701000D01*
X420500Y1707000D01*
G01X410000Y1730000D02*
X500000Y1744000D01*
X410000Y1760000D01*
X500000Y1776000D01*
X410000Y1790000D01*
G01X500000Y1830000D02*
X410000D01*
X428000Y1818000D01*
G01X500000D02*
Y1842000D01*
G01X650000Y3476670D02*
Y3423330D01*
X540000D01*
Y3476670D01*
G01X593170Y3455330D02*
Y3423330D01*
G01X635340Y3512000D02*
X644500Y3522670D01*
X650000Y3534670D01*
Y3545330D01*
X644500Y3556000D01*
X635340Y3564000D01*
X622500Y3568000D01*
X609670Y3565330D01*
X598670Y3558670D01*
X591330Y3546670D01*
X587670Y3530670D01*
X580330Y3521330D01*
X567500Y3517330D01*
X554670Y3520000D01*
X545500Y3526670D01*
X540000Y3536000D01*
Y3545330D01*
X543670Y3554670D01*
X552830Y3562670D01*
G01X650000Y3630000D02*
X540000D01*
X562000Y3614000D01*
G01X650000D02*
Y3646000D01*
G01X488000Y3449000D02*
X495500Y3457000D01*
X500000Y3466000D01*
Y3474000D01*
X495500Y3482000D01*
X488000Y3488000D01*
X477500Y3491000D01*
X467000Y3489000D01*
X458000Y3484000D01*
X452000Y3475000D01*
X449000Y3463000D01*
X443000Y3456000D01*
X432500Y3453000D01*
X422000Y3455000D01*
X414500Y3460000D01*
X410000Y3467000D01*
Y3474000D01*
X413000Y3481000D01*
X420500Y3487000D01*
G01X410000Y3510000D02*
X500000Y3524000D01*
X410000Y3540000D01*
X500000Y3556000D01*
X410000Y3570000D01*
G01X425000Y3591000D02*
X416000Y3597000D01*
X411500Y3604000D01*
X410000Y3612000D01*
X413000Y3622000D01*
X420500Y3629000D01*
X429500Y3631000D01*
X438500Y3630000D01*
X446000Y3626000D01*
X461000Y3606000D01*
X471500Y3597000D01*
X486500Y3591000D01*
X500000Y3589000D01*
Y3631000D01*
G01X640000Y5183330D02*
X530000D01*
Y5216670D01*
X535500Y5227330D01*
X542830Y5234000D01*
X557500Y5236670D01*
X572170Y5234000D01*
X581330Y5226000D01*
X586830Y5216670D01*
Y5183330D01*
G01Y5216670D02*
X640000Y5236670D01*
G01X625340Y5272000D02*
X634500Y5282670D01*
X640000Y5294670D01*
Y5305330D01*
X634500Y5316000D01*
X625340Y5324000D01*
X612500Y5328000D01*
X599670Y5325330D01*
X588670Y5318670D01*
X581330Y5306670D01*
X577670Y5290670D01*
X570330Y5281330D01*
X557500Y5277330D01*
X544670Y5280000D01*
X535500Y5286670D01*
X530000Y5296000D01*
Y5305330D01*
X533670Y5314670D01*
X542830Y5322670D01*
G01X530000Y5390000D02*
X640000D01*
G01X530000Y5359330D02*
Y5420670D01*
G01X488000Y5219000D02*
X495500Y5227000D01*
X500000Y5236000D01*
Y5244000D01*
X495500Y5252000D01*
X488000Y5258000D01*
X477500Y5261000D01*
X467000Y5259000D01*
X458000Y5254000D01*
X452000Y5245000D01*
X449000Y5233000D01*
X443000Y5226000D01*
X432500Y5223000D01*
X422000Y5225000D01*
X414500Y5230000D01*
X410000Y5237000D01*
Y5244000D01*
X413000Y5251000D01*
X420500Y5257000D01*
G01X410000Y5280000D02*
X500000Y5294000D01*
X410000Y5310000D01*
X500000Y5326000D01*
X410000Y5340000D01*
G01X482000Y5358000D02*
X492500Y5364000D01*
X498500Y5372000D01*
X500000Y5381000D01*
X498500Y5389000D01*
X491000Y5397000D01*
X482000Y5402000D01*
X473000Y5403000D01*
X462500Y5401000D01*
X455000Y5394000D01*
X452000Y5387000D01*
Y5378000D01*
G01Y5387000D02*
X447500Y5393000D01*
X440000Y5398000D01*
X431000Y5400000D01*
X422000Y5398000D01*
X414500Y5393000D01*
X410000Y5384000D01*
X411500Y5375000D01*
X417500Y5366000D01*
G01X1423330Y2330000D02*
Y2220000D01*
X1476670D01*
G01X1506670D02*
X1540000Y2330000D01*
X1573330Y2220000D01*
G01X1561330Y2258500D02*
X1518670D01*
G01X1599330Y2220000D02*
Y2330000D01*
X1660670Y2220000D01*
Y2330000D01*
G01X1720000Y2220000D02*
Y2330000D01*
X1704000Y2308000D01*
G01Y2220000D02*
X1736000D01*
G01X1400000Y4810000D02*
X1418670Y4700000D01*
X1440000Y4810000D01*
X1461330Y4700000D01*
X1480000Y4810000D01*
G01X1496670Y4700000D02*
X1530000Y4810000D01*
X1563330Y4700000D01*
G01X1551330Y4738500D02*
X1508670D01*
G01X1589330Y4700000D02*
Y4810000D01*
X1650670Y4700000D01*
Y4810000D01*
G01X2400000Y2183000D02*
X2405000Y2174000D01*
X2411000Y2168000D01*
X2418000Y2165000D01*
X2426000Y2168000D01*
X2432000Y2174000D01*
X2438000Y2183000D01*
X2440000Y2195000D01*
Y2255000D01*
G01X2502000Y2165000D02*
Y2255000D01*
X2465000Y2190500D01*
X2515000D01*
G01X2415000Y6878000D02*
X2420000Y6869000D01*
X2426000Y6863000D01*
X2433000Y6860000D01*
X2441000Y6863000D01*
X2447000Y6869000D01*
X2453000Y6878000D01*
X2455000Y6890000D01*
Y6950000D01*
G01X2505000Y6860000D02*
Y6950000D01*
X2493000Y6932000D01*
G01Y6860000D02*
X2517000D01*
G01X3033330Y2330000D02*
Y2220000D01*
X3086670D01*
G01X3116670D02*
X3150000Y2330000D01*
X3183330Y2220000D01*
G01X3171330Y2258500D02*
X3128670D01*
G01X3209330Y2220000D02*
Y2330000D01*
X3270670Y2220000D01*
Y2330000D01*
G01X3304670Y2311670D02*
X3312670Y2322660D01*
X3322000Y2328170D01*
X3332670Y2330000D01*
X3346000Y2326330D01*
X3355330Y2317170D01*
X3358000Y2306170D01*
X3356670Y2295160D01*
X3351330Y2286000D01*
X3324670Y2267670D01*
X3312670Y2254830D01*
X3304670Y2236500D01*
X3302000Y2220000D01*
X3358000D01*
G01X2873000Y6850000D02*
Y6785500D01*
X2877000Y6772000D01*
X2885000Y6763000D01*
X2895000Y6760000D01*
X2905000Y6763000D01*
X2913000Y6772000D01*
X2917000Y6785500D01*
Y6850000D01*
G01X2965000Y6760000D02*
Y6850000D01*
X2953000Y6832000D01*
G01Y6760000D02*
X2977000D01*
G01X3343000Y6810000D02*
Y6900000D01*
X3363000D01*
X3371000Y6895500D01*
X3377000Y6889500D01*
X3382000Y6880500D01*
X3386000Y6870000D01*
X3387000Y6855000D01*
X3386000Y6840000D01*
X3382000Y6829500D01*
X3377000Y6820500D01*
X3371000Y6814500D01*
X3363000Y6810000D01*
X3343000D01*
G01X3416000Y6885000D02*
X3422000Y6894000D01*
X3429000Y6898500D01*
X3437000Y6900000D01*
X3447000Y6897000D01*
X3454000Y6889500D01*
X3456000Y6880500D01*
X3455000Y6871500D01*
X3451000Y6864000D01*
X3431000Y6849000D01*
X3422000Y6838500D01*
X3416000Y6823500D01*
X3414000Y6810000D01*
X3456000D01*
G01X3165000D02*
Y6900000D01*
X3190000D01*
X3198000Y6895500D01*
X3203000Y6889500D01*
X3205000Y6877500D01*
X3203000Y6865500D01*
X3197000Y6858000D01*
X3190000Y6853500D01*
X3165000D01*
G01X3190000D02*
X3205000Y6810000D01*
G01X3233000Y6828000D02*
X3239000Y6817500D01*
X3247000Y6811500D01*
X3256000Y6810000D01*
X3264000Y6811500D01*
X3272000Y6819000D01*
X3277000Y6828000D01*
X3278000Y6837000D01*
X3276000Y6847500D01*
X3269000Y6855000D01*
X3262000Y6858000D01*
X3253000D01*
G01X3262000D02*
X3268000Y6862500D01*
X3273000Y6870000D01*
X3275000Y6879000D01*
X3273000Y6888000D01*
X3268000Y6895500D01*
X3259000Y6900000D01*
X3250000Y6898500D01*
X3241000Y6892500D01*
G01X4030000Y2183000D02*
X4035000Y2174000D01*
X4041000Y2168000D01*
X4048000Y2165000D01*
X4056000Y2168000D01*
X4062000Y2174000D01*
X4068000Y2183000D01*
X4070000Y2195000D01*
Y2255000D01*
G01X4098000Y2183000D02*
X4104000Y2172500D01*
X4112000Y2166500D01*
X4121000Y2165000D01*
X4129000Y2166500D01*
X4137000Y2174000D01*
X4142000Y2183000D01*
X4143000Y2192000D01*
X4141000Y2202500D01*
X4134000Y2210000D01*
X4127000Y2213000D01*
X4118000D01*
G01X4127000D02*
X4133000Y2217500D01*
X4138000Y2225000D01*
X4140000Y2234000D01*
X4138000Y2243000D01*
X4133000Y2250500D01*
X4124000Y2255000D01*
X4115000Y2253500D01*
X4106000Y2247500D01*
G01X4643330Y2330000D02*
Y2220000D01*
X4696670D01*
G01X4726670D02*
X4760000Y2330000D01*
X4793330Y2220000D01*
G01X4781330Y2258500D02*
X4738670D01*
G01X4819330Y2220000D02*
Y2330000D01*
X4880670Y2220000D01*
Y2330000D01*
G01X4910670Y2242000D02*
X4918670Y2229160D01*
X4929330Y2221830D01*
X4941330Y2220000D01*
X4952000Y2221830D01*
X4962670Y2231000D01*
X4969330Y2242000D01*
X4970670Y2253000D01*
X4968000Y2265830D01*
X4958670Y2275000D01*
X4949330Y2278670D01*
X4937330D01*
G01X4949330D02*
X4957330Y2284170D01*
X4964000Y2293330D01*
X4966670Y2304330D01*
X4964000Y2315330D01*
X4957330Y2324500D01*
X4945330Y2330000D01*
X4933330Y2328170D01*
X4921330Y2320830D01*
G01X5108000Y6810000D02*
Y6900000D01*
X5128000D01*
X5136000Y6895500D01*
X5142000Y6889500D01*
X5147000Y6880500D01*
X5151000Y6870000D01*
X5152000Y6855000D01*
X5151000Y6840000D01*
X5147000Y6829500D01*
X5142000Y6820500D01*
X5136000Y6814500D01*
X5128000Y6810000D01*
X5108000D01*
G01X5200000D02*
Y6900000D01*
X5188000Y6882000D01*
G01Y6810000D02*
X5212000D01*
G01X4925000D02*
Y6900000D01*
X4950000D01*
X4958000Y6895500D01*
X4963000Y6889500D01*
X4965000Y6877500D01*
X4963000Y6865500D01*
X4957000Y6858000D01*
X4950000Y6853500D01*
X4925000D01*
G01X4950000D02*
X4965000Y6810000D01*
G01X4996000Y6885000D02*
X5002000Y6894000D01*
X5009000Y6898500D01*
X5017000Y6900000D01*
X5027000Y6897000D01*
X5034000Y6889500D01*
X5036000Y6880500D01*
X5035000Y6871500D01*
X5031000Y6864000D01*
X5011000Y6849000D01*
X5002000Y6838500D01*
X4996000Y6823500D01*
X4994000Y6810000D01*
X5036000D01*
G01X5660000Y2183000D02*
X5665000Y2174000D01*
X5671000Y2168000D01*
X5678000Y2165000D01*
X5686000Y2168000D01*
X5692000Y2174000D01*
X5698000Y2183000D01*
X5700000Y2195000D01*
Y2255000D01*
G01X5731000Y2240000D02*
X5737000Y2249000D01*
X5744000Y2253500D01*
X5752000Y2255000D01*
X5762000Y2252000D01*
X5769000Y2244500D01*
X5771000Y2235500D01*
X5770000Y2226500D01*
X5766000Y2219000D01*
X5746000Y2204000D01*
X5737000Y2193500D01*
X5731000Y2178500D01*
X5729000Y2165000D01*
X5771000D01*
G01X6283330Y2330000D02*
Y2220000D01*
X6336670D01*
G01X6366670D02*
X6400000Y2330000D01*
X6433330Y2220000D01*
G01X6421330Y2258500D02*
X6378670D01*
G01X6459330Y2220000D02*
Y2330000D01*
X6520670Y2220000D01*
Y2330000D01*
G01X6596000Y2220000D02*
Y2330000D01*
X6546670Y2251170D01*
X6613330D01*
G01X6220000Y2700000D02*
Y2610000D01*
G01X6197000Y2700000D02*
X6243000D01*
G01X6270000Y2610000D02*
Y2700000D01*
X6294000D01*
X6302000Y2695500D01*
X6308000Y2685000D01*
X6310000Y2673000D01*
X6308000Y2661000D01*
X6303000Y2652000D01*
X6294000Y2647500D01*
X6270000D01*
G01X6360000Y2610000D02*
Y2700000D01*
X6348000Y2682000D01*
G01Y2610000D02*
X6372000D01*
G01X6234800Y3045000D02*
Y3135000D01*
X6259800D01*
X6267800Y3130500D01*
X6272800Y3124500D01*
X6274800Y3112500D01*
X6272800Y3100500D01*
X6266800Y3093000D01*
X6259800Y3088500D01*
X6234800D01*
G01X6259800D02*
X6274800Y3045000D01*
G01X6324800D02*
Y3135000D01*
X6312800Y3117000D01*
G01Y3045000D02*
X6336800D01*
G01X6372800Y3063000D02*
X6378800Y3052500D01*
X6386800Y3046500D01*
X6395800Y3045000D01*
X6403800Y3046500D01*
X6411800Y3054000D01*
X6416800Y3063000D01*
X6417800Y3072000D01*
X6415800Y3082500D01*
X6408800Y3090000D01*
X6401800Y3093000D01*
X6392800D01*
G01X6401800D02*
X6407800Y3097500D01*
X6412800Y3105000D01*
X6414800Y3114000D01*
X6412800Y3123000D01*
X6407800Y3130500D01*
X6398800Y3135000D01*
X6389800Y3133500D01*
X6380800Y3127500D01*
G01X6071800Y3227500D02*
X6065800Y3232000D01*
X6058800Y3235000D01*
X6050800D01*
X6041800Y3230500D01*
X6034800Y3223000D01*
X6029800Y3214000D01*
X6025800Y3199000D01*
X6024800Y3185500D01*
X6026800Y3172000D01*
X6029800Y3163000D01*
X6035800Y3154000D01*
X6042800Y3148000D01*
X6049800Y3145000D01*
X6056800D01*
X6063800Y3148000D01*
X6069800Y3152500D01*
X6074800Y3158500D01*
G01X6097800D02*
X6103800Y3151000D01*
X6110800Y3146500D01*
X6119800Y3145000D01*
X6128800Y3148000D01*
X6135800Y3154000D01*
X6140800Y3164500D01*
X6141800Y3176500D01*
X6139800Y3188500D01*
X6134800Y3196000D01*
X6127800Y3202000D01*
X6120800Y3203500D01*
X6113800Y3202000D01*
X6104800Y3196000D01*
X6107800Y3235000D01*
X6134800D01*
G01X6071800Y3077500D02*
X6065800Y3082000D01*
X6058800Y3085000D01*
X6050800D01*
X6041800Y3080500D01*
X6034800Y3073000D01*
X6029800Y3064000D01*
X6025800Y3049000D01*
X6024800Y3035500D01*
X6026800Y3022000D01*
X6029800Y3013000D01*
X6035800Y3004000D01*
X6042800Y2998000D01*
X6049800Y2995000D01*
X6056800D01*
X6063800Y2998000D01*
X6069800Y3002500D01*
X6074800Y3008500D01*
G01X6131800Y2995000D02*
Y3085000D01*
X6094800Y3020500D01*
X6144800D01*
G01X6041800Y3707500D02*
X6035800Y3712000D01*
X6028800Y3715000D01*
X6020800D01*
X6011800Y3710500D01*
X6004800Y3703000D01*
X5999800Y3694000D01*
X5995800Y3679000D01*
X5994800Y3665500D01*
X5996800Y3652000D01*
X5999800Y3643000D01*
X6005800Y3634000D01*
X6012800Y3628000D01*
X6019800Y3625000D01*
X6026800D01*
X6033800Y3628000D01*
X6039800Y3632500D01*
X6044800Y3638500D01*
G01X6067800Y3643000D02*
X6073800Y3632500D01*
X6081800Y3626500D01*
X6090800Y3625000D01*
X6098800Y3626500D01*
X6106800Y3634000D01*
X6111800Y3643000D01*
X6112800Y3652000D01*
X6110800Y3662500D01*
X6103800Y3670000D01*
X6096800Y3673000D01*
X6087800D01*
G01X6096800D02*
X6102800Y3677500D01*
X6107800Y3685000D01*
X6109800Y3694000D01*
X6107800Y3703000D01*
X6102800Y3710500D01*
X6093800Y3715000D01*
X6084800Y3713500D01*
X6075800Y3707500D01*
G01X6037000Y4212500D02*
X6031000Y4217000D01*
X6024000Y4220000D01*
X6016000D01*
X6007000Y4215500D01*
X6000000Y4208000D01*
X5995000Y4199000D01*
X5991000Y4184000D01*
X5990000Y4170500D01*
X5992000Y4157000D01*
X5995000Y4148000D01*
X6001000Y4139000D01*
X6008000Y4133000D01*
X6015000Y4130000D01*
X6022000D01*
X6029000Y4133000D01*
X6035000Y4137500D01*
X6040000Y4143500D01*
G01X6066000Y4205000D02*
X6072000Y4214000D01*
X6079000Y4218500D01*
X6087000Y4220000D01*
X6097000Y4217000D01*
X6104000Y4209500D01*
X6106000Y4200500D01*
X6105000Y4191500D01*
X6101000Y4184000D01*
X6081000Y4169000D01*
X6072000Y4158500D01*
X6066000Y4143500D01*
X6064000Y4130000D01*
X6106000D01*
G01X5945000Y4980000D02*
X5970000Y4890000D01*
X5995000Y4980000D01*
G01X6028000D02*
X6052000D01*
G01X6040000D02*
Y4890000D01*
G01X6028000D02*
X6052000D01*
G01X6087000D02*
Y4980000D01*
X6133000Y4890000D01*
Y4980000D01*
G01X5930000Y4730000D02*
X5944000Y4640000D01*
X5960000Y4730000D01*
X5976000Y4640000D01*
X5990000Y4730000D01*
G01X6018000D02*
X6042000D01*
G01X6030000D02*
Y4640000D01*
G01X6018000D02*
X6042000D01*
G01X6081000D02*
Y4730000D01*
X6119000D01*
G01X6105000Y4686500D02*
X6081000D01*
G01X6158000Y4730000D02*
X6182000D01*
G01X6170000D02*
Y4640000D01*
G01X6158000D02*
X6182000D01*
G01X6008000Y4403500D02*
X6014000Y4396000D01*
X6021000Y4391500D01*
X6030000Y4390000D01*
X6039000Y4393000D01*
X6046000Y4399000D01*
X6051000Y4409500D01*
X6052000Y4421500D01*
X6050000Y4433500D01*
X6045000Y4441000D01*
X6038000Y4447000D01*
X6031000Y4448500D01*
X6024000Y4447000D01*
X6015000Y4441000D01*
X6018000Y4480000D01*
X6045000D01*
G01X6075000D02*
X6100000Y4390000D01*
X6125000Y4480000D01*
G01X6215000Y5128000D02*
X6220000Y5119000D01*
X6226000Y5113000D01*
X6233000Y5110000D01*
X6241000Y5113000D01*
X6247000Y5119000D01*
X6253000Y5128000D01*
X6255000Y5140000D01*
Y5200000D01*
G01X6286000Y5147500D02*
X6293000Y5158000D01*
X6299000Y5164000D01*
X6307000Y5167000D01*
X6314000Y5164000D01*
X6319000Y5158000D01*
X6323000Y5149000D01*
X6324000Y5138500D01*
X6323000Y5129500D01*
X6319000Y5120500D01*
X6313000Y5113000D01*
X6306000Y5110000D01*
X6298000Y5113000D01*
X6291000Y5122000D01*
X6287000Y5135500D01*
X6286000Y5150500D01*
X6288000Y5170000D01*
X6291000Y5180500D01*
X6296000Y5191000D01*
X6303000Y5198500D01*
X6310000Y5200000D01*
X6317000Y5197000D01*
X6322000Y5189500D01*
G01X6067000Y5592500D02*
X6061000Y5597000D01*
X6054000Y5600000D01*
X6046000D01*
X6037000Y5595500D01*
X6030000Y5588000D01*
X6025000Y5579000D01*
X6021000Y5564000D01*
X6020000Y5550500D01*
X6022000Y5537000D01*
X6025000Y5528000D01*
X6031000Y5519000D01*
X6038000Y5513000D01*
X6045000Y5510000D01*
X6052000D01*
X6059000Y5513000D01*
X6065000Y5517500D01*
X6070000Y5523500D01*
G01X6115000Y5510000D02*
Y5600000D01*
X6103000Y5582000D01*
G01Y5510000D02*
X6127000D01*
G01X5868000Y6873500D02*
X5874000Y6866000D01*
X5881000Y6861500D01*
X5890000Y6860000D01*
X5899000Y6863000D01*
X5906000Y6869000D01*
X5911000Y6879500D01*
X5912000Y6891500D01*
X5910000Y6903500D01*
X5905000Y6911000D01*
X5898000Y6917000D01*
X5891000Y6918500D01*
X5884000Y6917000D01*
X5875000Y6911000D01*
X5878000Y6950000D01*
X5905000D01*
G01X5947000Y6890000D02*
X5973000D01*
G01X6030000Y6860000D02*
Y6950000D01*
X6018000Y6932000D01*
G01Y6860000D02*
X6042000D01*
G01X6081000Y6935000D02*
X6087000Y6944000D01*
X6094000Y6948500D01*
X6102000Y6950000D01*
X6112000Y6947000D01*
X6119000Y6939500D01*
X6121000Y6930500D01*
X6120000Y6921500D01*
X6116000Y6914000D01*
X6096000Y6899000D01*
X6087000Y6888500D01*
X6081000Y6873500D01*
X6079000Y6860000D01*
X6121000D01*
G01X6145000Y6950000D02*
X6170000Y6860000D01*
X6195000Y6950000D01*
G01X6590000Y3040000D02*
Y3130000D01*
X6615000D01*
X6623000Y3125500D01*
X6628000Y3119500D01*
X6630000Y3107500D01*
X6628000Y3095500D01*
X6622000Y3088000D01*
X6615000Y3083500D01*
X6590000D01*
G01X6615000D02*
X6630000Y3040000D01*
G01X6680000D02*
Y3130000D01*
X6668000Y3112000D01*
G01Y3040000D02*
X6692000D01*
G01X6750000D02*
Y3130000D01*
X6738000Y3112000D01*
G01Y3040000D02*
X6762000D01*
G01X6605000Y4308000D02*
X6610000Y4299000D01*
X6616000Y4293000D01*
X6623000Y4290000D01*
X6631000Y4293000D01*
X6637000Y4299000D01*
X6643000Y4308000D01*
X6645000Y4320000D01*
Y4380000D01*
G01X6693000Y4290000D02*
X6695000Y4309500D01*
X6698000Y4326000D01*
X6702000Y4341000D01*
X6707000Y4357500D01*
X6715000Y4380000D01*
X6675000D01*
G01X7453000Y3717000D02*
X7388500D01*
X7375000Y3713000D01*
X7366000Y3705000D01*
X7363000Y3695000D01*
X7366000Y3685000D01*
X7375000Y3677000D01*
X7388500Y3673000D01*
X7453000D01*
G01X7438000Y3644000D02*
X7447000Y3638000D01*
X7451500Y3631000D01*
X7453000Y3623000D01*
X7450000Y3613000D01*
X7442500Y3606000D01*
X7433500Y3604000D01*
X7424500Y3605000D01*
X7417000Y3609000D01*
X7402000Y3629000D01*
X7391500Y3638000D01*
X7376500Y3644000D01*
X7363000Y3646000D01*
Y3604000D01*
G01X7168000Y6880000D02*
Y6970000D01*
X7188000D01*
X7196000Y6965500D01*
X7202000Y6959500D01*
X7207000Y6950500D01*
X7211000Y6940000D01*
X7212000Y6925000D01*
X7211000Y6910000D01*
X7207000Y6899500D01*
X7202000Y6890500D01*
X7196000Y6884500D01*
X7188000Y6880000D01*
X7168000D01*
G01X7282000Y6962500D02*
X7276000Y6967000D01*
X7269000Y6970000D01*
X7261000D01*
X7252000Y6965500D01*
X7245000Y6958000D01*
X7240000Y6949000D01*
X7236000Y6934000D01*
X7235000Y6920500D01*
X7237000Y6907000D01*
X7240000Y6898000D01*
X7246000Y6889000D01*
X7253000Y6883000D01*
X7260000Y6880000D01*
X7267000D01*
X7274000Y6883000D01*
X7280000Y6887500D01*
X7285000Y6893500D01*
G01X7330000Y6880000D02*
Y6970000D01*
X7318000Y6952000D01*
G01Y6880000D02*
X7342000D01*
G01X7745000Y745000D02*
Y835000D01*
X7770000D01*
X7778000Y830500D01*
X7783000Y824500D01*
X7785000Y812500D01*
X7783000Y800500D01*
X7777000Y793000D01*
X7770000Y788500D01*
X7745000D01*
G01X7770000D02*
X7785000Y745000D01*
G01X7816000Y782500D02*
X7823000Y793000D01*
X7829000Y799000D01*
X7837000Y802000D01*
X7844000Y799000D01*
X7849000Y793000D01*
X7853000Y784000D01*
X7854000Y773500D01*
X7853000Y764500D01*
X7849000Y755500D01*
X7843000Y748000D01*
X7836000Y745000D01*
X7828000Y748000D01*
X7821000Y757000D01*
X7817000Y770500D01*
X7816000Y785500D01*
X7818000Y805000D01*
X7821000Y815500D01*
X7826000Y826000D01*
X7833000Y833500D01*
X7840000Y835000D01*
X7847000Y832000D01*
X7852000Y824500D01*
G01X7745000Y1045000D02*
Y1135000D01*
X7770000D01*
X7778000Y1130500D01*
X7783000Y1124500D01*
X7785000Y1112500D01*
X7783000Y1100500D01*
X7777000Y1093000D01*
X7770000Y1088500D01*
X7745000D01*
G01X7770000D02*
X7785000Y1045000D01*
G01X7835000D02*
X7842000Y1046500D01*
X7850000Y1051000D01*
X7855000Y1058500D01*
X7857000Y1069000D01*
X7855000Y1079500D01*
X7849000Y1088500D01*
X7840000Y1093000D01*
X7830000D01*
X7824000Y1096000D01*
X7819000Y1103500D01*
X7817000Y1114000D01*
X7820000Y1124500D01*
X7827000Y1132000D01*
X7835000Y1135000D01*
X7843000Y1132000D01*
X7850000Y1124500D01*
X7853000Y1114000D01*
X7851000Y1103500D01*
X7846000Y1096000D01*
X7840000Y1093000D01*
X7830000D01*
X7821000Y1088500D01*
X7815000Y1079500D01*
X7813000Y1069000D01*
X7815000Y1058500D01*
X7820000Y1051000D01*
X7828000Y1046500D01*
X7835000Y1045000D01*
G01X7745000Y895870D02*
Y985870D01*
X7770000D01*
X7778000Y981370D01*
X7783000Y975370D01*
X7785000Y963370D01*
X7783000Y951370D01*
X7777000Y943870D01*
X7770000Y939370D01*
X7745000D01*
G01X7770000D02*
X7785000Y895870D01*
G01X7813000Y909370D02*
X7819000Y901870D01*
X7826000Y897370D01*
X7835000Y895870D01*
X7844000Y898870D01*
X7851000Y904870D01*
X7856000Y915370D01*
X7857000Y927370D01*
X7855000Y939370D01*
X7850000Y946870D01*
X7843000Y952870D01*
X7836000Y954370D01*
X7829000Y952870D01*
X7820000Y946870D01*
X7823000Y985870D01*
X7850000D01*
G01X7745000Y1195000D02*
Y1285000D01*
X7770000D01*
X7778000Y1280500D01*
X7783000Y1274500D01*
X7785000Y1262500D01*
X7783000Y1250500D01*
X7777000Y1243000D01*
X7770000Y1238500D01*
X7745000D01*
G01X7770000D02*
X7785000Y1195000D01*
G01X7833000D02*
X7835000Y1214500D01*
X7838000Y1231000D01*
X7842000Y1246000D01*
X7847000Y1262500D01*
X7855000Y1285000D01*
X7815000D01*
G01X7733000Y1356900D02*
Y1446900D01*
X7758000D01*
X7766000Y1442400D01*
X7771000Y1436400D01*
X7773000Y1424400D01*
X7771000Y1412400D01*
X7765000Y1404900D01*
X7758000Y1400400D01*
X7733000D01*
G01X7758000D02*
X7773000Y1356900D01*
G01X7823000D02*
Y1446900D01*
X7811000Y1428900D01*
G01Y1356900D02*
X7835000D01*
G01X7871000Y1370400D02*
X7877000Y1362900D01*
X7884000Y1358400D01*
X7893000Y1356900D01*
X7902000Y1359900D01*
X7909000Y1365900D01*
X7914000Y1376400D01*
X7915000Y1388400D01*
X7913000Y1400400D01*
X7908000Y1407900D01*
X7901000Y1413900D01*
X7894000Y1415400D01*
X7887000Y1413900D01*
X7878000Y1407900D01*
X7881000Y1446900D01*
X7908000D01*
G01X7815000Y2188000D02*
X7820000Y2179000D01*
X7826000Y2173000D01*
X7833000Y2170000D01*
X7841000Y2173000D01*
X7847000Y2179000D01*
X7853000Y2188000D01*
X7855000Y2200000D01*
Y2260000D01*
G01X7905000Y2170000D02*
X7912000Y2171500D01*
X7920000Y2176000D01*
X7925000Y2183500D01*
X7927000Y2194000D01*
X7925000Y2204500D01*
X7919000Y2213500D01*
X7910000Y2218000D01*
X7900000D01*
X7894000Y2221000D01*
X7889000Y2228500D01*
X7887000Y2239000D01*
X7890000Y2249500D01*
X7897000Y2257000D01*
X7905000Y2260000D01*
X7913000Y2257000D01*
X7920000Y2249500D01*
X7923000Y2239000D01*
X7921000Y2228500D01*
X7916000Y2221000D01*
X7910000Y2218000D01*
X7900000D01*
X7891000Y2213500D01*
X7885000Y2204500D01*
X7883000Y2194000D01*
X7885000Y2183500D01*
X7890000Y2176000D01*
X7898000Y2171500D01*
X7905000Y2170000D01*
G01X7823000Y6120000D02*
Y6210000D01*
X7843000D01*
X7851000Y6205500D01*
X7857000Y6199500D01*
X7862000Y6190500D01*
X7866000Y6180000D01*
X7867000Y6165000D01*
X7866000Y6150000D01*
X7862000Y6139500D01*
X7857000Y6130500D01*
X7851000Y6124500D01*
X7843000Y6120000D01*
X7823000D01*
G01X7893000Y6138000D02*
X7899000Y6127500D01*
X7907000Y6121500D01*
X7916000Y6120000D01*
X7924000Y6121500D01*
X7932000Y6129000D01*
X7937000Y6138000D01*
X7938000Y6147000D01*
X7936000Y6157500D01*
X7929000Y6165000D01*
X7922000Y6168000D01*
X7913000D01*
G01X7922000D02*
X7928000Y6172500D01*
X7933000Y6180000D01*
X7935000Y6189000D01*
X7933000Y6198000D01*
X7928000Y6205500D01*
X7919000Y6210000D01*
X7910000Y6208500D01*
X7901000Y6202500D01*
G54D14*
G01X3949520Y6923500D02*
X4013020Y6860000D01*
X3949520Y6796500D01*
Y6923500D01*
X3967300Y6905720D01*
Y6821900D01*
X3980000Y6834600D01*
Y6885400D01*
X3992700Y6872700D01*
Y6847300D01*
G01X4659520Y6923500D02*
X4723020Y6860000D01*
X4659520Y6796500D01*
Y6923500D01*
X4677300Y6905720D01*
Y6821900D01*
X4690000Y6834600D01*
Y6885400D01*
X4702700Y6872700D01*
Y6847300D01*
M02*
