G04 ================== begin FILE IDENTIFICATION RECORD ==================*
G04 Layout Name:  H:/github/MBED-TOOLS/HARDWARE/RM08K_TEST_V10/PCB/RM08K_TEST_V10.brd*
G04 Film Name:    TOP*
G04 File Format:  Gerber RS274X*
G04 File Origin:  Cadence Allegro 17.2-S067*
G04 Origin Date:  Sat Aug 01 17:15:10 2020*
G04 *
G04 Layer:  VIA CLASS/TOP*
G04 Layer:  PIN/TOP*
G04 Layer:  ETCH/TOP*
G04 *
G04 Offset:    (0.0000 0.0000)*
G04 Mirror:    No*
G04 Mode:      Positive*
G04 Rotation:  0*
G04 FullContactRelief:  No*
G04 UndefLineWidth:     0.1524*
G04 ================== end FILE IDENTIFICATION RECORD ====================*
%FSLAX55Y55*MOMM*%
%IR0*IPPOS*OFA0.00000B0.00000*MIA0B0*SFA1.00000B1.00000*%
%ADD18R,.9X1.3*%
%ADD19C,.75*%
%ADD14R,.8X.8*%
%ADD10C,.6096*%
%ADD26R,10.X11.*%
%ADD25O,4.X2.*%
%ADD23O,2.X4.*%
%ADD20R,1.X1.2*%
%ADD16R,2.2X1.2*%
%ADD24R,2.3X1.2*%
%ADD17R,1.2X2.2*%
%ADD12R,1.2X1.4*%
%ADD27R,5.X5.*%
%ADD28R,1.4X1.5*%
%ADD15C,2.5*%
%ADD13C,1.6*%
%ADD21C,1.8*%
%ADD11C,1.65*%
%ADD22R,1.9X1.9*%
%ADD29C,.2032*%
%ADD30C,.254*%
%ADD31C,.762*%
%ADD33C,1.2004*%
%ADD32C,3.6004*%
%ADD35C,2.7148*%
%ADD34O,2.9148X4.9148*%
G75*
%LPD*%
G75*
G36*
G01X3990890Y6950000D02*
X4174780D01*
G02X4192940Y6920550I5J-20321D01*
G03X4188060Y6900000I40858J-20557D01*
G01Y6820000D01*
G03X4199280Y6789990I45744J0D01*
G01X4206220Y6782010D01*
X4203710Y6776160D01*
G03X4197580Y6746200I70092J-29948D01*
G03X4350020I76220J0D01*
G03X4349630Y6753940I-76222J39D01*
G02X4374870Y6775680I20212J2055D01*
G03X4386200Y6774260I11309J44323D01*
G01X4466200D01*
G03X4485940Y6778740I0J45730D01*
G01X4492190Y6781730D01*
X4513780Y6761570D01*
G03X4545000Y6749260I31220J33434D01*
G01X4635000D01*
G03X4673080Y6769660I0J45741D01*
G02X4706920I16920J-11251D01*
G03X4711080Y6764310I38091J25326D01*
G01X4734100Y6738870D01*
Y5163150D01*
X4629090Y5058140D01*
X3069150D01*
X3028620Y5095760D01*
G03X2997500Y5107980I-31120J-33516D01*
G01X2777500D01*
G03X2731760Y5062240I0J-45740D01*
G01Y4942240D01*
G03X2741100Y4914540I45745J0D01*
G02Y4889940I-16173J-12300D01*
G03X2735560Y4880490I36405J-27691D01*
G02X2723150Y4874860I-9319J4048D01*
G03X2700000Y4878460I-23150J-72634D01*
G03X2623780Y4802240I0J-76220D01*
G03X2625260Y4787310I76218J17D01*
G02X2610520Y4763690I-19928J-3973D01*
G03X2578190Y4745900I19487J-73686D01*
G01X483150D01*
X395900Y4833150D01*
Y4918350D01*
X433520Y4958880D01*
G03X445740Y4990000I-33516J31120D01*
G01Y5130000D01*
G03X400000Y5175740I-45740J0D01*
G01X280000D01*
G03X257270Y5169690I4J-45739D01*
G02X227660Y5181680I-10091J17636D01*
G03X170000Y5225020I-57660J-16686D01*
G03Y5104980I0J-60020D01*
G03X202830Y5114750I7J60022D01*
G02X234260Y5097740I11112J-17011D01*
G01Y4990000D01*
G03X246480Y4958880I45736J0D01*
G01X284100Y4918350D01*
Y4810000D01*
G03X300470Y4770470I55913J0D01*
G01X420470Y4650470D01*
G03X460000Y4634100I39530J39543D01*
G01X2578190D01*
G03X2625090Y4613940I51812J55900D01*
G02X2644100Y4593660I-1310J-20278D01*
G01Y3803150D01*
X2586850Y3745900D01*
X520000D01*
G03X480470Y3729530I0J-55913D01*
G01X300470Y3549530D01*
G03X284100Y3510000I39543J-39530D01*
G01Y3431650D01*
X261040Y3406800D01*
G02X226880Y3414150I-14896J13824D01*
G03X170000Y3455020I-56880J-19146D01*
G03Y3334980I0J-60020D01*
G03X202830Y3344750I7J60022D01*
G02X234260Y3327740I11112J-17011D01*
G01Y3220000D01*
G03X280000Y3174260I45740J0D01*
G01X400000D01*
G03X445740Y3220000I0J45740D01*
G01Y3360000D01*
G03X433520Y3391120I-45736J0D01*
G01X395900Y3431650D01*
Y3486850D01*
X469160Y3560110D01*
X481180Y3548080D01*
X478520Y3541780D01*
G03X474100Y3520000I51479J-21786D01*
G01Y1723150D01*
X385030Y1634090D01*
X276440Y1625600D01*
G03X257270Y1619690I3562J-45600D01*
G02X227660Y1631680I-10091J17636D01*
G03X170000Y1675020I-57660J-16686D01*
G03Y1554980I0J-60020D01*
G03X202830Y1564750I7J60022D01*
G02X234260Y1547740I11112J-17011D01*
G01Y1440000D01*
G03X280000Y1394260I45740J0D01*
G01X400000D01*
G03X445270Y1433460I0J45740D01*
G01X462630Y1553580D01*
X569530Y1660470D01*
G03X585900Y1700000I-39543J39530D01*
G01Y3496850D01*
X635390Y3546340D01*
X2705850D01*
X2738160Y3516350D01*
G02X2740690Y3489390I-13821J-14896D01*
G03X2731760Y3462390I36810J-27151D01*
G01X2731750Y3458230D01*
X2718870Y3445200D01*
X2718520Y3444900D01*
G03X2715110Y3441770I36063J-42712D01*
G01X2694790Y3421450D01*
G03X2678710Y3387590I39533J-39522D01*
G01X2677780Y3378460D01*
X2265080D01*
G03X2225550Y3362090I0J-55913D01*
G01X2120470Y3257010D01*
G03X2104100Y3217480I39543J-39530D01*
G01Y2140000D01*
X750000D01*
Y1562190D01*
X742400Y1560210D01*
G03X614760Y1395000I43099J-165210D01*
G03X623870Y1339980I170739J6D01*
G02X598960Y1313920I-19239J-6546D01*
G03X586200Y1315740I-12774J-43918D01*
G01X506200D01*
G03X476580Y1304850I0J-45727D01*
G02X463420I-6580J7745D01*
G03X433800Y1315740I-29620J-34837D01*
G01X353800D01*
G03X323790Y1304520I0J-45744D01*
G01X315810Y1297580D01*
X309960Y1300090D01*
G03X280000Y1306220I-29948J-70092D01*
G03Y1153780I0J-76220D01*
G03X309960Y1159910I12J76222D01*
G01X315810Y1162420D01*
X323790Y1155480D01*
G03X353800Y1144260I30010J34524D01*
G01X433800D01*
G03X438290Y1144480I9J45740D01*
G02X460560Y1122950I1991J-20223D01*
G03X460460Y1120000I45638J-3024D01*
G01Y1040000D01*
G03X469880Y1012200I45731J0D01*
G02X469710Y999630I-8066J-6177D01*
G03X459540Y970870I35581J-28760D01*
G01Y890870D01*
G03X459720Y886840I45739J24D01*
G02X437450Y864830I-20242J-1791D01*
G03X432880Y865060I-4581J-45509D01*
G01X352880D01*
G03X322870Y853840I0J-45744D01*
G01X315730Y847630D01*
X309880Y850120D01*
G03X280000Y856220I-29880J-70132D01*
G03Y703780I0J-76220D01*
G03X308940Y709490I-5J76219D01*
G01X314740Y711870D01*
X322870Y704800D01*
G03X352880Y693580I30010J34524D01*
G01X432880D01*
G03X462500Y704470I0J45727D01*
G02X475660I6580J-7745D01*
G03X499880Y693900I29625J34848D01*
G01X564760Y686180D01*
X664100Y586850D01*
Y456360D01*
G03X680470Y416830I55913J0D01*
G01X750000Y347310D01*
Y50000D01*
X300000D01*
G02X50000Y300000I0J250000D01*
G01Y6700000D01*
G02X300000Y6950000I250000J0D01*
G01X750000D01*
Y6201460D01*
X656260D01*
X633970Y6219410D01*
G03X605280Y6229530I-28690J-35608D01*
G01X525280D01*
G03X495660Y6218640I0J-45727D01*
G02X482500I-6580J7745D01*
G03X452880Y6229530I-29620J-34837D01*
G01X372880D01*
G03X361060Y6227980I-13J-45742D01*
G01X359770Y6227630D01*
X293790D01*
G03Y6059950I0J-83840D01*
G01X359770D01*
X361060Y6059600D01*
G03X372880Y6058050I11807J44192D01*
G01X452880D01*
G03X457610Y6058300I-46J45738D01*
G02X479880Y6035600I2103J-20211D01*
G03X479540Y6030000I45402J-5567D01*
G01Y5950000D01*
G03X525280Y5904260I45740J0D01*
G01X605280D01*
G03X650240Y5941590I0J45740D01*
G01X661660Y6002600D01*
X713150Y6054100D01*
X750000D01*
Y5772190D01*
X742400Y5770210D01*
G03Y5439790I43099J-165210D01*
G01X750000Y5437810D01*
Y4860000D01*
X2370000D01*
Y5437810D01*
X2377600Y5439790D01*
G03Y5770210I-43099J165210D01*
G01X2370000Y5772190D01*
Y6950000D01*
X3474780D01*
G02X3492940Y6920550I5J-20321D01*
G03X3488060Y6900000I40858J-20557D01*
G01Y6820000D01*
G03X3499920Y6789270I45742J0D01*
G01X3524100Y6762620D01*
Y6523150D01*
X3459090Y6458140D01*
X3069150D01*
X3036840Y6488130D01*
G02X3034310Y6515090I13821J14896D01*
G03X3043240Y6542240I-36807J27150D01*
G01Y6662240D01*
G03X2997500Y6707980I-45740J0D01*
G01X2777500D01*
G03X2731760Y6662240I0J-45740D01*
G01Y6542240D01*
G03X2741100Y6514540I45745J0D01*
G02Y6489940I-16173J-12300D01*
G03X2731760Y6462240I36405J-27700D01*
G01Y6342240D01*
G03X2741100Y6314540I45745J0D01*
G02Y6289940I-16173J-12300D01*
G03X2731760Y6262240I36405J-27700D01*
G01Y5542240D01*
G03X2741100Y5514540I45745J0D01*
G02Y5489940I-16173J-12300D01*
G03X2731760Y5462240I36405J-27700D01*
G01Y5342240D01*
G03X2777500Y5296500I45740J0D01*
G01X2997500D01*
G03X3043240Y5342240I0J45740D01*
G01Y5462240D01*
G03X3033900Y5489940I-45745J0D01*
G02Y5514540I16173J12300D01*
G03X3043240Y5542240I-36405J27700D01*
G01Y6262240D01*
G03X3034310Y6289390I-45737J0D01*
G02X3036840Y6316350I16351J12064D01*
G01X3069150Y6346340D01*
X3482240D01*
G03X3521770Y6362710I0J55913D01*
G01X3619530Y6460470D01*
G03X3635900Y6500000I-39543J39530D01*
G01Y6768580D01*
X3638110Y6772180D01*
G02X3664890Y6779530I17317J-10633D01*
G03X3686200Y6774260I21315J40469D01*
G01X3766200D01*
G03X3780200Y6776460I-14J45738D01*
G01X3785880Y6778280D01*
X3803780Y6761570D01*
G03X3835000Y6749260I31220J33434D01*
G01X3925000D01*
G03X3970740Y6795000I0J45740D01*
G01Y6925000D01*
G03X3970630Y6928240I-45742J69D01*
G02X3990890Y6950000I20267J1442D01*
G37*
G36*
G01X314800Y788300D02*
X301540Y801540D01*
X276830Y780080D01*
X301050Y757990D01*
X314300Y769870D01*
G03X314800Y788300I-8481J9452D01*
G37*
G36*
G01X315100Y772160D02*
X352880Y739320D01*
X396060Y779320D01*
X352880Y819320D01*
X315100Y786480D01*
G03Y772160I10490J-7160D01*
G37*
G36*
G01X314120Y1238980D02*
X301540Y1251540D01*
X276820Y1230000D01*
X301540Y1208460D01*
X314120Y1221020D01*
G03Y1238980I-8980J8980D01*
G37*
G36*
G01X316020Y1222840D02*
X353800Y1190000D01*
X396980Y1230000D01*
X353800Y1270000D01*
X316020Y1237160D01*
G03Y1222840I10490J-7160D01*
G37*
G36*
G01X410000Y1590160D02*
X280000Y1580000D01*
X338200Y1508200D01*
X400000Y1440000D01*
X420130Y1579280D01*
G03X410000Y1590160I-10130J724D01*
G37*
G36*
G01X333510Y3417650D02*
X280000Y3360000D01*
X340000Y3287460D01*
X400000Y3360000D01*
X346490Y3417650D01*
G03X333510I-6490J-7820D01*
G37*
G36*
G01X346490Y4932350D02*
X400000Y4990000D01*
X340000Y5062540D01*
X280000Y4990000D01*
X333510Y4932350D01*
G03X346490I6490J7820D01*
G37*
G36*
G01X600820Y740000D02*
X585280Y819320D01*
X543370Y781000D01*
X505280Y739320D01*
X590680Y729160D01*
G03X600820Y740000I0J10163D01*
G37*
G36*
G01X599270Y891370D02*
X585280Y970870D01*
X543400Y932580D01*
X505280Y890870D01*
X589120Y880720D01*
G03X599270Y891370I0J10162D01*
G37*
G36*
G01X600150Y1040480D02*
X586200Y1120000D01*
X544320Y1081710D01*
X506200Y1040000D01*
X590000Y1029840D01*
G03X600150Y1040480I0J10161D01*
G37*
G36*
G01X596360Y1183800D02*
X586200Y1270000D01*
X544540Y1231920D01*
X506200Y1190000D01*
X585410Y1173670D01*
G03X596360Y1183800I789J10130D01*
G37*
G36*
G01X610000Y6040160D02*
X525280Y6030000D01*
X563390Y5988310D01*
X605280Y5950000D01*
X620140Y6029400D01*
G03X610000Y6040160I-10140J602D01*
G37*
G36*
G01X907540Y6291920D02*
X954410Y6343820D01*
X897440Y6402540D01*
X840940Y6343430D01*
X892820Y6291550D01*
G03X907540Y6291920I7184J7182D01*
G37*
G36*
G01X644710Y6152030D02*
X605280Y6183790D01*
X562740Y6143730D01*
X605280Y6103790D01*
X644980Y6139430D01*
G03X644710Y6152030I-8101J6129D01*
G37*
G36*
G01X1071500Y669840D02*
Y600000D01*
X1153300Y598200D01*
X1151500Y680000D01*
X1081660D01*
G03X1071500Y669840I0J-10160D01*
G37*
G36*
G01X1201030Y1881020D02*
X1267290Y1903110D01*
X1243140Y1981270D01*
X1166110Y1953710D01*
X1188180Y1887450D01*
G03X1201030Y1881020I9640J3210D01*
G37*
G36*
G01X1155960Y1822980D02*
X1089710Y1800890D01*
X1113860Y1722730D01*
X1190890Y1750290D01*
X1168810Y1816550D01*
G03X1155960Y1822980I-9640J-3210D01*
G37*
G36*
G01X1977400Y6292770D02*
X2025270Y6343660D01*
X1968460Y6402540D01*
X1911940Y6343430D01*
X1962820Y6292550D01*
G03X1977400Y6292770I7183J7182D01*
G37*
G36*
G01X2142500Y669840D02*
Y600000D01*
X2224300Y598200D01*
X2222500Y680000D01*
X2152660D01*
G03X2142500Y669840I0J-10160D01*
G37*
G36*
G01X3067510Y4334390D02*
G03X3102240Y4326020I34726J67851D01*
G03X3154050Y4346340I0J76210D01*
G01X5605850D01*
X5638160Y4316350D01*
G02X5640690Y4289390I-13821J-14896D01*
G03X5631760Y4262240I36807J-27150D01*
G01Y4142240D01*
G03X5641100Y4114540I45745J0D01*
G02Y4089940I-16173J-12300D01*
G03X5631760Y4062240I36405J-27700D01*
G01Y3942240D01*
G03X5641100Y3914540I45745J0D01*
G02Y3889940I-16173J-12300D01*
G03X5631760Y3862240I36405J-27700D01*
G01Y3742240D01*
G03X5641100Y3714540I45745J0D01*
G02Y3689940I-16173J-12300D01*
G03X5631760Y3662240I36405J-27700D01*
G01Y3542240D01*
G03X5641100Y3514540I45745J0D01*
G02Y3489940I-16173J-12300D01*
G03X5631760Y3462390I36400J-27699D01*
G01X5631750Y3458230D01*
X5618870Y3445200D01*
X5618520Y3444900D01*
G03X5615110Y3441770I36063J-42712D01*
G01X5594790Y3421450D01*
G03X5578710Y3387590I39533J-39522D01*
G01X5577780Y3378460D01*
X3344360D01*
X3341990Y3385280D01*
G03X3270000Y3436450I-71990J-25056D01*
G03X3193780Y3360230I0J-76220D01*
G03X3213510Y3309070I76217J9D01*
G02Y3295420I-7535J-6825D01*
G03X3193780Y3244260I56487J-51169D01*
G03X3270000Y3168040I76220J0D01*
G03X3341980Y3219200I0J76216D01*
G01X3344360Y3226020D01*
X5577780D01*
X5578710Y3216890D01*
G03X5594790Y3183030I55613J5662D01*
G01X5615110Y3162710D01*
G03X5618520Y3159580I39473J39582D01*
G01X5618870Y3159280D01*
X5631750Y3146250D01*
X5631760Y3142090D01*
G03X5641100Y3114540I45740J149D01*
G02Y3089940I-16173J-12300D01*
G03X5631760Y3062390I36400J-27699D01*
G01X5631750Y3058230D01*
X5618870Y3045200D01*
X5618520Y3044900D01*
G03X5615110Y3041770I36063J-42712D01*
G01X5594790Y3021450D01*
G03X5578710Y2987590I39533J-39522D01*
G01X5577780Y2978460D01*
X5560590D01*
X5448890Y3090170D01*
G03X5409360Y3106540I-39530J-39543D01*
G01X3534360D01*
X3531980Y3113360D01*
G03X3460000Y3164520I-71980J-25056D01*
G03X3383780Y3088300I0J-76220D01*
G03X3403510Y3037140I76217J9D01*
G02Y3023490I-7535J-6825D01*
G03X3383780Y2972330I56487J-51169D01*
G03X3460000Y2896110I76220J0D01*
G03X3531990Y2947280I0J76226D01*
G01X3534360Y2954100D01*
X5369370D01*
X5440800Y2882670D01*
G02X5426430Y2847980I-14369J-14369D01*
G01X5377500D01*
G03X5349800Y2838640I0J-45745D01*
G02X5325200I-12300J16173D01*
G03X5297500Y2847980I-27700J-36405D01*
G01X5177500D01*
G03X5149800Y2838640I0J-45745D01*
G02X5125200I-12300J16173D01*
G03X5097500Y2847980I-27700J-36405D01*
G01X4977500D01*
G03X4949800Y2838640I0J-45745D01*
G02X4925200I-12300J16173D01*
G03X4897500Y2847980I-27700J-36405D01*
G01X4777500D01*
G03X4749800Y2838640I0J-45745D01*
G02X4725200I-12300J16173D01*
G03X4697500Y2847980I-27700J-36405D01*
G01X4577500D01*
G03X4549800Y2838640I0J-45745D01*
G02X4525200I-12300J16173D01*
G03X4497500Y2847980I-27700J-36405D01*
G01X4377500D01*
G03X4349800Y2838640I0J-45745D01*
G02X4325200I-12300J16173D01*
G03X4297500Y2847980I-27700J-36405D01*
G01X4177500D01*
G03X4149800Y2838640I0J-45745D01*
G02X4125200I-12300J16173D01*
G03X4097500Y2847980I-27700J-36405D01*
G01X3977500D01*
G03X3949800Y2838640I0J-45745D01*
G02X3925200I-12300J16173D01*
G03X3897500Y2847980I-27700J-36405D01*
G01X3777500D01*
G03X3749800Y2838640I0J-45745D01*
G02X3725200I-12300J16173D01*
G03X3697500Y2847980I-27700J-36405D01*
G01X3577500D01*
G03X3549800Y2838640I0J-45745D01*
G02X3525200I-12300J16173D01*
G03X3497500Y2847980I-27700J-36405D01*
G01X3377500D01*
G03X3349800Y2838640I0J-45745D01*
G02X3325200I-12300J16173D01*
G03X3297500Y2847980I-27700J-36405D01*
G01X3177500D01*
G03X3131760Y2802240I0J-45740D01*
G01Y2582240D01*
G03X3177350Y2536500I45740J0D01*
G01X3181510Y2536490D01*
X3194540Y2523610D01*
X3194840Y2523260D01*
G03X3197970Y2519850I42712J36063D01*
G01X3218290Y2499530D01*
G03X3252150Y2483450I39522J39533D01*
G01X3261280Y2482520D01*
Y2235340D01*
G03X3277650Y2195810I55913J0D01*
G01X3298780Y2174690D01*
G02X3284410Y2140000I-14369J-14369D01*
G01X2256540D01*
Y3177490D01*
X2305070Y3226020D01*
X2677780D01*
X2678710Y3216890D01*
G03X2694790Y3183030I55613J5662D01*
G01X2715110Y3162710D01*
G03X2718520Y3159580I39473J39582D01*
G01X2718870Y3159280D01*
X2731750Y3146250D01*
X2731760Y3142090D01*
G03X2741100Y3114540I45740J149D01*
G02Y3089940I-16173J-12300D01*
G03X2731760Y3062390I36400J-27699D01*
G01X2731750Y3058230D01*
X2718870Y3045200D01*
X2718520Y3044900D01*
G03X2715110Y3041770I36063J-42712D01*
G01X2694790Y3021450D01*
G03X2678710Y2987590I39533J-39522D01*
G01X2677780Y2978460D01*
X2601490D01*
X2599120Y2985280D01*
G03X2527130Y3036450I-71990J-25056D01*
G03X2450910Y2960230I0J-76220D01*
G03X2470640Y2909070I76217J9D01*
G02Y2895420I-7535J-6825D01*
G03X2450910Y2844260I56487J-51169D01*
G03X2527130Y2768040I76220J0D01*
G03X2599110Y2819200I0J76216D01*
G01X2601490Y2826020D01*
X2677780D01*
X2678710Y2816890D01*
G03X2694790Y2783030I55613J5662D01*
G01X2715110Y2762710D01*
G03X2718520Y2759580I39473J39582D01*
G01X2718870Y2759280D01*
X2731750Y2746250D01*
X2731760Y2742090D01*
G03X2777500Y2696500I45740J150D01*
G01X2997500D01*
G03X3043240Y2742240I0J45740D01*
G01Y2862240D01*
G03X3033900Y2889940I-45745J0D01*
G02Y2914540I16173J12300D01*
G03X3043240Y2942240I-36405J27700D01*
G01Y3062240D01*
G03X3033900Y3089940I-45745J0D01*
G02Y3114540I16173J12300D01*
G03X3043240Y3142240I-36405J27700D01*
G01Y3262240D01*
G03X3033900Y3289940I-45745J0D01*
G02Y3314540I16173J12300D01*
G03X3043240Y3342240I-36405J27700D01*
G01Y3462240D01*
G03X3033900Y3489940I-45745J0D01*
G02Y3514540I16173J12300D01*
G03X3043240Y3542240I-36405J27700D01*
G01Y3662240D01*
G03X3033900Y3689940I-45745J0D01*
G02Y3714540I16173J12300D01*
G03X3043240Y3742240I-36405J27700D01*
G01Y3862240D01*
G03X3033900Y3889940I-45745J0D01*
G02Y3914540I16173J12300D01*
G03X3043240Y3942240I-36405J27700D01*
G01Y4062240D01*
G03X3033900Y4089940I-45745J0D01*
G02Y4114540I16173J12300D01*
G03X3043240Y4142240I-36405J27700D01*
G01Y4262240D01*
G03X3033900Y4289940I-45745J0D01*
G02Y4314540I16173J12300D01*
G03X3039570Y4324280I-36395J27707D01*
G02X3067510Y4334390I18686J-7978D01*
G37*
G36*
G01X2711660Y520000D02*
X2781500D01*
X2783300Y601800D01*
X2701500Y600000D01*
Y530160D01*
G03X2711660Y520000I10160J0D01*
G37*
G36*
G01X3079000Y1655160D02*
Y1725000D01*
X2997200Y1726800D01*
X2999000Y1645000D01*
X3068840D01*
G03X3079000Y1655160I0J10160D01*
G37*
G36*
G01X2785960Y1822980D02*
X2719710Y1800890D01*
X2743860Y1722730D01*
X2820890Y1750290D01*
X2798810Y1816550D01*
G03X2785960Y1822980I-9640J-3210D01*
G37*
G36*
G01X2831030Y1881020D02*
X2897290Y1903110D01*
X2873140Y1981270D01*
X2796110Y1953710D01*
X2818180Y1887450D01*
G03X2831030Y1881020I9640J3210D01*
G37*
G36*
G01X2557610Y2939910D02*
Y2960230D01*
X2525330Y2962030D01*
X2527130Y2929750D01*
X2547450D01*
G03X2557610Y2939910I0J10160D01*
G37*
G36*
G01X2745980Y2996920D02*
X2777510Y2965010D01*
X2890040Y3002240D01*
X2777510Y3039470D01*
X2745980Y3007560D01*
G03Y2996920I8660J-5320D01*
G37*
G36*
G01X2547450Y2874740D02*
X2527130D01*
X2525330Y2842460D01*
X2557610Y2844260D01*
Y2864580D01*
G03X2547450Y2874740I-10160J0D01*
G37*
G36*
G01X2745980Y2796920D02*
X2777510Y2765010D01*
X2890040Y2802240D01*
X2777510Y2839470D01*
X2745980Y2807560D01*
G03Y2796920I8660J-5320D01*
G37*
G36*
G01Y3196920D02*
X2777510Y3165010D01*
X2890040Y3202240D01*
X2777510Y3239470D01*
X2745980Y3207560D01*
G03Y3196920I8660J-5320D01*
G37*
G36*
G01X2719850Y3595750D02*
X2777500Y3542240D01*
X2890040Y3602240D01*
X2777500Y3662240D01*
X2719850Y3608730D01*
G03Y3595750I7820J-6490D01*
G37*
G36*
G01X2745980Y3396920D02*
X2777510Y3365010D01*
X2890040Y3402240D01*
X2777510Y3439470D01*
X2745980Y3407560D01*
G03Y3396920I8660J-5320D01*
G37*
G36*
G01X4900890Y6950000D02*
X7700000D01*
G02X7950000Y6700000I0J-250000D01*
G01Y300000D01*
G02X7700000Y50000I-250000J0D01*
G01X7260000D01*
Y544100D01*
X7303800D01*
G03X7343330Y560470I0J55913D01*
G01X7477110Y694260D01*
X7523800D01*
G03X7553420Y705150I0J45727D01*
G02X7566580I6580J-7745D01*
G03X7596200Y694260I29620J34837D01*
G01X7676200D01*
G03X7706210Y705480I0J45744D01*
G01X7714190Y712420D01*
X7720040Y709910D01*
G03X7750000Y703780I29948J70092D01*
G03Y856220I0J76220D01*
G03X7720040Y850090I-12J-76222D01*
G01X7714190Y847580D01*
X7706210Y854520D01*
G03X7676200Y865740I-30010J-34524D01*
G01X7596200D01*
G03X7591670Y865520I-49J-45742D01*
G02X7569400Y887310I-2012J20219D01*
G03X7569540Y890870I-45599J3576D01*
G01Y970870D01*
G03X7569480Y973210I-45740J-2D01*
G02X7591750Y994480I20294J1046D01*
G03X7596200Y994260I4481J45518D01*
G01X7676200D01*
G03X7706210Y1005480I0J45744D01*
G01X7714190Y1012420D01*
X7720040Y1009910D01*
G03X7750000Y1003780I29948J70092D01*
G03Y1156220I0J76220D01*
G03X7720040Y1150090I-12J-76222D01*
G01X7714190Y1147580D01*
X7706210Y1154520D01*
G03X7676200Y1165740I-30010J-34524D01*
G01X7596200D01*
G03X7591710Y1165520I-9J-45740D01*
G02X7569440Y1187050I-1991J20223D01*
G03X7569540Y1190000I-45638J3024D01*
G01Y1270000D01*
G03X7558820Y1299430I-45742J6D01*
G02Y1325570I15553J13070D01*
G03X7569540Y1355000I-35022J29424D01*
G01Y1435000D01*
G03X7523800Y1480740I-45740J0D01*
G01X7443800D01*
G03X7431980Y1479190I-13J-45742D01*
G01X7430690Y1478840D01*
X7373240D01*
G03X7267600Y1560210I-148738J-83842D01*
G01X7260000Y1562190D01*
Y2140000D01*
X5895900D01*
Y2180000D01*
G03X5879530Y2219530I-55913J0D01*
G01X5589850Y2509210D01*
G03X5550320Y2525580I-39530J-39543D01*
G01X5518360D01*
Y2541170D01*
X5522890Y2544190D01*
G03X5543240Y2582240I-25398J38050D01*
G01Y2802240D01*
G03X5543180Y2804640I-45741J57D01*
G02X5563470Y2826020I20291J1061D01*
G01X5577780D01*
X5578710Y2816890D01*
G03X5594790Y2783030I55613J5662D01*
G01X5615110Y2762710D01*
G03X5618520Y2759580I39473J39582D01*
G01X5618870Y2759280D01*
X5631750Y2746250D01*
X5631760Y2742090D01*
G03X5677500Y2696500I45740J150D01*
G01X5897500D01*
G03X5943240Y2742240I0J45740D01*
G01Y2862240D01*
G03X5933900Y2889940I-45745J0D01*
G02Y2914540I16173J12300D01*
G03X5943240Y2942240I-36405J27700D01*
G01Y3062240D01*
G03X5933900Y3089940I-45745J0D01*
G02Y3114540I16173J12300D01*
G03X5943240Y3142240I-36405J27700D01*
G01Y3262240D01*
G03X5933900Y3289940I-45745J0D01*
G02Y3314540I16173J12300D01*
G03X5943240Y3342240I-36405J27700D01*
G01Y3462240D01*
G03X5933900Y3489940I-45745J0D01*
G02Y3514540I16173J12300D01*
G03X5943240Y3542240I-36405J27700D01*
G01Y3662240D01*
G03X5933900Y3689940I-45745J0D01*
G02Y3714540I16173J12300D01*
G03X5943240Y3742240I-36405J27700D01*
G01Y3862240D01*
G03X5933900Y3889940I-45745J0D01*
G02Y3914540I16173J12300D01*
G03X5943240Y3942240I-36405J27700D01*
G01Y4062240D01*
G03X5933900Y4089940I-45745J0D01*
G02Y4114540I16173J12300D01*
G03X5943240Y4142240I-36405J27700D01*
G01Y4262240D01*
G03X5933900Y4289940I-45745J0D01*
G02Y4314540I16173J12300D01*
G03X5943240Y4342240I-36405J27700D01*
G01Y4462240D01*
G03X5933900Y4489940I-45745J0D01*
G02Y4514540I16173J12300D01*
G03X5937770Y4520550I-36404J27693D01*
G02X5970030Y4525280I17889J-9635D01*
G01X5981050Y4514260D01*
X6196760D01*
G02X6215410Y4485880I-2J-20319D01*
G03X6204260Y4432000I124591J-53877D01*
G03X6340000Y4296260I135740J0D01*
G03X6404310Y4312460I0J135747D01*
G02X6434260Y4294570I9631J-17892D01*
G01Y4198950D01*
X6411050Y4175740D01*
X6211050D01*
X6154260Y4118950D01*
Y3751050D01*
X6191050Y3714260D01*
X6758950D01*
X6805740Y3761050D01*
Y4751050D01*
X6878950Y4824260D01*
X7628950D01*
X7765740Y4961050D01*
Y6115740D01*
X7161050D01*
X7011050Y5965740D01*
X6571050D01*
X6424260Y5818950D01*
Y5418950D01*
X6204260Y5198950D01*
Y5055910D01*
X6203350Y5053910D01*
G03X6199260Y5035000I41651J-18906D01*
G01Y4849950D01*
G02X6181920Y4842770I-10159J6D01*
G01X6175740Y4848950D01*
Y5458950D01*
X6128950Y5505740D01*
X5961550D01*
G02X5941850Y5531040I-1J20319D01*
G03X5943240Y5542240I-44351J11191D01*
G01Y5662240D01*
G03X5933900Y5689940I-45745J0D01*
G02Y5714540I16173J12300D01*
G03X5943240Y5742240I-36405J27700D01*
G01Y5862240D01*
G03X5933900Y5889940I-45745J0D01*
G02Y5914540I16173J12300D01*
G03X5943240Y5942240I-36405J27700D01*
G01Y6062240D01*
G03X5897500Y6107980I-45740J0D01*
G01X5677500D01*
G03X5646380Y6095760I0J-45736D01*
G01X5623840Y6074840D01*
X5618500Y6076180D01*
G03X5600000Y6078460I-18503J-73940D01*
G03Y5926020I0J-76220D01*
G03X5618500Y5928300I-3J76220D01*
G01X5623840Y5929640D01*
X5637310Y5917130D01*
G02Y5887350I-13819J-14890D01*
G01X5623840Y5874840D01*
X5618500Y5876180D01*
G03X5600000Y5878460I-18503J-73940D01*
G03Y5726020I0J-76220D01*
G03X5618500Y5728300I-3J76220D01*
G01X5623840Y5729640D01*
X5637310Y5717130D01*
G02Y5687350I-13819J-14890D01*
G01X5623840Y5674840D01*
X5618500Y5676180D01*
G03X5600000Y5678460I-18503J-73940D01*
G03Y5526020I0J-76220D01*
G03X5618500Y5528300I-3J76220D01*
G01X5623840Y5529640D01*
X5635700Y5518630D01*
X5630640Y5505740D01*
X5624260D01*
Y5284260D01*
X5633030D01*
Y5273010D01*
X5632800Y5271940D01*
G03X5631760Y5262240I44700J-9698D01*
G01Y4942240D01*
G03X5640690Y4915090I45737J0D01*
G02X5638160Y4888130I-16351J-12064D01*
G01X5605850Y4858140D01*
X3161810D01*
G03X3110000Y4878460I-51810J-55890D01*
G03X3070250Y4867280I-9J-76223D01*
G02X3040540Y4877730I-10595J17336D01*
G03X3034310Y4889390I-43035J-15499D01*
G02X3036840Y4916350I16351J12064D01*
G01X3069150Y4946340D01*
X4652240D01*
G03X4691770Y4962710I0J55913D01*
G01X4829530Y5100470D01*
G03X4845900Y5140000I-39543J39530D01*
G01Y6738870D01*
X4868920Y6764310D01*
G03X4880740Y6795000I-33932J30690D01*
G01Y6925000D01*
G03X4880630Y6928240I-45742J69D01*
G02X4900890Y6950000I20267J1442D01*
G37*
G36*
G01X2707180Y4766320D02*
X2721550Y4780690D01*
X2700000Y4804780D01*
X2678450Y4780690D01*
X2692820Y4766320D01*
G03X2707180I7180J7180D01*
G37*
G36*
G01X2594080Y4682820D02*
X2608450Y4668450D01*
X2632540Y4690000D01*
X2608450Y4711550D01*
X2594080Y4697180D01*
G03Y4682820I7180J-7180D01*
G37*
G36*
G01X3055150Y4608730D02*
X2997500Y4662240D01*
X2884960Y4602240D01*
X2997500Y4542240D01*
X3055150Y4595750D01*
G03Y4608730I-7820J6490D01*
G37*
G36*
G01Y5008730D02*
X2997500Y5062240D01*
X2884960Y5002240D01*
X2997500Y4942240D01*
X3055150Y4995750D01*
G03Y5008730I-7820J6490D01*
G37*
G36*
G01Y6408730D02*
X2997500Y6462240D01*
X2884960Y6402240D01*
X2997500Y6342240D01*
X3055150Y6395750D01*
G03Y6408730I-7820J6490D01*
G37*
G36*
G01X3377180Y1863050D02*
X3436560Y1922430D01*
X3380230Y1981530D01*
X3322160Y1924010D01*
X3361530Y1864620D01*
G03X3377180Y1863050I8467J5612D01*
G37*
G36*
G01X3493490Y2536490D02*
X3497650Y2536500D01*
G03X3525200Y2545840I-149J45740D01*
G02X3549800I12300J-16173D01*
G03X3577350Y2536500I27699J36400D01*
G01X3581510Y2536490D01*
X3594540Y2523610D01*
X3594840Y2523260D01*
G03X3597970Y2519850I42712J36063D01*
G01X3618290Y2499530D01*
G03X3652150Y2483450I39522J39533D01*
G01X3661280Y2482520D01*
Y2352820D01*
G03X3677650Y2313290I55913J0D01*
G01X3833600Y2157340D01*
G02X3826420Y2140000I-7185J-7181D01*
G01X3806530D01*
X3707010Y2239530D01*
G03X3667480Y2255900I-39530J-39543D01*
G01X3433150D01*
X3413720Y2275330D01*
Y2482520D01*
X3422850Y2483450D01*
G03X3456710Y2499530I-5662J55613D01*
G01X3477030Y2519850D01*
G03X3480160Y2523260I-39582J39473D01*
G01X3480460Y2523610D01*
X3493490Y2536490D01*
G37*
G36*
G01X3242820Y2550720D02*
X3274730Y2582250D01*
X3237500Y2694780D01*
X3200270Y2582250D01*
X3232180Y2550720D01*
G03X3242820I5320J8660D01*
G37*
G36*
G01X3442820D02*
X3474730Y2582250D01*
X3437500Y2694780D01*
X3400270Y2582250D01*
X3432180Y2550720D01*
G03X3442820I5320J8660D01*
G37*
G36*
G01X3480320Y3002810D02*
X3460000D01*
X3458200Y2970530D01*
X3490480Y2972330D01*
Y2992650D01*
G03X3480320Y3002810I-10160J0D01*
G37*
G36*
G01X3490480Y3067980D02*
Y3088300D01*
X3458200Y3090100D01*
X3460000Y3057820D01*
X3480320D01*
G03X3490480Y3067980I0J10160D01*
G37*
G36*
G01X3290320Y3274740D02*
X3270000D01*
X3268200Y3242460D01*
X3300480Y3244260D01*
Y3264580D01*
G03X3290320Y3274740I-10160J0D01*
G37*
G36*
G01X3300480Y3339910D02*
Y3360230D01*
X3268200Y3362030D01*
X3270000Y3329750D01*
X3290320D01*
G03X3300480Y3339910I0J10160D01*
G37*
G36*
G01X3145920Y4809420D02*
X3131550Y4823790D01*
X3107460Y4802240D01*
X3131550Y4780690D01*
X3145920Y4795060D01*
G03Y4809420I-7180J7180D01*
G37*
G36*
G01Y4697180D02*
X3131550Y4711550D01*
X3107460Y4690000D01*
X3131550Y4668450D01*
X3145920Y4682820D01*
G03Y4697180I-7180J7180D01*
G37*
G36*
G01X3138160Y4409420D02*
X3123790Y4423790D01*
X3099700Y4402240D01*
X3123790Y4380690D01*
X3138160Y4395060D01*
G03Y4409420I-7180J7180D01*
G37*
G36*
G01X3587410Y6777020D02*
X3613800Y6820000D01*
X3573590Y6862530D01*
X3533800Y6820000D01*
X3573750Y6775960D01*
G03X3587410Y6777020I6250J8010D01*
G37*
G36*
G01X3782660Y520000D02*
X3852500D01*
X3854300Y601800D01*
X3772500Y600000D01*
Y530160D01*
G03X3782660Y520000I10160J0D01*
G37*
G36*
G01X3893490Y2536490D02*
X3897650Y2536500D01*
G03X3925200Y2545840I-149J45740D01*
G02X3949800I12300J-16173D01*
G03X3977350Y2536500I27699J36400D01*
G01X3981510Y2536490D01*
X3994540Y2523610D01*
X3994840Y2523260D01*
G03X3997970Y2519850I42712J36063D01*
G01X4018290Y2499530D01*
G03X4052150Y2483450I39522J39533D01*
G01X4061280Y2482520D01*
Y2140000D01*
X4026540D01*
Y2156840D01*
G03X4010170Y2196370I-55913J0D01*
G01X3813720Y2392810D01*
Y2482520D01*
X3822850Y2483450D01*
G03X3856710Y2499530I-5662J55613D01*
G01X3877030Y2519850D01*
G03X3880160Y2523260I-39582J39473D01*
G01X3880460Y2523610D01*
X3893490Y2536490D01*
G37*
G36*
G01X4042820Y2550720D02*
X4074730Y2582250D01*
X4037500Y2694780D01*
X4000270Y2582250D01*
X4032180Y2550720D01*
G03X4042820I5320J8660D01*
G37*
G36*
G01X3842820D02*
X3874730Y2582250D01*
X3837500Y2694780D01*
X3800270Y2582250D01*
X3832180Y2550720D01*
G03X3842820I5320J8660D01*
G37*
G36*
G01X3642820D02*
X3674730Y2582250D01*
X3637500Y2694780D01*
X3600270Y2582250D01*
X3632180Y2550720D01*
G03X3642820I5320J8660D01*
G37*
G36*
G01X3654080Y4595060D02*
X3668450Y4580690D01*
X3692540Y4602240D01*
X3668450Y4623790D01*
X3654080Y4609420D01*
G03Y4595060I7180J-7180D01*
G37*
G36*
G01X3804170Y6866070D02*
X3766200Y6900000D01*
X3723660Y6860000D01*
X3766200Y6820000D01*
X3804170Y6853930D01*
G03Y6866070I-8140J6070D01*
G37*
G36*
G01X3772400Y6853450D02*
X3835000Y6795000D01*
X3882540Y6860000D01*
X3835000Y6925000D01*
X3772400Y6866550D01*
G03Y6853450I7770J-6550D01*
G37*
G36*
G01X4481340Y680000D02*
X4411500D01*
X4409700Y598200D01*
X4491500Y600000D01*
Y669840D01*
G03X4481340Y680000I-10160J0D01*
G37*
G36*
G01X4293490Y2536490D02*
X4297650Y2536500D01*
G03X4325200Y2545840I-149J45740D01*
G02X4349800I12300J-16173D01*
G03X4377350Y2536500I27699J36400D01*
G01X4381510Y2536490D01*
X4394540Y2523610D01*
X4394840Y2523260D01*
G03X4397970Y2519850I42712J36063D01*
G01X4418290Y2499530D01*
G03X4452150Y2483450I39522J39533D01*
G01X4461280Y2482520D01*
Y2275340D01*
G03X4477650Y2235810I55913J0D01*
G01X4538780Y2174690D01*
G02X4524410Y2140000I-14369J-14369D01*
G01X4213720D01*
Y2482520D01*
X4222850Y2483450D01*
G03X4256710Y2499530I-5662J55613D01*
G01X4277030Y2519850D01*
G03X4280160Y2523260I-39582J39473D01*
G01X4280460Y2523610D01*
X4293490Y2536490D01*
G37*
G36*
G01X4461040Y1881020D02*
X4527290Y1903110D01*
X4503140Y1981270D01*
X4426110Y1953710D01*
X4448190Y1887450D01*
G03X4461040Y1881020I9640J3210D01*
G37*
G36*
G01X4709000Y1655160D02*
Y1725000D01*
X4627200Y1726800D01*
X4629000Y1645000D01*
X4698840D01*
G03X4709000Y1655160I0J10160D01*
G37*
G36*
G01X4415970Y1822980D02*
X4349710Y1800890D01*
X4373860Y1722730D01*
X4450890Y1750290D01*
X4428820Y1816550D01*
G03X4415970Y1822980I-9640J-3210D01*
G37*
G36*
G01X4693490Y2536490D02*
X4697650Y2536500D01*
G03X4725200Y2545840I-149J45740D01*
G02X4749800I12300J-16173D01*
G03X4777350Y2536500I27699J36400D01*
G01X4781510Y2536490D01*
X4794540Y2523610D01*
X4794840Y2523260D01*
G03X4797970Y2519850I42712J36063D01*
G01X4818290Y2499530D01*
G03X4852150Y2483450I39522J39533D01*
G01X4861280Y2482520D01*
Y2375340D01*
G03X4877650Y2335810I55913J0D01*
G01X4912880Y2300590D01*
G02X4898510Y2265900I-14369J-14369D01*
G01X4663150D01*
X4613720Y2315330D01*
Y2482520D01*
X4622850Y2483450D01*
G03X4656710Y2499530I-5662J55613D01*
G01X4677030Y2519850D01*
G03X4680160Y2523260I-39582J39473D01*
G01X4680460Y2523610D01*
X4693490Y2536490D01*
G37*
G36*
G01X4442820Y2550720D02*
X4474730Y2582250D01*
X4437500Y2694780D01*
X4400270Y2582250D01*
X4432180Y2550720D01*
G03X4442820I5320J8660D01*
G37*
G36*
G01X4642820D02*
X4674730Y2582250D01*
X4637500Y2694780D01*
X4600270Y2582250D01*
X4632180Y2550720D01*
G03X4642820I5320J8660D01*
G37*
G36*
G01X4242820D02*
X4274730Y2582250D01*
X4237500Y2694780D01*
X4200270Y2582250D01*
X4232180Y2550720D01*
G03X4242820I5320J8660D01*
G37*
G36*
G01X4264820Y6780320D02*
X4252260Y6767740D01*
X4273800Y6743020D01*
X4295340Y6767740D01*
X4282780Y6780320D01*
G03X4264820I-8980J-8980D01*
G37*
G36*
G01X4280960Y6782220D02*
X4313800Y6820000D01*
X4273800Y6863180D01*
X4233800Y6820000D01*
X4266640Y6782220D01*
G03X4280960I7160J10490D01*
G37*
G36*
G01X4482400Y6853450D02*
X4545000Y6795000D01*
X4592540Y6860000D01*
X4545000Y6925000D01*
X4482400Y6866550D01*
G03Y6853450I7770J-6550D01*
G37*
G36*
G01X4504170Y6866070D02*
X4466200Y6900000D01*
X4423660Y6860000D01*
X4466200Y6820000D01*
X4504170Y6853930D01*
G03Y6866070I-8140J6070D01*
G37*
G36*
G01X5017920Y1872500D02*
X5066650Y1922540D01*
X5009980Y1981540D01*
X4953440Y1922430D01*
X5003460Y1872410D01*
G03X5017920Y1872500I7186J7181D01*
G37*
G36*
G01X5242820Y2550720D02*
X5274730Y2582250D01*
X5237500Y2694780D01*
X5200270Y2582250D01*
X5232180Y2550720D01*
G03X5242820I5320J8660D01*
G37*
G36*
G01X5042820D02*
X5074730Y2582250D01*
X5037500Y2694780D01*
X5000270Y2582250D01*
X5032180Y2550720D01*
G03X5042820I5320J8660D01*
G37*
G36*
G01X4842820D02*
X4874730Y2582250D01*
X4837500Y2694780D01*
X4800270Y2582250D01*
X4832180Y2550720D01*
G03X4842820I5320J8660D01*
G37*
G36*
G01X4796220Y6752140D02*
X4835000Y6795000D01*
X4790000Y6862540D01*
X4745000Y6795000D01*
X4783780Y6752140D01*
G03X4796220I6220J8030D01*
G37*
G36*
G01X5552340Y680000D02*
X5482500D01*
X5480700Y598200D01*
X5562500Y600000D01*
Y669840D01*
G03X5552340Y680000I-10160J0D01*
G37*
G36*
G01X5442820Y2550720D02*
X5474730Y2582250D01*
X5437500Y2694780D01*
X5400270Y2582250D01*
X5432180Y2550720D01*
G03X5442820I5320J8660D01*
G37*
G36*
G01X5645980Y2796920D02*
X5677510Y2765010D01*
X5790040Y2802240D01*
X5677510Y2839470D01*
X5645980Y2807560D01*
G03Y2796920I8660J-5320D01*
G37*
G36*
G01Y2996920D02*
X5677510Y2965010D01*
X5790040Y3002240D01*
X5677510Y3039470D01*
X5645980Y3007560D01*
G03Y2996920I8660J-5320D01*
G37*
G36*
G01Y3196920D02*
X5677510Y3165010D01*
X5790040Y3202240D01*
X5677510Y3239470D01*
X5645980Y3207560D01*
G03Y3196920I8660J-5320D01*
G37*
G36*
G01Y3396920D02*
X5677510Y3365010D01*
X5790040Y3402240D01*
X5677510Y3439470D01*
X5645980Y3407560D01*
G03Y3396920I8660J-5320D01*
G37*
G36*
G01X5619850Y4795750D02*
X5677500Y4742240D01*
X5790040Y4802240D01*
X5677500Y4862240D01*
X5619850Y4808730D01*
G03Y4795750I7820J-6490D01*
G37*
G36*
G01Y4595750D02*
X5677500Y4542240D01*
X5790040Y4602240D01*
X5677500Y4662240D01*
X5619850Y4608730D01*
G03Y4595750I7820J-6490D01*
G37*
G36*
G01Y4395750D02*
X5677500Y4342240D01*
X5790040Y4402240D01*
X5677500Y4462240D01*
X5619850Y4408730D01*
G03Y4395750I7820J-6490D01*
G37*
G36*
G01X6430000Y4590000D02*
X6400000Y4560000D01*
X6000000D01*
X5970000Y4590000D01*
Y5300000D01*
X5940000Y5330000D01*
X5670000D01*
Y5460000D01*
X6110000D01*
X6130000Y5440000D01*
Y4830000D01*
X6180000Y4780000D01*
X6410000D01*
X6430000Y4760000D01*
Y4590000D01*
G37*
G36*
G01X5619850Y5995750D02*
X5677500Y5942240D01*
X5790040Y6002240D01*
X5677500Y6062240D01*
X5619850Y6008730D01*
G03Y5995750I7820J-6490D01*
G37*
G36*
G01X5635920Y5809420D02*
X5621550Y5823790D01*
X5597460Y5802240D01*
X5621550Y5780690D01*
X5635920Y5795060D01*
G03Y5809420I-7180J7180D01*
G37*
G36*
G01X5619850Y5795750D02*
X5677500Y5742240D01*
X5790040Y5802240D01*
X5677500Y5862240D01*
X5619850Y5808730D01*
G03Y5795750I7820J-6490D01*
G37*
G36*
G01X5635920Y5609420D02*
X5621550Y5623790D01*
X5597460Y5602240D01*
X5621550Y5580690D01*
X5635920Y5595060D01*
G03Y5609420I-7180J7180D01*
G37*
G36*
G01X5619850Y5595750D02*
X5677500Y5542240D01*
X5790040Y5602240D01*
X5677500Y5662240D01*
X5619850Y5608730D01*
G03Y5595750I7820J-6490D01*
G37*
G36*
G01X5635920Y6009420D02*
X5621550Y6023790D01*
X5597460Y6002240D01*
X5621550Y5980690D01*
X5635920Y5995060D01*
G03Y6009420I-7180J7180D01*
G37*
G36*
G01X6111340Y680000D02*
X6041500D01*
X6039700Y598200D01*
X6121500Y600000D01*
Y669840D01*
G03X6111340Y680000I-10160J0D01*
G37*
G36*
G01X6045970Y1822980D02*
X5979710Y1800890D01*
X6003860Y1722730D01*
X6080890Y1750290D01*
X6058820Y1816550D01*
G03X6045970Y1822980I-9640J-3210D01*
G37*
G36*
G01X6091040Y1881020D02*
X6157290Y1903110D01*
X6133140Y1981270D01*
X6056110Y1953710D01*
X6078190Y1887450D01*
G03X6091040Y1881020I9640J3210D01*
G37*
G36*
G01X6339000Y1655160D02*
Y1725000D01*
X6257200Y1726800D01*
X6259000Y1645000D01*
X6328840D01*
G03X6339000Y1655160I0J10160D01*
G37*
G36*
G01X7180000Y6070000D02*
X7720000D01*
Y4980000D01*
X7610000Y4870000D01*
X7557700D01*
X7555960Y4870650D01*
G03X7529060Y4875560I-26914J-71307D01*
G03X7502160Y4870650I14J-76217D01*
G01X7500420Y4870000D01*
X7057700D01*
X7055960Y4870650D01*
G03X7029060Y4875560I-26914J-71307D01*
G03X7002160Y4870650I14J-76217D01*
G01X7000420Y4870000D01*
X6860000D01*
X6760000Y4770000D01*
Y4641890D01*
X6759960Y4641430D01*
G03X6759260Y4626000I170039J-15445D01*
G03X6759960Y4610570I170739J15D01*
G01X6760000Y4610110D01*
Y3780000D01*
X6740000Y3760000D01*
X6210000D01*
X6200000Y3770000D01*
Y4100000D01*
X6230000Y4130000D01*
X6430000D01*
X6480000Y4180000D01*
Y4790000D01*
X6430000Y4840000D01*
X6250000D01*
Y5180000D01*
X6470000Y5400000D01*
Y5800000D01*
X6590000Y5920000D01*
X7030000D01*
X7180000Y6070000D01*
G37*
G36*
G01X6647920Y1872500D02*
X6696650Y1922540D01*
X6639980Y1981540D01*
X6583440Y1922430D01*
X6633460Y1872410D01*
G03X6647920Y1872500I7186J7181D01*
G37*
G36*
G01X7218450Y607190D02*
X7169060Y656550D01*
X7109960Y600000D01*
X7169070Y543440D01*
X7218450Y592820D01*
G03Y607190I-7181J7185D01*
G37*
G36*
G01X7440880Y880720D02*
X7523800Y890870D01*
X7485660Y932600D01*
X7443800Y970870D01*
X7430730Y891250D01*
G03X7440880Y880720I10150J-373D01*
G37*
G36*
G01X7713980Y787160D02*
X7676200Y820000D01*
X7633020Y780000D01*
X7676200Y740000D01*
X7713980Y772840D01*
G03Y787160I-10490J7160D01*
G37*
G36*
G01X7715880Y771020D02*
X7728460Y758460D01*
X7753180Y780000D01*
X7728460Y801540D01*
X7715880Y788980D01*
G03Y771020I8980J-8980D01*
G37*
G36*
G01Y1071020D02*
X7728460Y1058460D01*
X7753180Y1080000D01*
X7728460Y1101540D01*
X7715880Y1088980D01*
G03Y1071020I8980J-8980D01*
G37*
G36*
G01X7713980Y1087160D02*
X7676200Y1120000D01*
X7633020Y1080000D01*
X7676200Y1040000D01*
X7713980Y1072840D01*
G03Y1087160I-10490J7160D01*
G37*
G36*
G01X7439180Y1029840D02*
X7523800Y1040000D01*
X7485690Y1081700D01*
X7443800Y1120000D01*
X7429040Y1040590D01*
G03X7439180Y1029840I10140J-593D01*
G37*
G36*
G01X7440000Y1179840D02*
X7523800Y1190000D01*
X7485680Y1231710D01*
X7443800Y1270000D01*
X7429850Y1190480D01*
G03X7440000Y1179840I10150J-479D01*
G37*
%LPC*%
G75*
G36*
G01X6201050Y2684260D02*
X6144260Y2741050D01*
Y3595740D01*
X6665740D01*
Y3374260D01*
X6660740D01*
Y3260000D01*
G02X6615000Y3214260I-45740J0D01*
G01X6537790D01*
X6496900Y3173410D01*
Y3040850D01*
X6513390Y3022390D01*
X6531850Y3005900D01*
X6542950D01*
X6563320Y3024110D01*
G02X6593800Y3035740I30475J-34112D01*
G01X6673800D01*
G02X6719540Y2990000I0J-45740D01*
G01Y2910000D01*
G02X6673800Y2864260I-45740J0D01*
G01X6593800D01*
G02X6563320Y2875890I-5J45742D01*
G01X6542950Y2894100D01*
X6531850D01*
X6511480Y2875890D01*
G02X6481000Y2864260I-30475J34112D01*
G01X6395740D01*
Y2731050D01*
X6348950Y2684260D01*
X6201050D01*
G37*
G36*
G01X5631760Y6542240D02*
Y6662240D01*
G02X5677500Y6707980I45740J0D01*
G01X5897500D01*
G02X5943240Y6662240I0J-45740D01*
G01Y6542240D01*
G02X5933900Y6514540I-45745J0D01*
G03Y6489940I16173J-12300D01*
G02X5943240Y6462240I-36405J-27700D01*
G01Y6342240D01*
G02X5897500Y6296500I-45740J0D01*
G01X5677500D01*
G02X5631760Y6342240I0J45740D01*
G01Y6462240D01*
G02X5641100Y6489940I45745J0D01*
G03Y6514540I-16173J12300D01*
G02X5631760Y6542240I36405J27700D01*
G37*
G54D33*
X170000Y1845000D03*
Y5395000D03*
Y3625000D03*
G54D32*
X320000Y6680000D03*
Y320000D03*
X7680000Y6680000D03*
Y320000D03*
G54D35*
X7558400Y2651600D03*
G54D34*
X6230000Y5860000D03*
%LPD*%
G75*
G36*
G01X6190000Y3550000D02*
X6620000D01*
Y3425740D01*
X6385000D01*
G03X6339260Y3380000I0J-45740D01*
G01Y3260000D01*
G03X6350000Y3230550I45747J0D01*
G01Y2750000D01*
X6330000Y2730000D01*
X6220000D01*
X6190000Y2760000D01*
Y3550000D01*
G37*
G36*
G01X6447420Y3188630D02*
X6518870Y3260010D01*
X6501090Y3322290D01*
X6410710Y3267050D01*
X6431660Y3192490D01*
G03X6447420Y3188630I9335J4011D01*
G37*
G36*
G01X6434930Y3027970D02*
X6401000Y2990000D01*
X6441000Y2947460D01*
X6481000Y2990000D01*
X6447070Y3027970D01*
G03X6434930I-6070J-8140D01*
G37*
G36*
G01X6518970Y2956070D02*
X6481000Y2990000D01*
X6438460Y2950000D01*
X6481000Y2910000D01*
X6518970Y2943930D01*
G03Y2956070I-8140J6070D01*
G37*
G36*
G01X6555830Y2943930D02*
X6593800Y2910000D01*
X6636340Y2950000D01*
X6593800Y2990000D01*
X6555830Y2956070D01*
G03Y2943930I8140J-6070D01*
G37*
G54D10*
X100000Y760000D03*
X280000Y780000D03*
X100000Y1160000D03*
X280000Y1230000D03*
X260010Y2448470D03*
Y2948470D03*
X193340Y4051460D03*
X293790Y6143790D03*
X510010Y5228470D03*
Y5728470D03*
X1270010Y2618470D03*
Y3118470D03*
X1208050Y3873300D03*
Y4373300D03*
X1910010Y2618470D03*
Y3118470D03*
X1970010Y3848470D03*
Y4348470D03*
X2408650Y2347370D03*
X2420010Y2618470D03*
Y3118470D03*
X2430010Y3848470D03*
Y4348470D03*
X2490010Y6358470D03*
Y6858470D03*
X2908650Y2347370D03*
X2527130Y2960230D03*
Y2844260D03*
X2700000Y4802240D03*
X2630000Y4690000D03*
X3508470Y2359990D03*
X3589260Y3193590D03*
X3579260Y2893590D03*
X3460000Y2972330D03*
Y3088300D03*
X3270000Y3244260D03*
X3609260Y3803590D03*
X3270000Y3360230D03*
X3110000Y4802240D03*
Y4690000D03*
X3102240Y4402240D03*
X3415610Y5992190D03*
Y5492190D03*
X4008470Y2359990D03*
X4089260Y3193590D03*
X4079260Y2893590D03*
X4109260Y3803590D03*
X3690000Y4602240D03*
X3915610Y5992190D03*
Y5492190D03*
X4298470Y2369990D03*
X4589260Y3193590D03*
X4579260Y2893590D03*
X4609260Y3803590D03*
X4273800Y6746200D03*
X4798470Y2369990D03*
X5089260Y3193590D03*
X5079260Y2893590D03*
X5109260Y3803590D03*
X5127450Y5383740D03*
Y5883740D03*
X5600000Y5802240D03*
Y5602240D03*
Y6002240D03*
X6199260Y2603590D03*
X6080000Y3040000D03*
X6090000Y2750000D03*
X6230000Y3230000D03*
X6320000D03*
Y3150000D03*
X6230000D03*
X6320000Y3070000D03*
X6230000D03*
X6070000Y3700000D03*
Y3590000D03*
X6220000Y5520000D03*
X6308700Y6425570D03*
X6699260Y2603590D03*
X6753590Y3150740D03*
X6580000Y3150000D03*
X6753590Y3650740D03*
X6750000Y3330000D03*
Y3510000D03*
X6350000Y5400000D03*
X6808700Y6425570D03*
X7029060Y4299340D03*
Y4799340D03*
X7880000Y710000D03*
X7750000Y1080000D03*
Y780000D03*
X7880000Y1320000D03*
X7800000Y2020000D03*
X7529060Y4299340D03*
Y4799340D03*
G54D11*
X140000Y1355000D03*
Y2105000D03*
Y3135000D03*
Y3885000D03*
Y4905000D03*
Y5655000D03*
G54D20*
X6256400Y3830000D03*
X6053200D03*
X6256400Y4020000D03*
X6053200D03*
G54D30*
G01X392880Y779320D02*
X280680D01*
X280000Y780000D01*
G01X393800Y1230000D02*
X280000D01*
G01X4273800Y6860000D02*
Y6746200D01*
G01X7636200Y1080000D02*
X7750000D01*
G01Y780000D02*
X7636200D01*
G54D21*
X6340000Y4432000D03*
Y4686000D03*
X7306000Y2396000D03*
Y2904000D03*
X7558400Y2651600D03*
X7814000Y2396000D03*
Y2904000D03*
G54D12*
X340000Y1510000D03*
Y1950000D03*
Y3290000D03*
Y3730000D03*
Y5500000D03*
Y5060000D03*
G54D31*
G01X412880Y6143790D02*
X293790D01*
G01X392200Y780000D02*
X392880Y779320D01*
G01X7483800Y1395000D02*
X7224500D01*
G54D22*
X6340000Y4940000D03*
G54D13*
X897500Y600000D03*
Y6400000D03*
X1151500Y600000D03*
X1242000Y1979000D03*
X1369000Y1725000D03*
X1115000D03*
X1116000Y5021000D03*
X1370000D03*
X1243000Y5275000D03*
X1151500Y6400000D03*
X1968500Y600000D03*
X2004000Y1979000D03*
X1750000D03*
X1496000D03*
X1877000Y1725000D03*
X1623000D03*
X1624000Y5021000D03*
X1878000D03*
X1497000Y5275000D03*
X1751000D03*
X2005000D03*
X1968500Y6400000D03*
X2222500Y600000D03*
X2527500D03*
X2222500Y6400000D03*
X2781500Y600000D03*
X2872000Y1979000D03*
X2999000Y1725000D03*
X2745000D03*
X3598500Y600000D03*
X3634000Y1979000D03*
X3380000D03*
X3126000D03*
X3507000Y1725000D03*
X3253000D03*
X3852500Y600000D03*
X4157500D03*
X4411500D03*
X4502000Y1979000D03*
X4629000Y1725000D03*
X4375000D03*
X5228500Y600000D03*
X5264000Y1979000D03*
X5010000D03*
X4756000D03*
X5137000Y1725000D03*
X4883000D03*
X5787500Y600000D03*
X5482500D03*
X6041500D03*
X6132000Y1979000D03*
X6259000Y1725000D03*
X6005000D03*
X6858500Y600000D03*
X6894000Y1979000D03*
X6640000D03*
X6386000D03*
X6767000Y1725000D03*
X6513000D03*
X7112500Y600000D03*
G54D23*
X6230000Y5860000D03*
G54D14*
X392880Y930870D03*
X545280D03*
X392880Y779320D03*
X545280D03*
X393800Y1080000D03*
X546200D03*
X393800Y1230000D03*
X546200D03*
X412880Y5990000D03*
X565280D03*
X412880Y6143790D03*
X565280D03*
X3573800Y6860000D03*
X3726200D03*
X4426200D03*
X4273800D03*
X6288600Y2950000D03*
X6231000Y3490000D03*
X6078600D03*
X6231000Y3340000D03*
X6078600D03*
Y5402240D03*
X6231000D03*
X6441000Y2950000D03*
X6786200D03*
X6633800D03*
X7636200Y780000D03*
X7483800D03*
X7636200Y1080000D03*
X7483800D03*
X7636200Y930870D03*
X7483800D03*
X7636200Y1230000D03*
X7483800D03*
Y1395000D03*
X7636200D03*
G54D15*
X785500D03*
Y5605000D03*
X2334500Y1395000D03*
X2415500D03*
X2334500Y5605000D03*
X3964500Y1395000D03*
X4045500D03*
X5675500D03*
X5594500D03*
X6930000Y4626000D03*
Y5134000D03*
X7224500Y1395000D03*
G54D24*
X6500000Y3320000D03*
Y3490000D03*
Y3660000D03*
Y3830000D03*
Y4000000D03*
G54D16*
X2887500Y3202240D03*
Y3002240D03*
Y2802240D03*
Y3802240D03*
Y3602240D03*
Y3402240D03*
Y4402240D03*
Y4202240D03*
Y4002240D03*
Y4802240D03*
Y4602240D03*
Y5402240D03*
Y5202240D03*
Y5002240D03*
Y6002240D03*
Y5802240D03*
Y5602240D03*
Y6402240D03*
Y6202240D03*
Y6602240D03*
X5787500Y2802240D03*
Y3002240D03*
Y3202240D03*
Y3402240D03*
Y3602240D03*
Y3802240D03*
Y4002240D03*
Y4202240D03*
Y4402240D03*
Y4602240D03*
Y4802240D03*
Y5002240D03*
Y5202240D03*
Y5402240D03*
Y5602240D03*
Y5802240D03*
Y6002240D03*
Y6202240D03*
Y6402240D03*
Y6602240D03*
G54D25*
X6710000Y5580000D03*
Y6180000D03*
G54D17*
X3237500Y2692240D03*
X3437500D03*
X3637500D03*
X3837500D03*
X4037500D03*
X4237500D03*
X4437500D03*
X4637500D03*
X4837500D03*
X5037500D03*
X5237500D03*
X5437500D03*
G54D26*
X7427000Y3660000D03*
G54D27*
X7470000Y5795000D03*
G54D18*
X3880000Y6860000D03*
X4080000D03*
X4590000D03*
X4790000D03*
G54D28*
X7855000Y5894000D03*
Y5686000D03*
G54D19*
X6280000Y2800000D03*
G54D29*
G01X3852500Y600000D02*
X3617500Y365000D01*
X811360D01*
X720000Y456360D01*
Y610000D01*
X550680Y779320D01*
X545280D01*
G01X2781500Y600000D02*
X2591500Y410000D01*
X830000D01*
X765000Y475000D01*
Y715000D01*
X549130Y930870D01*
X545280D01*
G01X1151500Y600000D02*
X1031500Y720000D01*
X910000D01*
X550000Y1080000D01*
X546200D01*
G01X2222500Y600000D02*
X2052500Y770000D01*
X1000000D01*
X546200Y1223800D01*
Y1230000D01*
G01X340000Y1510000D02*
X530000Y1700000D01*
Y3520000D01*
X612240Y3602240D01*
X2887500D01*
G01X340000Y3290000D02*
Y3510000D01*
X520000Y3690000D01*
X2610000D01*
X2700000Y3780000D01*
Y4802240D01*
G01X340000Y5060000D02*
Y4810000D01*
X460000Y4690000D01*
X2630000D01*
G01X565280Y5990000D02*
X570000D01*
X690000Y6110000D01*
X1860000D01*
X1970000Y6220000D01*
Y6398500D01*
X1968500Y6400000D01*
G01X565280Y6143790D02*
X567050Y6145560D01*
X795560D01*
X900000Y6250000D01*
Y6397500D01*
X897500Y6400000D01*
G01X2887500Y3402240D02*
X2754640D01*
X2734320Y3381920D01*
Y3342880D01*
X2714000Y3322560D01*
X2265080D01*
X2160000Y3217480D01*
Y1640000D01*
X2070000Y1550000D01*
X1307480D01*
X1258500Y1598980D01*
Y1821180D01*
X1231460Y1848220D01*
X1205760Y1861080D01*
X1196660Y1888340D01*
X1242000Y1979000D01*
G01X2887500Y3202240D02*
X2754640D01*
X2734320Y3222560D01*
Y3261600D01*
X2714000Y3281920D01*
X2281920D01*
X2200640Y3200640D01*
Y1623160D01*
X2086840Y1509360D01*
X1290640D01*
X1217860Y1582140D01*
Y1804340D01*
X1207380Y1814820D01*
X1187580Y1824720D01*
X1187570D01*
X1160330Y1815650D01*
X1115000Y1725000D01*
G01X3837500Y2692240D02*
Y2559380D01*
X3817180Y2539060D01*
X3778140D01*
X3757820Y2518740D01*
Y2369660D01*
X3970640Y2156840D01*
Y1673160D01*
X3696840Y1399360D01*
X3033160D01*
X2847880Y1584640D01*
Y1794430D01*
X2817590Y1824720D01*
X2817570D01*
X2790330Y1815650D01*
X2745000Y1725000D01*
G01X3637500Y2692240D02*
Y2559380D01*
X3657820Y2539060D01*
X3696860D01*
X3717180Y2518740D01*
Y2352820D01*
X3930000Y2140000D01*
Y1690000D01*
X3680000Y1440000D01*
X3050000D01*
X2888520Y1601480D01*
Y1811270D01*
X2834430Y1865360D01*
X2834330D01*
X2826660Y1888340D01*
X2872000Y1979000D01*
G01X3437500Y2692240D02*
Y2559380D01*
X3417180Y2539060D01*
X3378140D01*
X3357820Y2518740D01*
Y2252180D01*
X3410000Y2200000D01*
X3667480D01*
X3810640Y2056840D01*
Y1733160D01*
X3596840Y1519360D01*
X3393160D01*
X3312520Y1600000D01*
X3124000D01*
X2999000Y1725000D01*
G01X2527130Y2960230D02*
X2564800Y2922560D01*
X2714000D01*
X2734320Y2942880D01*
Y2981920D01*
X2754640Y3002240D01*
X2887500D01*
G01X2527130Y2844260D02*
X2564790Y2881920D01*
X2714000D01*
X2734320Y2861600D01*
Y2822560D01*
X2754640Y2802240D01*
X2887500D01*
G01Y4602240D02*
X3690000D01*
G01X4790000Y6860000D02*
Y5140000D01*
X4652240Y5002240D01*
X2887500D01*
G01X3573800Y6860000D02*
X3580000Y6853800D01*
Y6500000D01*
X3482240Y6402240D01*
X2887500D01*
G01X3237500Y2692240D02*
Y2559380D01*
X3257820Y2539060D01*
X3296860D01*
X3317180Y2518740D01*
Y2235340D01*
X3393160Y2159360D01*
X3650640D01*
X3770000Y2040000D01*
Y1750000D01*
X3580000Y1560000D01*
X3410000D01*
X3370000Y1600000D01*
Y1969000D01*
X3380000Y1979000D01*
G01X3460000Y2972330D02*
X3497670Y3010000D01*
X5392520D01*
X5520600Y2881920D01*
X5614000D01*
X5634320Y2861600D01*
Y2822560D01*
X5654640Y2802240D01*
X5787500D01*
G01X3460000Y3088300D02*
X3497660Y3050640D01*
X5409360D01*
X5537440Y2922560D01*
X5614000D01*
X5634320Y2942880D01*
Y2981920D01*
X5654640Y3002240D01*
X5787500D01*
G01X3270000Y3244260D02*
X3307660Y3281920D01*
X5614000D01*
X5634320Y3261600D01*
Y3222560D01*
X5654640Y3202240D01*
X5787500D01*
G01X3270000Y3360230D02*
X3307670Y3322560D01*
X5614000D01*
X5634320Y3342880D01*
Y3381920D01*
X5654640Y3402240D01*
X5787500D01*
G01Y4802240D02*
X3110000D01*
G01Y4690000D02*
X5390000D01*
X5477760Y4602240D01*
X5787500D01*
G01Y4402240D02*
X3102240D01*
G01X4502000Y1979000D02*
X4456670Y1888350D01*
X4465770Y1861100D01*
X4470570Y1856300D01*
X4482610D01*
X4518520Y1820390D01*
Y1601040D01*
X4416840Y1499360D01*
X4253160D01*
X4117180Y1635340D01*
Y2518740D01*
X4096860Y2539060D01*
X4057820D01*
X4037500Y2559380D01*
Y2692240D01*
G01X3726200Y6860000D02*
X3880000D01*
G01X4411500Y600000D02*
X4641500Y830000D01*
X7080000D01*
X7480000Y1230000D01*
X7483800D01*
G01X4375000Y1725000D02*
X4420340Y1815660D01*
X4465770D01*
X4477880Y1803550D01*
Y1617880D01*
X4400000Y1540000D01*
X4270000D01*
X4157820Y1652180D01*
Y2518740D01*
X4178140Y2539060D01*
X4217180D01*
X4237500Y2559380D01*
Y2692240D01*
G01X5010000Y1979000D02*
X5010640Y1978360D01*
Y1590000D01*
X5040000Y1560640D01*
X5273160D01*
X5399360Y1686840D01*
Y2063160D01*
X5293160Y2169360D01*
X4623160D01*
X4517180Y2275340D01*
Y2518740D01*
X4496860Y2539060D01*
X4457820D01*
X4437500Y2559380D01*
Y2692240D01*
G01X4629000Y1725000D02*
X4764000Y1590000D01*
X4970000D01*
Y1573160D01*
X5023160Y1520000D01*
X5290000D01*
X5440000Y1670000D01*
Y2080000D01*
X5310000Y2210000D01*
X4640000D01*
X4557820Y2292180D01*
Y2518740D01*
X4578140Y2539060D01*
X4617180D01*
X4637500Y2559380D01*
Y2692240D01*
G01X4590000Y6860000D02*
X4426200D01*
G01X6259000Y1725000D02*
X6374000Y1610000D01*
X6579680D01*
X6600000Y1589680D01*
Y1510000D01*
X6580000Y1490000D01*
X5890000D01*
X5660000Y1720000D01*
Y2130000D01*
X5460000Y2330000D01*
X5020000D01*
X4957820Y2392180D01*
Y2518740D01*
X4978140Y2539060D01*
X5017180D01*
X5037500Y2559380D01*
Y2692240D01*
G01X6640000Y1979000D02*
X6640640Y1978360D01*
Y1493160D01*
X6596840Y1449360D01*
X5873160D01*
X5619360Y1703160D01*
Y2113160D01*
X5443160Y2289360D01*
X5003160D01*
X4917180Y2375340D01*
Y2518740D01*
X4896860Y2539060D01*
X4857820D01*
X4837500Y2559380D01*
Y2692240D01*
G01X5482500Y600000D02*
X5662500Y780000D01*
X7179180D01*
X7479180Y1080000D01*
X7483800D01*
G01X5437500Y2692240D02*
Y2559380D01*
X5417180Y2539060D01*
X5378140D01*
X5357820Y2518740D01*
Y2490000D01*
X5378140Y2469680D01*
X5550320D01*
X5840000Y2180000D01*
Y1697480D01*
X5927800Y1609680D01*
X6087560D01*
X6107880Y1630000D01*
Y1807320D01*
X6103300Y1811900D01*
X6077600Y1824740D01*
X6050340Y1815660D01*
X6005000Y1725000D01*
G01X5237500Y2692240D02*
Y2559380D01*
X5257820Y2539060D01*
X5296860D01*
X5317180Y2518740D01*
Y2473160D01*
X5361300Y2429040D01*
X5533480D01*
X5799360Y2163160D01*
Y1680640D01*
X5910960Y1569040D01*
X6104400D01*
X6148520Y1613160D01*
Y1824160D01*
X6127370Y1845310D01*
X6096760Y1860610D01*
X6095770Y1861100D01*
X6086670Y1888350D01*
X6132000Y1979000D01*
G01X5787500Y5802240D02*
X5600000D01*
G01X5787500Y5602240D02*
X5600000D01*
G01X5787500Y6002240D02*
X5600000D01*
G01X6041500Y600000D02*
X6171500Y730000D01*
X7280000D01*
X7480870Y930870D01*
X7483800D01*
G01X6441000Y2950000D02*
X6633800D01*
G01X6441000D02*
Y3291000D01*
X6470000Y3320000D01*
X6500000D01*
G01X7483800Y780000D02*
X7303800Y600000D01*
X7112500D01*
M02*
