G04 ================== begin FILE IDENTIFICATION RECORD ==================*
G04 Layout Name:  H:/MBED-TOOLS/HARDWARE/CP2105_TEST_V10A/PCB/CP2105_TEST_V10A.brd*
G04 Film Name:    Drill_Legend*
G04 File Format:  Gerber RS274X*
G04 File Origin:  Cadence Allegro 17.2-S058*
G04 Origin Date:  Sat Dec 21 10:24:47 2019*
G04 *
G04 Layer:  MANUFACTURING/NCLEGEND-1-2*
G04 Layer:  MANUFACTURING/NCDRILL_LEGEND*
G04 Layer:  MANUFACTURING/NCDRILL_FIGURE*
G04 Layer:  BOARD GEOMETRY/DIMENSION*
G04 *
G04 Offset:    (0.0000 0.0000)*
G04 Mirror:    No*
G04 Mode:      Positive*
G04 Rotation:  0*
G04 FullContactRelief:  No*
G04 UndefLineWidth:     0.1524*
G04 ================== end FILE IDENTIFICATION RECORD ====================*
%FSLAX55Y55*MOMM*%
%IR0*IPPOS*OFA0.00000B0.00000*MIA0B0*SFA1.00000B1.00000*%
%AMMACRO10*
1,1,.1524,1.15,0.0*
20,1,.1524,1.15,0.0,0.0,-1.15,0.0*
1,1,.1524,0.0,-1.15*
20,1,.1524,0.0,-1.15,-1.15,0.0,0.0*
1,1,.1524,-1.15,0.0*
20,1,.1524,-1.15,0.0,0.0,1.15,0.0*
1,1,.1524,0.0,1.15*
20,1,.1524,0.0,1.15,1.15,0.0,0.0*
1,1,.1524,1.15,0.0*
%
%ADD10MACRO10*%
%AMMACRO12*
1,1,.1524,.127,0.0*
20,1,.1524,.127,0.0,-.127,0.0,0.0*
1,1,.1524,-.127,0.0*
1,1,.1524,0.0,.127*
20,1,.1524,0.0,.127,0.0,-.127,0.0*
1,1,.1524,0.0,-.127*
%
%ADD12MACRO12*%
%AMMACRO15*
1,1,.1524,.1524,.1524*
20,1,.1524,.1524,.1524,.1524,-.1524,0.0*
1,1,.1524,.1524,-.1524*
20,1,.1524,.1524,-.1524,-.1524,-.1524,0.0*
1,1,.1524,-.1524,-.1524*
20,1,.1524,-.1524,-.1524,-.1524,.1524,0.0*
1,1,.1524,-.1524,.1524*
20,1,.1524,-.1524,.1524,.1524,.1524,0.0*
1,1,.1524,.1524,.1524*
%
%ADD15MACRO15*%
%AMMACRO13*
1,1,.1524,.4,0.0*
20,1,.1524,.4,0.0,.2,.34641,0.0*
1,1,.1524,.2,.34641*
20,1,.1524,.2,.34641,-.2,.34641,0.0*
1,1,.1524,-.2,.34641*
20,1,.1524,-.2,.34641,-.4,0.0,0.0*
1,1,.1524,-.4,0.0*
20,1,.1524,-.4,0.0,-.2,-.34641,0.0*
1,1,.1524,-.2,-.34641*
20,1,.1524,-.2,-.34641,.2,-.34641,0.0*
1,1,.1524,.2,-.34641*
20,1,.1524,.2,-.34641,.4,0.0,0.0*
1,1,.1524,.4,0.0*
%
%ADD13MACRO13*%
%AMMACRO11*
1,1,.1524,0.0,.45*
20,1,.1524,0.0,.45,-.389711,.225,0.0*
1,1,.1524,-.389711,.225*
20,1,.1524,-.389711,.225,-.389711,-.225,0.0*
1,1,.1524,-.389711,-.225*
20,1,.1524,-.389711,-.225,0.0,-.45,0.0*
1,1,.1524,0.0,-.45*
20,1,.1524,0.0,-.45,.389711,-.225,0.0*
1,1,.1524,.389711,-.225*
20,1,.1524,.389711,-.225,.389711,.225,0.0*
1,1,.1524,.389711,.225*
20,1,.1524,.389711,.225,0.0,.45,0.0*
1,1,.1524,0.0,.45*
%
%ADD11MACRO11*%
%AMMACRO14*
1,1,.1524,.227817,-.55*
20,1,.1524,.227817,-.55,-.227817,-.55,0.0*
1,1,.1524,-.227817,-.55*
20,1,.1524,-.227817,-.55,-.55,-.227817,0.0*
1,1,.1524,-.55,-.227817*
20,1,.1524,-.55,-.227817,-.55,.227817,0.0*
1,1,.1524,-.55,.227817*
20,1,.1524,-.55,.227817,-.227817,.55,0.0*
1,1,.1524,-.227817,.55*
20,1,.1524,-.227817,.55,.227817,.55,0.0*
1,1,.1524,.227817,.55*
20,1,.1524,.227817,.55,.55,.227817,0.0*
1,1,.1524,.55,.227817*
20,1,.1524,.55,.227817,.55,-.227817,0.0*
1,1,.1524,.55,-.227817*
20,1,.1524,.55,-.227817,.227817,-.55,0.0*
1,1,.1524,.227817,-.55*
%
%ADD14MACRO14*%
%ADD16C,.1524*%
G75*
%LPD*%
G75*
G54D10*
X280000Y200000D03*
X839000Y198000D03*
X280000Y1400000D03*
X839000Y1402000D03*
X4811730Y-12500D03*
G54D11*
X550000Y450000D03*
Y700000D03*
Y900000D03*
Y1150000D03*
X4811730Y1257500D03*
G54D12*
X540000Y70000D03*
X100000Y460000D03*
Y840000D03*
X90000Y1170000D03*
X1500000Y60000D03*
X1100000D03*
X880000Y470000D03*
X1330000D03*
X880000Y780000D03*
X1740000Y1230000D03*
X860000Y1090000D03*
X1340000D03*
X1500000Y900000D03*
X1080000Y1330000D03*
X1480000Y1340000D03*
X1540000Y1540000D03*
X1740000D03*
X1950000Y1130000D03*
X1830000Y1089200D03*
X1750000Y880000D03*
X2890000Y80000D03*
X2680000D03*
X2090000Y480000D03*
X2160000Y390000D03*
X2090000Y800000D03*
Y730000D03*
X2380000Y440000D03*
X2270000D03*
X2540000Y1350000D03*
X2900000Y1500000D03*
X2040000Y1540000D03*
X2215000Y870000D03*
X2430000Y880000D03*
X2530000Y1255000D03*
X4811730Y3162500D03*
G54D13*
X1110000Y675000D03*
X1310000D03*
Y925000D03*
X1110000D03*
X4811730Y1892500D03*
G54D14*
X1710000Y200000D03*
X1964000D03*
X2472000D03*
X2218000D03*
X2800000Y500000D03*
Y754000D03*
Y1262000D03*
Y1008000D03*
X4811730Y622500D03*
G54D15*
X2330000Y1230000D03*
Y1310000D03*
X2240000D03*
Y1230000D03*
X4811730Y2527500D03*
G54D16*
G01X-1825250Y734750D02*
Y925250D01*
X-1853700Y887150D01*
G01Y734750D02*
X-1796810D01*
G01X-1679790Y814120D02*
X-1663200Y836350D01*
X-1648970Y849050D01*
X-1630010Y855400D01*
X-1613410Y849050D01*
X-1601560Y836350D01*
X-1592080Y817300D01*
X-1589710Y795070D01*
X-1592080Y776020D01*
X-1601560Y756970D01*
X-1615790Y741100D01*
X-1632380Y734750D01*
X-1651340Y741100D01*
X-1667940Y760140D01*
X-1677420Y788730D01*
X-1679790Y820470D01*
X-1675050Y861750D01*
X-1667940Y883980D01*
X-1656090Y906200D01*
X-1639490Y922080D01*
X-1622900Y925250D01*
X-1606300Y918900D01*
X-1594450Y903020D01*
G01X1252600Y-467150D02*
X1266820Y-489380D01*
X1285780Y-502080D01*
X1307120Y-505250D01*
X1326090Y-502080D01*
X1345050Y-486200D01*
X1356900Y-467150D01*
X1359270Y-448100D01*
X1354530Y-425880D01*
X1337940Y-410000D01*
X1321340Y-403650D01*
X1300010D01*
G01X1321340D02*
X1335570Y-394130D01*
X1347420Y-378250D01*
X1352160Y-359200D01*
X1347420Y-340150D01*
X1335570Y-324280D01*
X1314230Y-314750D01*
X1292900Y-317920D01*
X1271560Y-330630D01*
G01X1495250Y-314750D02*
X1476280Y-321100D01*
X1462060Y-336980D01*
X1452580Y-356020D01*
X1445470Y-381430D01*
X1443100Y-410000D01*
X1445470Y-438580D01*
X1452580Y-463980D01*
X1462060Y-483030D01*
X1476280Y-498900D01*
X1495250Y-505250D01*
X1514210Y-498900D01*
X1528440Y-483030D01*
X1537920Y-463980D01*
X1545030Y-438580D01*
X1547400Y-410000D01*
X1545030Y-381430D01*
X1537920Y-356020D01*
X1528440Y-336980D01*
X1514210Y-321100D01*
X1495250Y-314750D01*
G01X3949520Y3638750D02*
Y3956250D01*
X4099140D01*
G01X4044010Y3802800D02*
X3949520D01*
G01X4292050Y3956250D02*
X4386530D01*
G01X4339290D02*
Y3638750D01*
G01X4292050D02*
X4386530D01*
G01X4677870Y3797500D02*
X4756620D01*
Y3702250D01*
X4732990Y3670490D01*
X4705430Y3649330D01*
X4666060Y3638750D01*
X4626690Y3649330D01*
X4599130Y3670490D01*
X4575510Y3702250D01*
X4559760Y3739290D01*
X4551880Y3781620D01*
Y3818670D01*
X4559760Y3850410D01*
X4575510Y3887460D01*
X4599130Y3919210D01*
X4622750Y3940370D01*
X4654250Y3956250D01*
X4681810D01*
X4713300Y3945670D01*
X4736930Y3924500D01*
G01X4882600Y3956250D02*
Y3728710D01*
X4898340Y3681070D01*
X4929840Y3649330D01*
X4969210Y3638750D01*
X5008580Y3649330D01*
X5040080Y3681070D01*
X5055820Y3728710D01*
Y3956250D01*
G01X5205430Y3638750D02*
Y3956250D01*
X5303850D01*
X5335350Y3940370D01*
X5355040Y3919210D01*
X5362910Y3876870D01*
X5355040Y3834540D01*
X5331410Y3808090D01*
X5303850Y3792200D01*
X5205430D01*
G01X5303850D02*
X5362910Y3638750D01*
G01X5677870D02*
X5520390D01*
Y3956250D01*
X5677870D01*
G01X5614880Y3802800D02*
X5520390D01*
G01X5618810Y4273750D02*
X5717240Y4591250D01*
X5815670Y4273750D01*
G01X5780230Y4384870D02*
X5654240D01*
G01X5953460Y4591250D02*
Y4273750D01*
X6110940D01*
G01X6268420Y4591250D02*
Y4273750D01*
X6425900D01*
G01X6890470Y4591250D02*
Y4363710D01*
X6906210Y4316070D01*
X6937710Y4284330D01*
X6977080Y4273750D01*
X7016450Y4284330D01*
X7047950Y4316070D01*
X7063690Y4363710D01*
Y4591250D01*
G01X7201490Y4273750D02*
Y4591250D01*
X7382590Y4273750D01*
Y4591250D01*
G01X7559760D02*
X7654240D01*
G01X7607000D02*
Y4273750D01*
G01X7559760D02*
X7654240D01*
G01X7921960Y4591250D02*
Y4273750D01*
G01X7831410Y4591250D02*
X8012510D01*
G01X8154240Y4316070D02*
X8185740Y4289620D01*
X8221170Y4273750D01*
X8252670D01*
X8284160Y4289620D01*
X8307790Y4316070D01*
X8319600Y4353130D01*
X8311730Y4390160D01*
X8292040Y4421910D01*
X8256600Y4443090D01*
X8209360Y4453670D01*
X8181800Y4474830D01*
X8169990Y4511870D01*
X8177870Y4548920D01*
X8197550Y4575370D01*
X8225110Y4591250D01*
X8252670D01*
X8280230Y4580670D01*
X8303850Y4554210D01*
G01X8768410Y4273750D02*
X8866840Y4591250D01*
X8965270Y4273750D01*
G01X8929830Y4384870D02*
X8803840D01*
G01X9103060Y4273750D02*
Y4591250D01*
X9201480D01*
X9232980Y4575370D01*
X9252670Y4554210D01*
X9260540Y4511870D01*
X9252670Y4469540D01*
X9229040Y4443090D01*
X9201480Y4427200D01*
X9103060D01*
G01X9201480D02*
X9260540Y4273750D01*
G01X9575500D02*
X9418020D01*
Y4591250D01*
X9575500D01*
G01X9512510Y4437800D02*
X9418020D01*
G01X10079440Y4591250D02*
X10173920D01*
G01X10126680D02*
Y4273750D01*
G01X10079440D02*
X10173920D01*
G01X10351090D02*
Y4591250D01*
X10532190Y4273750D01*
Y4591250D01*
G01X10969190Y4273750D02*
Y4591250D01*
X11071560Y4326670D01*
X11173930Y4591250D01*
Y4273750D01*
G01X11339280Y4591250D02*
X11433760D01*
G01X11386520D02*
Y4273750D01*
G01X11339280D02*
X11433760D01*
G01X11622740Y4591250D02*
Y4273750D01*
X11780220D01*
G01X11937700Y4591250D02*
Y4273750D01*
X12095180D01*
G01X12284160Y4591250D02*
X12378640D01*
G01X12331400D02*
Y4273750D01*
G01X12284160D02*
X12378640D01*
G01X12543990D02*
Y4591250D01*
X12646360Y4326670D01*
X12748730Y4591250D01*
Y4273750D01*
G01X13040060D02*
X12882580D01*
Y4591250D01*
X13040060D01*
G01X12977070Y4437800D02*
X12882580D01*
G01X13276280Y4591250D02*
Y4273750D01*
G01X13185730Y4591250D02*
X13366830D01*
G01X13669980Y4273750D02*
X13512500D01*
Y4591250D01*
X13669980D01*
G01X13606990Y4437800D02*
X13512500D01*
G01X13827460Y4273750D02*
Y4591250D01*
X13925880D01*
X13957380Y4575370D01*
X13977070Y4554210D01*
X13984940Y4511870D01*
X13977070Y4469540D01*
X13953440Y4443090D01*
X13925880Y4427200D01*
X13827460D01*
G01X13925880D02*
X13984940Y4273750D01*
G01X14138480Y4316070D02*
X14169980Y4289620D01*
X14205410Y4273750D01*
X14236910D01*
X14268400Y4289620D01*
X14292030Y4316070D01*
X14303840Y4353130D01*
X14295970Y4390160D01*
X14276280Y4421910D01*
X14240840Y4443090D01*
X14193600Y4453670D01*
X14166040Y4474830D01*
X14154230Y4511870D01*
X14162110Y4548920D01*
X14181790Y4575370D01*
X14209350Y4591250D01*
X14236910D01*
X14264470Y4580670D01*
X14288090Y4554210D01*
G01X6547940Y3638750D02*
Y3956250D01*
X6697560D01*
G01X6642430Y3802800D02*
X6547940D01*
G01X6890470Y3956250D02*
X6984950D01*
G01X6937710D02*
Y3638750D01*
G01X6890470D02*
X6984950D01*
G01X7162120D02*
Y3956250D01*
X7343220Y3638750D01*
Y3956250D01*
G01X7520390D02*
X7614870D01*
G01X7567630D02*
Y3638750D01*
G01X7520390D02*
X7614870D01*
G01X7799910Y3681070D02*
X7831410Y3654620D01*
X7866840Y3638750D01*
X7898340D01*
X7929830Y3654620D01*
X7953460Y3681070D01*
X7965270Y3718130D01*
X7957400Y3755160D01*
X7937710Y3786910D01*
X7902270Y3808090D01*
X7855030Y3818670D01*
X7827470Y3839830D01*
X7815660Y3876870D01*
X7823540Y3913920D01*
X7843220Y3940370D01*
X7870780Y3956250D01*
X7898340D01*
X7925900Y3945670D01*
X7949520Y3919210D01*
G01X8114870Y3638750D02*
Y3956250D01*
G01X8280230D02*
Y3638750D01*
G01Y3797500D02*
X8114870D01*
G01X8591250Y3638750D02*
X8433770D01*
Y3956250D01*
X8591250D01*
G01X8528260Y3802800D02*
X8433770D01*
G01X8740860Y3638750D02*
Y3956250D01*
X8819590D01*
X8851090Y3940370D01*
X8874710Y3919210D01*
X8894400Y3887460D01*
X8910150Y3850410D01*
X8914080Y3797500D01*
X8910150Y3744580D01*
X8894400Y3707540D01*
X8874710Y3675780D01*
X8851090Y3654620D01*
X8819590Y3638750D01*
X8740860D01*
G01X9024320Y3532920D02*
X9260540D01*
G01X9374710Y3681070D02*
X9406210Y3654620D01*
X9441640Y3638750D01*
X9473140D01*
X9504630Y3654620D01*
X9528260Y3681070D01*
X9540070Y3718130D01*
X9532200Y3755160D01*
X9512510Y3786910D01*
X9477070Y3808090D01*
X9429830Y3818670D01*
X9402270Y3839830D01*
X9390460Y3876870D01*
X9398340Y3913920D01*
X9418020Y3940370D01*
X9445580Y3956250D01*
X9473140D01*
X9500700Y3945670D01*
X9524320Y3919210D01*
G01X9725110Y3956250D02*
X9819590D01*
G01X9772350D02*
Y3638750D01*
G01X9725110D02*
X9819590D01*
G01X10012500Y3956250D02*
X10162120D01*
X10012500Y3638750D01*
X10162120D01*
G01X10481010D02*
X10323530D01*
Y3956250D01*
X10481010D01*
G01X10418020Y3802800D02*
X10323530D01*
G01X5945590Y4923750D02*
Y5241250D01*
X6024320D01*
X6055820Y5225370D01*
X6079440Y5204210D01*
X6099130Y5172460D01*
X6114880Y5135410D01*
X6118810Y5082500D01*
X6114880Y5029580D01*
X6099130Y4992540D01*
X6079440Y4960780D01*
X6055820Y4939620D01*
X6024320Y4923750D01*
X5945590D01*
G01X6268420D02*
Y5241250D01*
X6366840D01*
X6398340Y5225370D01*
X6418030Y5204210D01*
X6425900Y5161870D01*
X6418030Y5119540D01*
X6394400Y5093090D01*
X6366840Y5077200D01*
X6268420D01*
G01X6366840D02*
X6425900Y4923750D01*
G01X6614880Y5241250D02*
X6709360D01*
G01X6662120D02*
Y4923750D01*
G01X6614880D02*
X6709360D01*
G01X6898340Y5241250D02*
Y4923750D01*
X7055820D01*
G01X7213300Y5241250D02*
Y4923750D01*
X7370780D01*
G01X8008570Y5214790D02*
X7984950Y5230670D01*
X7957400Y5241250D01*
X7925900D01*
X7890460Y5225370D01*
X7862910Y5198920D01*
X7843220Y5167160D01*
X7827470Y5114250D01*
X7823530Y5066620D01*
X7831410Y5019000D01*
X7843220Y4987250D01*
X7866840Y4955490D01*
X7894400Y4934330D01*
X7921960Y4923750D01*
X7949520D01*
X7977080Y4934330D01*
X8000700Y4950200D01*
X8020390Y4971360D01*
G01X8154240Y4923750D02*
Y5241250D01*
G01X8319600D02*
Y4923750D01*
G01Y5082500D02*
X8154240D01*
G01X8453450Y4923750D02*
X8551880Y5241250D01*
X8650310Y4923750D01*
G01X8614870Y5034870D02*
X8488880D01*
G01X8788100Y4923750D02*
Y5241250D01*
X8886520D01*
X8918020Y5225370D01*
X8937710Y5204210D01*
X8945580Y5161870D01*
X8937710Y5119540D01*
X8914080Y5093090D01*
X8886520Y5077200D01*
X8788100D01*
G01X8886520D02*
X8945580Y4923750D01*
G01X9181800Y5241250D02*
Y4923750D01*
G01X9091250Y5241250D02*
X9272350D01*
G01X9496760Y4913170D02*
X9488880Y4918460D01*
Y4929040D01*
X9496760Y4934330D01*
X9504640Y4929040D01*
Y4918460D01*
X9496760Y4913170D01*
G01Y5056030D02*
X9488880Y5061330D01*
Y5071910D01*
X9496760Y5077200D01*
X9504640Y5071910D01*
Y5061330D01*
X9496760Y5056030D01*
G01X10126680Y5241250D02*
Y4923750D01*
G01X10036130Y5241250D02*
X10217230D01*
G01X10441640Y4923750D02*
X10410140Y4929040D01*
X10382590Y4950200D01*
X10358960Y4981960D01*
X10343210Y5019000D01*
X10335340Y5061330D01*
Y5103670D01*
X10343210Y5146000D01*
X10358960Y5183040D01*
X10382590Y5214790D01*
X10410140Y5235960D01*
X10441640Y5241250D01*
X10473130Y5235960D01*
X10500690Y5214790D01*
X10524320Y5183040D01*
X10540070Y5146000D01*
X10547940Y5103670D01*
Y5061330D01*
X10540070Y5019000D01*
X10524320Y4981960D01*
X10500690Y4950200D01*
X10473130Y4929040D01*
X10441640Y4923750D01*
G01X10677860D02*
Y5241250D01*
X10772350D01*
X10803840Y5225370D01*
X10827470Y5188330D01*
X10835340Y5146000D01*
X10827470Y5103670D01*
X10807780Y5071910D01*
X10772350Y5056030D01*
X10677860D01*
G01X11386520Y5241250D02*
Y4923750D01*
G01X11331400Y5135410D02*
X11441640D01*
G01X11701480Y4923750D02*
X11677860Y4929040D01*
X11654240Y4950200D01*
X11638480Y4987250D01*
X11630610Y5029580D01*
X11638480Y5071910D01*
X11654240Y5108960D01*
X11677860Y5130120D01*
X11701480Y5135410D01*
X11725100Y5130120D01*
X11748720Y5108960D01*
X11764470Y5071910D01*
X11768410Y5029580D01*
X11764470Y4987250D01*
X11748720Y4950200D01*
X11725100Y4929040D01*
X11701480Y4923750D01*
G01X12362890Y5093090D02*
X12378640Y5108960D01*
X12390450Y5135410D01*
X12398330Y5172460D01*
X12390450Y5204210D01*
X12374710Y5225370D01*
X12347150Y5241250D01*
X12240850D01*
Y4923750D01*
X12370770D01*
X12398330Y4944910D01*
X12414080Y4976670D01*
X12421950Y5013710D01*
X12414080Y5050740D01*
X12390450Y5082500D01*
X12362890Y5093090D01*
X12240850D01*
G01X12646360Y4923750D02*
X12614860Y4929040D01*
X12587310Y4950200D01*
X12563680Y4981960D01*
X12547930Y5019000D01*
X12540060Y5061330D01*
Y5103670D01*
X12547930Y5146000D01*
X12563680Y5183040D01*
X12587310Y5214790D01*
X12614860Y5235960D01*
X12646360Y5241250D01*
X12677850Y5235960D01*
X12705410Y5214790D01*
X12729040Y5183040D01*
X12744790Y5146000D01*
X12752660Y5103670D01*
Y5061330D01*
X12744790Y5019000D01*
X12729040Y4981960D01*
X12705410Y4950200D01*
X12677850Y4929040D01*
X12646360Y4923750D01*
G01X12961320Y5241250D02*
Y4923750D01*
G01X12870770Y5241250D02*
X13051870D01*
G01X13276280D02*
Y4923750D01*
G01X13185730Y5241250D02*
X13366830D01*
G01X13591240Y4923750D02*
X13559740Y4929040D01*
X13532190Y4950200D01*
X13508560Y4981960D01*
X13492810Y5019000D01*
X13484940Y5061330D01*
Y5103670D01*
X13492810Y5146000D01*
X13508560Y5183040D01*
X13532190Y5214790D01*
X13559740Y5235960D01*
X13591240Y5241250D01*
X13622730Y5235960D01*
X13650290Y5214790D01*
X13673920Y5183040D01*
X13689670Y5146000D01*
X13697540Y5103670D01*
Y5061330D01*
X13689670Y5019000D01*
X13673920Y4981960D01*
X13650290Y4950200D01*
X13622730Y4929040D01*
X13591240Y4923750D01*
G01X13803830D02*
Y5241250D01*
X13906200Y4976670D01*
X14008570Y5241250D01*
Y4923750D01*
G01X7882590Y3321250D02*
X7851090Y3310670D01*
X7827470Y3284210D01*
X7811720Y3252460D01*
X7799910Y3210120D01*
X7795980Y3162500D01*
X7799910Y3114870D01*
X7811720Y3072540D01*
X7827470Y3040780D01*
X7851090Y3014330D01*
X7882590Y3003750D01*
X7914080Y3014330D01*
X7937710Y3040780D01*
X7953460Y3072540D01*
X7965270Y3114870D01*
X7969200Y3162500D01*
X7965270Y3210120D01*
X7953460Y3252460D01*
X7937710Y3284210D01*
X7914080Y3310670D01*
X7882590Y3321250D01*
G01X8197550Y2993170D02*
X8189670Y2998460D01*
Y3009040D01*
X8197550Y3014330D01*
X8205430Y3009040D01*
Y2998460D01*
X8197550Y2993170D01*
G01X8437700Y3268330D02*
X8461330Y3300080D01*
X8488890Y3315960D01*
X8520390Y3321250D01*
X8559750Y3310670D01*
X8587320Y3284210D01*
X8595190Y3252460D01*
X8591250Y3220700D01*
X8575500Y3194250D01*
X8496760Y3141330D01*
X8461330Y3104290D01*
X8437700Y3051360D01*
X8429830Y3003750D01*
X8595190D01*
G01X8740860Y3051360D02*
X8764470Y3024910D01*
X8792030Y3009040D01*
X8827470Y3003750D01*
X8862910Y3014330D01*
X8890460Y3035490D01*
X8910150Y3072540D01*
X8914080Y3114870D01*
X8906210Y3157200D01*
X8886520Y3183670D01*
X8858960Y3204830D01*
X8831410Y3210120D01*
X8803850Y3204830D01*
X8768420Y3183670D01*
X8780230Y3321250D01*
X8886520D01*
G01X9189670Y3003750D02*
Y3321250D01*
X9044000Y3093710D01*
X9240860D01*
G01X7725110Y2686250D02*
X7693610Y2675670D01*
X7669990Y2649210D01*
X7654240Y2617460D01*
X7642430Y2575120D01*
X7638500Y2527500D01*
X7642430Y2479870D01*
X7654240Y2437540D01*
X7669990Y2405780D01*
X7693610Y2379330D01*
X7725110Y2368750D01*
X7756600Y2379330D01*
X7780230Y2405780D01*
X7795980Y2437540D01*
X7807790Y2479870D01*
X7811720Y2527500D01*
X7807790Y2575120D01*
X7795980Y2617460D01*
X7780230Y2649210D01*
X7756600Y2675670D01*
X7725110Y2686250D01*
G01X8040070Y2358170D02*
X8032190Y2363460D01*
Y2374040D01*
X8040070Y2379330D01*
X8047950Y2374040D01*
Y2363460D01*
X8040070Y2358170D01*
G01X8268420Y2432250D02*
X8292030Y2395200D01*
X8323530Y2374040D01*
X8358970Y2368750D01*
X8390470Y2374040D01*
X8421960Y2400490D01*
X8441640Y2432250D01*
X8445580Y2464000D01*
X8437710Y2501030D01*
X8410150Y2527500D01*
X8382590Y2538090D01*
X8347150D01*
G01X8382590D02*
X8406210Y2553960D01*
X8425900Y2580410D01*
X8433770Y2612160D01*
X8425900Y2643920D01*
X8406210Y2670370D01*
X8370780Y2686250D01*
X8335350Y2680960D01*
X8299910Y2659790D01*
G01X8669990Y2686250D02*
X8638490Y2675670D01*
X8614870Y2649210D01*
X8599120Y2617460D01*
X8587310Y2575120D01*
X8583380Y2527500D01*
X8587310Y2479870D01*
X8599120Y2437540D01*
X8614870Y2405780D01*
X8638490Y2379330D01*
X8669990Y2368750D01*
X8701480Y2379330D01*
X8725110Y2405780D01*
X8740860Y2437540D01*
X8752670Y2479870D01*
X8756600Y2527500D01*
X8752670Y2575120D01*
X8740860Y2617460D01*
X8725110Y2649210D01*
X8701480Y2675670D01*
X8669990Y2686250D01*
G01X9032190Y2368750D02*
Y2686250D01*
X8886520Y2458710D01*
X9083380D01*
G01X9299910Y2368750D02*
X9327470Y2374040D01*
X9358960Y2389910D01*
X9378650Y2416360D01*
X9386520Y2453420D01*
X9378650Y2490450D01*
X9355030Y2522200D01*
X9319590Y2538090D01*
X9280230D01*
X9256600Y2548670D01*
X9236910Y2575120D01*
X9229040Y2612160D01*
X9240860Y2649210D01*
X9268410Y2675670D01*
X9299910Y2686250D01*
X9331400Y2675670D01*
X9358960Y2649210D01*
X9370780Y2612160D01*
X9362900Y2575120D01*
X9343220Y2548670D01*
X9319590Y2538090D01*
X9280230D01*
X9244790Y2522200D01*
X9221170Y2490450D01*
X9213300Y2453420D01*
X9221170Y2416360D01*
X9240860Y2389910D01*
X9272350Y2374040D01*
X9299910Y2368750D01*
G01X8197550Y463750D02*
Y781250D01*
X8150310Y717750D01*
G01Y463750D02*
X8244790D01*
G01X8512510Y453170D02*
X8504630Y458460D01*
Y469040D01*
X8512510Y474330D01*
X8520390Y469040D01*
Y458460D01*
X8512510Y453170D01*
G01X8827470Y463750D02*
Y781250D01*
X8780230Y717750D01*
G01Y463750D02*
X8874710D01*
G01X8122740Y93330D02*
X8146370Y125080D01*
X8173930Y140960D01*
X8205430Y146250D01*
X8244790Y135670D01*
X8272360Y109210D01*
X8280230Y77460D01*
X8276290Y45700D01*
X8260540Y19250D01*
X8181800Y-33670D01*
X8146370Y-70710D01*
X8122740Y-123640D01*
X8114870Y-171250D01*
X8280230D01*
G01X8512510Y-181830D02*
X8504630Y-176540D01*
Y-165960D01*
X8512510Y-160670D01*
X8520390Y-165960D01*
Y-176540D01*
X8512510Y-181830D01*
G01X8740860Y-107750D02*
X8764470Y-144800D01*
X8795970Y-165960D01*
X8831410Y-171250D01*
X8862910Y-165960D01*
X8894400Y-139510D01*
X8914080Y-107750D01*
X8918020Y-76000D01*
X8910150Y-38970D01*
X8882590Y-12500D01*
X8855030Y-1910D01*
X8819590D01*
G01X8855030D02*
X8878650Y13960D01*
X8898340Y40410D01*
X8906210Y72160D01*
X8898340Y103920D01*
X8878650Y130370D01*
X8843220Y146250D01*
X8807790Y140960D01*
X8772350Y119790D01*
G01X8197550Y2051250D02*
X8166050Y2040670D01*
X8142430Y2014210D01*
X8126680Y1982460D01*
X8114870Y1940120D01*
X8110940Y1892500D01*
X8114870Y1844870D01*
X8126680Y1802540D01*
X8142430Y1770780D01*
X8166050Y1744330D01*
X8197550Y1733750D01*
X8229040Y1744330D01*
X8252670Y1770780D01*
X8268420Y1802540D01*
X8280230Y1844870D01*
X8284160Y1892500D01*
X8280230Y1940120D01*
X8268420Y1982460D01*
X8252670Y2014210D01*
X8229040Y2040670D01*
X8197550Y2051250D01*
G01X8512510Y1723170D02*
X8504630Y1728460D01*
Y1739040D01*
X8512510Y1744330D01*
X8520390Y1739040D01*
Y1728460D01*
X8512510Y1723170D01*
G01X8827470Y1733750D02*
X8855030Y1739040D01*
X8886520Y1754910D01*
X8906210Y1781360D01*
X8914080Y1818420D01*
X8906210Y1855450D01*
X8882590Y1887200D01*
X8847150Y1903090D01*
X8807790D01*
X8784160Y1913670D01*
X8764470Y1940120D01*
X8756600Y1977160D01*
X8768420Y2014210D01*
X8795970Y2040670D01*
X8827470Y2051250D01*
X8858960Y2040670D01*
X8886520Y2014210D01*
X8898340Y1977160D01*
X8890460Y1940120D01*
X8870780Y1913670D01*
X8847150Y1903090D01*
X8807790D01*
X8772350Y1887200D01*
X8748730Y1855450D01*
X8740860Y1818420D01*
X8748730Y1781360D01*
X8768420Y1754910D01*
X8799910Y1739040D01*
X8827470Y1733750D01*
G01X8197550Y1416250D02*
X8166050Y1405670D01*
X8142430Y1379210D01*
X8126680Y1347460D01*
X8114870Y1305120D01*
X8110940Y1257500D01*
X8114870Y1209870D01*
X8126680Y1167540D01*
X8142430Y1135780D01*
X8166050Y1109330D01*
X8197550Y1098750D01*
X8229040Y1109330D01*
X8252670Y1135780D01*
X8268420Y1167540D01*
X8280230Y1209870D01*
X8284160Y1257500D01*
X8280230Y1305120D01*
X8268420Y1347460D01*
X8252670Y1379210D01*
X8229040Y1405670D01*
X8197550Y1416250D01*
G01X8512510Y1088170D02*
X8504630Y1093460D01*
Y1104040D01*
X8512510Y1109330D01*
X8520390Y1104040D01*
Y1093460D01*
X8512510Y1088170D01*
G01X8760540Y1135780D02*
X8788100Y1109330D01*
X8819590Y1098750D01*
X8851090Y1109330D01*
X8878650Y1141070D01*
X8898340Y1188710D01*
X8906210Y1236330D01*
Y1294540D01*
X8898340Y1342160D01*
X8878650Y1384500D01*
X8855030Y1405670D01*
X8827470Y1416250D01*
X8795970Y1405670D01*
X8772350Y1384500D01*
X8756600Y1352750D01*
X8748730Y1310410D01*
X8756600Y1273380D01*
X8776290Y1236330D01*
X8799910Y1215160D01*
X8827470Y1209870D01*
X8858960Y1220450D01*
X8882590Y1246910D01*
X8906210Y1294540D01*
G01X10399730Y-488750D02*
Y-806250D01*
G01X10309180Y-488750D02*
X10490280D01*
G01X10714690Y-806250D02*
X10683190Y-800960D01*
X10655640Y-779800D01*
X10632010Y-748040D01*
X10616260Y-711000D01*
X10608390Y-668670D01*
Y-626330D01*
X10616260Y-584000D01*
X10632010Y-546960D01*
X10655640Y-515210D01*
X10683190Y-494040D01*
X10714690Y-488750D01*
X10746180Y-494040D01*
X10773740Y-515210D01*
X10797370Y-546960D01*
X10813120Y-584000D01*
X10820990Y-626330D01*
Y-668670D01*
X10813120Y-711000D01*
X10797370Y-748040D01*
X10773740Y-779800D01*
X10746180Y-800960D01*
X10714690Y-806250D01*
G01X11029650Y-488750D02*
Y-806250D01*
G01X10939100Y-488750D02*
X11120200D01*
G01X11246180Y-806250D02*
X11344610Y-488750D01*
X11443040Y-806250D01*
G01X11407600Y-695130D02*
X11281610D01*
G01X11580830Y-488750D02*
Y-806250D01*
X11738310D01*
G01X12206810D02*
Y-488750D01*
G01X12372170D02*
Y-806250D01*
G01Y-647500D02*
X12206810D01*
G01X12604450Y-806250D02*
X12572950Y-800960D01*
X12545400Y-779800D01*
X12521770Y-748040D01*
X12506020Y-711000D01*
X12498150Y-668670D01*
Y-626330D01*
X12506020Y-584000D01*
X12521770Y-546960D01*
X12545400Y-515210D01*
X12572950Y-494040D01*
X12604450Y-488750D01*
X12635940Y-494040D01*
X12663500Y-515210D01*
X12687130Y-546960D01*
X12702880Y-584000D01*
X12710750Y-626330D01*
Y-668670D01*
X12702880Y-711000D01*
X12687130Y-748040D01*
X12663500Y-779800D01*
X12635940Y-800960D01*
X12604450Y-806250D01*
G01X12840670Y-488750D02*
Y-806250D01*
X12998150D01*
G01X13313110D02*
X13155630D01*
Y-488750D01*
X13313110D01*
G01X13250120Y-642200D02*
X13155630D01*
G01X13466650Y-763930D02*
X13498150Y-790380D01*
X13533580Y-806250D01*
X13565080D01*
X13596570Y-790380D01*
X13620200Y-763930D01*
X13632010Y-726870D01*
X13624140Y-689840D01*
X13604450Y-658090D01*
X13569010Y-636910D01*
X13521770Y-626330D01*
X13494210Y-605170D01*
X13482400Y-568130D01*
X13490280Y-531080D01*
X13509960Y-504630D01*
X13537520Y-488750D01*
X13565080D01*
X13592640Y-499330D01*
X13616260Y-525790D01*
G01X13864290Y-816830D02*
X13856410Y-811540D01*
Y-800960D01*
X13864290Y-795670D01*
X13872170Y-800960D01*
Y-811540D01*
X13864290Y-816830D01*
G01Y-673970D02*
X13856410Y-668670D01*
Y-658090D01*
X13864290Y-652800D01*
X13872170Y-658090D01*
Y-668670D01*
X13864290Y-673970D01*
G01X11819590Y463750D02*
Y781250D01*
X11914080D01*
X11945570Y765370D01*
X11969200Y728330D01*
X11977070Y686000D01*
X11969200Y643670D01*
X11949510Y611910D01*
X11914080Y596030D01*
X11819590D01*
G01X12134550Y781250D02*
Y463750D01*
X12292030D01*
G01X12429820D02*
X12528250Y781250D01*
X12626680Y463750D01*
G01X12591240Y574870D02*
X12465250D01*
G01X12843210Y781250D02*
Y463750D01*
G01X12752660Y781250D02*
X12933760D01*
G01X13236910Y463750D02*
X13079430D01*
Y781250D01*
X13236910D01*
G01X13173920Y627800D02*
X13079430D01*
G01X13386520Y463750D02*
Y781250D01*
X13465250D01*
X13496750Y765370D01*
X13520370Y744210D01*
X13540060Y712460D01*
X13555810Y675410D01*
X13559740Y622500D01*
X13555810Y569580D01*
X13540060Y532540D01*
X13520370Y500780D01*
X13496750Y479620D01*
X13465250Y463750D01*
X13386520D01*
G01X11819590Y-171250D02*
Y146250D01*
X11914080D01*
X11945570Y130370D01*
X11969200Y93330D01*
X11977070Y51000D01*
X11969200Y8670D01*
X11949510Y-23090D01*
X11914080Y-38970D01*
X11819590D01*
G01X12134550Y146250D02*
Y-171250D01*
X12292030D01*
G01X12429820D02*
X12528250Y146250D01*
X12626680Y-171250D01*
G01X12591240Y-60130D02*
X12465250D01*
G01X12843210Y146250D02*
Y-171250D01*
G01X12752660Y146250D02*
X12933760D01*
G01X13236910Y-171250D02*
X13079430D01*
Y146250D01*
X13236910D01*
G01X13173920Y-7200D02*
X13079430D01*
G01X13386520Y-171250D02*
Y146250D01*
X13465250D01*
X13496750Y130370D01*
X13520370Y109210D01*
X13540060Y77460D01*
X13555810Y40410D01*
X13559740Y-12500D01*
X13555810Y-65420D01*
X13540060Y-102460D01*
X13520370Y-134220D01*
X13496750Y-155380D01*
X13465250Y-171250D01*
X13386520D01*
G01X11819590Y1733750D02*
Y2051250D01*
X11914080D01*
X11945570Y2035370D01*
X11969200Y1998330D01*
X11977070Y1956000D01*
X11969200Y1913670D01*
X11949510Y1881910D01*
X11914080Y1866030D01*
X11819590D01*
G01X12134550Y2051250D02*
Y1733750D01*
X12292030D01*
G01X12429820D02*
X12528250Y2051250D01*
X12626680Y1733750D01*
G01X12591240Y1844870D02*
X12465250D01*
G01X12843210Y2051250D02*
Y1733750D01*
G01X12752660Y2051250D02*
X12933760D01*
G01X13236910Y1733750D02*
X13079430D01*
Y2051250D01*
X13236910D01*
G01X13173920Y1897800D02*
X13079430D01*
G01X13386520Y1733750D02*
Y2051250D01*
X13465250D01*
X13496750Y2035370D01*
X13520370Y2014210D01*
X13540060Y1982460D01*
X13555810Y1945410D01*
X13559740Y1892500D01*
X13555810Y1839580D01*
X13540060Y1802540D01*
X13520370Y1770780D01*
X13496750Y1749620D01*
X13465250Y1733750D01*
X13386520D01*
G01X11819590Y1098750D02*
Y1416250D01*
X11914080D01*
X11945570Y1400370D01*
X11969200Y1363330D01*
X11977070Y1321000D01*
X11969200Y1278670D01*
X11949510Y1246910D01*
X11914080Y1231030D01*
X11819590D01*
G01X12134550Y1416250D02*
Y1098750D01*
X12292030D01*
G01X12429820D02*
X12528250Y1416250D01*
X12626680Y1098750D01*
G01X12591240Y1209870D02*
X12465250D01*
G01X12843210Y1416250D02*
Y1098750D01*
G01X12752660Y1416250D02*
X12933760D01*
G01X13236910Y1098750D02*
X13079430D01*
Y1416250D01*
X13236910D01*
G01X13173920Y1262800D02*
X13079430D01*
G01X13386520Y1098750D02*
Y1416250D01*
X13465250D01*
X13496750Y1400370D01*
X13520370Y1379210D01*
X13540060Y1347460D01*
X13555810Y1310410D01*
X13559740Y1257500D01*
X13555810Y1204580D01*
X13540060Y1167540D01*
X13520370Y1135780D01*
X13496750Y1114620D01*
X13465250Y1098750D01*
X13386520D01*
G01X11819590Y3003750D02*
Y3321250D01*
X11914080D01*
X11945570Y3305370D01*
X11969200Y3268330D01*
X11977070Y3226000D01*
X11969200Y3183670D01*
X11949510Y3151910D01*
X11914080Y3136030D01*
X11819590D01*
G01X12134550Y3321250D02*
Y3003750D01*
X12292030D01*
G01X12429820D02*
X12528250Y3321250D01*
X12626680Y3003750D01*
G01X12591240Y3114870D02*
X12465250D01*
G01X12843210Y3321250D02*
Y3003750D01*
G01X12752660Y3321250D02*
X12933760D01*
G01X13236910Y3003750D02*
X13079430D01*
Y3321250D01*
X13236910D01*
G01X13173920Y3167800D02*
X13079430D01*
G01X13386520Y3003750D02*
Y3321250D01*
X13465250D01*
X13496750Y3305370D01*
X13520370Y3284210D01*
X13540060Y3252460D01*
X13555810Y3215410D01*
X13559740Y3162500D01*
X13555810Y3109580D01*
X13540060Y3072540D01*
X13520370Y3040780D01*
X13496750Y3019620D01*
X13465250Y3003750D01*
X13386520D01*
G01X11819590Y2368750D02*
Y2686250D01*
X11914080D01*
X11945570Y2670370D01*
X11969200Y2633330D01*
X11977070Y2591000D01*
X11969200Y2548670D01*
X11949510Y2516910D01*
X11914080Y2501030D01*
X11819590D01*
G01X12134550Y2686250D02*
Y2368750D01*
X12292030D01*
G01X12429820D02*
X12528250Y2686250D01*
X12626680Y2368750D01*
G01X12591240Y2479870D02*
X12465250D01*
G01X12843210Y2686250D02*
Y2368750D01*
G01X12752660Y2686250D02*
X12933760D01*
G01X13236910Y2368750D02*
X13079430D01*
Y2686250D01*
X13236910D01*
G01X13173920Y2532800D02*
X13079430D01*
G01X13386520Y2368750D02*
Y2686250D01*
X13465250D01*
X13496750Y2670370D01*
X13520370Y2649210D01*
X13540060Y2617460D01*
X13555810Y2580410D01*
X13559740Y2527500D01*
X13555810Y2474580D01*
X13540060Y2437540D01*
X13520370Y2405780D01*
X13496750Y2384620D01*
X13465250Y2368750D01*
X13386520D01*
G01X11819590Y3638750D02*
Y3956250D01*
X11914080D01*
X11945570Y3940370D01*
X11969200Y3903330D01*
X11977070Y3861000D01*
X11969200Y3818670D01*
X11949510Y3786910D01*
X11914080Y3771030D01*
X11819590D01*
G01X12134550Y3956250D02*
Y3638750D01*
X12292030D01*
G01X12429820D02*
X12528250Y3956250D01*
X12626680Y3638750D01*
G01X12591240Y3749870D02*
X12465250D01*
G01X12843210Y3956250D02*
Y3638750D01*
G01X12752660Y3956250D02*
X12933760D01*
G01X13236910Y3638750D02*
X13079430D01*
Y3956250D01*
X13236910D01*
G01X13173920Y3802800D02*
X13079430D01*
G01X13386520Y3638750D02*
Y3956250D01*
X13465250D01*
X13496750Y3940370D01*
X13520370Y3919210D01*
X13540060Y3887460D01*
X13555810Y3850410D01*
X13559740Y3797500D01*
X13555810Y3744580D01*
X13540060Y3707540D01*
X13520370Y3675780D01*
X13496750Y3654620D01*
X13465250Y3638750D01*
X13386520D01*
G01X15040060Y-758640D02*
X15063670Y-785090D01*
X15091230Y-800960D01*
X15126670Y-806250D01*
X15162110Y-795670D01*
X15189660Y-774510D01*
X15209350Y-737460D01*
X15213280Y-695130D01*
X15205410Y-652800D01*
X15185720Y-626330D01*
X15158160Y-605170D01*
X15130610Y-599880D01*
X15103050Y-605170D01*
X15067620Y-626330D01*
X15079430Y-488750D01*
X15185720D01*
G01X15441630Y-806250D02*
X15469190Y-800960D01*
X15500680Y-785090D01*
X15520370Y-758640D01*
X15528240Y-721580D01*
X15520370Y-684550D01*
X15496750Y-652800D01*
X15461310Y-636910D01*
X15421950D01*
X15398320Y-626330D01*
X15378630Y-599880D01*
X15370760Y-562840D01*
X15382580Y-525790D01*
X15410130Y-499330D01*
X15441630Y-488750D01*
X15473120Y-499330D01*
X15500680Y-525790D01*
X15512500Y-562840D01*
X15504620Y-599880D01*
X15484940Y-626330D01*
X15461310Y-636910D01*
X15421950D01*
X15386510Y-652800D01*
X15362890Y-684550D01*
X15355020Y-721580D01*
X15362890Y-758640D01*
X15382580Y-785090D01*
X15414070Y-800960D01*
X15441630Y-806250D01*
G01X15040060Y3067250D02*
X15063670Y3030200D01*
X15095170Y3009040D01*
X15130610Y3003750D01*
X15162110Y3009040D01*
X15193600Y3035490D01*
X15213280Y3067250D01*
X15217220Y3099000D01*
X15209350Y3136030D01*
X15181790Y3162500D01*
X15154230Y3173090D01*
X15118790D01*
G01X15154230D02*
X15177850Y3188960D01*
X15197540Y3215410D01*
X15205410Y3247160D01*
X15197540Y3278920D01*
X15177850Y3305370D01*
X15142420Y3321250D01*
X15106990Y3315960D01*
X15071550Y3294790D01*
G01X15488870Y3003750D02*
Y3321250D01*
X15343200Y3093710D01*
X15540060D01*
G01X14969190Y3638750D02*
X14937690Y3644040D01*
X14910140Y3665200D01*
X14886510Y3696960D01*
X14870760Y3734000D01*
X14862890Y3776330D01*
Y3818670D01*
X14870760Y3861000D01*
X14886510Y3898040D01*
X14910140Y3929790D01*
X14937690Y3950960D01*
X14969190Y3956250D01*
X15000680Y3950960D01*
X15028240Y3929790D01*
X15051870Y3898040D01*
X15067620Y3861000D01*
X15075490Y3818670D01*
Y3776330D01*
X15067620Y3734000D01*
X15051870Y3696960D01*
X15028240Y3665200D01*
X15000680Y3644040D01*
X14969190Y3638750D01*
G01X15000680Y3723420D02*
X15047930Y3638750D01*
G01X15284150Y3956250D02*
Y3638750D01*
G01X15193600Y3956250D02*
X15374700D01*
G01X15599110Y3638750D02*
Y3781620D01*
X15520370Y3956250D01*
G01X15677850D02*
X15599110Y3781620D01*
G01X15284150Y463750D02*
X15311710Y469040D01*
X15343200Y484910D01*
X15362890Y511360D01*
X15370760Y548420D01*
X15362890Y585450D01*
X15339270Y617200D01*
X15303830Y633090D01*
X15264470D01*
X15240840Y643670D01*
X15221150Y670120D01*
X15213280Y707160D01*
X15225100Y744210D01*
X15252650Y770670D01*
X15284150Y781250D01*
X15315640Y770670D01*
X15343200Y744210D01*
X15355020Y707160D01*
X15347140Y670120D01*
X15327460Y643670D01*
X15303830Y633090D01*
X15264470D01*
X15229030Y617200D01*
X15205410Y585450D01*
X15197540Y548420D01*
X15205410Y511360D01*
X15225100Y484910D01*
X15256590Y469040D01*
X15284150Y463750D01*
G01X15331390Y-171250D02*
Y146250D01*
X15185720Y-81290D01*
X15382580D01*
G01X15331390Y1733750D02*
Y2051250D01*
X15185720Y1823710D01*
X15382580D01*
G01X15331390Y1098750D02*
Y1416250D01*
X15185720Y1188710D01*
X15382580D01*
G01X15331390Y2368750D02*
Y2686250D01*
X15185720Y2458710D01*
X15382580D01*
G01X-250000Y0D02*
X-1980000D01*
G01X-1730000Y584260D02*
Y0D01*
G01X-1792500Y400000D02*
X-1730000Y0D01*
X-1667500Y400000D01*
X-1792500D01*
G01X-80000Y1600000D02*
X-1980000D01*
G01X-1730000Y1075740D02*
Y1600000D01*
G01X-1667500Y1200000D02*
X-1730000Y1600000D01*
X-1792500Y1200000D01*
X-1667500D01*
G01X0Y-250000D02*
Y-660000D01*
G01X1083140Y-410000D02*
X0D01*
G01X400000Y-347500D02*
X0Y-410000D01*
X400000Y-472500D01*
Y-347500D01*
G01X1716860Y-410000D02*
X3000000D01*
G01Y-220000D02*
Y-660000D01*
G01X2600000Y-472500D02*
X3000000Y-410000D01*
X2600000Y-347500D01*
Y-472500D01*
G01X3670000Y-330000D02*
Y5400000D01*
X16268400D01*
Y-330000D01*
X3670000D01*
G01Y305000D02*
X16268400D01*
G01X3670000Y1575000D02*
X16268400D01*
G01X3670000Y940000D02*
X16268400D01*
G01X3670000Y2845000D02*
X16268400D01*
G01X3670000Y2210000D02*
X16268400D01*
G01X3670000Y4115000D02*
X16268400D01*
G01X3670000Y3480000D02*
X16268400D01*
G01X3670000Y4750000D02*
X16268400D01*
G01X5953460Y4115000D02*
Y-330000D01*
G01X11071560Y4115000D02*
Y-330000D01*
G01X14299900Y4115000D02*
Y-330000D01*
M02*
