G04 ================== begin FILE IDENTIFICATION RECORD ==================*
G04 Layout Name:  H:/MBED-TOOLS/HARDWARE/CP2105_TEST_V10A/PCB/CP2105_TEST_V10A.brd*
G04 Film Name:    SolderMask_Bottom*
G04 File Format:  Gerber RS274X*
G04 File Origin:  Cadence Allegro 17.2-S058*
G04 Origin Date:  Sat Dec 21 10:24:47 2019*
G04 *
G04 Layer:  PIN/SOLDERMASK_BOTTOM*
G04 Layer:  PACKAGE GEOMETRY/SOLDERMASK_BOTTOM*
G04 Layer:  BOARD GEOMETRY/SOLDERMASK_BOTTOM*
G04 *
G04 Offset:    (0.0000 0.0000)*
G04 Mirror:    No*
G04 Mode:      Positive*
G04 Rotation:  0*
G04 FullContactRelief:  No*
G04 UndefLineWidth:     0.1524*
G04 ================== end FILE IDENTIFICATION RECORD ====================*
%FSLAX55Y55*MOMM*%
%IR0*IPPOS*OFA0.00000B0.00000*MIA0B0*SFA1.00000B1.00000*%
%ADD17R,.9X.9*%
%ADD18R,1.1X1.3*%
%ADD13C,1.4*%
%ADD10C,3.4*%
%ADD11C,1.7*%
%ADD15R,2.X2.*%
%ADD16C,1.9*%
%ADD14R,1.4X1.4*%
%ADD12R,1.7X1.7*%
%LPD*%
G75*
G54D10*
X280000Y200000D03*
X839000Y198000D03*
X280000Y1400000D03*
X839000Y1402000D03*
G54D11*
X550000Y450000D03*
Y700000D03*
Y900000D03*
G54D12*
Y1150000D03*
G54D13*
X1110000Y675000D03*
X1310000Y925000D03*
X1110000D03*
G54D14*
X1310000Y675000D03*
G54D15*
X1710000Y200000D03*
X2800000Y500000D03*
G54D16*
X1964000Y200000D03*
X2472000D03*
X2218000D03*
X2800000Y754000D03*
Y1262000D03*
Y1008000D03*
G54D17*
X1750000Y745750D03*
Y593350D03*
X1950000Y745750D03*
Y593350D03*
X1970000Y1446200D03*
Y1293800D03*
X1830000Y1446200D03*
Y1293800D03*
X1650000Y1446200D03*
Y1293800D03*
X2230000Y744720D03*
Y592320D03*
X2437800Y745750D03*
Y593350D03*
X2110000Y1446200D03*
Y1293800D03*
X2530000Y1126200D03*
Y973800D03*
X2250000D03*
Y1126200D03*
X2390000D03*
Y973800D03*
X2110000Y1126200D03*
Y973800D03*
G54D18*
X1860000Y980000D03*
X1656800D03*
M02*
