G04 ================== begin FILE IDENTIFICATION RECORD ==================*
G04 Layout Name:  H:/github/MBED-TOOLS/HARDWARE/CP210X_TEST_V10/PCB/CP210X_TEST_V10.brd*
G04 Film Name:    BOTTOM*
G04 File Format:  Gerber RS274X*
G04 File Origin:  Cadence Allegro 17.2-S067*
G04 Origin Date:  Fri Sep 04 16:50:47 2020*
G04 *
G04 Layer:  ETCH/BOTTOM*
G04 Layer:  PIN/BOTTOM*
G04 Layer:  VIA CLASS/BOTTOM*
G04 *
G04 Offset:    (0.0000 0.0000)*
G04 Mirror:    No*
G04 Mode:      Positive*
G04 Rotation:  0*
G04 FullContactRelief:  No*
G04 UndefLineWidth:     0.1524*
G04 ================== end FILE IDENTIFICATION RECORD ====================*
%FSLAX55Y55*MOMM*%
%IR0*IPPOS*OFA0.00000B0.00000*MIA0B0*SFA1.00000B1.00000*%
%ADD13C,.508*%
%ADD15R,.8X.8*%
%ADD19R,1.2X2.7*%
%ADD16R,.5X.6*%
%ADD18R,.6X.5*%
%ADD14C,1.3*%
%ADD20C,1.4*%
%ADD10C,3.3*%
%ADD11C,1.6*%
%ADD23C,1.8*%
%ADD17R,1.3X1.3*%
%ADD21R,1.4X1.4*%
%ADD12R,1.6X1.6*%
%ADD22R,1.9X1.9*%
%ADD24C,.2032*%
%ADD25C,.254*%
%ADD26C,.762*%
%ADD27C,1.6128*%
%ADD28O,1.4228X7.9228*%
G75*
%LPD*%
G75*
G36*
G01X100000Y1580000D02*
X2720000D01*
Y1557800D01*
G02X2692710Y1538720I-20318J4D01*
G03X2653000Y1545740I-39696J-108723D01*
G03X2537260Y1430000I0J-115740D01*
G03X2569160Y1350210I115738J0D01*
G01Y997730D01*
X2462170Y890740D01*
X2400000D01*
G03X2354260Y845000I0J-45740D01*
G01Y575000D01*
G03X2369670Y540760I45745J0D01*
G02X2370570Y511180I-13468J-15213D01*
G01X2150530Y291140D01*
X1895510D01*
G02X1875360Y314090I-3J20319D01*
G03X1875740Y320000I-45362J5884D01*
G01Y342450D01*
X1875790Y342950D01*
G03X1876140Y350000I-70790J7048D01*
G03X1875790Y357050I-71140J2D01*
G01X1875740Y357550D01*
Y380000D01*
G03X1830000Y425740I-45740J0D01*
G01X1780000D01*
G03X1761830Y421980I-8J-45742D01*
G01X1759900Y421140D01*
X1641140D01*
Y629100D01*
X2176000D01*
G03X2220000Y613860I44000J55897D01*
G03Y756140I0J71140D01*
G03X2176000Y740900I0J-71137D01*
G01X1641140D01*
Y1020530D01*
X1694470Y1073860D01*
X2205000D01*
G03Y1216140I0J71140D01*
G01X2125740D01*
Y1260000D01*
G03X2105900Y1297700I-45739J0D01*
G01Y1315880D01*
X2107800Y1318530D01*
G03X2121140Y1360000I-57789J41470D01*
G03X1978860I-71140J0D01*
G03X1992200Y1318530I71129J0D01*
G01X1994100Y1315880D01*
Y1297700D01*
G03X1974260Y1260000I25899J-37700D01*
G01Y1216140D01*
X1925740D01*
Y1260000D01*
G03X1905900Y1297700I-45739J0D01*
G01Y1315880D01*
X1907800Y1318530D01*
G03X1921140Y1360000I-57789J41470D01*
G03X1778860I-71140J0D01*
G03X1792200Y1318530I71129J0D01*
G01X1794100Y1315880D01*
Y1297700D01*
G03X1774260Y1260000I25899J-37700D01*
G01Y1216140D01*
X1665000D01*
G03X1614700Y1195300I0J-71123D01*
G01X1519700Y1100300D01*
G03X1498860Y1050000I50297J-50306D01*
G01Y426670D01*
G03X1480460Y390000I27340J-36670D01*
G01Y310000D01*
G03X1495060Y276500I45733J0D01*
G01Y243800D01*
G03X1503700Y209820I71139J0D01*
G03X1480460Y170000I22494J-39820D01*
G01Y90000D01*
G03X1526200Y44260I45740J0D01*
G01X1606200D01*
G03X1639700Y58860I0J45733D01*
G01X1759900D01*
X1761830Y58020D01*
G03X1780000Y54260I18162J41982D01*
G01X1830000D01*
G03X1875740Y100000I0J45740D01*
G01Y122450D01*
X1875790Y122950D01*
G03X1876140Y130000I-70790J7048D01*
G01Y135530D01*
X1889470Y148860D01*
X2180000D01*
G03X2230300Y169700I-6J71137D01*
G01X2510300Y449700D01*
G03X2531140Y500000I-50297J50306D01*
G01Y530120D01*
X2537430Y532710D01*
G03X2565740Y575000I-17432J42290D01*
G01Y757170D01*
X2685310Y876740D01*
G02X2720000Y862380I14371J-14365D01*
G01Y20000D01*
X100000D01*
X20000Y100000D01*
Y1500000D01*
X100000Y1580000D01*
G37*
G36*
G01X3745400Y597440D02*
G02X3780000Y582990I14280J-14457D01*
G01Y200000D01*
X3600000Y20000D01*
X2790000D01*
Y877350D01*
X2797340Y884700D01*
G03X2814460Y926020I-41318J41326D01*
G01Y1503980D01*
G03X2797340Y1545300I-58438J-6D01*
G01X2790000Y1552650D01*
Y1580000D01*
X3600000D01*
X3780000Y1400000D01*
Y1313010D01*
G02X3745400Y1298560I-20320J7D01*
G03X3650000Y1337740I-95400J-96555D01*
G03X3514260Y1202000I0J-135740D01*
G03X3571110Y1091540I135737J0D01*
G02Y1058460I-11805J-16540D01*
G03Y837540I78887J-110460D01*
G02Y804460I-11805J-16540D01*
G03X3514260Y694000I78887J-110460D01*
G03X3650000Y558260I135740J0D01*
G03X3745400Y597440I0J135735D01*
G37*
%LPC*%
G75*
G36*
G01X1095500Y603420D02*
G03X1064500I-15500J-13135D01*
G02X980000Y564260I-84500J71588D01*
G02Y785740I0J110740D01*
G02X1064500Y746580I0J-110748D01*
G03X1095500I15500J13135D01*
G02X1180000Y785740I84500J-71588D01*
G02Y564260I0J-110740D01*
G02X1095500Y603420I0J110748D01*
G37*
G36*
G01X1894000Y894100D02*
G02X1850000Y878860I-44000J55897D01*
G02Y1021140I0J71140D01*
G02X1894000Y1005900I0J-71137D01*
G01X2256000D01*
G02X2300000Y1021140I44000J-55897D01*
G02Y878860I0J-71140D01*
G02X2256000Y894100I0J71137D01*
G01X1894000D01*
G37*
G36*
G01X719700Y1020300D02*
X819700Y1120300D01*
G02X870000Y1141140I50300J-50283D01*
G01X1035000D01*
G02X1085300Y1120300I0J-71123D01*
G01X1169870Y1035740D01*
X1245000D01*
G02X1290740Y990000I0J-45740D01*
G01Y860000D01*
G02X1245000Y814260I-45740J0D01*
G01X1115000D01*
G02X1069260Y860000I0J45740D01*
G01Y935130D01*
X1005530Y998860D01*
X899470D01*
X841140Y940530D01*
Y540000D01*
G02X820300Y489700I-71123J0D01*
G01X730300Y399700D01*
G02X680000Y378860I-50306J50297D01*
G01X665960D01*
X665730Y368940D01*
G02X620000Y324260I-45730J1062D01*
G01X460000D01*
G02X414260Y370000I0J45740D01*
G01Y530000D01*
G02X460000Y575740I45740J0D01*
G01X476340D01*
Y591430D01*
X471700Y594430D01*
G02X414260Y700000I68294J105570D01*
G02X448350Y786090I125750J0D01*
G03Y813910I-14809J13910D01*
G02X414260Y900000I91660J86090D01*
G02X665740I125740J0D01*
G02X631650Y813910I-125750J0D01*
G03Y786090I14809J-13910D01*
G02X665740Y700000I-91660J-86090D01*
G02X608300Y594430I-125734J0D01*
G01X603660Y591430D01*
Y575740D01*
X620000D01*
G02X655820Y558440I0J-45733D01*
G03X686100Y556710I15911J12638D01*
G01X698860Y569470D01*
Y970000D01*
G02X719700Y1020300I71123J0D01*
G37*
G36*
G01X3044260Y411050D02*
Y1478950D01*
X3111050Y1545740D01*
X3258950D01*
X3315740Y1488950D01*
Y411050D01*
X3258950Y354260D01*
X3101050D01*
X3044260Y411050D01*
G37*
G54D27*
X268160Y1025870D03*
X270000Y575000D03*
G54D28*
X3420000Y825000D03*
%LPD*%
G75*
G36*
G01X3090000Y430000D02*
Y1460000D01*
X3130000Y1500000D01*
X3240000D01*
X3270000Y1470000D01*
Y430000D01*
X3240000Y400000D01*
X3120000D01*
X3090000Y430000D01*
G37*
G54D10*
X270000Y200000D03*
X709000Y198000D03*
X270000Y1400000D03*
X709000Y1402000D03*
G54D11*
X540000Y900000D03*
Y700000D03*
Y1150000D03*
G54D20*
X3161000Y1430000D03*
X2907000D03*
X2653000D03*
G54D12*
X540000Y450000D03*
G54D21*
X2399000Y1430000D03*
G54D22*
X3650000Y440000D03*
G54D13*
G01X540000Y450000D02*
X680000D01*
X770000Y540000D01*
Y970000D01*
X870000Y1070000D01*
X1035000D01*
X1180000Y925000D01*
G01X1805000Y350000D02*
X1566200D01*
G01D02*
Y243800D01*
G01Y350000D02*
X1570000Y353800D01*
Y685000D01*
G01D02*
Y1050000D01*
X1665000Y1145000D01*
X1850000D01*
G01X1566200Y130000D02*
X1710000D01*
G01D02*
X1805000D01*
G01X2460000Y710000D02*
Y500000D01*
X2180000Y220000D01*
X1860000D01*
X1805000Y165000D01*
Y130000D01*
G01X1850000Y1145000D02*
X2050000D01*
G01D02*
X2205000D01*
G01X3420000Y1150000D02*
Y500000D01*
X100000Y470000D03*
Y720000D03*
Y930000D03*
Y1180000D03*
X1440000Y570000D03*
X1960000Y450000D03*
X1850000D03*
Y540000D03*
X1960000D03*
X1310000Y80000D03*
Y240000D03*
X1290000Y570000D03*
X1060000Y240000D03*
Y80000D03*
X1290000Y390000D03*
X1700000Y830000D03*
X900000Y560000D03*
X1566200Y243800D03*
X1710000Y130000D03*
X1330000Y890000D03*
X1460000D03*
X1500000Y1500000D03*
X1250000D03*
X1190000Y1270000D03*
X940000D03*
X1500000Y1180000D03*
X1730000Y1360000D03*
X1950000D03*
X1850000D03*
Y950000D03*
X2070000Y540000D03*
Y450000D03*
Y340000D03*
X2300000Y190000D03*
X2330000Y520000D03*
X2560000Y500000D03*
X2670000Y70000D03*
X2090000Y830000D03*
X2300000Y790000D03*
X2220000Y685000D03*
X2860000Y60000D03*
X2990000D03*
X2970000Y570000D03*
X2830000D03*
X3166500Y490000D03*
X2460000Y1250000D03*
X2205000Y1145000D03*
X2050000Y1360000D03*
X2300000Y950000D03*
X3300000Y60000D03*
X3560000Y70000D03*
X3710000Y230000D03*
X3420000Y500000D03*
X3230000Y490000D03*
X3430000Y1530000D03*
X3590000D03*
X3720000Y1410000D03*
X3420000Y1150000D03*
G54D23*
X3650000Y694000D03*
Y1202000D03*
Y948000D03*
G54D14*
X1180000Y675000D03*
X980000D03*
Y925000D03*
G54D24*
G01X2220000Y685000D02*
X1570000D01*
G01X1850000Y1360000D02*
Y1235000D01*
G01X2300000Y950000D02*
X1850000D01*
G01X2050000Y1360000D02*
Y1235000D01*
G54D15*
X1413800Y350000D03*
X1566200D03*
X1413800Y130000D03*
X1566200D03*
G54D25*
G01X2690000Y1560000D02*
X2700000D01*
G01D02*
X2756020Y1503980D01*
Y926020D01*
X2700000Y870000D01*
G54D16*
X1805000Y130000D03*
X1895000D03*
X1805000Y350000D03*
X1895000D03*
G54D26*
G01X2653000Y1430000D02*
Y963000D01*
X2460000Y770000D01*
Y710000D01*
G54D17*
X1180000Y925000D03*
G54D18*
X1850000Y1145000D03*
Y1235000D03*
X2050000Y1145000D03*
Y1235000D03*
G54D19*
X3161000Y190000D03*
Y710000D03*
X2460000Y190000D03*
Y710000D03*
M02*
