G04 ================== begin FILE IDENTIFICATION RECORD ==================*
G04 Layout Name:  H:/github/MBED-TOOLS/HARDWARE/CP210X_TEST_V10/PCB/CP210X_TEST_V10.brd*
G04 Film Name:    Drill_Legend*
G04 File Format:  Gerber RS274X*
G04 File Origin:  Cadence Allegro 17.2-S067*
G04 Origin Date:  Fri Sep 04 16:52:28 2020*
G04 *
G04 Layer:  MANUFACTURING/NCLEGEND-1-2*
G04 Layer:  MANUFACTURING/NCDRILL_LEGEND*
G04 Layer:  MANUFACTURING/NCDRILL_FIGURE*
G04 Layer:  BOARD GEOMETRY/DIMENSION*
G04 *
G04 Offset:    (0.0000 0.0000)*
G04 Mirror:    No*
G04 Mode:      Positive*
G04 Rotation:  0*
G04 FullContactRelief:  No*
G04 UndefLineWidth:     0.1524*
G04 ================== end FILE IDENTIFICATION RECORD ====================*
%FSLAX55Y55*MOMM*%
%IR0*IPPOS*OFA0.00000B0.00000*MIA0B0*SFA1.00000B1.00000*%
%AMMACRO10*
1,1,.1524,1.15,0.0*
20,1,.1524,1.15,0.0,0.0,-1.15,0.0*
1,1,.1524,0.0,-1.15*
20,1,.1524,0.0,-1.15,-1.15,0.0,0.0*
1,1,.1524,-1.15,0.0*
20,1,.1524,-1.15,0.0,0.0,1.15,0.0*
1,1,.1524,0.0,1.15*
20,1,.1524,0.0,1.15,1.15,0.0,0.0*
1,1,.1524,1.15,0.0*
%
%ADD10MACRO10*%
%AMMACRO13*
1,1,.1524,.4,.4*
20,1,.1524,.4,.4,.4,-.4,0.0*
1,1,.1524,.4,-.4*
20,1,.1524,.4,-.4,-.4,-.4,0.0*
1,1,.1524,-.4,-.4*
20,1,.1524,-.4,-.4,-.4,.4,0.0*
1,1,.1524,-.4,.4*
20,1,.1524,-.4,.4,.4,.4,0.0*
1,1,.1524,.4,.4*
%
%ADD13MACRO13*%
%AMMACRO12*
1,1,.1524,.127,0.0*
20,1,.1524,.127,0.0,-.127,0.0,0.0*
1,1,.1524,-.127,0.0*
1,1,.1524,0.0,.127*
20,1,.1524,0.0,.127,0.0,-.127,0.0*
1,1,.1524,0.0,-.127*
%
%ADD12MACRO12*%
%AMMACRO14*
1,1,.1524,0.0,.5*
20,1,.1524,0.0,.5,-.433013,.25,0.0*
1,1,.1524,-.433013,.25*
20,1,.1524,-.433013,.25,-.433013,-.25,0.0*
1,1,.1524,-.433013,-.25*
20,1,.1524,-.433013,-.25,0.0,-.5,0.0*
1,1,.1524,0.0,-.5*
20,1,.1524,0.0,-.5,.433013,-.25,0.0*
1,1,.1524,.433013,-.25*
20,1,.1524,.433013,-.25,.433013,.25,0.0*
1,1,.1524,.433013,.25*
20,1,.1524,.433013,.25,0.0,.5,0.0*
1,1,.1524,0.0,.5*
%
%ADD14MACRO14*%
%AMMACRO11*
1,1,.1524,.45,0.0*
20,1,.1524,.45,0.0,.225,.389711,0.0*
1,1,.1524,.225,.389711*
20,1,.1524,.225,.389711,-.225,.389711,0.0*
1,1,.1524,-.225,.389711*
20,1,.1524,-.225,.389711,-.45,0.0,0.0*
1,1,.1524,-.45,0.0*
20,1,.1524,-.45,0.0,-.225,-.389711,0.0*
1,1,.1524,-.225,-.389711*
20,1,.1524,-.225,-.389711,.225,-.389711,0.0*
1,1,.1524,.225,-.389711*
20,1,.1524,.225,-.389711,.45,0.0,0.0*
1,1,.1524,.45,0.0*
%
%ADD11MACRO11*%
%AMMACRO15*
1,1,.1524,.227817,-.55*
20,1,.1524,.227817,-.55,-.227817,-.55,0.0*
1,1,.1524,-.227817,-.55*
20,1,.1524,-.227817,-.55,-.55,-.227817,0.0*
1,1,.1524,-.55,-.227817*
20,1,.1524,-.55,-.227817,-.55,.227817,0.0*
1,1,.1524,-.55,.227817*
20,1,.1524,-.55,.227817,-.227817,.55,0.0*
1,1,.1524,-.227817,.55*
20,1,.1524,-.227817,.55,.227817,.55,0.0*
1,1,.1524,.227817,.55*
20,1,.1524,.227817,.55,.55,.227817,0.0*
1,1,.1524,.55,.227817*
20,1,.1524,.55,.227817,.55,-.227817,0.0*
1,1,.1524,.55,-.227817*
20,1,.1524,.55,-.227817,.227817,-.55,0.0*
1,1,.1524,.227817,-.55*
%
%ADD15MACRO15*%
%ADD16C,.1524*%
G75*
%LPD*%
G75*
G54D10*
X270000Y200000D03*
X709000Y198000D03*
X270000Y1400000D03*
X709000Y1402000D03*
X5541730Y337500D03*
G54D11*
X540000Y900000D03*
Y700000D03*
Y450000D03*
Y1150000D03*
X5541730Y2242500D03*
G54D12*
X100000Y470000D03*
Y720000D03*
Y930000D03*
Y1180000D03*
X1440000Y570000D03*
X1960000Y450000D03*
X1850000D03*
Y540000D03*
X1960000D03*
X1310000Y80000D03*
Y240000D03*
X1290000Y570000D03*
X1060000Y240000D03*
Y80000D03*
X1290000Y390000D03*
X1700000Y830000D03*
X900000Y560000D03*
X1566200Y243800D03*
X1710000Y130000D03*
X1330000Y890000D03*
X1460000D03*
X1500000Y1500000D03*
X1250000D03*
X1190000Y1270000D03*
X940000D03*
X1500000Y1180000D03*
X1730000Y1360000D03*
X1950000D03*
X1850000D03*
Y950000D03*
X2070000Y540000D03*
Y450000D03*
Y340000D03*
X2300000Y190000D03*
X2330000Y520000D03*
X2560000Y500000D03*
X2670000Y70000D03*
X2090000Y830000D03*
X2300000Y790000D03*
X2220000Y685000D03*
X2860000Y60000D03*
X2990000D03*
X2970000Y570000D03*
X2830000D03*
X3166500Y490000D03*
X2460000Y1250000D03*
X2205000Y1145000D03*
X2050000Y1360000D03*
X2300000Y950000D03*
X3300000Y60000D03*
X3560000Y70000D03*
X3710000Y230000D03*
X3420000Y500000D03*
X3230000Y490000D03*
X3430000Y1530000D03*
X3590000D03*
X3720000Y1410000D03*
X3420000Y1150000D03*
X5541730Y3512500D03*
G54D13*
X1180000Y675000D03*
X980000D03*
Y925000D03*
X1180000D03*
X5541730Y2877500D03*
G54D14*
X3161000Y1430000D03*
X2907000D03*
X2399000D03*
X2653000D03*
X5541730Y1607500D03*
G54D15*
X3650000Y440000D03*
Y694000D03*
Y1202000D03*
Y948000D03*
X5541730Y972500D03*
G54D16*
G01X-1825250Y734750D02*
Y925250D01*
X-1853700Y887150D01*
G01Y734750D02*
X-1796810D01*
G01X-1679790Y814120D02*
X-1663200Y836350D01*
X-1648970Y849050D01*
X-1630010Y855400D01*
X-1613410Y849050D01*
X-1601560Y836350D01*
X-1592080Y817300D01*
X-1589710Y795070D01*
X-1592080Y776020D01*
X-1601560Y756970D01*
X-1615790Y741100D01*
X-1632380Y734750D01*
X-1651340Y741100D01*
X-1667940Y760140D01*
X-1677420Y788730D01*
X-1679790Y820470D01*
X-1675050Y861750D01*
X-1667940Y883980D01*
X-1656090Y906200D01*
X-1639490Y922080D01*
X-1622900Y925250D01*
X-1606300Y918900D01*
X-1594450Y903020D01*
G01X1702600Y-347150D02*
X1716820Y-369380D01*
X1735780Y-382080D01*
X1757120Y-385250D01*
X1776090Y-382080D01*
X1795050Y-366200D01*
X1806900Y-347150D01*
X1809270Y-328100D01*
X1804530Y-305880D01*
X1787940Y-290000D01*
X1771340Y-283650D01*
X1750010D01*
G01X1771340D02*
X1785570Y-274130D01*
X1797420Y-258250D01*
X1802160Y-239200D01*
X1797420Y-220150D01*
X1785570Y-204280D01*
X1764230Y-194750D01*
X1742900Y-197920D01*
X1721560Y-210630D01*
G01X1945250Y-385250D02*
X1961840Y-382080D01*
X1980810Y-372550D01*
X1992660Y-356680D01*
X1997400Y-334450D01*
X1992660Y-312230D01*
X1978440Y-293180D01*
X1957100Y-283650D01*
X1933400D01*
X1919170Y-277300D01*
X1907320Y-261430D01*
X1902580Y-239200D01*
X1909690Y-216980D01*
X1926280Y-201100D01*
X1945250Y-194750D01*
X1964210Y-201100D01*
X1980810Y-216980D01*
X1987920Y-239200D01*
X1983180Y-261430D01*
X1971330Y-277300D01*
X1957100Y-283650D01*
X1933400D01*
X1912060Y-293180D01*
X1897840Y-312230D01*
X1893100Y-334450D01*
X1897840Y-356680D01*
X1909690Y-372550D01*
X1928660Y-382080D01*
X1945250Y-385250D01*
G01X4679520Y3988750D02*
Y4306250D01*
X4829140D01*
G01X4774010Y4152800D02*
X4679520D01*
G01X5022050Y4306250D02*
X5116530D01*
G01X5069290D02*
Y3988750D01*
G01X5022050D02*
X5116530D01*
G01X5407870Y4147500D02*
X5486620D01*
Y4052250D01*
X5462990Y4020490D01*
X5435430Y3999330D01*
X5396060Y3988750D01*
X5356690Y3999330D01*
X5329130Y4020490D01*
X5305510Y4052250D01*
X5289760Y4089290D01*
X5281880Y4131620D01*
Y4168670D01*
X5289760Y4200410D01*
X5305510Y4237460D01*
X5329130Y4269210D01*
X5352750Y4290370D01*
X5384250Y4306250D01*
X5411810D01*
X5443300Y4295670D01*
X5466930Y4274500D01*
G01X5612600Y4306250D02*
Y4078710D01*
X5628340Y4031070D01*
X5659840Y3999330D01*
X5699210Y3988750D01*
X5738580Y3999330D01*
X5770080Y4031070D01*
X5785820Y4078710D01*
Y4306250D01*
G01X5935430Y3988750D02*
Y4306250D01*
X6033850D01*
X6065350Y4290370D01*
X6085040Y4269210D01*
X6092910Y4226870D01*
X6085040Y4184540D01*
X6061410Y4158090D01*
X6033850Y4142200D01*
X5935430D01*
G01X6033850D02*
X6092910Y3988750D01*
G01X6407870D02*
X6250390D01*
Y4306250D01*
X6407870D01*
G01X6344880Y4152800D02*
X6250390D01*
G01X6675590Y5273750D02*
Y5591250D01*
X6754320D01*
X6785820Y5575370D01*
X6809440Y5554210D01*
X6829130Y5522460D01*
X6844880Y5485410D01*
X6848810Y5432500D01*
X6844880Y5379580D01*
X6829130Y5342540D01*
X6809440Y5310780D01*
X6785820Y5289620D01*
X6754320Y5273750D01*
X6675590D01*
G01X6998420D02*
Y5591250D01*
X7096840D01*
X7128340Y5575370D01*
X7148030Y5554210D01*
X7155900Y5511870D01*
X7148030Y5469540D01*
X7124400Y5443090D01*
X7096840Y5427200D01*
X6998420D01*
G01X7096840D02*
X7155900Y5273750D01*
G01X7344880Y5591250D02*
X7439360D01*
G01X7392120D02*
Y5273750D01*
G01X7344880D02*
X7439360D01*
G01X7628340Y5591250D02*
Y5273750D01*
X7785820D01*
G01X7943300Y5591250D02*
Y5273750D01*
X8100780D01*
G01X8738570Y5564790D02*
X8714950Y5580670D01*
X8687400Y5591250D01*
X8655900D01*
X8620460Y5575370D01*
X8592910Y5548920D01*
X8573220Y5517160D01*
X8557470Y5464250D01*
X8553530Y5416620D01*
X8561410Y5369000D01*
X8573220Y5337250D01*
X8596840Y5305490D01*
X8624400Y5284330D01*
X8651960Y5273750D01*
X8679520D01*
X8707080Y5284330D01*
X8730700Y5300200D01*
X8750390Y5321360D01*
G01X8884240Y5273750D02*
Y5591250D01*
G01X9049600D02*
Y5273750D01*
G01Y5432500D02*
X8884240D01*
G01X9183450Y5273750D02*
X9281880Y5591250D01*
X9380310Y5273750D01*
G01X9344870Y5384870D02*
X9218880D01*
G01X9518100Y5273750D02*
Y5591250D01*
X9616520D01*
X9648020Y5575370D01*
X9667710Y5554210D01*
X9675580Y5511870D01*
X9667710Y5469540D01*
X9644080Y5443090D01*
X9616520Y5427200D01*
X9518100D01*
G01X9616520D02*
X9675580Y5273750D01*
G01X9911800Y5591250D02*
Y5273750D01*
G01X9821250Y5591250D02*
X10002350D01*
G01X10226760Y5263170D02*
X10218880Y5268460D01*
Y5279040D01*
X10226760Y5284330D01*
X10234640Y5279040D01*
Y5268460D01*
X10226760Y5263170D01*
G01Y5406030D02*
X10218880Y5411330D01*
Y5421910D01*
X10226760Y5427200D01*
X10234640Y5421910D01*
Y5411330D01*
X10226760Y5406030D01*
G01X10856680Y5591250D02*
Y5273750D01*
G01X10766130Y5591250D02*
X10947230D01*
G01X11171640Y5273750D02*
X11140140Y5279040D01*
X11112590Y5300200D01*
X11088960Y5331960D01*
X11073210Y5369000D01*
X11065340Y5411330D01*
Y5453670D01*
X11073210Y5496000D01*
X11088960Y5533040D01*
X11112590Y5564790D01*
X11140140Y5585960D01*
X11171640Y5591250D01*
X11203130Y5585960D01*
X11230690Y5564790D01*
X11254320Y5533040D01*
X11270070Y5496000D01*
X11277940Y5453670D01*
Y5411330D01*
X11270070Y5369000D01*
X11254320Y5331960D01*
X11230690Y5300200D01*
X11203130Y5279040D01*
X11171640Y5273750D01*
G01X11407860D02*
Y5591250D01*
X11502350D01*
X11533840Y5575370D01*
X11557470Y5538330D01*
X11565340Y5496000D01*
X11557470Y5453670D01*
X11537780Y5421910D01*
X11502350Y5406030D01*
X11407860D01*
G01X12116520Y5591250D02*
Y5273750D01*
G01X12061400Y5485410D02*
X12171640D01*
G01X12431480Y5273750D02*
X12407860Y5279040D01*
X12384240Y5300200D01*
X12368480Y5337250D01*
X12360610Y5379580D01*
X12368480Y5421910D01*
X12384240Y5458960D01*
X12407860Y5480120D01*
X12431480Y5485410D01*
X12455100Y5480120D01*
X12478720Y5458960D01*
X12494470Y5421910D01*
X12498410Y5379580D01*
X12494470Y5337250D01*
X12478720Y5300200D01*
X12455100Y5279040D01*
X12431480Y5273750D01*
G01X13092890Y5443090D02*
X13108640Y5458960D01*
X13120450Y5485410D01*
X13128330Y5522460D01*
X13120450Y5554210D01*
X13104710Y5575370D01*
X13077150Y5591250D01*
X12970850D01*
Y5273750D01*
X13100770D01*
X13128330Y5294910D01*
X13144080Y5326670D01*
X13151950Y5363710D01*
X13144080Y5400740D01*
X13120450Y5432500D01*
X13092890Y5443090D01*
X12970850D01*
G01X13376360Y5273750D02*
X13344860Y5279040D01*
X13317310Y5300200D01*
X13293680Y5331960D01*
X13277930Y5369000D01*
X13270060Y5411330D01*
Y5453670D01*
X13277930Y5496000D01*
X13293680Y5533040D01*
X13317310Y5564790D01*
X13344860Y5585960D01*
X13376360Y5591250D01*
X13407850Y5585960D01*
X13435410Y5564790D01*
X13459040Y5533040D01*
X13474790Y5496000D01*
X13482660Y5453670D01*
Y5411330D01*
X13474790Y5369000D01*
X13459040Y5331960D01*
X13435410Y5300200D01*
X13407850Y5279040D01*
X13376360Y5273750D01*
G01X13691320Y5591250D02*
Y5273750D01*
G01X13600770Y5591250D02*
X13781870D01*
G01X14006280D02*
Y5273750D01*
G01X13915730Y5591250D02*
X14096830D01*
G01X14321240Y5273750D02*
X14289740Y5279040D01*
X14262190Y5300200D01*
X14238560Y5331960D01*
X14222810Y5369000D01*
X14214940Y5411330D01*
Y5453670D01*
X14222810Y5496000D01*
X14238560Y5533040D01*
X14262190Y5564790D01*
X14289740Y5585960D01*
X14321240Y5591250D01*
X14352730Y5585960D01*
X14380290Y5564790D01*
X14403920Y5533040D01*
X14419670Y5496000D01*
X14427540Y5453670D01*
Y5411330D01*
X14419670Y5369000D01*
X14403920Y5331960D01*
X14380290Y5300200D01*
X14352730Y5279040D01*
X14321240Y5273750D01*
G01X14533830D02*
Y5591250D01*
X14636200Y5326670D01*
X14738570Y5591250D01*
Y5273750D01*
G01X6348810Y4623750D02*
X6447240Y4941250D01*
X6545670Y4623750D01*
G01X6510230Y4734870D02*
X6384240D01*
G01X6683460Y4941250D02*
Y4623750D01*
X6840940D01*
G01X6998420Y4941250D02*
Y4623750D01*
X7155900D01*
G01X7620470Y4941250D02*
Y4713710D01*
X7636210Y4666070D01*
X7667710Y4634330D01*
X7707080Y4623750D01*
X7746450Y4634330D01*
X7777950Y4666070D01*
X7793690Y4713710D01*
Y4941250D01*
G01X7931490Y4623750D02*
Y4941250D01*
X8112590Y4623750D01*
Y4941250D01*
G01X8289760D02*
X8384240D01*
G01X8337000D02*
Y4623750D01*
G01X8289760D02*
X8384240D01*
G01X8651960Y4941250D02*
Y4623750D01*
G01X8561410Y4941250D02*
X8742510D01*
G01X8884240Y4666070D02*
X8915740Y4639620D01*
X8951170Y4623750D01*
X8982670D01*
X9014160Y4639620D01*
X9037790Y4666070D01*
X9049600Y4703130D01*
X9041730Y4740160D01*
X9022040Y4771910D01*
X8986600Y4793090D01*
X8939360Y4803670D01*
X8911800Y4824830D01*
X8899990Y4861870D01*
X8907870Y4898920D01*
X8927550Y4925370D01*
X8955110Y4941250D01*
X8982670D01*
X9010230Y4930670D01*
X9033850Y4904210D01*
G01X9498410Y4623750D02*
X9596840Y4941250D01*
X9695270Y4623750D01*
G01X9659830Y4734870D02*
X9533840D01*
G01X9833060Y4623750D02*
Y4941250D01*
X9931480D01*
X9962980Y4925370D01*
X9982670Y4904210D01*
X9990540Y4861870D01*
X9982670Y4819540D01*
X9959040Y4793090D01*
X9931480Y4777200D01*
X9833060D01*
G01X9931480D02*
X9990540Y4623750D01*
G01X10305500D02*
X10148020D01*
Y4941250D01*
X10305500D01*
G01X10242510Y4787800D02*
X10148020D01*
G01X10809440Y4941250D02*
X10903920D01*
G01X10856680D02*
Y4623750D01*
G01X10809440D02*
X10903920D01*
G01X11081090D02*
Y4941250D01*
X11262190Y4623750D01*
Y4941250D01*
G01X11699190Y4623750D02*
Y4941250D01*
X11801560Y4676670D01*
X11903930Y4941250D01*
Y4623750D01*
G01X12069280Y4941250D02*
X12163760D01*
G01X12116520D02*
Y4623750D01*
G01X12069280D02*
X12163760D01*
G01X12352740Y4941250D02*
Y4623750D01*
X12510220D01*
G01X12667700Y4941250D02*
Y4623750D01*
X12825180D01*
G01X13014160Y4941250D02*
X13108640D01*
G01X13061400D02*
Y4623750D01*
G01X13014160D02*
X13108640D01*
G01X13273990D02*
Y4941250D01*
X13376360Y4676670D01*
X13478730Y4941250D01*
Y4623750D01*
G01X13770060D02*
X13612580D01*
Y4941250D01*
X13770060D01*
G01X13707070Y4787800D02*
X13612580D01*
G01X14006280Y4941250D02*
Y4623750D01*
G01X13915730Y4941250D02*
X14096830D01*
G01X14399980Y4623750D02*
X14242500D01*
Y4941250D01*
X14399980D01*
G01X14336990Y4787800D02*
X14242500D01*
G01X14557460Y4623750D02*
Y4941250D01*
X14655880D01*
X14687380Y4925370D01*
X14707070Y4904210D01*
X14714940Y4861870D01*
X14707070Y4819540D01*
X14683440Y4793090D01*
X14655880Y4777200D01*
X14557460D01*
G01X14655880D02*
X14714940Y4623750D01*
G01X14868480Y4666070D02*
X14899980Y4639620D01*
X14935410Y4623750D01*
X14966910D01*
X14998400Y4639620D01*
X15022030Y4666070D01*
X15033840Y4703130D01*
X15025970Y4740160D01*
X15006280Y4771910D01*
X14970840Y4793090D01*
X14923600Y4803670D01*
X14896040Y4824830D01*
X14884230Y4861870D01*
X14892110Y4898920D01*
X14911790Y4925370D01*
X14939350Y4941250D01*
X14966910D01*
X14994470Y4930670D01*
X15018090Y4904210D01*
G01X7277940Y3988750D02*
Y4306250D01*
X7427560D01*
G01X7372430Y4152800D02*
X7277940D01*
G01X7620470Y4306250D02*
X7714950D01*
G01X7667710D02*
Y3988750D01*
G01X7620470D02*
X7714950D01*
G01X7892120D02*
Y4306250D01*
X8073220Y3988750D01*
Y4306250D01*
G01X8250390D02*
X8344870D01*
G01X8297630D02*
Y3988750D01*
G01X8250390D02*
X8344870D01*
G01X8529910Y4031070D02*
X8561410Y4004620D01*
X8596840Y3988750D01*
X8628340D01*
X8659830Y4004620D01*
X8683460Y4031070D01*
X8695270Y4068130D01*
X8687400Y4105160D01*
X8667710Y4136910D01*
X8632270Y4158090D01*
X8585030Y4168670D01*
X8557470Y4189830D01*
X8545660Y4226870D01*
X8553540Y4263920D01*
X8573220Y4290370D01*
X8600780Y4306250D01*
X8628340D01*
X8655900Y4295670D01*
X8679520Y4269210D01*
G01X8844870Y3988750D02*
Y4306250D01*
G01X9010230D02*
Y3988750D01*
G01Y4147500D02*
X8844870D01*
G01X9321250Y3988750D02*
X9163770D01*
Y4306250D01*
X9321250D01*
G01X9258260Y4152800D02*
X9163770D01*
G01X9470860Y3988750D02*
Y4306250D01*
X9549590D01*
X9581090Y4290370D01*
X9604710Y4269210D01*
X9624400Y4237460D01*
X9640150Y4200410D01*
X9644080Y4147500D01*
X9640150Y4094580D01*
X9624400Y4057540D01*
X9604710Y4025780D01*
X9581090Y4004620D01*
X9549590Y3988750D01*
X9470860D01*
G01X9754320Y3882920D02*
X9990540D01*
G01X10104710Y4031070D02*
X10136210Y4004620D01*
X10171640Y3988750D01*
X10203140D01*
X10234630Y4004620D01*
X10258260Y4031070D01*
X10270070Y4068130D01*
X10262200Y4105160D01*
X10242510Y4136910D01*
X10207070Y4158090D01*
X10159830Y4168670D01*
X10132270Y4189830D01*
X10120460Y4226870D01*
X10128340Y4263920D01*
X10148020Y4290370D01*
X10175580Y4306250D01*
X10203140D01*
X10230700Y4295670D01*
X10254320Y4269210D01*
G01X10455110Y4306250D02*
X10549590D01*
G01X10502350D02*
Y3988750D01*
G01X10455110D02*
X10549590D01*
G01X10742500Y4306250D02*
X10892120D01*
X10742500Y3988750D01*
X10892120D01*
G01X11211010D02*
X11053530D01*
Y4306250D01*
X11211010D01*
G01X11148020Y4152800D02*
X11053530D01*
G01X8927550Y813750D02*
Y1131250D01*
X8880310Y1067750D01*
G01Y813750D02*
X8974790D01*
G01X9242510Y803170D02*
X9234630Y808460D01*
Y819040D01*
X9242510Y824330D01*
X9250390Y819040D01*
Y808460D01*
X9242510Y803170D01*
G01X9557470Y813750D02*
Y1131250D01*
X9510230Y1067750D01*
G01Y813750D02*
X9604710D01*
G01X8852740Y443330D02*
X8876370Y475080D01*
X8903930Y490960D01*
X8935430Y496250D01*
X8974790Y485670D01*
X9002360Y459210D01*
X9010230Y427460D01*
X9006290Y395700D01*
X8990540Y369250D01*
X8911800Y316330D01*
X8876370Y279290D01*
X8852740Y226360D01*
X8844870Y178750D01*
X9010230D01*
G01X9242510Y168170D02*
X9234630Y173460D01*
Y184040D01*
X9242510Y189330D01*
X9250390Y184040D01*
Y173460D01*
X9242510Y168170D01*
G01X9470860Y242250D02*
X9494470Y205200D01*
X9525970Y184040D01*
X9561410Y178750D01*
X9592910Y184040D01*
X9624400Y210490D01*
X9644080Y242250D01*
X9648020Y274000D01*
X9640150Y311030D01*
X9612590Y337500D01*
X9585030Y348090D01*
X9549590D01*
G01X9585030D02*
X9608650Y363960D01*
X9628340Y390410D01*
X9636210Y422160D01*
X9628340Y453920D01*
X9608650Y480370D01*
X9573220Y496250D01*
X9537790Y490960D01*
X9502350Y469790D01*
G01X8927550Y2401250D02*
X8896050Y2390670D01*
X8872430Y2364210D01*
X8856680Y2332460D01*
X8844870Y2290120D01*
X8840940Y2242500D01*
X8844870Y2194870D01*
X8856680Y2152540D01*
X8872430Y2120780D01*
X8896050Y2094330D01*
X8927550Y2083750D01*
X8959040Y2094330D01*
X8982670Y2120780D01*
X8998420Y2152540D01*
X9010230Y2194870D01*
X9014160Y2242500D01*
X9010230Y2290120D01*
X8998420Y2332460D01*
X8982670Y2364210D01*
X8959040Y2390670D01*
X8927550Y2401250D01*
G01X9242510Y2073170D02*
X9234630Y2078460D01*
Y2089040D01*
X9242510Y2094330D01*
X9250390Y2089040D01*
Y2078460D01*
X9242510Y2073170D01*
G01X9490540Y2120780D02*
X9518100Y2094330D01*
X9549590Y2083750D01*
X9581090Y2094330D01*
X9608650Y2126070D01*
X9628340Y2173710D01*
X9636210Y2221330D01*
Y2279540D01*
X9628340Y2327160D01*
X9608650Y2369500D01*
X9585030Y2390670D01*
X9557470Y2401250D01*
X9525970Y2390670D01*
X9502350Y2369500D01*
X9486600Y2337750D01*
X9478730Y2295410D01*
X9486600Y2258380D01*
X9506290Y2221330D01*
X9529910Y2200160D01*
X9557470Y2194870D01*
X9588960Y2205450D01*
X9612590Y2231910D01*
X9636210Y2279540D01*
G01X8927550Y1448750D02*
Y1766250D01*
X8880310Y1702750D01*
G01Y1448750D02*
X8974790D01*
G01X9242510Y1438170D02*
X9234630Y1443460D01*
Y1454040D01*
X9242510Y1459330D01*
X9250390Y1454040D01*
Y1443460D01*
X9242510Y1438170D01*
G01X9557470Y1766250D02*
X9525970Y1755670D01*
X9502350Y1729210D01*
X9486600Y1697460D01*
X9474790Y1655120D01*
X9470860Y1607500D01*
X9474790Y1559870D01*
X9486600Y1517540D01*
X9502350Y1485780D01*
X9525970Y1459330D01*
X9557470Y1448750D01*
X9588960Y1459330D01*
X9612590Y1485780D01*
X9628340Y1517540D01*
X9640150Y1559870D01*
X9644080Y1607500D01*
X9640150Y1655120D01*
X9628340Y1697460D01*
X9612590Y1729210D01*
X9588960Y1755670D01*
X9557470Y1766250D01*
G01X8927550Y3036250D02*
X8896050Y3025670D01*
X8872430Y2999210D01*
X8856680Y2967460D01*
X8844870Y2925120D01*
X8840940Y2877500D01*
X8844870Y2829870D01*
X8856680Y2787540D01*
X8872430Y2755780D01*
X8896050Y2729330D01*
X8927550Y2718750D01*
X8959040Y2729330D01*
X8982670Y2755780D01*
X8998420Y2787540D01*
X9010230Y2829870D01*
X9014160Y2877500D01*
X9010230Y2925120D01*
X8998420Y2967460D01*
X8982670Y2999210D01*
X8959040Y3025670D01*
X8927550Y3036250D01*
G01X9242510Y2708170D02*
X9234630Y2713460D01*
Y2724040D01*
X9242510Y2729330D01*
X9250390Y2724040D01*
Y2713460D01*
X9242510Y2708170D01*
G01X9557470Y2718750D02*
X9585030Y2724040D01*
X9616520Y2739910D01*
X9636210Y2766360D01*
X9644080Y2803420D01*
X9636210Y2840450D01*
X9612590Y2872200D01*
X9577150Y2888090D01*
X9537790D01*
X9514160Y2898670D01*
X9494470Y2925120D01*
X9486600Y2962160D01*
X9498420Y2999210D01*
X9525970Y3025670D01*
X9557470Y3036250D01*
X9588960Y3025670D01*
X9616520Y2999210D01*
X9628340Y2962160D01*
X9620460Y2925120D01*
X9600780Y2898670D01*
X9577150Y2888090D01*
X9537790D01*
X9502350Y2872200D01*
X9478730Y2840450D01*
X9470860Y2803420D01*
X9478730Y2766360D01*
X9498420Y2739910D01*
X9529910Y2724040D01*
X9557470Y2718750D01*
G01X8612590Y3671250D02*
X8581090Y3660670D01*
X8557470Y3634210D01*
X8541720Y3602460D01*
X8529910Y3560120D01*
X8525980Y3512500D01*
X8529910Y3464870D01*
X8541720Y3422540D01*
X8557470Y3390780D01*
X8581090Y3364330D01*
X8612590Y3353750D01*
X8644080Y3364330D01*
X8667710Y3390780D01*
X8683460Y3422540D01*
X8695270Y3464870D01*
X8699200Y3512500D01*
X8695270Y3560120D01*
X8683460Y3602460D01*
X8667710Y3634210D01*
X8644080Y3660670D01*
X8612590Y3671250D01*
G01X8927550Y3343170D02*
X8919670Y3348460D01*
Y3359040D01*
X8927550Y3364330D01*
X8935430Y3359040D01*
Y3348460D01*
X8927550Y3343170D01*
G01X9167700Y3618330D02*
X9191330Y3650080D01*
X9218890Y3665960D01*
X9250390Y3671250D01*
X9289750Y3660670D01*
X9317320Y3634210D01*
X9325190Y3602460D01*
X9321250Y3570700D01*
X9305500Y3544250D01*
X9226760Y3491330D01*
X9191330Y3454290D01*
X9167700Y3401360D01*
X9159830Y3353750D01*
X9325190D01*
G01X9470860Y3401360D02*
X9494470Y3374910D01*
X9522030Y3359040D01*
X9557470Y3353750D01*
X9592910Y3364330D01*
X9620460Y3385490D01*
X9640150Y3422540D01*
X9644080Y3464870D01*
X9636210Y3507200D01*
X9616520Y3533670D01*
X9588960Y3554830D01*
X9561410Y3560120D01*
X9533850Y3554830D01*
X9498420Y3533670D01*
X9510230Y3671250D01*
X9616520D01*
G01X9919670Y3353750D02*
Y3671250D01*
X9774000Y3443710D01*
X9970860D01*
G01X11129730Y-138750D02*
Y-456250D01*
G01X11039180Y-138750D02*
X11220280D01*
G01X11444690Y-456250D02*
X11413190Y-450960D01*
X11385640Y-429800D01*
X11362010Y-398040D01*
X11346260Y-361000D01*
X11338390Y-318670D01*
Y-276330D01*
X11346260Y-234000D01*
X11362010Y-196960D01*
X11385640Y-165210D01*
X11413190Y-144040D01*
X11444690Y-138750D01*
X11476180Y-144040D01*
X11503740Y-165210D01*
X11527370Y-196960D01*
X11543120Y-234000D01*
X11550990Y-276330D01*
Y-318670D01*
X11543120Y-361000D01*
X11527370Y-398040D01*
X11503740Y-429800D01*
X11476180Y-450960D01*
X11444690Y-456250D01*
G01X11759650Y-138750D02*
Y-456250D01*
G01X11669100Y-138750D02*
X11850200D01*
G01X11976180Y-456250D02*
X12074610Y-138750D01*
X12173040Y-456250D01*
G01X12137600Y-345130D02*
X12011610D01*
G01X12310830Y-138750D02*
Y-456250D01*
X12468310D01*
G01X12936810D02*
Y-138750D01*
G01X13102170D02*
Y-456250D01*
G01Y-297500D02*
X12936810D01*
G01X13334450Y-456250D02*
X13302950Y-450960D01*
X13275400Y-429800D01*
X13251770Y-398040D01*
X13236020Y-361000D01*
X13228150Y-318670D01*
Y-276330D01*
X13236020Y-234000D01*
X13251770Y-196960D01*
X13275400Y-165210D01*
X13302950Y-144040D01*
X13334450Y-138750D01*
X13365940Y-144040D01*
X13393500Y-165210D01*
X13417130Y-196960D01*
X13432880Y-234000D01*
X13440750Y-276330D01*
Y-318670D01*
X13432880Y-361000D01*
X13417130Y-398040D01*
X13393500Y-429800D01*
X13365940Y-450960D01*
X13334450Y-456250D01*
G01X13570670Y-138750D02*
Y-456250D01*
X13728150D01*
G01X14043110D02*
X13885630D01*
Y-138750D01*
X14043110D01*
G01X13980120Y-292200D02*
X13885630D01*
G01X14196650Y-413930D02*
X14228150Y-440380D01*
X14263580Y-456250D01*
X14295080D01*
X14326570Y-440380D01*
X14350200Y-413930D01*
X14362010Y-376870D01*
X14354140Y-339840D01*
X14334450Y-308090D01*
X14299010Y-286910D01*
X14251770Y-276330D01*
X14224210Y-255170D01*
X14212400Y-218130D01*
X14220280Y-181080D01*
X14239960Y-154630D01*
X14267520Y-138750D01*
X14295080D01*
X14322640Y-149330D01*
X14346260Y-175790D01*
G01X14594290Y-466830D02*
X14586410Y-461540D01*
Y-450960D01*
X14594290Y-445670D01*
X14602170Y-450960D01*
Y-461540D01*
X14594290Y-466830D01*
G01Y-323970D02*
X14586410Y-318670D01*
Y-308090D01*
X14594290Y-302800D01*
X14602170Y-308090D01*
Y-318670D01*
X14594290Y-323970D01*
G01X12549590Y813750D02*
Y1131250D01*
X12644080D01*
X12675570Y1115370D01*
X12699200Y1078330D01*
X12707070Y1036000D01*
X12699200Y993670D01*
X12679510Y961910D01*
X12644080Y946030D01*
X12549590D01*
G01X12864550Y1131250D02*
Y813750D01*
X13022030D01*
G01X13159820D02*
X13258250Y1131250D01*
X13356680Y813750D01*
G01X13321240Y924870D02*
X13195250D01*
G01X13573210Y1131250D02*
Y813750D01*
G01X13482660Y1131250D02*
X13663760D01*
G01X13966910Y813750D02*
X13809430D01*
Y1131250D01*
X13966910D01*
G01X13903920Y977800D02*
X13809430D01*
G01X14116520Y813750D02*
Y1131250D01*
X14195250D01*
X14226750Y1115370D01*
X14250370Y1094210D01*
X14270060Y1062460D01*
X14285810Y1025410D01*
X14289740Y972500D01*
X14285810Y919580D01*
X14270060Y882540D01*
X14250370Y850780D01*
X14226750Y829620D01*
X14195250Y813750D01*
X14116520D01*
G01X12549590Y178750D02*
Y496250D01*
X12644080D01*
X12675570Y480370D01*
X12699200Y443330D01*
X12707070Y401000D01*
X12699200Y358670D01*
X12679510Y326910D01*
X12644080Y311030D01*
X12549590D01*
G01X12864550Y496250D02*
Y178750D01*
X13022030D01*
G01X13159820D02*
X13258250Y496250D01*
X13356680Y178750D01*
G01X13321240Y289870D02*
X13195250D01*
G01X13573210Y496250D02*
Y178750D01*
G01X13482660Y496250D02*
X13663760D01*
G01X13966910Y178750D02*
X13809430D01*
Y496250D01*
X13966910D01*
G01X13903920Y342800D02*
X13809430D01*
G01X14116520Y178750D02*
Y496250D01*
X14195250D01*
X14226750Y480370D01*
X14250370Y459210D01*
X14270060Y427460D01*
X14285810Y390410D01*
X14289740Y337500D01*
X14285810Y284580D01*
X14270060Y247540D01*
X14250370Y215780D01*
X14226750Y194620D01*
X14195250Y178750D01*
X14116520D01*
G01X12549590Y2083750D02*
Y2401250D01*
X12644080D01*
X12675570Y2385370D01*
X12699200Y2348330D01*
X12707070Y2306000D01*
X12699200Y2263670D01*
X12679510Y2231910D01*
X12644080Y2216030D01*
X12549590D01*
G01X12864550Y2401250D02*
Y2083750D01*
X13022030D01*
G01X13159820D02*
X13258250Y2401250D01*
X13356680Y2083750D01*
G01X13321240Y2194870D02*
X13195250D01*
G01X13573210Y2401250D02*
Y2083750D01*
G01X13482660Y2401250D02*
X13663760D01*
G01X13966910Y2083750D02*
X13809430D01*
Y2401250D01*
X13966910D01*
G01X13903920Y2247800D02*
X13809430D01*
G01X14116520Y2083750D02*
Y2401250D01*
X14195250D01*
X14226750Y2385370D01*
X14250370Y2364210D01*
X14270060Y2332460D01*
X14285810Y2295410D01*
X14289740Y2242500D01*
X14285810Y2189580D01*
X14270060Y2152540D01*
X14250370Y2120780D01*
X14226750Y2099620D01*
X14195250Y2083750D01*
X14116520D01*
G01X12549590Y1448750D02*
Y1766250D01*
X12644080D01*
X12675570Y1750370D01*
X12699200Y1713330D01*
X12707070Y1671000D01*
X12699200Y1628670D01*
X12679510Y1596910D01*
X12644080Y1581030D01*
X12549590D01*
G01X12864550Y1766250D02*
Y1448750D01*
X13022030D01*
G01X13159820D02*
X13258250Y1766250D01*
X13356680Y1448750D01*
G01X13321240Y1559870D02*
X13195250D01*
G01X13573210Y1766250D02*
Y1448750D01*
G01X13482660Y1766250D02*
X13663760D01*
G01X13966910Y1448750D02*
X13809430D01*
Y1766250D01*
X13966910D01*
G01X13903920Y1612800D02*
X13809430D01*
G01X14116520Y1448750D02*
Y1766250D01*
X14195250D01*
X14226750Y1750370D01*
X14250370Y1729210D01*
X14270060Y1697460D01*
X14285810Y1660410D01*
X14289740Y1607500D01*
X14285810Y1554580D01*
X14270060Y1517540D01*
X14250370Y1485780D01*
X14226750Y1464620D01*
X14195250Y1448750D01*
X14116520D01*
G01X12549590Y2718750D02*
Y3036250D01*
X12644080D01*
X12675570Y3020370D01*
X12699200Y2983330D01*
X12707070Y2941000D01*
X12699200Y2898670D01*
X12679510Y2866910D01*
X12644080Y2851030D01*
X12549590D01*
G01X12864550Y3036250D02*
Y2718750D01*
X13022030D01*
G01X13159820D02*
X13258250Y3036250D01*
X13356680Y2718750D01*
G01X13321240Y2829870D02*
X13195250D01*
G01X13573210Y3036250D02*
Y2718750D01*
G01X13482660Y3036250D02*
X13663760D01*
G01X13966910Y2718750D02*
X13809430D01*
Y3036250D01*
X13966910D01*
G01X13903920Y2882800D02*
X13809430D01*
G01X14116520Y2718750D02*
Y3036250D01*
X14195250D01*
X14226750Y3020370D01*
X14250370Y2999210D01*
X14270060Y2967460D01*
X14285810Y2930410D01*
X14289740Y2877500D01*
X14285810Y2824580D01*
X14270060Y2787540D01*
X14250370Y2755780D01*
X14226750Y2734620D01*
X14195250Y2718750D01*
X14116520D01*
G01X12549590Y3988750D02*
Y4306250D01*
X12644080D01*
X12675570Y4290370D01*
X12699200Y4253330D01*
X12707070Y4211000D01*
X12699200Y4168670D01*
X12679510Y4136910D01*
X12644080Y4121030D01*
X12549590D01*
G01X12864550Y4306250D02*
Y3988750D01*
X13022030D01*
G01X13159820D02*
X13258250Y4306250D01*
X13356680Y3988750D01*
G01X13321240Y4099870D02*
X13195250D01*
G01X13573210Y4306250D02*
Y3988750D01*
G01X13482660Y4306250D02*
X13663760D01*
G01X13966910Y3988750D02*
X13809430D01*
Y4306250D01*
X13966910D01*
G01X13903920Y4152800D02*
X13809430D01*
G01X14116520Y3988750D02*
Y4306250D01*
X14195250D01*
X14226750Y4290370D01*
X14250370Y4269210D01*
X14270060Y4237460D01*
X14285810Y4200410D01*
X14289740Y4147500D01*
X14285810Y4094580D01*
X14270060Y4057540D01*
X14250370Y4025780D01*
X14226750Y4004620D01*
X14195250Y3988750D01*
X14116520D01*
G01X12549590Y3353750D02*
Y3671250D01*
X12644080D01*
X12675570Y3655370D01*
X12699200Y3618330D01*
X12707070Y3576000D01*
X12699200Y3533670D01*
X12679510Y3501910D01*
X12644080Y3486030D01*
X12549590D01*
G01X12864550Y3671250D02*
Y3353750D01*
X13022030D01*
G01X13159820D02*
X13258250Y3671250D01*
X13356680Y3353750D01*
G01X13321240Y3464870D02*
X13195250D01*
G01X13573210Y3671250D02*
Y3353750D01*
G01X13482660Y3671250D02*
X13663760D01*
G01X13966910Y3353750D02*
X13809430D01*
Y3671250D01*
X13966910D01*
G01X13903920Y3517800D02*
X13809430D01*
G01X14116520Y3353750D02*
Y3671250D01*
X14195250D01*
X14226750Y3655370D01*
X14250370Y3634210D01*
X14270060Y3602460D01*
X14285810Y3565410D01*
X14289740Y3512500D01*
X14285810Y3459580D01*
X14270060Y3422540D01*
X14250370Y3390780D01*
X14226750Y3369620D01*
X14195250Y3353750D01*
X14116520D01*
G01X15848790Y-456250D02*
X15856670Y-387460D01*
X15868480Y-329260D01*
X15884230Y-276330D01*
X15903910Y-218130D01*
X15935410Y-138750D01*
X15777930D01*
G01X16171630Y-456250D02*
X16199190Y-450960D01*
X16230680Y-435090D01*
X16250370Y-408640D01*
X16258240Y-371580D01*
X16250370Y-334550D01*
X16226750Y-302800D01*
X16191310Y-286910D01*
X16151950D01*
X16128320Y-276330D01*
X16108630Y-249880D01*
X16100760Y-212840D01*
X16112580Y-175790D01*
X16140130Y-149330D01*
X16171630Y-138750D01*
X16203120Y-149330D01*
X16230680Y-175790D01*
X16242500Y-212840D01*
X16234620Y-249880D01*
X16214940Y-276330D01*
X16191310Y-286910D01*
X16151950D01*
X16116510Y-302800D01*
X16092890Y-334550D01*
X16085020Y-371580D01*
X16092890Y-408640D01*
X16112580Y-435090D01*
X16144070Y-450960D01*
X16171630Y-456250D01*
G01X16061390Y813750D02*
Y1131250D01*
X15915720Y903710D01*
X16112580D01*
G01X16061390Y178750D02*
Y496250D01*
X15915720Y268710D01*
X16112580D01*
G01X16061390Y2083750D02*
Y2401250D01*
X15915720Y2173710D01*
X16112580D01*
G01X16061390Y1448750D02*
Y1766250D01*
X15915720Y1538710D01*
X16112580D01*
G01X16061390Y2718750D02*
Y3036250D01*
X15915720Y2808710D01*
X16112580D01*
G01X15699190Y3988750D02*
X15667690Y3994040D01*
X15640140Y4015200D01*
X15616510Y4046960D01*
X15600760Y4084000D01*
X15592890Y4126330D01*
Y4168670D01*
X15600760Y4211000D01*
X15616510Y4248040D01*
X15640140Y4279790D01*
X15667690Y4300960D01*
X15699190Y4306250D01*
X15730680Y4300960D01*
X15758240Y4279790D01*
X15781870Y4248040D01*
X15797620Y4211000D01*
X15805490Y4168670D01*
Y4126330D01*
X15797620Y4084000D01*
X15781870Y4046960D01*
X15758240Y4015200D01*
X15730680Y3994040D01*
X15699190Y3988750D01*
G01X15730680Y4073420D02*
X15777930Y3988750D01*
G01X16014150Y4306250D02*
Y3988750D01*
G01X15923600Y4306250D02*
X16104700D01*
G01X16329110Y3988750D02*
Y4131620D01*
X16250370Y4306250D01*
G01X16407850D02*
X16329110Y4131620D01*
G01X15770060Y3401360D02*
X15793670Y3374910D01*
X15821230Y3359040D01*
X15856670Y3353750D01*
X15892110Y3364330D01*
X15919660Y3385490D01*
X15939350Y3422540D01*
X15943280Y3464870D01*
X15935410Y3507200D01*
X15915720Y3533670D01*
X15888160Y3554830D01*
X15860610Y3560120D01*
X15833050Y3554830D01*
X15797620Y3533670D01*
X15809430Y3671250D01*
X15915720D01*
G01X16171630Y3353750D02*
X16199190Y3359040D01*
X16230680Y3374910D01*
X16250370Y3401360D01*
X16258240Y3438420D01*
X16250370Y3475450D01*
X16226750Y3507200D01*
X16191310Y3523090D01*
X16151950D01*
X16128320Y3533670D01*
X16108630Y3560120D01*
X16100760Y3597160D01*
X16112580Y3634210D01*
X16140130Y3660670D01*
X16171630Y3671250D01*
X16203120Y3660670D01*
X16230680Y3634210D01*
X16242500Y3597160D01*
X16234620Y3560120D01*
X16214940Y3533670D01*
X16191310Y3523090D01*
X16151950D01*
X16116510Y3507200D01*
X16092890Y3475450D01*
X16085020Y3438420D01*
X16092890Y3401360D01*
X16112580Y3374910D01*
X16144070Y3359040D01*
X16171630Y3353750D01*
G01X-250000Y0D02*
X-1980000D01*
G01X-1730000Y584260D02*
Y0D01*
G01X-1792500Y400000D02*
X-1730000Y0D01*
X-1667500Y400000D01*
X-1792500D01*
G01X-80000Y1600000D02*
X-1980000D01*
G01X-1730000Y1075740D02*
Y1600000D01*
G01X-1667500Y1200000D02*
X-1730000Y1600000D01*
X-1792500Y1200000D01*
X-1667500D01*
G01X0Y-250000D02*
Y-540000D01*
G01X1533140Y-290000D02*
X0D01*
G01X400000Y-227500D02*
X0Y-290000D01*
X400000Y-352500D01*
Y-227500D01*
G01X2166860Y-290000D02*
X3800000D01*
G01Y-30000D02*
Y-540000D01*
G01X3400000Y-352500D02*
X3800000Y-290000D01*
X3400000Y-227500D01*
Y-352500D01*
G01X4400000Y20000D02*
Y5750000D01*
X16998400D01*
Y20000D01*
X4400000D01*
G01Y655000D02*
X16998400D01*
G01X4400000Y1925000D02*
X16998400D01*
G01X4400000Y1290000D02*
X16998400D01*
G01X4400000Y3195000D02*
X16998400D01*
G01X4400000Y2560000D02*
X16998400D01*
G01X4400000Y3830000D02*
X16998400D01*
G01X4400000Y5100000D02*
X16998400D01*
G01X4400000Y4465000D02*
X16998400D01*
G01X6683460D02*
Y20000D01*
G01X11801560Y4465000D02*
Y20000D01*
G01X15029900Y4465000D02*
Y20000D01*
M02*
