G04 ================== begin FILE IDENTIFICATION RECORD ==================*
G04 Layout Name:  H:/MBED-TOOLS/HARDWARE/HY_TYPEC_DBUG_V10A/PCB/HY_TYPEC_DBUG_V10A.brd*
G04 Film Name:    BOTTOM*
G04 File Format:  Gerber RS274X*
G04 File Origin:  Cadence Allegro 17.2-S058*
G04 Origin Date:  Tue Feb 18 10:37:42 2020*
G04 *
G04 Layer:  ETCH/BOTTOM*
G04 Layer:  PIN/BOTTOM*
G04 Layer:  VIA CLASS/BOTTOM*
G04 *
G04 Offset:    (0.0000 0.0000)*
G04 Mirror:    No*
G04 Mode:      Positive*
G04 Rotation:  0*
G04 FullContactRelief:  No*
G04 UndefLineWidth:     0.1524*
G04 ================== end FILE IDENTIFICATION RECORD ====================*
%FSLAX55Y55*MOMM*%
%IR0*IPPOS*OFA0.00000B0.00000*MIA0B0*SFA1.00000B1.00000*%
%ADD19R,1.5X.3*%
%ADD18R,1.4X.7*%
%ADD10C,.508*%
%ADD13R,.8X.8*%
%ADD12O,2.1X1.*%
%ADD11O,1.6X1.*%
%ADD15R,1.4X1.2*%
%ADD14R,.5X.6*%
%ADD17C,1.8*%
%ADD16R,1.9X1.9*%
%ADD20C,.2032*%
%ADD21C,.254*%
%ADD22C,.762*%
%ADD23C,.8004*%
G75*
%LPD*%
G75*
G36*
G01X2900000Y1980000D02*
G02X2980000Y1900000I1667J-78333D01*
G01Y1295740D01*
X2825000D01*
G03X2808700Y1292740I-7J-45741D01*
G02X2781140Y1311720I-7241J18985D01*
G01Y1643960D01*
G02X2801790Y1664280I20320J2D01*
G03X2804000Y1664260I2333J135719D01*
G03Y1935740I0J135740D01*
G03X2718460Y1905390I6J-135738D01*
G02X2687000Y1913120I-12802J15781D01*
G03X2645000Y1940740I-42000J-18123D01*
G01X2455000D01*
G03X2413030Y1913190I0J-45744D01*
G01X2410380Y1907070D01*
X435930D01*
G03X385630Y1886230I6J-71137D01*
G01X269700Y1770300D01*
G03X248860Y1720000I50297J-50306D01*
G01Y160000D01*
G03X269700Y109700I71137J6D01*
G01X324700Y54690D01*
G02X310340Y20000I-14364J-14371D01*
G01X100000D01*
G02X20000Y100000I15000J95000D01*
G01Y1900000D01*
G02X100000Y1980000I78333J1667D01*
G01X2900000D01*
G37*
G36*
G01X1704900Y1764790D02*
X2058060D01*
Y1495800D01*
G03X2063490Y1468550I71138J9D01*
G01X2064260Y1466680D01*
Y1460000D01*
G03X2110000Y1414260I45740J0D01*
G01X2160000D01*
G03X2163030Y1414360I7J45740D01*
G02X2173860Y1404220I670J-10138D01*
G01Y1190780D01*
G02X2163030Y1180640I-10160J-2D01*
G03X2160000Y1180740I-3023J-45640D01*
G01X2110000D01*
G03X2064260Y1135000I0J-45740D01*
G01Y1112550D01*
X2064210Y1112050D01*
G03X2063860Y1105000I70790J-7048D01*
G03X2064210Y1097950I71140J-2D01*
G01X2064260Y1097450D01*
Y1075000D01*
G03X2064320Y1072590I45742J-67D01*
G02X2050470Y1062590I-10146J-539D01*
G03X2033800Y1065740I-16680J-42588D01*
G01X1953800D01*
G03X1916250Y1046120I0J-45743D01*
G03X1890000Y1051140I-26250J-66122D01*
G03Y908860I0J-71140D01*
G03X1916250Y913880I0J71142D01*
G03X1953800Y894260I37550J26123D01*
G01X2033800D01*
G03X2047630Y896400I3J45740D01*
G02X2060790Y885500I3074J-9683D01*
G03X2060460Y880000I45411J-5485D01*
G01Y805100D01*
X2019000D01*
G03X1975000Y820340I-44000J-55897D01*
G03X1903860Y749200I0J-71140D01*
G03X1904120Y743180I71138J57D01*
G02X1883870Y721140I-20248J-1719D01*
G01X1310800D01*
G02X1296440Y755830I4J20319D01*
G01X1324100Y783500D01*
G03X1344940Y833800I-50283J50300D01*
G01Y984260D01*
X1466200D01*
G03X1511940Y1030000I0J45740D01*
G01Y1110000D01*
G03X1500730Y1140000I-45748J0D01*
G03X1511940Y1170000I-34538J30000D01*
G01Y1213090D01*
X1516320Y1217480D01*
G03X1533440Y1258800I-41318J41326D01*
G01Y1264330D01*
X1535030Y1266820D01*
G03X1546140Y1305000I-60031J38175D01*
G03X1475000Y1376140I-71140J0D01*
G03X1403860Y1305790I0J-71144D01*
G01X1403750Y1295740D01*
X1386200D01*
G03X1340460Y1250000I0J-45740D01*
G01Y1170000D01*
G03X1340580Y1166650I45741J-39D01*
G01X1340610Y1166270D01*
Y1155740D01*
X1235740D01*
Y1508950D01*
X1188950Y1555740D01*
X944260D01*
Y888950D01*
X901050Y845740D01*
X721050D01*
X664260Y788950D01*
Y651050D01*
X711050Y604260D01*
X788600D01*
X790230Y596090D01*
G03X860000Y538860I69770J13914D01*
G01X960460D01*
Y470000D01*
G03X987790Y428130I45738J0D01*
G01X993860Y425460D01*
Y380000D01*
G03X994210Y372950I71140J-2D01*
G01X994260Y372450D01*
Y350000D01*
G03X1005470Y320000I45748J0D01*
G03X999470Y311190I34547J-29976D01*
G01X996620Y305740D01*
X994260D01*
Y267550D01*
X994210Y267050D01*
G03X993860Y260000I70790J-7048D01*
G01Y255000D01*
G03X994210Y247950I71140J-2D01*
G01X994260Y247450D01*
Y210480D01*
X989930Y207450D01*
G03X970460Y170000I26282J-37450D01*
G01Y144870D01*
X936730Y111140D01*
X469470D01*
X391140Y189470D01*
Y1690530D01*
X465400Y1764790D01*
X1475100D01*
Y1753750D01*
X1474940Y1752880D01*
G03X1474260Y1745000I45062J-7858D01*
G01Y1625000D01*
G03X1520000Y1579260I45740J0D01*
G01X1616690D01*
X1654100Y1541850D01*
Y1423150D01*
X1626690Y1395740D01*
X1620000D01*
G03X1574260Y1350000I0J-45740D01*
G01Y1290000D01*
G03X1585490Y1259980I45740J0D01*
G03X1578860Y1230000I64508J-29989D01*
G03X1650000Y1158860I71140J0D01*
G03X1700690Y1180080I0J71154D01*
G02X1728460Y1181200I14482J-14253D01*
G03X1775000Y1163860I46540J53786D01*
G03X1846140Y1235000I0J71140D01*
G03X1838990Y1266080I-71139J-3D01*
G03X1845740Y1290000I-38991J23915D01*
G01Y1350000D01*
G03X1843820Y1363110I-45740J-3D01*
G02X1863290Y1389260I19466J5830D01*
G01X1900000D01*
G03X1945740Y1435000I0J45740D01*
G01Y1555000D01*
G03X1900000Y1600740I-45740J0D01*
G01X1760000D01*
G03X1753380Y1600260I-11J-45741D01*
G03X1749530Y1604530I-43388J-35250D01*
G01X1705740Y1648310D01*
Y1745000D01*
G03X1705060Y1752880I-45742J22D01*
G01X1704900Y1753750D01*
Y1764790D01*
G37*
G36*
G01X730000Y650000D02*
X710000Y670000D01*
Y770000D01*
X740000Y800000D01*
X920000D01*
X990000Y870000D01*
Y1350000D01*
X995000Y1355000D01*
X990000Y1360000D01*
Y1510000D01*
X1170000D01*
X1190000Y1490000D01*
Y850610D01*
X1020530Y681140D01*
X860000D01*
G03X801170Y650000I0J-71141D01*
G01X730000D01*
G37*
G36*
G01X1340000Y260000D02*
X1350000Y250000D01*
Y90000D01*
X1330000Y70000D01*
X1050000D01*
X1040000Y80000D01*
Y260000D01*
X1089390D01*
X1099700Y249700D01*
G03X1150000Y228860I50306J50297D01*
G03X1208830Y260000I0J71141D01*
G01X1340000D01*
G37*
G36*
G01X1215670Y578860D02*
X1740460D01*
Y520000D01*
G03X1757420Y484450I45738J0D01*
G02X1762490Y458960I-12787J-15793D01*
G03X1753860Y425000I62503J-33960D01*
G03X1825000Y353860I71140J0D01*
G03X1828670Y353950I91J71142D01*
G03X1836900Y342660I61324J36058D01*
G02X1829310Y325740I-7585J-6760D01*
G01X1633800D01*
G03X1588060Y280000I0J-45740D01*
G01Y200000D01*
G03X1604270Y165070I45739J0D01*
G03X1602660Y150160I69532J-15050D01*
G01X1602640Y140020D01*
X1398550D01*
X1395740Y142830D01*
Y181650D01*
X1396430Y183420D01*
G03X1399540Y200000I-42641J16580D01*
G01Y280000D01*
G03X1353800Y325740I-45740J0D01*
G01X1273800D01*
G03X1238740Y309380I0J-45747D01*
G01X1235690Y305740D01*
X1221400D01*
X1219770Y313910D01*
G03X1200300Y350300I-69764J-13923D01*
G01X1140300Y410300D01*
G03X1136140Y414150I-50361J-50244D01*
G01Y471200D01*
G03X1133700Y489690I-71142J18D01*
G01X1132170Y495360D01*
X1215670Y578860D01*
G37*
G36*
G01X2079540Y1020000D02*
G03X2079480Y1022410I-45742J67D01*
G02X2093330Y1032410I10146J539D01*
G03X2110000Y1029260I16680J42588D01*
G01X2160000D01*
G03X2167120Y1029820I-15J45739D01*
G01X2167900Y1029940D01*
X2178860D01*
Y925740D01*
X2106200D01*
G03X2092370Y923600I-3J-45740D01*
G02X2079210Y934500I-3074J9683D01*
G03X2079540Y940000I-45411J5485D01*
G01Y1020000D01*
G37*
G36*
G01X2200340Y1764790D02*
X2409260D01*
Y1705000D01*
G03X2455000Y1659260I45740J0D01*
G01X2638860D01*
Y1170000D01*
G03X2710000Y1098860I71140J0D01*
G03X2748070Y1109900I5J71142D01*
G02X2779260Y1092740I10871J-17166D01*
G01Y907260D01*
G02X2748070Y890100I-20319J6D01*
G03X2710000Y901140I-38065J-60102D01*
G03X2668350Y887670I0J-71127D01*
G03X2626700Y901140I-41650J-57657D01*
G03X2610770Y899330I15J-71138D01*
G02X2585900Y919140I-4549J19805D01*
G01Y1000000D01*
G03X2569530Y1039530I-55913J0D01*
G01X2510730Y1098330D01*
X2510200Y1101550D01*
G03X2440000Y1161140I-70200J-11555D01*
G03X2368860Y1090000I0J-71140D01*
G03X2428450Y1019800I71145J0D01*
G01X2431670Y1019270D01*
X2474100Y976850D01*
Y733900D01*
X2462740D01*
X2461570Y734180D01*
G03X2456550Y735200I-16666J-69160D01*
G01X2453330Y735730D01*
X2400330Y788730D01*
G03X2360800Y805100I-39530J-39543D01*
G01X2321140D01*
Y1100000D01*
G03X2316760Y1124560I-71137J-16D01*
G01X2316140Y1126260D01*
Y1463740D01*
X2316760Y1465440D01*
G03X2321140Y1490000I-66757J24576D01*
G03X2250000Y1561140I-71140J0D01*
G01X2200340D01*
Y1764790D01*
G37*
G36*
G01X2781140Y346040D02*
Y708280D01*
G02X2808700Y727260I20319J-5D01*
G03X2825000Y724260I16293J42741D01*
G01X2980000D01*
Y100000D01*
G02X2900000Y20000I-78333J-1667D01*
G01X2503100D01*
G02X2495910Y37340I-3J10159D01*
G01X2507830Y49260D01*
X2645000D01*
G03X2687000Y76880I0J45743D01*
G02X2718460Y84610I18658J-8051D01*
G03X2804000Y54260I85546J105388D01*
G03Y325740I0J135740D01*
G03X2801790Y325720I123J-135739D01*
G02X2781140Y346040I-330J20318D01*
G37*
%LPC*%
G75*
G54D23*
X483000Y721000D03*
Y1299000D03*
%LPD*%
G75*
G54D10*
G01X2550000Y1800000D02*
X2510000D01*
X2474070Y1835930D01*
X435930D01*
X320000Y1720000D01*
Y160000D01*
X440000Y40000D01*
X966200D01*
X1056200Y130000D01*
G01X860000Y610000D02*
X1050000D01*
X1273800Y833800D01*
Y1070000D01*
G01X1150000Y300000D02*
X1090000Y360000D01*
X1085000D01*
X1065000Y380000D01*
G01D02*
Y471200D01*
X1046200Y490000D01*
Y510000D01*
G01D02*
X1186200Y650000D01*
X2060000D01*
X2136200Y573800D01*
Y560000D01*
G01X1090000Y230000D02*
X1065000Y255000D01*
Y260000D01*
G01X2136200Y420000D02*
X2283800D01*
G01X2250000Y810000D02*
X2176200D01*
X2146200Y840000D01*
G01X2136200Y560000D02*
X2283800D01*
G01X2250000Y810000D02*
Y1100000D01*
X2245000Y1105000D01*
G01X2135000D02*
X2245000D01*
G01D02*
Y1485000D01*
X2250000Y1490000D01*
G01X2129200Y1760800D02*
Y1495800D01*
X2135000Y1490000D01*
G01D02*
X2250000D01*
G01X2283800Y560000D02*
Y420000D01*
G01X2710000Y830000D02*
Y284000D01*
X2804000Y190000D01*
G01X2710000Y1170000D02*
Y1706000D01*
X2804000Y1800000D01*
X110000Y110000D03*
Y250000D03*
Y870000D03*
Y730000D03*
Y1170000D03*
Y1310000D03*
Y1010000D03*
X100000Y1710000D03*
Y1850000D03*
X470000Y480000D03*
X430000Y920000D03*
Y1060000D03*
X470000Y1560000D03*
X610000Y480000D03*
X800000Y870000D03*
X780000Y770000D03*
Y706500D03*
X860000Y610000D03*
X800000Y1010000D03*
X780000Y1360000D03*
Y1500000D03*
X610000Y1560000D03*
X1390000Y490000D03*
Y360000D03*
X1150000Y300000D03*
X1160000Y190000D03*
Y130000D03*
X1220000Y190000D03*
Y130000D03*
X1150000Y1260000D03*
Y1190000D03*
Y1330000D03*
X1200000Y1730000D03*
X1530000Y490000D03*
Y360000D03*
X1673800Y150000D03*
X1590000Y900000D03*
X1800000D03*
X1590000Y1040000D03*
X1800000D03*
X1775000Y1235000D03*
X1475000Y1305000D03*
X1650000Y1230000D03*
X1480000Y1410000D03*
X1960000Y167760D03*
X1890000Y390000D03*
X1825000Y425000D03*
X1890000Y460000D03*
X1975000Y749200D03*
X1890000Y980000D03*
X2129200Y1760800D03*
X2540000Y420000D03*
X2440000Y940000D03*
X2626700Y830000D03*
X2445000Y665000D03*
X2530000Y660000D03*
X2250000Y810000D03*
X2530000Y560000D03*
X2440000Y1330000D03*
X2370000Y1170000D03*
X2510000D03*
X2440000Y1090000D03*
X2245000Y1105000D03*
X2350000Y1570000D03*
Y1710000D03*
X2250000Y1490000D03*
X2890000Y400000D03*
Y540000D03*
X2710000Y830000D03*
Y1170000D03*
X2900000Y1470000D03*
Y1610000D03*
G54D20*
G01X1673800Y150000D02*
Y240000D01*
G01X1775000Y1235000D02*
Y1320000D01*
G01D02*
Y1440000D01*
X1830000Y1495000D01*
G01X1650000Y1230000D02*
Y1315000D01*
X1645000Y1320000D01*
G01X1590000Y1685000D02*
X1710000Y1565000D01*
Y1400000D01*
X1645000Y1335000D01*
Y1320000D01*
G01X2626700Y830000D02*
Y406700D01*
X2560000Y340000D01*
X2200000D01*
X2030000Y170000D01*
X1962240D01*
X1960000Y167760D01*
G01X1826200Y240000D02*
X1956200D01*
X2136200Y420000D01*
G01X1890000Y390000D02*
X1953800D01*
X1983800Y420000D01*
G01X1825000Y425000D02*
Y558800D01*
X1826200Y560000D01*
G01X1890000Y460000D02*
Y466200D01*
X1983800Y560000D01*
G01X2445000Y665000D02*
X2360800Y749200D01*
X1975000D01*
G01X1890000Y980000D02*
X1993800D01*
G01X2540000Y420000D02*
X2436200D01*
G01X2530000Y660000D02*
Y1000000D01*
X2440000Y1090000D01*
G01X2530000Y560000D02*
X2436200D01*
G54D11*
X118000Y578000D03*
Y1442000D03*
G54D21*
G01X1426200Y1070000D02*
Y1210000D01*
G01X1475000Y1305000D02*
Y1258800D01*
X1426200Y1210000D01*
G01X1993800Y840000D02*
X2133800Y980000D01*
G01X2045000Y1105000D02*
Y1075000D01*
G01X2120720Y999280D02*
X2146200D01*
Y980000D01*
G01X2133800D02*
X2146200D01*
G01X2045000Y1075000D02*
X2120720Y999280D01*
G01X2905000Y650000D02*
X2900000Y655000D01*
G01X2750000Y910000D02*
X2790000Y870000D01*
Y660000D01*
G01X2900000Y655000D02*
Y735000D01*
G01X2790000Y1310000D02*
Y1120000D01*
X2750000Y1080000D01*
G01X2905000Y1370000D02*
X2900000Y1365000D01*
G01D02*
Y1285000D01*
G54D12*
X536000Y578000D03*
Y1442000D03*
G54D22*
G01X1310000Y110000D02*
X1363820Y56180D01*
X2396180D01*
X2530000Y190000D01*
X2550000D01*
G54D13*
X903800Y130000D03*
X893800Y510000D03*
X883800Y1320000D03*
Y1180000D03*
Y1040000D03*
Y1460000D03*
X1056200Y130000D03*
X1313800Y240000D03*
X1046200Y510000D03*
X1273800Y1210000D03*
Y1070000D03*
X1036200Y1320000D03*
Y1180000D03*
Y1040000D03*
Y1460000D03*
X1826200Y240000D03*
X1673800D03*
X1826200Y560000D03*
X1673800D03*
X1466200Y240000D03*
X1426200Y1210000D03*
Y1070000D03*
X1983800Y420000D03*
X2136200D03*
X1983800Y560000D03*
X2136200D03*
X2146200Y980000D03*
X1993800D03*
X2146200Y840000D03*
X1993800D03*
X2436200Y420000D03*
X2283800D03*
X2436200Y560000D03*
X2283800D03*
G54D14*
X1065000Y260000D03*
X975000D03*
X1065000Y380000D03*
X975000D03*
X1775000Y1320000D03*
X1645000D03*
X1555000D03*
X1865000D03*
X2135000Y1105000D03*
X2045000D03*
X2135000Y1490000D03*
X2045000D03*
G54D15*
X1590000Y1685000D03*
X1830000D03*
Y1495000D03*
X1590000D03*
G54D16*
X2550000Y190000D03*
Y1800000D03*
G54D17*
X2804000Y190000D03*
Y1800000D03*
G54D18*
X2905000Y650000D03*
Y1370000D03*
G54D19*
X2900000Y935000D03*
Y885000D03*
Y835000D03*
Y785000D03*
Y735000D03*
Y1285000D03*
Y1235000D03*
Y1185000D03*
Y1135000D03*
Y1085000D03*
Y1035000D03*
Y985000D03*
M02*
