G04 ================== begin FILE IDENTIFICATION RECORD ==================*
G04 Layout Name:  H:/MBED-TOOLS/HARDWARE/HY_TYPEC_DBUG_V10A/PCB/HY_TYPEC_DBUG_V10A.brd*
G04 Film Name:    Drill_Legend*
G04 File Format:  Gerber RS274X*
G04 File Origin:  Cadence Allegro 17.2-S058*
G04 Origin Date:  Tue Feb 18 10:37:42 2020*
G04 *
G04 Layer:  MANUFACTURING/NCLEGEND-1-2*
G04 Layer:  MANUFACTURING/NCLEGEND-1-4*
G04 Layer:  MANUFACTURING/NCDRILL_LEGEND*
G04 Layer:  MANUFACTURING/NCDRILL_FIGURE*
G04 Layer:  BOARD GEOMETRY/DIMENSION*
G04 *
G04 Offset:    (0.0000 0.0000)*
G04 Mirror:    No*
G04 Mode:      Positive*
G04 Rotation:  0*
G04 FullContactRelief:  No*
G04 UndefLineWidth:     0.1524*
G04 ================== end FILE IDENTIFICATION RECORD ====================*
%FSLAX55Y55*MOMM*%
%IR0*IPPOS*OFA0.00000B0.00000*MIA0B0*SFA1.00000B1.00000*%
%AMMACRO11*
1,1,.1524,-.3,.3*
20,1,.1524,-.3,.3,.3,.3,0.0*
1,1,.1524,.3,.3*
20,1,.1524,.3,.3,.352094,.295442,0.0*
1,1,.1524,.352094,.295442*
20,1,.1524,.352094,.295442,.402606,.281908,0.0*
1,1,.1524,.402606,.281908*
20,1,.1524,.402606,.281908,.45,.259808,0.0*
1,1,.1524,.45,.259808*
20,1,.1524,.45,.259808,.492836,.229813,0.0*
1,1,.1524,.492836,.229813*
20,1,.1524,.492836,.229813,.529813,.192836,0.0*
1,1,.1524,.529813,.192836*
20,1,.1524,.529813,.192836,.559808,.15,0.0*
1,1,.1524,.559808,.15*
20,1,.1524,.559808,.15,.581908,.102606,0.0*
1,1,.1524,.581908,.102606*
20,1,.1524,.581908,.102606,.595442,.052094,0.0*
1,1,.1524,.595442,.052094*
20,1,.1524,.595442,.052094,.6,0.0,0.0*
1,1,.1524,.6,0.0*
20,1,.1524,.6,0.0,.595442,-.052094,0.0*
1,1,.1524,.595442,-.052094*
20,1,.1524,.595442,-.052094,.581908,-.102606,0.0*
1,1,.1524,.581908,-.102606*
20,1,.1524,.581908,-.102606,.559808,-.15,0.0*
1,1,.1524,.559808,-.15*
20,1,.1524,.559808,-.15,.529813,-.192836,0.0*
1,1,.1524,.529813,-.192836*
20,1,.1524,.529813,-.192836,.492836,-.229813,0.0*
1,1,.1524,.492836,-.229813*
20,1,.1524,.492836,-.229813,.45,-.259808,0.0*
1,1,.1524,.45,-.259808*
20,1,.1524,.45,-.259808,.402606,-.281908,0.0*
1,1,.1524,.402606,-.281908*
20,1,.1524,.402606,-.281908,.352094,-.295442,0.0*
1,1,.1524,.352094,-.295442*
20,1,.1524,.352094,-.295442,.3,-.3,0.0*
1,1,.1524,.3,-.3*
20,1,.1524,.3,-.3,-.3,-.3,0.0*
1,1,.1524,-.3,-.3*
20,1,.1524,-.3,-.3,-.352094,-.295442,0.0*
1,1,.1524,-.352094,-.295442*
20,1,.1524,-.352094,-.295442,-.402606,-.281908,0.0*
1,1,.1524,-.402606,-.281908*
20,1,.1524,-.402606,-.281908,-.45,-.259808,0.0*
1,1,.1524,-.45,-.259808*
20,1,.1524,-.45,-.259808,-.492836,-.229813,0.0*
1,1,.1524,-.492836,-.229813*
20,1,.1524,-.492836,-.229813,-.529813,-.192836,0.0*
1,1,.1524,-.529813,-.192836*
20,1,.1524,-.529813,-.192836,-.559808,-.15,0.0*
1,1,.1524,-.559808,-.15*
20,1,.1524,-.559808,-.15,-.581908,-.102606,0.0*
1,1,.1524,-.581908,-.102606*
20,1,.1524,-.581908,-.102606,-.595442,-.052094,0.0*
1,1,.1524,-.595442,-.052094*
20,1,.1524,-.595442,-.052094,-.6,0.0,0.0*
1,1,.1524,-.6,0.0*
20,1,.1524,-.6,0.0,-.595442,.052094,0.0*
1,1,.1524,-.595442,.052094*
20,1,.1524,-.595442,.052094,-.581908,.102606,0.0*
1,1,.1524,-.581908,.102606*
20,1,.1524,-.581908,.102606,-.559808,.15,0.0*
1,1,.1524,-.559808,.15*
20,1,.1524,-.559808,.15,-.529813,.192836,0.0*
1,1,.1524,-.529813,.192836*
20,1,.1524,-.529813,.192836,-.492836,.229813,0.0*
1,1,.1524,-.492836,.229813*
20,1,.1524,-.492836,.229813,-.45,.259808,0.0*
1,1,.1524,-.45,.259808*
20,1,.1524,-.45,.259808,-.402606,.281908,0.0*
1,1,.1524,-.402606,.281908*
20,1,.1524,-.402606,.281908,-.352094,.295442,0.0*
1,1,.1524,-.352094,.295442*
20,1,.1524,-.352094,.295442,-.3,.3,0.0*
1,1,.1524,-.3,.3*
1,1,.1524,-.15,-.15*
20,1,.1524,-.15,-.15,-.19,-.145,0.0*
1,1,.1524,-.19,-.145*
20,1,.1524,-.19,-.145,-.225,-.125,0.0*
1,1,.1524,-.225,-.125*
20,1,.1524,-.225,-.125,-.255,-.095,0.0*
1,1,.1524,-.255,-.095*
20,1,.1524,-.255,-.095,-.275,-.06,0.0*
1,1,.1524,-.275,-.06*
20,1,.1524,-.275,-.06,-.285,-.02,0.0*
1,1,.1524,-.285,-.02*
20,1,.1524,-.285,-.02,-.285,.02,0.0*
1,1,.1524,-.285,.02*
20,1,.1524,-.285,.02,-.275,.06,0.0*
1,1,.1524,-.275,.06*
20,1,.1524,-.275,.06,-.255,.095,0.0*
1,1,.1524,-.255,.095*
20,1,.1524,-.255,.095,-.225,.125,0.0*
1,1,.1524,-.225,.125*
20,1,.1524,-.225,.125,-.19,.145,0.0*
1,1,.1524,-.19,.145*
20,1,.1524,-.19,.145,-.15,.15,0.0*
1,1,.1524,-.15,.15*
20,1,.1524,-.15,.15,-.11,.145,0.0*
1,1,.1524,-.11,.145*
20,1,.1524,-.11,.145,-.075,.125,0.0*
1,1,.1524,-.075,.125*
20,1,.1524,-.075,.125,-.045,.095,0.0*
1,1,.1524,-.045,.095*
20,1,.1524,-.045,.095,-.025,.06,0.0*
1,1,.1524,-.025,.06*
20,1,.1524,-.025,.06,-.015,.02,0.0*
1,1,.1524,-.015,.02*
20,1,.1524,-.015,.02,-.015,-.02,0.0*
1,1,.1524,-.015,-.02*
20,1,.1524,-.015,-.02,-.025,-.06,0.0*
1,1,.1524,-.025,-.06*
20,1,.1524,-.025,-.06,-.045,-.095,0.0*
1,1,.1524,-.045,-.095*
20,1,.1524,-.045,-.095,-.075,-.125,0.0*
1,1,.1524,-.075,-.125*
20,1,.1524,-.075,-.125,-.11,-.145,0.0*
1,1,.1524,-.11,-.145*
20,1,.1524,-.11,-.145,-.15,-.15,0.0*
1,1,.1524,-.15,-.15*
1,1,.1524,.0251,-.15*
20,1,.1524,.0251,-.15,.1501,.15,0.0*
1,1,.1524,.1501,.15*
20,1,.1524,.1501,.15,.2751,-.15,0.0*
1,1,.1524,.2751,-.15*
1,1,.1524,.2301,-.045*
20,1,.1524,.2301,-.045,.0701,-.045,0.0*
1,1,.1524,.0701,-.045*
%
%ADD11MACRO11*%
%AMMACRO12*
1,1,.1524,-.55,.3*
20,1,.1524,-.55,.3,.55,.3,0.0*
1,1,.1524,.55,.3*
20,1,.1524,.55,.3,.602094,.295442,0.0*
1,1,.1524,.602094,.295442*
20,1,.1524,.602094,.295442,.652606,.281908,0.0*
1,1,.1524,.652606,.281908*
20,1,.1524,.652606,.281908,.7,.259808,0.0*
1,1,.1524,.7,.259808*
20,1,.1524,.7,.259808,.742836,.229813,0.0*
1,1,.1524,.742836,.229813*
20,1,.1524,.742836,.229813,.779813,.192836,0.0*
1,1,.1524,.779813,.192836*
20,1,.1524,.779813,.192836,.809808,.15,0.0*
1,1,.1524,.809808,.15*
20,1,.1524,.809808,.15,.831908,.102606,0.0*
1,1,.1524,.831908,.102606*
20,1,.1524,.831908,.102606,.845442,.052094,0.0*
1,1,.1524,.845442,.052094*
20,1,.1524,.845442,.052094,.85,0.0,0.0*
1,1,.1524,.85,0.0*
20,1,.1524,.85,0.0,.845442,-.052094,0.0*
1,1,.1524,.845442,-.052094*
20,1,.1524,.845442,-.052094,.831908,-.102606,0.0*
1,1,.1524,.831908,-.102606*
20,1,.1524,.831908,-.102606,.809808,-.15,0.0*
1,1,.1524,.809808,-.15*
20,1,.1524,.809808,-.15,.779813,-.192836,0.0*
1,1,.1524,.779813,-.192836*
20,1,.1524,.779813,-.192836,.742836,-.229813,0.0*
1,1,.1524,.742836,-.229813*
20,1,.1524,.742836,-.229813,.7,-.259808,0.0*
1,1,.1524,.7,-.259808*
20,1,.1524,.7,-.259808,.652606,-.281908,0.0*
1,1,.1524,.652606,-.281908*
20,1,.1524,.652606,-.281908,.602094,-.295442,0.0*
1,1,.1524,.602094,-.295442*
20,1,.1524,.602094,-.295442,.55,-.3,0.0*
1,1,.1524,.55,-.3*
20,1,.1524,.55,-.3,-.55,-.3,0.0*
1,1,.1524,-.55,-.3*
20,1,.1524,-.55,-.3,-.602094,-.295442,0.0*
1,1,.1524,-.602094,-.295442*
20,1,.1524,-.602094,-.295442,-.652606,-.281908,0.0*
1,1,.1524,-.652606,-.281908*
20,1,.1524,-.652606,-.281908,-.7,-.259808,0.0*
1,1,.1524,-.7,-.259808*
20,1,.1524,-.7,-.259808,-.742836,-.229813,0.0*
1,1,.1524,-.742836,-.229813*
20,1,.1524,-.742836,-.229813,-.779813,-.192836,0.0*
1,1,.1524,-.779813,-.192836*
20,1,.1524,-.779813,-.192836,-.809808,-.15,0.0*
1,1,.1524,-.809808,-.15*
20,1,.1524,-.809808,-.15,-.831908,-.102606,0.0*
1,1,.1524,-.831908,-.102606*
20,1,.1524,-.831908,-.102606,-.845442,-.052094,0.0*
1,1,.1524,-.845442,-.052094*
20,1,.1524,-.845442,-.052094,-.85,0.0,0.0*
1,1,.1524,-.85,0.0*
20,1,.1524,-.85,0.0,-.845442,.052094,0.0*
1,1,.1524,-.845442,.052094*
20,1,.1524,-.845442,.052094,-.831908,.102606,0.0*
1,1,.1524,-.831908,.102606*
20,1,.1524,-.831908,.102606,-.809808,.15,0.0*
1,1,.1524,-.809808,.15*
20,1,.1524,-.809808,.15,-.779813,.192836,0.0*
1,1,.1524,-.779813,.192836*
20,1,.1524,-.779813,.192836,-.742836,.229813,0.0*
1,1,.1524,-.742836,.229813*
20,1,.1524,-.742836,.229813,-.7,.259808,0.0*
1,1,.1524,-.7,.259808*
20,1,.1524,-.7,.259808,-.652606,.281908,0.0*
1,1,.1524,-.652606,.281908*
20,1,.1524,-.652606,.281908,-.602094,.295442,0.0*
1,1,.1524,-.602094,.295442*
20,1,.1524,-.602094,.295442,-.55,.3,0.0*
1,1,.1524,-.55,.3*
1,1,.1524,-.15,-.15*
20,1,.1524,-.15,-.15,-.19,-.145,0.0*
1,1,.1524,-.19,-.145*
20,1,.1524,-.19,-.145,-.225,-.125,0.0*
1,1,.1524,-.225,-.125*
20,1,.1524,-.225,-.125,-.255,-.095,0.0*
1,1,.1524,-.255,-.095*
20,1,.1524,-.255,-.095,-.275,-.06,0.0*
1,1,.1524,-.275,-.06*
20,1,.1524,-.275,-.06,-.285,-.02,0.0*
1,1,.1524,-.285,-.02*
20,1,.1524,-.285,-.02,-.285,.02,0.0*
1,1,.1524,-.285,.02*
20,1,.1524,-.285,.02,-.275,.06,0.0*
1,1,.1524,-.275,.06*
20,1,.1524,-.275,.06,-.255,.095,0.0*
1,1,.1524,-.255,.095*
20,1,.1524,-.255,.095,-.225,.125,0.0*
1,1,.1524,-.225,.125*
20,1,.1524,-.225,.125,-.19,.145,0.0*
1,1,.1524,-.19,.145*
20,1,.1524,-.19,.145,-.15,.15,0.0*
1,1,.1524,-.15,.15*
20,1,.1524,-.15,.15,-.11,.145,0.0*
1,1,.1524,-.11,.145*
20,1,.1524,-.11,.145,-.075,.125,0.0*
1,1,.1524,-.075,.125*
20,1,.1524,-.075,.125,-.045,.095,0.0*
1,1,.1524,-.045,.095*
20,1,.1524,-.045,.095,-.025,.06,0.0*
1,1,.1524,-.025,.06*
20,1,.1524,-.025,.06,-.015,.02,0.0*
1,1,.1524,-.015,.02*
20,1,.1524,-.015,.02,-.015,-.02,0.0*
1,1,.1524,-.015,-.02*
20,1,.1524,-.015,-.02,-.025,-.06,0.0*
1,1,.1524,-.025,-.06*
20,1,.1524,-.025,-.06,-.045,-.095,0.0*
1,1,.1524,-.045,-.095*
20,1,.1524,-.045,-.095,-.075,-.125,0.0*
1,1,.1524,-.075,-.125*
20,1,.1524,-.075,-.125,-.11,-.145,0.0*
1,1,.1524,-.11,-.145*
20,1,.1524,-.11,-.145,-.15,-.15,0.0*
1,1,.1524,-.15,-.15*
1,1,.1524,.1901,.01*
20,1,.1524,.1901,.01,.2101,.025,0.0*
1,1,.1524,.2101,.025*
20,1,.1524,.2101,.025,.2251,.05,0.0*
1,1,.1524,.2251,.05*
20,1,.1524,.2251,.05,.2351,.085,0.0*
1,1,.1524,.2351,.085*
20,1,.1524,.2351,.085,.2251,.115,0.0*
1,1,.1524,.2251,.115*
20,1,.1524,.2251,.115,.2051,.135,0.0*
1,1,.1524,.2051,.135*
20,1,.1524,.2051,.135,.1701,.15,0.0*
1,1,.1524,.1701,.15*
20,1,.1524,.1701,.15,.0351,.15,0.0*
1,1,.1524,.0351,.15*
20,1,.1524,.0351,.15,.0351,-.15,0.0*
1,1,.1524,.0351,-.15*
20,1,.1524,.0351,-.15,.2001,-.15,0.0*
1,1,.1524,.2001,-.15*
20,1,.1524,.2001,-.15,.2351,-.13,0.0*
1,1,.1524,.2351,-.13*
20,1,.1524,.2351,-.13,.2551,-.1,0.0*
1,1,.1524,.2551,-.1*
20,1,.1524,.2551,-.1,.2651,-.065,0.0*
1,1,.1524,.2651,-.065*
20,1,.1524,.2651,-.065,.2551,-.03,0.0*
1,1,.1524,.2551,-.03*
20,1,.1524,.2551,-.03,.2251,0.0,0.0*
1,1,.1524,.2251,0.0*
20,1,.1524,.2251,0.0,.1901,.01,0.0*
1,1,.1524,.1901,.01*
20,1,.1524,.1901,.01,.0351,.01,0.0*
1,1,.1524,.0351,.01*
%
%ADD12MACRO12*%
%AMMACRO10*
1,1,.1524,.127,0.0*
20,1,.1524,.127,0.0,-.127,0.0,0.0*
1,1,.1524,-.127,0.0*
1,1,.1524,0.0,.127*
20,1,.1524,0.0,.127,0.0,-.127,0.0*
1,1,.1524,0.0,-.127*
%
%ADD10MACRO10*%
%AMMACRO13*
1,1,.1524,.55,.55*
20,1,.1524,.55,.55,.55,-.55,0.0*
1,1,.1524,.55,-.55*
20,1,.1524,.55,-.55,-.55,-.55,0.0*
1,1,.1524,-.55,-.55*
20,1,.1524,-.55,-.55,-.55,.55,0.0*
1,1,.1524,-.55,.55*
20,1,.1524,-.55,.55,.55,.55,0.0*
1,1,.1524,.55,.55*
%
%ADD13MACRO13*%
%ADD14C,.1524*%
G75*
%LPD*%
G75*
G54D10*
X110000Y110000D03*
Y250000D03*
Y870000D03*
Y730000D03*
Y1170000D03*
Y1310000D03*
Y1010000D03*
X100000Y1710000D03*
Y1850000D03*
X470000Y480000D03*
X430000Y920000D03*
Y1060000D03*
X470000Y1560000D03*
X610000Y480000D03*
X800000Y870000D03*
X780000Y770000D03*
Y706500D03*
X860000Y610000D03*
X800000Y1010000D03*
X780000Y1360000D03*
Y1500000D03*
X610000Y1560000D03*
X1390000Y490000D03*
Y360000D03*
X1150000Y300000D03*
X1160000Y190000D03*
Y130000D03*
X1220000Y190000D03*
Y130000D03*
X1150000Y1260000D03*
Y1190000D03*
Y1330000D03*
X1200000Y1730000D03*
X1530000Y490000D03*
Y360000D03*
X1673800Y150000D03*
X1590000Y900000D03*
X1800000D03*
X1590000Y1040000D03*
X1800000D03*
X1775000Y1235000D03*
X1475000Y1305000D03*
X1650000Y1230000D03*
X1480000Y1410000D03*
X1960000Y167760D03*
X1890000Y390000D03*
X1825000Y425000D03*
X1890000Y460000D03*
X1975000Y749200D03*
X1890000Y980000D03*
X2129200Y1760800D03*
X2540000Y420000D03*
X2440000Y940000D03*
X2626700Y830000D03*
X2445000Y665000D03*
X2530000Y660000D03*
X2250000Y810000D03*
X2530000Y560000D03*
X2440000Y1330000D03*
X2370000Y1170000D03*
X2510000D03*
X2440000Y1090000D03*
X2245000Y1105000D03*
X2350000Y1570000D03*
Y1710000D03*
X2250000Y1490000D03*
X2890000Y400000D03*
Y540000D03*
X2710000Y830000D03*
Y1170000D03*
X2900000Y1470000D03*
Y1610000D03*
X5691730Y1972500D03*
G54D11*
X118000Y578000D03*
Y1442000D03*
X5691730Y702500D03*
G54D12*
X536000Y578000D03*
Y1442000D03*
X5691730Y67500D03*
G54D13*
X2550000Y190000D03*
Y1800000D03*
X2804000Y190000D03*
Y1800000D03*
X5691730Y1337500D03*
G54D14*
G01X-490290Y1013500D02*
X-476070Y1032550D01*
X-459470Y1042080D01*
X-440510Y1045250D01*
X-416800Y1038900D01*
X-400210Y1023020D01*
X-395470Y1003980D01*
X-397840Y984920D01*
X-407320Y969050D01*
X-454730Y937300D01*
X-476070Y915070D01*
X-490290Y883320D01*
X-495030Y854750D01*
X-395470D01*
G01X-254750Y1045250D02*
X-273720Y1038900D01*
X-287940Y1023020D01*
X-297420Y1003980D01*
X-304530Y978570D01*
X-306900Y950000D01*
X-304530Y921420D01*
X-297420Y896020D01*
X-287940Y876970D01*
X-273720Y861100D01*
X-254750Y854750D01*
X-235790Y861100D01*
X-221560Y876970D01*
X-212080Y896020D01*
X-204970Y921420D01*
X-202600Y950000D01*
X-204970Y978570D01*
X-212080Y1003980D01*
X-221560Y1023020D01*
X-235790Y1038900D01*
X-254750Y1045250D01*
G01X1272600Y-337150D02*
X1286820Y-359380D01*
X1305780Y-372080D01*
X1327120Y-375250D01*
X1346090Y-372080D01*
X1365050Y-356200D01*
X1376900Y-337150D01*
X1379270Y-318100D01*
X1374530Y-295880D01*
X1357940Y-280000D01*
X1341340Y-273650D01*
X1320010D01*
G01X1341340D02*
X1355570Y-264130D01*
X1367420Y-248250D01*
X1372160Y-229200D01*
X1367420Y-210150D01*
X1355570Y-194280D01*
X1334230Y-184750D01*
X1312900Y-187920D01*
X1291560Y-200630D01*
G01X1515250Y-184750D02*
X1496280Y-191100D01*
X1482060Y-206980D01*
X1472580Y-226020D01*
X1465470Y-251430D01*
X1463100Y-280000D01*
X1465470Y-308580D01*
X1472580Y-333980D01*
X1482060Y-353030D01*
X1496280Y-368900D01*
X1515250Y-375250D01*
X1534210Y-368900D01*
X1548440Y-353030D01*
X1557920Y-333980D01*
X1565030Y-308580D01*
X1567400Y-280000D01*
X1565030Y-251430D01*
X1557920Y-226020D01*
X1548440Y-206980D01*
X1534210Y-191100D01*
X1515250Y-184750D01*
G01X4829520Y2448750D02*
Y2766250D01*
X4979140D01*
G01X4924010Y2612800D02*
X4829520D01*
G01X5172050Y2766250D02*
X5266530D01*
G01X5219290D02*
Y2448750D01*
G01X5172050D02*
X5266530D01*
G01X5557870Y2607500D02*
X5636620D01*
Y2512250D01*
X5612990Y2480490D01*
X5585430Y2459330D01*
X5546060Y2448750D01*
X5506690Y2459330D01*
X5479130Y2480490D01*
X5455510Y2512250D01*
X5439760Y2549290D01*
X5431880Y2591620D01*
Y2628670D01*
X5439760Y2660410D01*
X5455510Y2697460D01*
X5479130Y2729210D01*
X5502750Y2750370D01*
X5534250Y2766250D01*
X5561810D01*
X5593300Y2755670D01*
X5616930Y2734500D01*
G01X5762600Y2766250D02*
Y2538710D01*
X5778340Y2491070D01*
X5809840Y2459330D01*
X5849210Y2448750D01*
X5888580Y2459330D01*
X5920080Y2491070D01*
X5935820Y2538710D01*
Y2766250D01*
G01X6085430Y2448750D02*
Y2766250D01*
X6183850D01*
X6215350Y2750370D01*
X6235040Y2729210D01*
X6242910Y2686870D01*
X6235040Y2644540D01*
X6211410Y2618090D01*
X6183850Y2602200D01*
X6085430D01*
G01X6183850D02*
X6242910Y2448750D01*
G01X6557870D02*
X6400390D01*
Y2766250D01*
X6557870D01*
G01X6494880Y2612800D02*
X6400390D01*
G01X6498810Y3083750D02*
X6597240Y3401250D01*
X6695670Y3083750D01*
G01X6660230Y3194870D02*
X6534240D01*
G01X6833460Y3401250D02*
Y3083750D01*
X6990940D01*
G01X7148420Y3401250D02*
Y3083750D01*
X7305900D01*
G01X7770470Y3401250D02*
Y3173710D01*
X7786210Y3126070D01*
X7817710Y3094330D01*
X7857080Y3083750D01*
X7896450Y3094330D01*
X7927950Y3126070D01*
X7943690Y3173710D01*
Y3401250D01*
G01X8081490Y3083750D02*
Y3401250D01*
X8262590Y3083750D01*
Y3401250D01*
G01X8439760D02*
X8534240D01*
G01X8487000D02*
Y3083750D01*
G01X8439760D02*
X8534240D01*
G01X8801960Y3401250D02*
Y3083750D01*
G01X8711410Y3401250D02*
X8892510D01*
G01X9034240Y3126070D02*
X9065740Y3099620D01*
X9101170Y3083750D01*
X9132670D01*
X9164160Y3099620D01*
X9187790Y3126070D01*
X9199600Y3163130D01*
X9191730Y3200160D01*
X9172040Y3231910D01*
X9136600Y3253090D01*
X9089360Y3263670D01*
X9061800Y3284830D01*
X9049990Y3321870D01*
X9057870Y3358920D01*
X9077550Y3385370D01*
X9105110Y3401250D01*
X9132670D01*
X9160230Y3390670D01*
X9183850Y3364210D01*
G01X9648410Y3083750D02*
X9746840Y3401250D01*
X9845270Y3083750D01*
G01X9809830Y3194870D02*
X9683840D01*
G01X9983060Y3083750D02*
Y3401250D01*
X10081480D01*
X10112980Y3385370D01*
X10132670Y3364210D01*
X10140540Y3321870D01*
X10132670Y3279540D01*
X10109040Y3253090D01*
X10081480Y3237200D01*
X9983060D01*
G01X10081480D02*
X10140540Y3083750D01*
G01X10455500D02*
X10298020D01*
Y3401250D01*
X10455500D01*
G01X10392510Y3247800D02*
X10298020D01*
G01X10959440Y3401250D02*
X11053920D01*
G01X11006680D02*
Y3083750D01*
G01X10959440D02*
X11053920D01*
G01X11231090D02*
Y3401250D01*
X11412190Y3083750D01*
Y3401250D01*
G01X11849190Y3083750D02*
Y3401250D01*
X11951560Y3136670D01*
X12053930Y3401250D01*
Y3083750D01*
G01X12219280Y3401250D02*
X12313760D01*
G01X12266520D02*
Y3083750D01*
G01X12219280D02*
X12313760D01*
G01X12502740Y3401250D02*
Y3083750D01*
X12660220D01*
G01X12817700Y3401250D02*
Y3083750D01*
X12975180D01*
G01X13164160Y3401250D02*
X13258640D01*
G01X13211400D02*
Y3083750D01*
G01X13164160D02*
X13258640D01*
G01X13423990D02*
Y3401250D01*
X13526360Y3136670D01*
X13628730Y3401250D01*
Y3083750D01*
G01X13920060D02*
X13762580D01*
Y3401250D01*
X13920060D01*
G01X13857070Y3247800D02*
X13762580D01*
G01X14156280Y3401250D02*
Y3083750D01*
G01X14065730Y3401250D02*
X14246830D01*
G01X14549980Y3083750D02*
X14392500D01*
Y3401250D01*
X14549980D01*
G01X14486990Y3247800D02*
X14392500D01*
G01X14707460Y3083750D02*
Y3401250D01*
X14805880D01*
X14837380Y3385370D01*
X14857070Y3364210D01*
X14864940Y3321870D01*
X14857070Y3279540D01*
X14833440Y3253090D01*
X14805880Y3237200D01*
X14707460D01*
G01X14805880D02*
X14864940Y3083750D01*
G01X15018480Y3126070D02*
X15049980Y3099620D01*
X15085410Y3083750D01*
X15116910D01*
X15148400Y3099620D01*
X15172030Y3126070D01*
X15183840Y3163130D01*
X15175970Y3200160D01*
X15156280Y3231910D01*
X15120840Y3253090D01*
X15073600Y3263670D01*
X15046040Y3284830D01*
X15034230Y3321870D01*
X15042110Y3358920D01*
X15061790Y3385370D01*
X15089350Y3401250D01*
X15116910D01*
X15144470Y3390670D01*
X15168090Y3364210D01*
G01X6825590Y3733750D02*
Y4051250D01*
X6904320D01*
X6935820Y4035370D01*
X6959440Y4014210D01*
X6979130Y3982460D01*
X6994880Y3945410D01*
X6998810Y3892500D01*
X6994880Y3839580D01*
X6979130Y3802540D01*
X6959440Y3770780D01*
X6935820Y3749620D01*
X6904320Y3733750D01*
X6825590D01*
G01X7148420D02*
Y4051250D01*
X7246840D01*
X7278340Y4035370D01*
X7298030Y4014210D01*
X7305900Y3971870D01*
X7298030Y3929540D01*
X7274400Y3903090D01*
X7246840Y3887200D01*
X7148420D01*
G01X7246840D02*
X7305900Y3733750D01*
G01X7494880Y4051250D02*
X7589360D01*
G01X7542120D02*
Y3733750D01*
G01X7494880D02*
X7589360D01*
G01X7778340Y4051250D02*
Y3733750D01*
X7935820D01*
G01X8093300Y4051250D02*
Y3733750D01*
X8250780D01*
G01X8888570Y4024790D02*
X8864950Y4040670D01*
X8837400Y4051250D01*
X8805900D01*
X8770460Y4035370D01*
X8742910Y4008920D01*
X8723220Y3977160D01*
X8707470Y3924250D01*
X8703530Y3876620D01*
X8711410Y3829000D01*
X8723220Y3797250D01*
X8746840Y3765490D01*
X8774400Y3744330D01*
X8801960Y3733750D01*
X8829520D01*
X8857080Y3744330D01*
X8880700Y3760200D01*
X8900390Y3781360D01*
G01X9034240Y3733750D02*
Y4051250D01*
G01X9199600D02*
Y3733750D01*
G01Y3892500D02*
X9034240D01*
G01X9333450Y3733750D02*
X9431880Y4051250D01*
X9530310Y3733750D01*
G01X9494870Y3844870D02*
X9368880D01*
G01X9668100Y3733750D02*
Y4051250D01*
X9766520D01*
X9798020Y4035370D01*
X9817710Y4014210D01*
X9825580Y3971870D01*
X9817710Y3929540D01*
X9794080Y3903090D01*
X9766520Y3887200D01*
X9668100D01*
G01X9766520D02*
X9825580Y3733750D01*
G01X10061800Y4051250D02*
Y3733750D01*
G01X9971250Y4051250D02*
X10152350D01*
G01X10376760Y3723170D02*
X10368880Y3728460D01*
Y3739040D01*
X10376760Y3744330D01*
X10384640Y3739040D01*
Y3728460D01*
X10376760Y3723170D01*
G01Y3866030D02*
X10368880Y3871330D01*
Y3881910D01*
X10376760Y3887200D01*
X10384640Y3881910D01*
Y3871330D01*
X10376760Y3866030D01*
G01X11006680Y4051250D02*
Y3733750D01*
G01X10916130Y4051250D02*
X11097230D01*
G01X11321640Y3733750D02*
X11290140Y3739040D01*
X11262590Y3760200D01*
X11238960Y3791960D01*
X11223210Y3829000D01*
X11215340Y3871330D01*
Y3913670D01*
X11223210Y3956000D01*
X11238960Y3993040D01*
X11262590Y4024790D01*
X11290140Y4045960D01*
X11321640Y4051250D01*
X11353130Y4045960D01*
X11380690Y4024790D01*
X11404320Y3993040D01*
X11420070Y3956000D01*
X11427940Y3913670D01*
Y3871330D01*
X11420070Y3829000D01*
X11404320Y3791960D01*
X11380690Y3760200D01*
X11353130Y3739040D01*
X11321640Y3733750D01*
G01X11557860D02*
Y4051250D01*
X11652350D01*
X11683840Y4035370D01*
X11707470Y3998330D01*
X11715340Y3956000D01*
X11707470Y3913670D01*
X11687780Y3881910D01*
X11652350Y3866030D01*
X11557860D01*
G01X12266520Y4051250D02*
Y3733750D01*
G01X12211400Y3945410D02*
X12321640D01*
G01X12581480Y3733750D02*
X12557860Y3739040D01*
X12534240Y3760200D01*
X12518480Y3797250D01*
X12510610Y3839580D01*
X12518480Y3881910D01*
X12534240Y3918960D01*
X12557860Y3940120D01*
X12581480Y3945410D01*
X12605100Y3940120D01*
X12628720Y3918960D01*
X12644470Y3881910D01*
X12648410Y3839580D01*
X12644470Y3797250D01*
X12628720Y3760200D01*
X12605100Y3739040D01*
X12581480Y3733750D01*
G01X13242890Y3903090D02*
X13258640Y3918960D01*
X13270450Y3945410D01*
X13278330Y3982460D01*
X13270450Y4014210D01*
X13254710Y4035370D01*
X13227150Y4051250D01*
X13120850D01*
Y3733750D01*
X13250770D01*
X13278330Y3754910D01*
X13294080Y3786670D01*
X13301950Y3823710D01*
X13294080Y3860740D01*
X13270450Y3892500D01*
X13242890Y3903090D01*
X13120850D01*
G01X13526360Y3733750D02*
X13494860Y3739040D01*
X13467310Y3760200D01*
X13443680Y3791960D01*
X13427930Y3829000D01*
X13420060Y3871330D01*
Y3913670D01*
X13427930Y3956000D01*
X13443680Y3993040D01*
X13467310Y4024790D01*
X13494860Y4045960D01*
X13526360Y4051250D01*
X13557850Y4045960D01*
X13585410Y4024790D01*
X13609040Y3993040D01*
X13624790Y3956000D01*
X13632660Y3913670D01*
Y3871330D01*
X13624790Y3829000D01*
X13609040Y3791960D01*
X13585410Y3760200D01*
X13557850Y3739040D01*
X13526360Y3733750D01*
G01X13841320Y4051250D02*
Y3733750D01*
G01X13750770Y4051250D02*
X13931870D01*
G01X14156280D02*
Y3733750D01*
G01X14065730Y4051250D02*
X14246830D01*
G01X14471240Y3733750D02*
X14439740Y3739040D01*
X14412190Y3760200D01*
X14388560Y3791960D01*
X14372810Y3829000D01*
X14364940Y3871330D01*
Y3913670D01*
X14372810Y3956000D01*
X14388560Y3993040D01*
X14412190Y4024790D01*
X14439740Y4045960D01*
X14471240Y4051250D01*
X14502730Y4045960D01*
X14530290Y4024790D01*
X14553920Y3993040D01*
X14569670Y3956000D01*
X14577540Y3913670D01*
Y3871330D01*
X14569670Y3829000D01*
X14553920Y3791960D01*
X14530290Y3760200D01*
X14502730Y3739040D01*
X14471240Y3733750D01*
G01X14683830D02*
Y4051250D01*
X14786200Y3786670D01*
X14888570Y4051250D01*
Y3733750D01*
G01X7427940Y2448750D02*
Y2766250D01*
X7577560D01*
G01X7522430Y2612800D02*
X7427940D01*
G01X7770470Y2766250D02*
X7864950D01*
G01X7817710D02*
Y2448750D01*
G01X7770470D02*
X7864950D01*
G01X8042120D02*
Y2766250D01*
X8223220Y2448750D01*
Y2766250D01*
G01X8400390D02*
X8494870D01*
G01X8447630D02*
Y2448750D01*
G01X8400390D02*
X8494870D01*
G01X8679910Y2491070D02*
X8711410Y2464620D01*
X8746840Y2448750D01*
X8778340D01*
X8809830Y2464620D01*
X8833460Y2491070D01*
X8845270Y2528130D01*
X8837400Y2565160D01*
X8817710Y2596910D01*
X8782270Y2618090D01*
X8735030Y2628670D01*
X8707470Y2649830D01*
X8695660Y2686870D01*
X8703540Y2723920D01*
X8723220Y2750370D01*
X8750780Y2766250D01*
X8778340D01*
X8805900Y2755670D01*
X8829520Y2729210D01*
G01X8994870Y2448750D02*
Y2766250D01*
G01X9160230D02*
Y2448750D01*
G01Y2607500D02*
X8994870D01*
G01X9471250Y2448750D02*
X9313770D01*
Y2766250D01*
X9471250D01*
G01X9408260Y2612800D02*
X9313770D01*
G01X9620860Y2448750D02*
Y2766250D01*
X9699590D01*
X9731090Y2750370D01*
X9754710Y2729210D01*
X9774400Y2697460D01*
X9790150Y2660410D01*
X9794080Y2607500D01*
X9790150Y2554580D01*
X9774400Y2517540D01*
X9754710Y2485780D01*
X9731090Y2464620D01*
X9699590Y2448750D01*
X9620860D01*
G01X9904320Y2342920D02*
X10140540D01*
G01X10254710Y2491070D02*
X10286210Y2464620D01*
X10321640Y2448750D01*
X10353140D01*
X10384630Y2464620D01*
X10408260Y2491070D01*
X10420070Y2528130D01*
X10412200Y2565160D01*
X10392510Y2596910D01*
X10357070Y2618090D01*
X10309830Y2628670D01*
X10282270Y2649830D01*
X10270460Y2686870D01*
X10278340Y2723920D01*
X10298020Y2750370D01*
X10325580Y2766250D01*
X10353140D01*
X10380700Y2755670D01*
X10404320Y2729210D01*
G01X10605110Y2766250D02*
X10699590D01*
G01X10652350D02*
Y2448750D01*
G01X10605110D02*
X10699590D01*
G01X10892500Y2766250D02*
X11042120D01*
X10892500Y2448750D01*
X11042120D01*
G01X11361010D02*
X11203530D01*
Y2766250D01*
X11361010D01*
G01X11298020Y2612800D02*
X11203530D01*
G01X8447630Y-91250D02*
Y226250D01*
X8400390Y162750D01*
G01Y-91250D02*
X8494870D01*
G01X8762590Y-101830D02*
X8754710Y-96540D01*
Y-85960D01*
X8762590Y-80670D01*
X8770470Y-85960D01*
Y-96540D01*
X8762590Y-101830D01*
G01X9069670Y-91250D02*
X9077550Y-22460D01*
X9089360Y35740D01*
X9105110Y88670D01*
X9124790Y146870D01*
X9156290Y226250D01*
X8998810D01*
G01X9333460Y120410D02*
X9451560Y-91250D01*
G01Y120410D02*
X9333460Y-91250D01*
G01X9707470Y226250D02*
X9675970Y215670D01*
X9652350Y189210D01*
X9636600Y157460D01*
X9624790Y115120D01*
X9620860Y67500D01*
X9624790Y19870D01*
X9636600Y-22460D01*
X9652350Y-54220D01*
X9675970Y-80670D01*
X9707470Y-91250D01*
X9738960Y-80670D01*
X9762590Y-54220D01*
X9778340Y-22460D01*
X9790150Y19870D01*
X9794080Y67500D01*
X9790150Y115120D01*
X9778340Y157460D01*
X9762590Y189210D01*
X9738960Y215670D01*
X9707470Y226250D01*
G01X10022430Y-101830D02*
X10014550Y-96540D01*
Y-85960D01*
X10022430Y-80670D01*
X10030310Y-85960D01*
Y-96540D01*
X10022430Y-101830D01*
G01X10262580Y41030D02*
X10290150Y78090D01*
X10313770Y99250D01*
X10345270Y109830D01*
X10372830Y99250D01*
X10392510Y78090D01*
X10408260Y46330D01*
X10412200Y9290D01*
X10408260Y-22460D01*
X10392510Y-54220D01*
X10368880Y-80670D01*
X10341330Y-91250D01*
X10309830Y-80670D01*
X10282270Y-48930D01*
X10266520Y-1290D01*
X10262580Y51620D01*
X10270460Y120410D01*
X10282270Y157460D01*
X10301950Y194500D01*
X10329510Y220960D01*
X10357070Y226250D01*
X10384630Y215670D01*
X10404320Y189210D01*
G01X8447630Y543750D02*
Y861250D01*
X8400390Y797750D01*
G01Y543750D02*
X8494870D01*
G01X8762590Y533170D02*
X8754710Y538460D01*
Y549040D01*
X8762590Y554330D01*
X8770470Y549040D01*
Y538460D01*
X8762590Y533170D01*
G01X9002740Y808330D02*
X9026370Y840080D01*
X9053930Y855960D01*
X9085430Y861250D01*
X9124790Y850670D01*
X9152360Y824210D01*
X9160230Y792460D01*
X9156290Y760700D01*
X9140540Y734250D01*
X9061800Y681330D01*
X9026370Y644290D01*
X9002740Y591360D01*
X8994870Y543750D01*
X9160230D01*
G01X9333460Y755410D02*
X9451560Y543750D01*
G01Y755410D02*
X9333460Y543750D01*
G01X9707470Y861250D02*
X9675970Y850670D01*
X9652350Y824210D01*
X9636600Y792460D01*
X9624790Y750120D01*
X9620860Y702500D01*
X9624790Y654870D01*
X9636600Y612540D01*
X9652350Y580780D01*
X9675970Y554330D01*
X9707470Y543750D01*
X9738960Y554330D01*
X9762590Y580780D01*
X9778340Y612540D01*
X9790150Y654870D01*
X9794080Y702500D01*
X9790150Y750120D01*
X9778340Y792460D01*
X9762590Y824210D01*
X9738960Y850670D01*
X9707470Y861250D01*
G01X10022430Y533170D02*
X10014550Y538460D01*
Y549040D01*
X10022430Y554330D01*
X10030310Y549040D01*
Y538460D01*
X10022430Y533170D01*
G01X10262580Y676030D02*
X10290150Y713090D01*
X10313770Y734250D01*
X10345270Y744830D01*
X10372830Y734250D01*
X10392510Y713090D01*
X10408260Y681330D01*
X10412200Y644290D01*
X10408260Y612540D01*
X10392510Y580780D01*
X10368880Y554330D01*
X10341330Y543750D01*
X10309830Y554330D01*
X10282270Y586070D01*
X10266520Y633710D01*
X10262580Y686620D01*
X10270460Y755410D01*
X10282270Y792460D01*
X10301950Y829500D01*
X10329510Y855960D01*
X10357070Y861250D01*
X10384630Y850670D01*
X10404320Y824210D01*
G01X9077550Y1178750D02*
Y1496250D01*
X9030310Y1432750D01*
G01Y1178750D02*
X9124790D01*
G01X9392510Y1168170D02*
X9384630Y1173460D01*
Y1184040D01*
X9392510Y1189330D01*
X9400390Y1184040D01*
Y1173460D01*
X9392510Y1168170D01*
G01X9707470Y1178750D02*
Y1496250D01*
X9660230Y1432750D01*
G01Y1178750D02*
X9754710D01*
G01X8762590Y2131250D02*
X8731090Y2120670D01*
X8707470Y2094210D01*
X8691720Y2062460D01*
X8679910Y2020120D01*
X8675980Y1972500D01*
X8679910Y1924870D01*
X8691720Y1882540D01*
X8707470Y1850780D01*
X8731090Y1824330D01*
X8762590Y1813750D01*
X8794080Y1824330D01*
X8817710Y1850780D01*
X8833460Y1882540D01*
X8845270Y1924870D01*
X8849200Y1972500D01*
X8845270Y2020120D01*
X8833460Y2062460D01*
X8817710Y2094210D01*
X8794080Y2120670D01*
X8762590Y2131250D01*
G01X9077550Y1803170D02*
X9069670Y1808460D01*
Y1819040D01*
X9077550Y1824330D01*
X9085430Y1819040D01*
Y1808460D01*
X9077550Y1803170D01*
G01X9317700Y2078330D02*
X9341330Y2110080D01*
X9368890Y2125960D01*
X9400390Y2131250D01*
X9439750Y2120670D01*
X9467320Y2094210D01*
X9475190Y2062460D01*
X9471250Y2030700D01*
X9455500Y2004250D01*
X9376760Y1951330D01*
X9341330Y1914290D01*
X9317700Y1861360D01*
X9309830Y1813750D01*
X9475190D01*
G01X9620860Y1861360D02*
X9644470Y1834910D01*
X9672030Y1819040D01*
X9707470Y1813750D01*
X9742910Y1824330D01*
X9770460Y1845490D01*
X9790150Y1882540D01*
X9794080Y1924870D01*
X9786210Y1967200D01*
X9766520Y1993670D01*
X9738960Y2014830D01*
X9711410Y2020120D01*
X9683850Y2014830D01*
X9648420Y1993670D01*
X9660230Y2131250D01*
X9766520D01*
G01X10069670Y1813750D02*
Y2131250D01*
X9924000Y1903710D01*
X10120860D01*
G01X11279730Y-408750D02*
Y-726250D01*
G01X11189180Y-408750D02*
X11370280D01*
G01X11594690Y-726250D02*
X11563190Y-720960D01*
X11535640Y-699800D01*
X11512010Y-668040D01*
X11496260Y-631000D01*
X11488390Y-588670D01*
Y-546330D01*
X11496260Y-504000D01*
X11512010Y-466960D01*
X11535640Y-435210D01*
X11563190Y-414040D01*
X11594690Y-408750D01*
X11626180Y-414040D01*
X11653740Y-435210D01*
X11677370Y-466960D01*
X11693120Y-504000D01*
X11700990Y-546330D01*
Y-588670D01*
X11693120Y-631000D01*
X11677370Y-668040D01*
X11653740Y-699800D01*
X11626180Y-720960D01*
X11594690Y-726250D01*
G01X11909650Y-408750D02*
Y-726250D01*
G01X11819100Y-408750D02*
X12000200D01*
G01X12126180Y-726250D02*
X12224610Y-408750D01*
X12323040Y-726250D01*
G01X12287600Y-615130D02*
X12161610D01*
G01X12460830Y-408750D02*
Y-726250D01*
X12618310D01*
G01X13086810D02*
Y-408750D01*
G01X13252170D02*
Y-726250D01*
G01Y-567500D02*
X13086810D01*
G01X13484450Y-726250D02*
X13452950Y-720960D01*
X13425400Y-699800D01*
X13401770Y-668040D01*
X13386020Y-631000D01*
X13378150Y-588670D01*
Y-546330D01*
X13386020Y-504000D01*
X13401770Y-466960D01*
X13425400Y-435210D01*
X13452950Y-414040D01*
X13484450Y-408750D01*
X13515940Y-414040D01*
X13543500Y-435210D01*
X13567130Y-466960D01*
X13582880Y-504000D01*
X13590750Y-546330D01*
Y-588670D01*
X13582880Y-631000D01*
X13567130Y-668040D01*
X13543500Y-699800D01*
X13515940Y-720960D01*
X13484450Y-726250D01*
G01X13720670Y-408750D02*
Y-726250D01*
X13878150D01*
G01X14193110D02*
X14035630D01*
Y-408750D01*
X14193110D01*
G01X14130120Y-562200D02*
X14035630D01*
G01X14346650Y-683930D02*
X14378150Y-710380D01*
X14413580Y-726250D01*
X14445080D01*
X14476570Y-710380D01*
X14500200Y-683930D01*
X14512010Y-646870D01*
X14504140Y-609840D01*
X14484450Y-578090D01*
X14449010Y-556910D01*
X14401770Y-546330D01*
X14374210Y-525170D01*
X14362400Y-488130D01*
X14370280Y-451080D01*
X14389960Y-424630D01*
X14417520Y-408750D01*
X14445080D01*
X14472640Y-419330D01*
X14496260Y-445790D01*
G01X14744290Y-736830D02*
X14736410Y-731540D01*
Y-720960D01*
X14744290Y-715670D01*
X14752170Y-720960D01*
Y-731540D01*
X14744290Y-736830D01*
G01Y-593970D02*
X14736410Y-588670D01*
Y-578090D01*
X14744290Y-572800D01*
X14752170Y-578090D01*
Y-588670D01*
X14744290Y-593970D01*
G01X12699590Y-91250D02*
Y226250D01*
X12794080D01*
X12825570Y210370D01*
X12849200Y173330D01*
X12857070Y131000D01*
X12849200Y88670D01*
X12829510Y56910D01*
X12794080Y41030D01*
X12699590D01*
G01X13014550Y226250D02*
Y-91250D01*
X13172030D01*
G01X13309820D02*
X13408250Y226250D01*
X13506680Y-91250D01*
G01X13471240Y19870D02*
X13345250D01*
G01X13723210Y226250D02*
Y-91250D01*
G01X13632660Y226250D02*
X13813760D01*
G01X14116910Y-91250D02*
X13959430D01*
Y226250D01*
X14116910D01*
G01X14053920Y72800D02*
X13959430D01*
G01X14266520Y-91250D02*
Y226250D01*
X14345250D01*
X14376750Y210370D01*
X14400370Y189210D01*
X14420060Y157460D01*
X14435810Y120410D01*
X14439740Y67500D01*
X14435810Y14580D01*
X14420060Y-22460D01*
X14400370Y-54220D01*
X14376750Y-75380D01*
X14345250Y-91250D01*
X14266520D01*
G01X12699590Y543750D02*
Y861250D01*
X12794080D01*
X12825570Y845370D01*
X12849200Y808330D01*
X12857070Y766000D01*
X12849200Y723670D01*
X12829510Y691910D01*
X12794080Y676030D01*
X12699590D01*
G01X13014550Y861250D02*
Y543750D01*
X13172030D01*
G01X13309820D02*
X13408250Y861250D01*
X13506680Y543750D01*
G01X13471240Y654870D02*
X13345250D01*
G01X13723210Y861250D02*
Y543750D01*
G01X13632660Y861250D02*
X13813760D01*
G01X14116910Y543750D02*
X13959430D01*
Y861250D01*
X14116910D01*
G01X14053920Y707800D02*
X13959430D01*
G01X14266520Y543750D02*
Y861250D01*
X14345250D01*
X14376750Y845370D01*
X14400370Y824210D01*
X14420060Y792460D01*
X14435810Y755410D01*
X14439740Y702500D01*
X14435810Y649580D01*
X14420060Y612540D01*
X14400370Y580780D01*
X14376750Y559620D01*
X14345250Y543750D01*
X14266520D01*
G01X12699590Y1178750D02*
Y1496250D01*
X12794080D01*
X12825570Y1480370D01*
X12849200Y1443330D01*
X12857070Y1401000D01*
X12849200Y1358670D01*
X12829510Y1326910D01*
X12794080Y1311030D01*
X12699590D01*
G01X13014550Y1496250D02*
Y1178750D01*
X13172030D01*
G01X13309820D02*
X13408250Y1496250D01*
X13506680Y1178750D01*
G01X13471240Y1289870D02*
X13345250D01*
G01X13723210Y1496250D02*
Y1178750D01*
G01X13632660Y1496250D02*
X13813760D01*
G01X14116910Y1178750D02*
X13959430D01*
Y1496250D01*
X14116910D01*
G01X14053920Y1342800D02*
X13959430D01*
G01X14266520Y1178750D02*
Y1496250D01*
X14345250D01*
X14376750Y1480370D01*
X14400370Y1459210D01*
X14420060Y1427460D01*
X14435810Y1390410D01*
X14439740Y1337500D01*
X14435810Y1284580D01*
X14420060Y1247540D01*
X14400370Y1215780D01*
X14376750Y1194620D01*
X14345250Y1178750D01*
X14266520D01*
G01X12699590Y1813750D02*
Y2131250D01*
X12794080D01*
X12825570Y2115370D01*
X12849200Y2078330D01*
X12857070Y2036000D01*
X12849200Y1993670D01*
X12829510Y1961910D01*
X12794080Y1946030D01*
X12699590D01*
G01X13014550Y2131250D02*
Y1813750D01*
X13172030D01*
G01X13309820D02*
X13408250Y2131250D01*
X13506680Y1813750D01*
G01X13471240Y1924870D02*
X13345250D01*
G01X13723210Y2131250D02*
Y1813750D01*
G01X13632660Y2131250D02*
X13813760D01*
G01X14116910Y1813750D02*
X13959430D01*
Y2131250D01*
X14116910D01*
G01X14053920Y1977800D02*
X13959430D01*
G01X14266520Y1813750D02*
Y2131250D01*
X14345250D01*
X14376750Y2115370D01*
X14400370Y2094210D01*
X14420060Y2062460D01*
X14435810Y2025410D01*
X14439740Y1972500D01*
X14435810Y1919580D01*
X14420060Y1882540D01*
X14400370Y1850780D01*
X14376750Y1829620D01*
X14345250Y1813750D01*
X14266520D01*
G01X12699590Y2448750D02*
Y2766250D01*
X12794080D01*
X12825570Y2750370D01*
X12849200Y2713330D01*
X12857070Y2671000D01*
X12849200Y2628670D01*
X12829510Y2596910D01*
X12794080Y2581030D01*
X12699590D01*
G01X13014550Y2766250D02*
Y2448750D01*
X13172030D01*
G01X13309820D02*
X13408250Y2766250D01*
X13506680Y2448750D01*
G01X13471240Y2559870D02*
X13345250D01*
G01X13723210Y2766250D02*
Y2448750D01*
G01X13632660Y2766250D02*
X13813760D01*
G01X14116910Y2448750D02*
X13959430D01*
Y2766250D01*
X14116910D01*
G01X14053920Y2612800D02*
X13959430D01*
G01X14266520Y2448750D02*
Y2766250D01*
X14345250D01*
X14376750Y2750370D01*
X14400370Y2729210D01*
X14420060Y2697460D01*
X14435810Y2660410D01*
X14439740Y2607500D01*
X14435810Y2554580D01*
X14420060Y2517540D01*
X14400370Y2485780D01*
X14376750Y2464620D01*
X14345250Y2448750D01*
X14266520D01*
G01X15849190D02*
X15817690Y2454040D01*
X15790140Y2475200D01*
X15766510Y2506960D01*
X15750760Y2544000D01*
X15742890Y2586330D01*
Y2628670D01*
X15750760Y2671000D01*
X15766510Y2708040D01*
X15790140Y2739790D01*
X15817690Y2760960D01*
X15849190Y2766250D01*
X15880680Y2760960D01*
X15908240Y2739790D01*
X15931870Y2708040D01*
X15947620Y2671000D01*
X15955490Y2628670D01*
Y2586330D01*
X15947620Y2544000D01*
X15931870Y2506960D01*
X15908240Y2475200D01*
X15880680Y2454040D01*
X15849190Y2448750D01*
G01X15880680Y2533420D02*
X15927930Y2448750D01*
G01X16164150Y2766250D02*
Y2448750D01*
G01X16073600Y2766250D02*
X16254700D01*
G01X16479110Y2448750D02*
Y2591620D01*
X16400370Y2766250D01*
G01X16557850D02*
X16479110Y2591620D01*
G01X16006670Y-726250D02*
X16034230Y-720960D01*
X16065720Y-705090D01*
X16085410Y-678640D01*
X16093280Y-641580D01*
X16085410Y-604550D01*
X16061790Y-572800D01*
X16026350Y-556910D01*
X15986990D01*
X15963360Y-546330D01*
X15943670Y-519880D01*
X15935800Y-482840D01*
X15947620Y-445790D01*
X15975170Y-419330D01*
X16006670Y-408750D01*
X16038160Y-419330D01*
X16065720Y-445790D01*
X16077540Y-482840D01*
X16069660Y-519880D01*
X16049980Y-546330D01*
X16026350Y-556910D01*
X15986990D01*
X15951550Y-572800D01*
X15927930Y-604550D01*
X15920060Y-641580D01*
X15927930Y-678640D01*
X15947620Y-705090D01*
X15979110Y-720960D01*
X16006670Y-726250D01*
G01X16321630Y-408750D02*
X16290130Y-419330D01*
X16266510Y-445790D01*
X16250760Y-477540D01*
X16238950Y-519880D01*
X16235020Y-567500D01*
X16238950Y-615130D01*
X16250760Y-657460D01*
X16266510Y-689220D01*
X16290130Y-715670D01*
X16321630Y-726250D01*
X16353120Y-715670D01*
X16376750Y-689220D01*
X16392500Y-657460D01*
X16404310Y-615130D01*
X16408240Y-567500D01*
X16404310Y-519880D01*
X16392500Y-477540D01*
X16376750Y-445790D01*
X16353120Y-419330D01*
X16321630Y-408750D01*
G01X16089340Y173330D02*
X16112970Y205080D01*
X16140530Y220960D01*
X16172030Y226250D01*
X16211390Y215670D01*
X16238960Y189210D01*
X16246830Y157460D01*
X16242890Y125700D01*
X16227140Y99250D01*
X16148400Y46330D01*
X16112970Y9290D01*
X16089340Y-43640D01*
X16081470Y-91250D01*
X16246830D01*
G01X16089340Y808330D02*
X16112970Y840080D01*
X16140530Y855960D01*
X16172030Y861250D01*
X16211390Y850670D01*
X16238960Y824210D01*
X16246830Y792460D01*
X16242890Y760700D01*
X16227140Y734250D01*
X16148400Y681330D01*
X16112970Y644290D01*
X16089340Y591360D01*
X16081470Y543750D01*
X16246830D01*
G01X16211390Y1178750D02*
Y1496250D01*
X16065720Y1268710D01*
X16262580D01*
G01X15998790Y1813750D02*
X16006670Y1882540D01*
X16018480Y1940740D01*
X16034230Y1993670D01*
X16053910Y2051870D01*
X16085410Y2131250D01*
X15927930D01*
G01X16246820Y2078330D02*
X16270450Y2110080D01*
X16298010Y2125960D01*
X16329510Y2131250D01*
X16368870Y2120670D01*
X16396440Y2094210D01*
X16404310Y2062460D01*
X16400370Y2030700D01*
X16384620Y2004250D01*
X16305880Y1951330D01*
X16270450Y1914290D01*
X16246820Y1861360D01*
X16238950Y1813750D01*
X16404310D01*
G01X-250000Y0D02*
X-600000D01*
G01X-350000Y704260D02*
Y0D01*
G01X-412500Y400000D02*
X-350000Y0D01*
X-287500Y400000D01*
X-412500D01*
G01X-350000Y1195740D02*
Y2000000D01*
G01X-287500Y1600000D02*
X-350000Y2000000D01*
X-412500Y1600000D01*
X-287500D01*
G01X-70000Y2000000D02*
X-600000D01*
G01X0Y-250000D02*
Y-530000D01*
G01X1103140Y-280000D02*
X0D01*
G01X400000Y-217500D02*
X0Y-280000D01*
X400000Y-342500D01*
Y-217500D01*
G01X1736860Y-280000D02*
X3000000D01*
G01X2600000Y-342500D02*
X3000000Y-280000D01*
X2600000Y-217500D01*
Y-342500D01*
G01X3000000Y-120000D02*
Y-530000D01*
G01X4550000Y-250000D02*
Y4210000D01*
X17148400D01*
Y-250000D01*
X4550000D01*
G01Y385000D02*
X17148400D01*
G01X4550000Y1020000D02*
X17148400D01*
G01X4550000Y1655000D02*
X17148400D01*
G01X4550000Y2290000D02*
X17148400D01*
G01X4550000Y2925000D02*
X17148400D01*
G01X4550000Y3560000D02*
X17148400D01*
G01X6833460Y2925000D02*
Y-250000D01*
G01X11951560Y2925000D02*
Y-250000D01*
G01X15179900Y2925000D02*
Y-250000D01*
M02*
