M48
METRIC,TZ
T01C.254
T02C1.1
;LEADER: 12 
;HEADER: 
;CODE  : ASCII 
;FILE  : HY_TYPEC_DBUG_V10A-1-2.drl for board H:/MBED-TOOLS/HARDWARE/HY_TYPEC_DBUG_V10A/PCB/#Taaaahm05788.tmp ... layers TOP and BOTTOM
;T01 Holesize 1. = 0.254000 Tolerance = +0.000000/-0.000000 PLATED MM Quantity = 72
;T02 Holesize 2. = 1.100000 Tolerance = +0.000000/-0.000000 PLATED MM Quantity = 4
%
G90
T01
X110000Y110000
X110000Y250000
X110000Y730000
X110000Y870000
X110000Y1010000
X110000Y1170000
X110000Y1310000
X100000Y1710000
X100000Y1850000
X470000Y1560000
X430000Y1060000
X430000Y920000
X470000Y480000
X610000Y480000
X610000Y1560000
X780000Y1500000
X780000Y1360000
X800000Y1010000
X800000Y870000
X780000Y770000
X780000Y706500
X860000Y610000
X1160000Y130000
X1220000Y130000
X1160000Y190000
X1220000Y190000
X1150000Y300000
X1150000Y1190000
X1150000Y1260000
X1150000Y1330000
X1200000Y1730000
X1480000Y1410000
X1475000Y1305000
X1390000Y490000
X1390000Y360000
X1673800Y150000
X1530000Y360000
X1530000Y490000
X1590000Y900000
X1590000Y1040000
X1650000Y1230000
X1775000Y1235000
X1800000Y1040000
X1890000Y980000
X1800000Y900000
X1975000Y749200
X1890000Y460000
X1825000Y425000
X1890000Y390000
X1960000Y167760
X2250000Y810000
X2245000Y1105000
X2250000Y1490000
X2129200Y1760800
X2350000Y1710000
X2350000Y1570000
X2440000Y1330000
X2510000Y1170000
X2370000Y1170000
X2440000Y1090000
X2440000Y940000
X2445000Y665000
X2530000Y660000
X2530000Y560000
X2540000Y420000
X2626700Y830000
X2710000Y830000
X2710000Y1170000
X2900000Y1610000
X2900000Y1470000
X2890000Y540000
X2890000Y400000
T02
X2550000Y190000
X2804000Y190000
X2804000Y1800000
X2550000Y1800000
M30
