G04 ================== begin FILE IDENTIFICATION RECORD ==================*
G04 Layout Name:  H:/MBED-TOOLS/HARDWARE/HY_TYPEC_DBUG_V10A/PCB/HY_TYPEC_DBUG_V10A.brd*
G04 Film Name:    PasteMask_Top*
G04 File Format:  Gerber RS274X*
G04 File Origin:  Cadence Allegro 17.2-S058*
G04 Origin Date:  Tue Feb 18 10:37:42 2020*
G04 *
G04 Layer:  PIN/PASTEMASK_TOP*
G04 Layer:  PACKAGE GEOMETRY/PASTEMASK_TOP*
G04 *
G04 Offset:    (0.0000 0.0000)*
G04 Mirror:    No*
G04 Mode:      Positive*
G04 Rotation:  0*
G04 FullContactRelief:  No*
G04 UndefLineWidth:     0.1524*
G04 ================== end FILE IDENTIFICATION RECORD ====================*
%FSLAX55Y55*MOMM*%
%IR0*IPPOS*OFA0.00000B0.00000*MIA0B0*SFA1.00000B1.00000*%
%ADD14R,1.2X.3*%
%ADD24R,1.5X.3*%
%ADD13R,1.2X.6*%
%ADD23R,1.4X.7*%
%ADD21R,1.3X.9*%
%ADD12R,.9X1.3*%
%ADD20R,1.9X.5*%
%ADD10R,.8X.8*%
%ADD11R,1.X2.5*%
%ADD22R,.5X.6*%
%ADD16R,.6X.4*%
%ADD15R,.6X.5*%
%ADD19R,2.7X2.7*%
%ADD18R,.8X.25*%
%ADD17R,.25X.8*%
%LPD*%
G75*
G54D10*
X346200Y360000D03*
X193800D03*
Y1680000D03*
X346200D03*
X933800D03*
X613800D03*
X766200D03*
X1086200D03*
X1033800Y1890000D03*
X1186200D03*
X1333800D03*
X1633800D03*
X1786200D03*
X1486200D03*
X1933800D03*
X2086200D03*
G54D11*
X560000Y270000D03*
X860000D03*
G54D20*
X1330000Y850000D03*
Y915000D03*
Y980000D03*
Y1045000D03*
Y1110000D03*
Y1175000D03*
Y1240000D03*
Y1305000D03*
Y1370000D03*
Y1435000D03*
Y1500000D03*
Y1565000D03*
Y1630000D03*
Y1695000D03*
X2090000Y910000D03*
Y845000D03*
Y1365000D03*
Y1300000D03*
Y1235000D03*
Y1170000D03*
Y1105000D03*
Y1040000D03*
Y975000D03*
Y1690000D03*
Y1625000D03*
Y1560000D03*
Y1495000D03*
Y1430000D03*
G54D12*
X430000Y1860000D03*
X230000D03*
X850000D03*
X650000D03*
G54D21*
X2090000Y110000D03*
Y310000D03*
Y460000D03*
Y660000D03*
X2290000Y110000D03*
Y310000D03*
Y460000D03*
Y660000D03*
G54D22*
X2235000Y1890000D03*
X2325000D03*
G54D13*
X640000Y690000D03*
Y770000D03*
Y1250000D03*
Y1330000D03*
G54D23*
X2905000Y650000D03*
Y1370000D03*
G54D14*
X640000Y835000D03*
Y885000D03*
Y935000D03*
Y985000D03*
Y1035000D03*
Y1085000D03*
Y1135000D03*
Y1185000D03*
G54D15*
X900000Y945000D03*
Y1075000D03*
X1120000Y945000D03*
Y1075000D03*
X2550000Y875000D03*
X2330000D03*
X2550000Y1265000D03*
X2330000D03*
X2550000Y1005000D03*
X2330000D03*
X2550000Y1395000D03*
X2330000D03*
G54D24*
X2900000Y735000D03*
Y785000D03*
Y835000D03*
Y885000D03*
Y935000D03*
Y985000D03*
Y1035000D03*
Y1085000D03*
Y1135000D03*
Y1185000D03*
Y1235000D03*
Y1285000D03*
G54D16*
X900000Y1010000D03*
X1120000D03*
X2550000Y940000D03*
X2330000D03*
X2550000Y1330000D03*
X2330000D03*
G54D17*
X1335000Y200000D03*
Y600000D03*
X1585000Y200000D03*
X1535000D03*
X1485000D03*
X1435000D03*
X1385000D03*
Y600000D03*
X1435000D03*
X1485000D03*
X1535000D03*
X1585000D03*
G54D18*
X1260000Y275000D03*
Y325000D03*
Y375000D03*
Y425000D03*
Y475000D03*
Y525000D03*
X1660000D03*
Y475000D03*
Y425000D03*
Y375000D03*
Y325000D03*
Y275000D03*
G54D19*
X1460000Y400000D03*
M02*
