G04 ================== begin FILE IDENTIFICATION RECORD ==================*
G04 Layout Name:  H:/MBED-TOOLS/HARDWARE/HY_TYPEC_DBUG_V10A/PCB/HY_TYPEC_DBUG_V10A.brd*
G04 Film Name:    SilkScreen_Top*
G04 File Format:  Gerber RS274X*
G04 File Origin:  Cadence Allegro 17.2-S058*
G04 Origin Date:  Tue Feb 18 10:37:42 2020*
G04 *
G04 Layer:  REF DES/SILKSCREEN_TOP*
G04 Layer:  PACKAGE GEOMETRY/SILKSCREEN_TOP*
G04 Layer:  BOARD GEOMETRY/SILKSCREEN_TOP*
G04 *
G04 Offset:    (0.0000 0.0000)*
G04 Mirror:    No*
G04 Mode:      Positive*
G04 Rotation:  0*
G04 FullContactRelief:  No*
G04 UndefLineWidth:     0.1524*
G04 ================== end FILE IDENTIFICATION RECORD ====================*
%FSLAX55Y55*MOMM*%
%IR0*IPPOS*OFA0.00000B0.00000*MIA0B0*SFA1.00000B1.00000*%
%ADD10C,.2*%
%ADD11C,.1524*%
%ADD12C,.1778*%
G75*
%LPD*%
G75*
G36*
G01X1205000Y525000D02*
G03I-30000J0D01*
G37*
G36*
G01X1213200Y943800D02*
G03I-25400J0D01*
G37*
G36*
G01X2250000Y845000D02*
G03I-30000J0D01*
G37*
G36*
G01X2550000Y60000D02*
X2500000Y10000D01*
X2600000D01*
X2550000Y60000D01*
G37*
G36*
G01X2287600Y1006200D02*
G03I-25400J0D01*
G37*
G36*
G01X2550000Y1670000D02*
X2500000Y1620000D01*
X2600000D01*
X2550000Y1670000D01*
G37*
G36*
G01X2287600Y1396200D02*
G03I-25400J0D01*
G37*
G54D10*
G01X20000Y1460000D02*
X-90000D01*
Y560000D01*
X20000D01*
G01X410000Y300000D02*
Y420000D01*
X130000D01*
Y300000D01*
X410000D01*
G01X490000Y420000D02*
X930000D01*
Y120000D01*
X490000D01*
Y420000D01*
G01X220000Y560000D02*
X410000D01*
G01X160000Y1770000D02*
X130000D01*
Y1950000D01*
X160000D01*
G01X500000Y1770000D02*
Y1950000D01*
X160000D01*
Y1770000D01*
X500000D01*
G01X130000Y1740000D02*
Y1620000D01*
X410000D01*
Y1740000D01*
X130000D01*
G01X410000Y1460000D02*
X220000D01*
G01X770000Y270000D02*
G02X710000I-30000J0D01*
G01X650000D02*
G02X710000I30000J0D01*
G01X770000D02*
X790000D01*
G01X630000D02*
X650000D01*
G01X660000Y560000D02*
Y630000D01*
G01X580000Y1770000D02*
X550000D01*
Y1950000D01*
X580000D01*
G01X920000Y1770000D02*
Y1950000D01*
X580000D01*
Y1770000D01*
X920000D01*
G01X870000Y1740000D02*
Y1620000D01*
X1150000D01*
Y1740000D01*
X870000D01*
G01X550000D02*
Y1620000D01*
X830000D01*
Y1740000D01*
X550000D01*
G01X660000Y1460000D02*
Y1390000D01*
G01X1250000Y240000D02*
Y190000D01*
X1300000D01*
G01Y610000D02*
X1250000D01*
Y560000D01*
G01X984600Y895700D02*
G02X1035400I25400J0D01*
G01D02*
X1060800D01*
Y1124300D01*
X959200D01*
Y895700D01*
X984600D01*
G01X970000Y1950000D02*
Y1830000D01*
X1250000D01*
Y1950000D01*
X970000D01*
G01X1550000Y1830000D02*
Y1950000D01*
X1270000D01*
Y1830000D01*
X1550000D01*
G01X1620000Y190000D02*
X1670000D01*
Y240000D01*
G01Y560000D02*
Y610000D01*
X1620000D01*
G01X1460000Y740000D02*
Y1800000D01*
X1960000D01*
Y740000D01*
X1760000D01*
G03X1660000I-50000J0D01*
G01X1460000D01*
G01X1570000Y1950000D02*
Y1830000D01*
X1850000D01*
Y1950000D01*
X1570000D01*
G01X2380000Y40000D02*
Y10000D01*
X2200000D01*
Y40000D01*
G01X2380000Y380000D02*
X2200000D01*
Y40000D01*
X2380000D01*
Y380000D01*
G01X2180000Y40000D02*
Y10000D01*
X2000000D01*
Y40000D01*
G01X2180000Y380000D02*
X2000000D01*
Y40000D01*
X2180000D01*
Y380000D01*
G01X2200000Y390000D02*
X2380000D01*
Y730000D01*
X2200000D01*
Y390000D01*
G01X2000000D02*
X2180000D01*
Y730000D01*
X2000000D01*
Y390000D01*
G01X2200000Y730000D02*
Y760000D01*
X2380000D01*
Y730000D01*
G01X2000000D02*
Y760000D01*
X2180000D01*
Y730000D01*
G01X1870000Y1950000D02*
Y1830000D01*
X2150000D01*
Y1950000D01*
X1870000D01*
G01X2200000Y1940000D02*
G03Y1840000I50000J-50000D01*
G01Y1940000D02*
X2360000D01*
G01Y1840000D02*
X2200000D01*
G01X2417000Y320000D02*
Y60000D01*
X2937000D01*
Y320000D01*
X2417000D01*
G01X2414600Y1054300D02*
X2389200D01*
Y825700D01*
X2490800D01*
Y1054300D01*
X2465400D01*
G01X2414600Y1444300D02*
X2389200D01*
Y1215700D01*
X2490800D01*
Y1444300D01*
X2465400D01*
G01Y1054300D02*
G02X2414600I-25400J0D01*
G01X2417000Y1930000D02*
Y1670000D01*
X2937000D01*
Y1930000D01*
X2417000D01*
G01X2465400Y1444300D02*
G02X2414600I-25400J0D01*
G01X2360000Y1840000D02*
G03Y1940000I-50000J50000D01*
G01X3240000Y870000D02*
X3000000D01*
G01Y1430000D02*
X4050000D01*
Y590000D01*
X3000000D01*
Y1430000D01*
G01X3240000Y1150000D02*
X3000000D01*
G01X4050000Y820000D02*
X3240000D01*
G01X4050000Y620000D02*
X3240000D01*
G01Y1430000D02*
Y590000D01*
G01Y1200000D02*
X4050000D01*
G01X3240000Y1400000D02*
X4050000D01*
G54D11*
G01X8000Y1823500D02*
X14000Y1816000D01*
X21000Y1811500D01*
X30000Y1810000D01*
X39000Y1813000D01*
X46000Y1819000D01*
X51000Y1829500D01*
X52000Y1841500D01*
X50000Y1853500D01*
X45000Y1861000D01*
X38000Y1867000D01*
X31000Y1868500D01*
X24000Y1867000D01*
X15000Y1861000D01*
X18000Y1900000D01*
X45000D01*
G01X75000D02*
X100000Y1810000D01*
X125000Y1900000D01*
G01X496000Y10000D02*
Y100000D01*
X534000D01*
G01X520000Y56500D02*
X496000D01*
G01X585000Y10000D02*
Y100000D01*
X573000Y82000D01*
G01Y10000D02*
X597000D01*
G01X200000Y190000D02*
Y280000D01*
X225000D01*
X233000Y275500D01*
X238000Y269500D01*
X240000Y257500D01*
X238000Y245500D01*
X232000Y238000D01*
X225000Y233500D01*
X200000D01*
G01X225000D02*
X240000Y190000D01*
G01X290000D02*
Y280000D01*
X278000Y262000D01*
G01Y190000D02*
X302000D01*
G01X338000Y203500D02*
X344000Y196000D01*
X351000Y191500D01*
X360000Y190000D01*
X369000Y193000D01*
X376000Y199000D01*
X381000Y209500D01*
X382000Y221500D01*
X380000Y233500D01*
X375000Y241000D01*
X368000Y247000D01*
X361000Y248500D01*
X354000Y247000D01*
X345000Y241000D01*
X348000Y280000D01*
X375000D01*
G01X193000Y530000D02*
Y465500D01*
X197000Y452000D01*
X205000Y443000D01*
X215000Y440000D01*
X225000Y443000D01*
X233000Y452000D01*
X237000Y465500D01*
Y530000D01*
G01X264000Y452000D02*
X272000Y444500D01*
X281000Y440000D01*
X289000D01*
X297000Y444500D01*
X303000Y452000D01*
X306000Y462500D01*
X304000Y473000D01*
X299000Y482000D01*
X290000Y488000D01*
X278000Y491000D01*
X271000Y497000D01*
X268000Y507500D01*
X270000Y518000D01*
X275000Y525500D01*
X282000Y530000D01*
X289000D01*
X296000Y527000D01*
X302000Y519500D01*
G01X363000Y488000D02*
X367000Y492500D01*
X370000Y500000D01*
X372000Y510500D01*
X370000Y519500D01*
X366000Y525500D01*
X359000Y530000D01*
X332000D01*
Y440000D01*
X365000D01*
X372000Y446000D01*
X376000Y455000D01*
X378000Y465500D01*
X376000Y476000D01*
X370000Y485000D01*
X363000Y488000D01*
X332000D01*
G01X425000Y440000D02*
Y530000D01*
X413000Y512000D01*
G01Y440000D02*
X437000D01*
G01X953000Y860000D02*
Y795500D01*
X957000Y782000D01*
X965000Y773000D01*
X975000Y770000D01*
X985000Y773000D01*
X993000Y782000D01*
X997000Y795500D01*
Y860000D01*
G01X1043000Y770000D02*
X1045000Y789500D01*
X1048000Y806000D01*
X1052000Y821000D01*
X1057000Y837500D01*
X1065000Y860000D01*
X1025000D01*
G01X700000Y1380000D02*
Y1470000D01*
X725000D01*
X733000Y1465500D01*
X738000Y1459500D01*
X740000Y1447500D01*
X738000Y1435500D01*
X732000Y1428000D01*
X725000Y1423500D01*
X700000D01*
G01X725000D02*
X740000Y1380000D01*
G01X790000D02*
Y1470000D01*
X778000Y1452000D01*
G01Y1380000D02*
X802000D01*
G01X860000D02*
Y1470000D01*
X848000Y1452000D01*
G01Y1380000D02*
X872000D01*
G01X905000D02*
Y1470000D01*
X930000D01*
X938000Y1465500D01*
X943000Y1459500D01*
X945000Y1447500D01*
X943000Y1435500D01*
X937000Y1428000D01*
X930000Y1423500D01*
X905000D01*
G01X930000D02*
X945000Y1380000D01*
G01X978000Y1390500D02*
X985000Y1383000D01*
X993000Y1380000D01*
X1001000Y1383000D01*
X1008000Y1392000D01*
X1013000Y1405500D01*
X1015000Y1419000D01*
Y1435500D01*
X1013000Y1449000D01*
X1008000Y1461000D01*
X1002000Y1467000D01*
X995000Y1470000D01*
X987000Y1467000D01*
X981000Y1461000D01*
X977000Y1452000D01*
X975000Y1440000D01*
X977000Y1429500D01*
X982000Y1419000D01*
X988000Y1413000D01*
X995000Y1411500D01*
X1003000Y1414500D01*
X1009000Y1422000D01*
X1015000Y1435500D01*
G01X903000Y1500000D02*
Y1590000D01*
X923000D01*
X931000Y1585500D01*
X937000Y1579500D01*
X942000Y1570500D01*
X946000Y1560000D01*
X947000Y1545000D01*
X946000Y1530000D01*
X942000Y1519500D01*
X937000Y1510500D01*
X931000Y1504500D01*
X923000Y1500000D01*
X903000D01*
G01X995000D02*
Y1590000D01*
X983000Y1572000D01*
G01Y1500000D02*
X1007000D01*
G01X703000D02*
Y1590000D01*
X723000D01*
X731000Y1585500D01*
X737000Y1579500D01*
X742000Y1570500D01*
X746000Y1560000D01*
X747000Y1545000D01*
X746000Y1530000D01*
X742000Y1519500D01*
X737000Y1510500D01*
X731000Y1504500D01*
X723000Y1500000D01*
X703000D01*
G01X776000Y1575000D02*
X782000Y1584000D01*
X789000Y1588500D01*
X797000Y1590000D01*
X807000Y1587000D01*
X814000Y1579500D01*
X816000Y1570500D01*
X815000Y1561500D01*
X811000Y1554000D01*
X791000Y1539000D01*
X782000Y1528500D01*
X776000Y1513500D01*
X774000Y1500000D01*
X816000D01*
G01X1243000Y130000D02*
Y65500D01*
X1247000Y52000D01*
X1255000Y43000D01*
X1265000Y40000D01*
X1275000Y43000D01*
X1283000Y52000D01*
X1287000Y65500D01*
Y130000D01*
G01X1313000Y58000D02*
X1319000Y47500D01*
X1327000Y41500D01*
X1336000Y40000D01*
X1344000Y41500D01*
X1352000Y49000D01*
X1357000Y58000D01*
X1358000Y67000D01*
X1356000Y77500D01*
X1349000Y85000D01*
X1342000Y88000D01*
X1333000D01*
G01X1342000D02*
X1348000Y92500D01*
X1353000Y100000D01*
X1355000Y109000D01*
X1353000Y118000D01*
X1348000Y125500D01*
X1339000Y130000D01*
X1330000Y128500D01*
X1321000Y122500D01*
G01X1283000Y790000D02*
Y725500D01*
X1287000Y712000D01*
X1295000Y703000D01*
X1305000Y700000D01*
X1315000Y703000D01*
X1323000Y712000D01*
X1327000Y725500D01*
Y790000D01*
G01X1375000Y700000D02*
Y790000D01*
X1363000Y772000D01*
G01Y700000D02*
X1387000D01*
G01X1045000Y1380000D02*
Y1470000D01*
X1070000D01*
X1078000Y1465500D01*
X1083000Y1459500D01*
X1085000Y1447500D01*
X1083000Y1435500D01*
X1077000Y1428000D01*
X1070000Y1423500D01*
X1045000D01*
G01X1070000D02*
X1085000Y1380000D01*
G01X1113000Y1398000D02*
X1119000Y1387500D01*
X1127000Y1381500D01*
X1136000Y1380000D01*
X1144000Y1381500D01*
X1152000Y1389000D01*
X1157000Y1398000D01*
X1158000Y1407000D01*
X1156000Y1417500D01*
X1149000Y1425000D01*
X1142000Y1428000D01*
X1133000D01*
G01X1142000D02*
X1148000Y1432500D01*
X1153000Y1440000D01*
X1155000Y1449000D01*
X1153000Y1458000D01*
X1148000Y1465500D01*
X1139000Y1470000D01*
X1130000Y1468500D01*
X1121000Y1462500D01*
G01X1125000Y1740000D02*
Y1830000D01*
X1150000D01*
X1158000Y1825500D01*
X1163000Y1819500D01*
X1165000Y1807500D01*
X1163000Y1795500D01*
X1157000Y1788000D01*
X1150000Y1783500D01*
X1125000D01*
G01X1150000D02*
X1165000Y1740000D01*
G01X1227000D02*
Y1830000D01*
X1190000Y1765500D01*
X1240000D01*
G01X1275000Y1740000D02*
Y1830000D01*
X1300000D01*
X1308000Y1825500D01*
X1313000Y1819500D01*
X1315000Y1807500D01*
X1313000Y1795500D01*
X1307000Y1788000D01*
X1300000Y1783500D01*
X1275000D01*
G01X1300000D02*
X1315000Y1740000D01*
G01X1365000D02*
Y1830000D01*
X1353000Y1812000D01*
G01Y1740000D02*
X1377000D01*
G01X1730000Y20000D02*
Y110000D01*
X1755000D01*
X1763000Y105500D01*
X1768000Y99500D01*
X1770000Y87500D01*
X1768000Y75500D01*
X1762000Y68000D01*
X1755000Y63500D01*
X1730000D01*
G01X1755000D02*
X1770000Y20000D01*
G01X1799000D02*
X1841000Y110000D01*
G01X1799000D02*
X1841000Y20000D01*
G01X1730000Y400000D02*
Y490000D01*
X1755000D01*
X1763000Y485500D01*
X1768000Y479500D01*
X1770000Y467500D01*
X1768000Y455500D01*
X1762000Y448000D01*
X1755000Y443500D01*
X1730000D01*
G01X1755000D02*
X1770000Y400000D01*
G01X1799000D02*
X1841000Y490000D01*
G01X1799000D02*
X1841000Y400000D01*
G01X1724000Y200000D02*
Y290000D01*
X1750000Y215000D01*
X1776000Y290000D01*
Y200000D01*
G01X1820000Y290000D02*
Y200000D01*
G01X1797000Y290000D02*
X1843000D01*
G01X1868000Y200000D02*
Y290000D01*
G01X1906000D02*
X1868000Y234500D01*
G01X1912000Y200000D02*
X1885000Y260000D01*
G01X1729000Y580000D02*
Y670000D01*
G01X1771000D02*
Y580000D01*
G01Y625000D02*
X1729000D01*
G01X1790000Y670000D02*
X1804000Y580000D01*
X1820000Y670000D01*
X1836000Y580000D01*
X1850000Y670000D01*
G01X1890000Y110000D02*
Y20000D01*
G01X1867000Y110000D02*
X1913000D01*
G01X1939000Y20000D02*
X1981000Y110000D01*
G01X1939000D02*
X1981000Y20000D01*
G01X1890000Y490000D02*
Y400000D01*
G01X1867000Y490000D02*
X1913000D01*
G01X1939000Y400000D02*
X1981000Y490000D01*
G01X1939000D02*
X1981000Y400000D01*
G01X2015000Y1730000D02*
Y1820000D01*
X2040000D01*
X2048000Y1815500D01*
X2053000Y1809500D01*
X2055000Y1797500D01*
X2053000Y1785500D01*
X2047000Y1778000D01*
X2040000Y1773500D01*
X2015000D01*
G01X2040000D02*
X2055000Y1730000D01*
G01X2083000Y1743500D02*
X2089000Y1736000D01*
X2096000Y1731500D01*
X2105000Y1730000D01*
X2114000Y1733000D01*
X2121000Y1739000D01*
X2126000Y1749500D01*
X2127000Y1761500D01*
X2125000Y1773500D01*
X2120000Y1781000D01*
X2113000Y1787000D01*
X2106000Y1788500D01*
X2099000Y1787000D01*
X2090000Y1781000D01*
X2093000Y1820000D01*
X2120000D01*
G01X2165000Y1730000D02*
Y1820000D01*
X2190000D01*
X2198000Y1815500D01*
X2203000Y1809500D01*
X2205000Y1797500D01*
X2203000Y1785500D01*
X2197000Y1778000D01*
X2190000Y1773500D01*
X2165000D01*
G01X2190000D02*
X2205000Y1730000D01*
G01X2236000Y1767500D02*
X2243000Y1778000D01*
X2249000Y1784000D01*
X2257000Y1787000D01*
X2264000Y1784000D01*
X2269000Y1778000D01*
X2273000Y1769000D01*
X2274000Y1758500D01*
X2273000Y1749500D01*
X2269000Y1740500D01*
X2263000Y1733000D01*
X2256000Y1730000D01*
X2248000Y1733000D01*
X2241000Y1742000D01*
X2237000Y1755500D01*
X2236000Y1770500D01*
X2238000Y1790000D01*
X2241000Y1800500D01*
X2246000Y1811000D01*
X2253000Y1818500D01*
X2260000Y1820000D01*
X2267000Y1817000D01*
X2272000Y1809500D01*
G01X2414000Y350000D02*
Y440000D01*
X2440000Y365000D01*
X2466000Y440000D01*
Y350000D01*
G01X2510000Y440000D02*
Y350000D01*
G01X2487000Y440000D02*
X2533000D01*
G01X2558000Y350000D02*
Y440000D01*
G01X2596000D02*
X2558000Y384500D01*
G01X2602000Y350000D02*
X2575000Y410000D01*
G01X2620000Y513000D02*
X2530000D01*
Y533000D01*
X2534500Y541000D01*
X2540500Y547000D01*
X2549500Y552000D01*
X2560000Y556000D01*
X2575000Y557000D01*
X2590000Y556000D01*
X2600500Y552000D01*
X2609500Y547000D01*
X2615500Y541000D01*
X2620000Y533000D01*
Y513000D01*
G01X2602000Y583000D02*
X2612500Y589000D01*
X2618500Y597000D01*
X2620000Y606000D01*
X2618500Y614000D01*
X2611000Y622000D01*
X2602000Y627000D01*
X2593000Y628000D01*
X2582500Y626000D01*
X2575000Y619000D01*
X2572000Y612000D01*
Y603000D01*
G01Y612000D02*
X2567500Y618000D01*
X2560000Y623000D01*
X2551000Y625000D01*
X2542000Y623000D01*
X2534500Y618000D01*
X2530000Y609000D01*
X2531500Y600000D01*
X2537500Y591000D01*
G01X2495000Y513000D02*
X2405000D01*
Y533000D01*
X2409500Y541000D01*
X2415500Y547000D01*
X2424500Y552000D01*
X2435000Y556000D01*
X2450000Y557000D01*
X2465000Y556000D01*
X2475500Y552000D01*
X2484500Y547000D01*
X2490500Y541000D01*
X2495000Y533000D01*
Y513000D01*
G01Y617000D02*
X2405000D01*
X2469500Y580000D01*
Y630000D01*
G01X2620000Y653000D02*
X2530000D01*
Y673000D01*
X2534500Y681000D01*
X2540500Y687000D01*
X2549500Y692000D01*
X2560000Y696000D01*
X2575000Y697000D01*
X2590000Y696000D01*
X2600500Y692000D01*
X2609500Y687000D01*
X2615500Y681000D01*
X2620000Y673000D01*
Y653000D01*
G01X2606500Y723000D02*
X2614000Y729000D01*
X2618500Y736000D01*
X2620000Y745000D01*
X2617000Y754000D01*
X2611000Y761000D01*
X2600500Y766000D01*
X2588500Y767000D01*
X2576500Y765000D01*
X2569000Y760000D01*
X2563000Y753000D01*
X2561500Y746000D01*
X2563000Y739000D01*
X2569000Y730000D01*
X2530000Y733000D01*
Y760000D01*
G01X2495000Y653000D02*
X2405000D01*
Y673000D01*
X2409500Y681000D01*
X2415500Y687000D01*
X2424500Y692000D01*
X2435000Y696000D01*
X2450000Y697000D01*
X2465000Y696000D01*
X2475500Y692000D01*
X2484500Y687000D01*
X2490500Y681000D01*
X2495000Y673000D01*
Y653000D01*
G01X2457500Y726000D02*
X2447000Y733000D01*
X2441000Y739000D01*
X2438000Y747000D01*
X2441000Y754000D01*
X2447000Y759000D01*
X2456000Y763000D01*
X2466500Y764000D01*
X2475500Y763000D01*
X2484500Y759000D01*
X2492000Y753000D01*
X2495000Y746000D01*
X2492000Y738000D01*
X2483000Y731000D01*
X2469500Y727000D01*
X2454500Y726000D01*
X2435000Y728000D01*
X2424500Y731000D01*
X2414000Y736000D01*
X2406500Y743000D01*
X2405000Y750000D01*
X2408000Y757000D01*
X2415500Y762000D01*
G01X2613000Y990000D02*
Y925500D01*
X2617000Y912000D01*
X2625000Y903000D01*
X2635000Y900000D01*
X2645000Y903000D01*
X2653000Y912000D01*
X2657000Y925500D01*
Y990000D01*
G01X2686000Y937500D02*
X2693000Y948000D01*
X2699000Y954000D01*
X2707000Y957000D01*
X2714000Y954000D01*
X2719000Y948000D01*
X2723000Y939000D01*
X2724000Y928500D01*
X2723000Y919500D01*
X2719000Y910500D01*
X2713000Y903000D01*
X2706000Y900000D01*
X2698000Y903000D01*
X2691000Y912000D01*
X2687000Y925500D01*
X2686000Y940500D01*
X2688000Y960000D01*
X2691000Y970500D01*
X2696000Y981000D01*
X2703000Y988500D01*
X2710000Y990000D01*
X2717000Y987000D01*
X2722000Y979500D01*
G01X2613000Y1370000D02*
Y1305500D01*
X2617000Y1292000D01*
X2625000Y1283000D01*
X2635000Y1280000D01*
X2645000Y1283000D01*
X2653000Y1292000D01*
X2657000Y1305500D01*
Y1370000D01*
G01X2717000Y1280000D02*
Y1370000D01*
X2680000Y1305500D01*
X2730000D01*
G01X2419000Y1510000D02*
Y1600000D01*
G01X2461000D02*
Y1510000D01*
G01Y1555000D02*
X2419000D01*
G01X2480000Y1600000D02*
X2494000Y1510000D01*
X2510000Y1600000D01*
X2526000Y1510000D01*
X2540000Y1600000D01*
G01X2347000Y1812500D02*
X2341000Y1817000D01*
X2334000Y1820000D01*
X2326000D01*
X2317000Y1815500D01*
X2310000Y1808000D01*
X2305000Y1799000D01*
X2301000Y1784000D01*
X2300000Y1770500D01*
X2302000Y1757000D01*
X2305000Y1748000D01*
X2311000Y1739000D01*
X2318000Y1733000D01*
X2325000Y1730000D01*
X2332000D01*
X2339000Y1733000D01*
X2345000Y1737500D01*
X2350000Y1743500D01*
G01X2395000Y1730000D02*
Y1820000D01*
X2383000Y1802000D01*
G01Y1730000D02*
X2407000D01*
G01X2875000Y388000D02*
X2880000Y379000D01*
X2886000Y373000D01*
X2893000Y370000D01*
X2901000Y373000D01*
X2907000Y379000D01*
X2913000Y388000D01*
X2915000Y400000D01*
Y460000D01*
G01X2965000Y370000D02*
Y460000D01*
X2953000Y442000D01*
G01Y370000D02*
X2977000D01*
G01X2845000Y1578000D02*
X2850000Y1569000D01*
X2856000Y1563000D01*
X2863000Y1560000D01*
X2871000Y1563000D01*
X2877000Y1569000D01*
X2883000Y1578000D01*
X2885000Y1590000D01*
Y1650000D01*
G01X2916000Y1635000D02*
X2922000Y1644000D01*
X2929000Y1648500D01*
X2937000Y1650000D01*
X2947000Y1647000D01*
X2954000Y1639500D01*
X2956000Y1630500D01*
X2955000Y1621500D01*
X2951000Y1614000D01*
X2931000Y1599000D01*
X2922000Y1588500D01*
X2916000Y1573500D01*
X2914000Y1560000D01*
X2956000D01*
G01X2853000Y1530000D02*
Y1465500D01*
X2857000Y1452000D01*
X2865000Y1443000D01*
X2875000Y1440000D01*
X2885000Y1443000D01*
X2893000Y1452000D01*
X2897000Y1465500D01*
Y1530000D01*
G01X2923000Y1453500D02*
X2929000Y1446000D01*
X2936000Y1441500D01*
X2945000Y1440000D01*
X2954000Y1443000D01*
X2961000Y1449000D01*
X2966000Y1459500D01*
X2967000Y1471500D01*
X2965000Y1483500D01*
X2960000Y1491000D01*
X2953000Y1497000D01*
X2946000Y1498500D01*
X2939000Y1497000D01*
X2930000Y1491000D01*
X2933000Y1530000D01*
X2960000D01*
G54D12*
G01X360480Y1796500D02*
X296980Y1860000D01*
X360480Y1923500D01*
Y1796500D01*
X342700Y1814280D01*
Y1898100D01*
X330000Y1885400D01*
Y1834600D01*
X317300Y1847300D01*
Y1872700D01*
G01X780480Y1796500D02*
X716980Y1860000D01*
X780480Y1923500D01*
Y1796500D01*
X762700Y1814280D01*
Y1898100D01*
X750000Y1885400D01*
Y1834600D01*
X737300Y1847300D01*
Y1872700D01*
G01X2153500Y240480D02*
X2090000Y176980D01*
X2026500Y240480D01*
X2153500D01*
X2135720Y222700D01*
X2051900D01*
X2064600Y210000D01*
X2115400D01*
X2102700Y197300D01*
X2077300D01*
G01X2026500Y529520D02*
X2090000Y593020D01*
X2153500Y529520D01*
X2026500D01*
X2044280Y547300D01*
X2128100D01*
X2115400Y560000D01*
X2064600D01*
X2077300Y572700D01*
X2102700D01*
G01X2353500Y240480D02*
X2290000Y176980D01*
X2226500Y240480D01*
X2353500D01*
X2335720Y222700D01*
X2251900D01*
X2264600Y210000D01*
X2315400D01*
X2302700Y197300D01*
X2277300D01*
G01X2226500Y529520D02*
X2290000Y593020D01*
X2353500Y529520D01*
X2226500D01*
X2244280Y547300D01*
X2328100D01*
X2315400Y560000D01*
X2264600D01*
X2277300Y572700D01*
X2302700D01*
M02*
