G04 ================== begin FILE IDENTIFICATION RECORD ==================*
G04 Layout Name:  H:/MBED-TOOLS/HARDWARE/HY_TYPEC_DBUG_V10A/PCB/HY_TYPEC_DBUG_V10A.brd*
G04 Film Name:    SolderMask_Bottom*
G04 File Format:  Gerber RS274X*
G04 File Origin:  Cadence Allegro 17.2-S058*
G04 Origin Date:  Tue Feb 18 10:37:42 2020*
G04 *
G04 Layer:  PIN/SOLDERMASK_BOTTOM*
G04 Layer:  PACKAGE GEOMETRY/SOLDERMASK_BOTTOM*
G04 Layer:  BOARD GEOMETRY/SOLDERMASK_BOTTOM*
G04 *
G04 Offset:    (0.0000 0.0000)*
G04 Mirror:    No*
G04 Mode:      Positive*
G04 Rotation:  0*
G04 FullContactRelief:  No*
G04 UndefLineWidth:     0.1524*
G04 ================== end FILE IDENTIFICATION RECORD ====================*
%FSLAX55Y55*MOMM*%
%IR0*IPPOS*OFA0.00000B0.00000*MIA0B0*SFA1.00000B1.00000*%
%ADD18R,1.6X.4*%
%ADD17R,1.5X.8*%
%ADD12R,.9X.9*%
%ADD11O,2.2X1.1*%
%ADD10O,1.7X1.1*%
%ADD14R,1.5X1.3*%
%ADD13R,.6X.7*%
%ADD15R,2.X2.*%
%ADD16C,1.9*%
%LPD*%
G75*
G54D10*
X118000Y578000D03*
Y1442000D03*
G54D11*
X536000Y578000D03*
Y1442000D03*
G54D12*
X903800Y130000D03*
X893800Y510000D03*
X883800Y1320000D03*
Y1180000D03*
Y1040000D03*
Y1460000D03*
X1056200Y130000D03*
X1313800Y240000D03*
X1046200Y510000D03*
X1273800Y1210000D03*
Y1070000D03*
X1036200Y1320000D03*
Y1180000D03*
Y1040000D03*
Y1460000D03*
X1826200Y240000D03*
X1673800D03*
X1826200Y560000D03*
X1673800D03*
X1466200Y240000D03*
X1426200Y1210000D03*
Y1070000D03*
X1983800Y420000D03*
X2136200D03*
X1983800Y560000D03*
X2136200D03*
X2146200Y980000D03*
X1993800D03*
X2146200Y840000D03*
X1993800D03*
X2436200Y420000D03*
X2283800D03*
X2436200Y560000D03*
X2283800D03*
G54D13*
X1065000Y260000D03*
X975000D03*
X1065000Y380000D03*
X975000D03*
X1775000Y1320000D03*
X1645000D03*
X1555000D03*
X1865000D03*
X2135000Y1105000D03*
X2045000D03*
X2135000Y1490000D03*
X2045000D03*
G54D14*
X1590000Y1685000D03*
X1830000D03*
Y1495000D03*
X1590000D03*
G54D15*
X2550000Y190000D03*
Y1800000D03*
G54D16*
X2804000Y190000D03*
Y1800000D03*
G54D17*
X2905000Y650000D03*
Y1370000D03*
G54D18*
X2900000Y935000D03*
Y885000D03*
Y835000D03*
Y785000D03*
Y735000D03*
Y1285000D03*
Y1235000D03*
Y1185000D03*
Y1135000D03*
Y1085000D03*
Y1035000D03*
Y985000D03*
M02*
