G04 ================== begin FILE IDENTIFICATION RECORD ==================*
G04 Layout Name:  H:/MBED-TOOLS/HARDWARE/HY_TYPEC_DBUG_V10A/PCB/HY_TYPEC_DBUG_V10A.brd*
G04 Film Name:    TOP*
G04 File Format:  Gerber RS274X*
G04 File Origin:  Cadence Allegro 17.2-S058*
G04 Origin Date:  Tue Feb 18 10:37:42 2020*
G04 *
G04 Layer:  VIA CLASS/TOP*
G04 Layer:  PIN/TOP*
G04 Layer:  ETCH/TOP*
G04 *
G04 Offset:    (0.0000 0.0000)*
G04 Mirror:    No*
G04 Mode:      Positive*
G04 Rotation:  0*
G04 FullContactRelief:  No*
G04 UndefLineWidth:     0.1524*
G04 ================== end FILE IDENTIFICATION RECORD ====================*
%FSLAX55Y55*MOMM*%
%IR0*IPPOS*OFA0.00000B0.00000*MIA0B0*SFA1.00000B1.00000*%
%ADD17R,1.2X.3*%
%ADD29R,1.5X.3*%
%ADD16R,1.2X.6*%
%ADD28R,1.4X.7*%
%ADD24R,1.3X.9*%
%ADD23R,1.8X.4*%
%ADD15R,.9X1.3*%
%ADD10C,.508*%
%ADD12R,.8X.8*%
%ADD14O,2.1X1.*%
%ADD11O,1.6X1.*%
%ADD13R,1.X2.5*%
%ADD25R,.5X.6*%
%ADD19R,.6X.4*%
%ADD18R,.6X.5*%
%ADD22R,2.7X2.7*%
%ADD21R,.8X.25*%
%ADD20R,.25X.8*%
%ADD27C,1.8*%
%ADD26R,1.9X1.9*%
%ADD30C,.2032*%
%ADD31C,.254*%
%ADD32C,.762*%
G75*
%LPD*%
G75*
G36*
G01X20000Y1900000D02*
G02X100000Y1980000I78333J1667D01*
G01X328780D01*
G02X346070Y1949010I-3J-20320D01*
G03X339260Y1925000I38921J-24010D01*
G01Y1795000D01*
G03X339680Y1788810I45740J-6D01*
G02X319550Y1765740I-20132J-2751D01*
G01X306200D01*
G03X260460Y1720000I0J-45740D01*
G01Y1640000D01*
G03X284880Y1599530I45744J0D01*
G01X290300Y1596680D01*
Y1213800D01*
G03X306670Y1174270I55913J0D01*
G01X385470Y1095470D01*
G03X425000Y1079100I39530J39543D01*
G01X478930D01*
Y1068610D01*
X478910Y1068280D01*
G03X478790Y1064670I55778J-3661D01*
G01Y1005330D01*
G03X495160Y965800I55913J0D01*
G01X515490Y945470D01*
G03X528860Y935600I39517J39540D01*
G01X534260Y932740D01*
Y920000D01*
G03X535370Y910000I45738J15D01*
G03X534270Y900870I44630J-10008D01*
G01X534080Y890900D01*
X395000D01*
G03X355470Y874530I0J-55913D01*
G01X306670Y825730D01*
G03X290300Y786200I39543J-39530D01*
G01Y443320D01*
X284880Y440470D01*
G03X260460Y400000I21324J-40470D01*
G01Y320000D01*
G03X306200Y274260I45740J0D01*
G01X386200D01*
G03X431940Y320000I0J45740D01*
G01Y400000D01*
G03X407520Y440470I-45744J0D01*
G01X402100Y443320D01*
Y763050D01*
X418150Y779100D01*
X435950D01*
G02X451800Y746060I3J-20320D01*
G03X442980Y721000I31191J-25060D01*
G03X483000Y680980I40020J0D01*
G03X515780Y698040I0J40023D01*
G01X518810Y702370D01*
X534260D01*
Y694260D01*
X671050D01*
X674260Y691050D01*
Y468950D01*
X651050Y445740D01*
X491050D01*
X454260Y408950D01*
Y121050D01*
X491050Y84260D01*
X808950D01*
X810000Y85310D01*
X841050Y54260D01*
X1342380D01*
X1343770Y53860D01*
G03X1360000Y51560I16234J56139D01*
G03X1376230Y53860I-4J58439D01*
G01X1377620Y54260D01*
X1398950D01*
X1417380Y72690D01*
X1424500Y66830D01*
G03X1460010Y54100I35510J43162D01*
G01X1633800D01*
G03X1673330Y70470I0J55913D01*
G01X1682130Y79270D01*
X1685350Y79800D01*
G03X1744740Y144700I-11553J70196D01*
G01X1745440Y154100D01*
X1796850D01*
X1896260Y54690D01*
G02X1881890Y20000I-14369J-14369D01*
G01X100000D01*
G02X20000Y100000I15000J95000D01*
G01Y1900000D01*
G37*
G36*
G01X741510Y800000D02*
X810000D01*
X840000Y770000D01*
Y678620D01*
X833610Y676060D01*
G03X788860Y610000I26384J-66060D01*
G01Y435740D01*
X764260D01*
Y130000D01*
X510000D01*
X500000Y140000D01*
Y390000D01*
X510000Y400000D01*
X670000D01*
X720000Y450000D01*
Y618490D01*
X724680Y621490D01*
G03X745740Y660000I-24679J38510D01*
G01Y720000D01*
G03X729890Y754620I-45734J0D01*
G02Y785380I13283J15380D01*
G03X738510Y795320I-29886J34625D01*
G01X741510Y800000D01*
G37*
G36*
G01X428580Y1749260D02*
X451690D01*
X528060Y1672890D01*
Y1640000D01*
G03X573800Y1594260I45740J0D01*
G01X769290D01*
X931560Y1431990D01*
Y1376250D01*
X881050Y1325740D01*
X534260D01*
Y1317630D01*
X518810D01*
X515780Y1321960D01*
G03X483000Y1339020I-32780J-22963D01*
G03Y1258980I0J-40020D01*
G03X503520Y1264640I0J40027D01*
G02X534260Y1247200I10421J-17444D01*
G01Y1190900D01*
X448150D01*
X402100Y1236950D01*
Y1596680D01*
X407520Y1599530D01*
G03X431940Y1640000I-21324J40470D01*
G01Y1720000D01*
G03X429190Y1735630I-45742J9D01*
G01X428580Y1737310D01*
Y1749260D01*
G37*
G36*
G01X763110Y894100D02*
X832300D01*
G03X870000Y874260I37700J25899D01*
G01X930000D01*
G03X963720Y889100I0J45730D01*
G01X1010990D01*
G02X1025360Y854410I1J-20321D01*
G01X1010470Y839530D01*
G03X994100Y800000I39543J-39530D01*
G01Y460920D01*
G03X1010470Y421390I55913J0D01*
G01X1091160Y340700D01*
X1087530Y334030D01*
G03X1078860Y300000I62469J-34035D01*
G03X1083940Y273600I71138J0D01*
G02X1065070Y245740I-18869J-7540D01*
G01X958950D01*
X955740Y248950D01*
Y435740D01*
X931140D01*
Y610000D01*
G03X891410Y673830I-71139J0D01*
G01X885740Y676620D01*
Y788950D01*
X828950Y845740D01*
X746450D01*
X745480Y854830D01*
G03X744630Y860000I-45482J-4823D01*
G03X745740Y870000I-44628J10015D01*
G01Y882730D01*
X751150Y885590D01*
G03X763110Y894100I-26149J49409D01*
G37*
G36*
G01X810000Y390000D02*
X910000D01*
Y230000D01*
X940000Y200000D01*
X1280000D01*
X1296700Y216700D01*
X1300800Y216770D01*
G03X1316880Y219990I-795J45732D01*
G03X1325000Y219260I8139J45008D01*
G01X1376760D01*
Y160000D01*
G03X1378670Y146900I45743J-20D01*
G01X1379100Y145480D01*
Y135010D01*
G03X1380150Y124240I55899J14D01*
G02X1360210Y100000I-19939J-3919D01*
G01X860000D01*
X810000Y150000D01*
Y390000D01*
G37*
G36*
G01X1196000Y1272500D02*
G03X1194260Y1260010I44001J-12496D01*
G01Y1154260D01*
X1180000Y1140000D01*
X820000D01*
X742150Y1217850D01*
X741400Y1219460D01*
G03X729890Y1234620I-41389J-19475D01*
G02Y1265380I13283J15380D01*
G03X738510Y1275320I-29886J34625D01*
G01X741510Y1280000D01*
X900000D01*
X990000Y1370000D01*
X1190000D01*
X1194260Y1365740D01*
Y1284990D01*
G03X1196000Y1272500I45741J6D01*
G37*
G36*
G01X1346530Y514260D02*
X1573470D01*
X1574780Y505630D01*
G03X1576000Y500000I45224J6853D01*
G03X1574260Y487500I44001J-12496D01*
G01Y462500D01*
G03X1576000Y450000I45741J-4D01*
G03X1574260Y437500I44001J-12496D01*
G01Y412500D01*
G03X1576000Y400000I45741J-4D01*
G03X1574260Y387500I44001J-12496D01*
G01Y362500D01*
G03X1576000Y350000I45741J-4D01*
G03X1574260Y337500I44001J-12496D01*
G01Y312500D01*
G03X1576000Y300000I45741J-4D01*
G03X1574780Y294370I44004J-12483D01*
G01X1573470Y285740D01*
X1346530D01*
X1345220Y294370D01*
G03X1344000Y300000I-45224J-6853D01*
G03X1345740Y312500I-44001J12496D01*
G01Y337500D01*
G03X1344000Y350000I-45741J4D01*
G03X1345740Y362500I-44001J12496D01*
G01Y387500D01*
G03X1344000Y400000I-45741J4D01*
G03X1345740Y412500I-44001J12496D01*
G01Y437500D01*
G03X1333920Y468180I-45727J0D01*
G02Y481820I7535J6820D01*
G03X1345220Y505630I-33919J30684D01*
G01X1346530Y514260D01*
G37*
G36*
G01X1598440Y1160000D02*
Y1170190D01*
X1611380D01*
X1613770Y1168770D01*
G03X1638450Y1159800I36224J61230D01*
G01X1641670Y1159270D01*
X1670470Y1130470D01*
G03X1710000Y1114100I39530J39543D01*
G01X1943560D01*
Y1096080D01*
X1935950Y1094110D01*
G03X1910470Y1079530I14050J-54108D01*
G01X1881670Y1050730D01*
X1878450Y1050200D01*
G03X1818860Y980000I11555J-70200D01*
G03X1890000Y908860I71140J0D01*
G03X1924180Y917610I0J71133D01*
G02X1954260Y899790I9760J-17823D01*
G01Y890000D01*
G03X1956000Y877500I45741J-4D01*
G03X1954260Y865000I44001J-12496D01*
G01Y825000D01*
G03X1954890Y817440I45740J5D01*
G03X1931000Y805100I20115J-68237D01*
G01X1559200D01*
G03X1519670Y788730I0J-55913D01*
G01X1445470Y714530D01*
G03X1431970Y692690I39530J-39527D01*
G01X1429660Y685740D01*
X1322500D01*
G03X1276760Y640000I0J-45740D01*
G01Y583240D01*
X1220000D01*
G03X1174260Y537500I0J-45740D01*
G01Y512500D01*
G03X1176590Y498070I45743J-17D01*
G01X1178570Y492120D01*
X1166950Y480500D01*
X1146540Y500910D01*
Y760010D01*
X1179990Y793460D01*
X1212320D01*
X1214860Y791790D01*
G03X1240000Y784260I25140J38202D01*
G01X1420000D01*
G03X1465740Y830000I0J45740D01*
G01Y870000D01*
G03X1464000Y882500I-45741J4D01*
G03X1465740Y895000I-44001J12496D01*
G01Y935000D01*
G03X1464000Y947500I-45741J4D01*
G03X1465740Y960000I-44001J12496D01*
G01Y1000000D01*
G03X1464000Y1012500I-45741J4D01*
G03X1465740Y1025000I-44001J12496D01*
G01Y1051560D01*
X1490000D01*
G03X1531320Y1068680I-6J58438D01*
G01X1581320Y1118680D01*
G03X1598440Y1160000I-41318J41326D01*
G37*
G36*
G01X1539310Y1806160D02*
X1580690D01*
X1581980Y1805810D01*
G03X1591380Y1804320I11822J44188D01*
G01X1595270Y1804120D01*
X1690500Y1708900D01*
G03X1740800Y1688060I50306J50297D01*
G01X1954260D01*
Y1670000D01*
G03X1956000Y1657500I45741J-4D01*
G03X1954260Y1645000I44001J-12496D01*
G01Y1540000D01*
G03X1956000Y1527500I45741J-4D01*
G03X1954260Y1515000I44001J-12496D01*
G01Y1475000D01*
G03X1956000Y1462500I45741J-4D01*
G03X1954260Y1450000I44001J-12496D01*
G01Y1410000D01*
G03X1956000Y1397500I45741J-4D01*
G03X1954260Y1385000I44001J-12496D01*
G01Y1345000D01*
G03X1956000Y1332500I45741J-4D01*
G03X1954260Y1320000I44001J-12496D01*
G01Y1290900D01*
X1819000D01*
G03X1775000Y1306140I-44000J-55897D01*
G03X1724310Y1284920I0J-71154D01*
G02X1696540Y1283800I-14482J14253D01*
G03X1650000Y1301140I-46540J-53786D01*
G03X1625700Y1296860I3J-71139D01*
G02X1598440Y1315960I-6940J19098D01*
G01Y1530000D01*
G03X1581320Y1571320I-58438J-6D01*
G01X1481320Y1671320D01*
G03X1445140Y1688210I-41322J-41321D01*
G03X1420000Y1695740I-25140J-38202D01*
G01X1357250D01*
X1355490Y1696410D01*
G03X1330000Y1701140I-25507J-66407D01*
G01X1171940D01*
Y1720000D01*
G03X1160510Y1750240I-45737J-7D01*
G02X1160950Y1764150I7624J6721D01*
G01X1201070Y1804260D01*
X1226200D01*
G03X1238020Y1805810I13J45742D01*
G01X1239310Y1806160D01*
X1280690D01*
X1281980Y1805810D01*
G03X1293800Y1804260I11807J44192D01*
G01X1526200D01*
G03X1538020Y1805810I13J45742D01*
G01X1539310Y1806160D01*
G37*
G36*
G01X1885220Y1980000D02*
X1987180D01*
G02X2005340Y1950550I5J-20321D01*
G03X2000460Y1930000I40858J-20557D01*
G01Y1883310D01*
X1983050Y1865900D01*
X1883150D01*
X1871940Y1877110D01*
Y1930000D01*
G03X1867060Y1950550I-45738J-7D01*
G02X1885220Y1980000I18155J9129D01*
G37*
G36*
G01X2823310Y724260D02*
X2980000D01*
Y100000D01*
G02X2900000Y20000I-78333J-1667D01*
G01X2416280D01*
G02X2397430Y47910I-2J20319D01*
G03X2397670Y48540I-42621J16597D01*
G02X2428430Y57770I18960J-7315D01*
G03X2455000Y49260I26570J37224D01*
G01X2645000D01*
G03X2687000Y76880I0J45743D01*
G02X2718460Y84610I18658J-8051D01*
G03X2804000Y54260I85546J105388D01*
G03Y325740I0J135740D01*
G03X2718460Y295390I6J-135738D01*
G02X2687000Y303120I-12802J15781D01*
G03X2645000Y330740I-42000J-18123D01*
G01X2644320D01*
G02X2637140Y348080I5J10159D01*
G01X2639530Y350470D01*
G03X2655900Y390000I-39543J39530D01*
G01Y590000D01*
G03X2639530Y629530I-55913J0D01*
G01X2622300Y646760D01*
G02X2629480Y664100I7185J7181D01*
G01X2740000D01*
G03X2779530Y680470I0J55913D01*
G01X2823310Y724260D01*
G37*
G36*
G01X2638440Y1253460D02*
X2640010D01*
X2666370Y1227090D01*
X2659300Y1219910D01*
G03X2638860Y1170000I50702J-49905D01*
G03X2639190Y1163170I71139J14D01*
G02X2618960Y1140900I-20226J-1950D01*
G01X2489700D01*
G03X2440000Y1161140I-49700J-50900D01*
G03X2369020Y1094710I0J-71136D01*
G02X2348740Y1075740I-20276J1351D01*
G01X2336020D01*
G02X2315800Y1098050I2J20320D01*
G03X2316140Y1105000I-70800J6947D01*
G03X2245000Y1176140I-71140J0D01*
G03X2237040Y1175690I29J-71138D01*
G01X2236470Y1175630D01*
X2225740D01*
Y1190000D01*
G03X2225140Y1197380I-45740J-4D01*
G02X2235660Y1209160I10026J1634D01*
G03X2238350Y1209100I2591J55842D01*
G01X2266280D01*
G03X2300000Y1194260I33720J30890D01*
G01X2360000D01*
G03X2393720Y1209100I0J45730D01*
G01X2486280D01*
G03X2520000Y1194260I33720J30890D01*
G01X2580000D01*
G03X2625650Y1237080I0J45744D01*
G01X2625890Y1240910D01*
X2638440Y1253460D01*
G37*
G36*
G01X2900000Y1980000D02*
G02X2980000Y1900000I1667J-78333D01*
G01Y1295740D01*
X2825000D01*
G03X2819250Y1295380I-22J-45741D01*
G01X2814300Y1294750D01*
X2719530Y1389530D01*
G03X2680000Y1405900I-39530J-39543D01*
G01X2639080D01*
X2625890Y1419090D01*
X2625650Y1422920D01*
G03X2580000Y1465740I-45650J-2924D01*
G01X2520000D01*
G03X2486280Y1450900I0J-45730D01*
G01X2393720D01*
G03X2360000Y1465740I-33720J-30890D01*
G01X2341370D01*
G02X2321070Y1486940I2J20321D01*
G03X2321140Y1490000I-71068J3157D01*
G03X2250000Y1561140I-71140J0D01*
G03X2246940Y1561070I97J-71138D01*
G02X2225740Y1581370I-879J20302D01*
G01Y1600760D01*
X2274530Y1649540D01*
G03X2290900Y1689070I-39543J39530D01*
G01Y1826280D01*
G03X2305740Y1860000I-30890J33720D01*
G01Y1920000D01*
G03X2296570Y1947470I-45730J0D01*
G02X2312810Y1980000I16243J12210D01*
G01X2900000D01*
G37*
%LPC*%
G75*
G36*
G01X2409260Y1705000D02*
Y1895000D01*
G02X2455000Y1940740I45740J0D01*
G01X2645000D01*
G02X2687000Y1913120I0J-45743D01*
G03X2718460Y1905390I18658J8051D01*
G02X2804000Y1935740I85546J-105388D01*
G02Y1664260I0J-135740D01*
G02X2718460Y1694610I6J135738D01*
G03X2687000Y1686880I-12802J-15781D01*
G02X2645000Y1659260I-42000J18123D01*
G01X2455000D01*
G02X2409260Y1705000I0J45740D01*
G37*
%LPD*%
G75*
G54D10*
G01X860000Y610000D02*
Y270000D01*
G01X640000Y770000D02*
X780000D01*
G01X640000Y1250000D02*
X750000D01*
G01X1330000Y1175000D02*
X1155000D01*
G01D02*
X1150000Y1180000D01*
Y1190000D01*
G01X1330000Y1630000D02*
X1136200D01*
X1086200Y1680000D01*
G01D02*
Y1790000D01*
X1186200Y1890000D01*
G01X2129200Y1760800D02*
X2127600Y1759200D01*
X1740800D01*
X1633800Y1866200D01*
Y1890000D01*
X110000Y110000D03*
Y250000D03*
Y870000D03*
Y730000D03*
Y1170000D03*
Y1310000D03*
Y1010000D03*
X100000Y1710000D03*
Y1850000D03*
X470000Y480000D03*
X430000Y920000D03*
Y1060000D03*
X470000Y1560000D03*
X610000Y480000D03*
X800000Y870000D03*
X780000Y770000D03*
Y706500D03*
X860000Y610000D03*
X800000Y1010000D03*
X780000Y1360000D03*
Y1500000D03*
X610000Y1560000D03*
X1390000Y490000D03*
Y360000D03*
X1150000Y300000D03*
X1160000Y190000D03*
Y130000D03*
X1220000Y190000D03*
Y130000D03*
X1150000Y1260000D03*
Y1190000D03*
Y1330000D03*
X1200000Y1730000D03*
X1530000Y490000D03*
Y360000D03*
X1673800Y150000D03*
X1590000Y900000D03*
X1800000D03*
X1590000Y1040000D03*
X1800000D03*
X1775000Y1235000D03*
X1475000Y1305000D03*
X1650000Y1230000D03*
X1480000Y1410000D03*
X1960000Y167760D03*
X1890000Y390000D03*
X1825000Y425000D03*
X1890000Y460000D03*
X1975000Y749200D03*
X1890000Y980000D03*
X2129200Y1760800D03*
X2540000Y420000D03*
X2440000Y940000D03*
X2626700Y830000D03*
X2445000Y665000D03*
X2530000Y660000D03*
X2250000Y810000D03*
X2530000Y560000D03*
X2440000Y1330000D03*
X2370000Y1170000D03*
X2510000D03*
X2440000Y1090000D03*
X2245000Y1105000D03*
X2350000Y1570000D03*
Y1710000D03*
X2250000Y1490000D03*
X2890000Y400000D03*
Y540000D03*
X2710000Y830000D03*
Y1170000D03*
X2900000Y1470000D03*
Y1610000D03*
G54D20*
X1335000Y200000D03*
Y600000D03*
X1585000Y200000D03*
X1535000D03*
X1485000D03*
X1435000D03*
X1385000D03*
Y600000D03*
X1435000D03*
X1485000D03*
X1535000D03*
X1585000D03*
G54D11*
X118000Y578000D03*
Y1442000D03*
G54D30*
G01X346200Y360000D02*
Y786200D01*
X395000Y835000D01*
X640000D01*
G01X346200Y1680000D02*
Y1213800D01*
X425000Y1135000D01*
X640000D01*
G01X430000Y1860000D02*
Y1850000D01*
X600000Y1680000D01*
X613800D01*
G01X900000Y945000D02*
X1120000D01*
G01X640000Y935000D02*
X725000D01*
X740000Y950000D01*
G01D02*
X895000D01*
X900000Y945000D01*
G01X740000Y950000D02*
Y1009210D01*
X714210Y1035000D01*
X640000D01*
G01X900000Y1075000D02*
X1120000D01*
G01X640000Y1085000D02*
X555020D01*
X534690Y1064670D01*
Y1005330D01*
X555020Y985000D01*
X640000D01*
G01X900000Y1075000D02*
X895000Y1080000D01*
X645000D01*
X640000Y1085000D01*
G01X1330000Y1500000D02*
X1113800D01*
X933800Y1680000D01*
G01D02*
X853800Y1760000D01*
X740000D01*
X650000Y1850000D01*
Y1860000D01*
G01X1033800Y1890000D02*
X880000D01*
X850000Y1860000D01*
G01X1260000Y325000D02*
X1175000D01*
X1150000Y300000D01*
G01X1260000Y275000D02*
X1175000D01*
X1150000Y300000D01*
G01X1260000Y375000D02*
X1181500D01*
X1176820Y379680D01*
X1131240D01*
X1050000Y460920D01*
Y800000D01*
X1140000Y890000D01*
X1210000D01*
X1235000Y915000D01*
X1330000D01*
G01X1260000Y425000D02*
X1181500D01*
X1176820Y420320D01*
X1148080D01*
X1090640Y477760D01*
Y783160D01*
X1156840Y849360D01*
X1329360D01*
X1330000Y850000D01*
G01Y980000D02*
X1200000D01*
X1165000Y945000D01*
X1120000D01*
G01X1330000Y1045000D02*
X1195010D01*
X1165010Y1075000D01*
X1120000D01*
G01X1660000Y275000D02*
X1852760D01*
X1960000Y167760D01*
G01X2290000Y110000D02*
X2270000D01*
X2190000Y30000D01*
X2000000D01*
X1820000Y210000D01*
X1595000D01*
X1585000Y200000D01*
G01X1673800Y150000D02*
X1633800Y110000D01*
X1460010D01*
X1435000Y135010D01*
Y200000D01*
G01X1660000Y425000D02*
X1825000D01*
G01X1535000Y600000D02*
Y649440D01*
X1560000Y674440D01*
X1825560D01*
X1930000Y570000D01*
X2200000D01*
X2290000Y660000D01*
G01X1975000Y749200D02*
X1559200D01*
X1485000Y675000D01*
Y600000D01*
G01X2090000Y1235000D02*
X1775000D01*
G01X1650000Y1230000D02*
X1710000Y1170000D01*
X2090000D01*
G01X2086200Y1890000D02*
X2006200Y1810000D01*
X1860000D01*
X1786200Y1883800D01*
Y1890000D01*
G01X1960000Y167760D02*
X2022240D01*
X2080000Y110000D01*
X2090000D01*
G01Y310000D02*
X2070000D01*
X1990000Y390000D01*
X1890000D01*
G01X2090000Y460000D02*
X1890000D01*
G01X2330000Y875000D02*
X2238890D01*
X2230790Y883100D01*
X2230250D01*
X2203350Y910000D01*
X2090000D01*
G01X1975000Y749200D02*
X1980800D01*
X2070000Y660000D01*
X2090000D01*
G01Y1365000D02*
X2200500D01*
X2230500Y1395000D01*
X2330000D01*
G01X2090000Y1300000D02*
X2203350D01*
X2238350Y1265000D01*
X2330000D01*
G01X2090000Y975000D02*
X2200500D01*
X2230500Y1005000D01*
X2330000D01*
G01X1890000Y980000D02*
X1950000Y1040000D01*
X2090000D01*
G01X2235000Y1890000D02*
Y1689070D01*
X2170930Y1625000D01*
X2090000D01*
G01X2086200Y1890000D02*
X2235000D01*
G01X2290000Y110000D02*
X2310000D01*
X2400000Y200000D01*
Y320000D01*
X2430000Y350000D01*
X2560000D01*
X2600000Y390000D01*
Y590000D01*
X2530000Y660000D01*
G01Y560000D02*
X2400000D01*
X2300000Y460000D01*
X2290000D01*
G01X2540000Y420000D02*
X2420000D01*
X2310000Y310000D01*
X2290000D01*
G01X2330000Y875000D02*
X2550000D01*
G01X2900000Y985000D02*
X2895000Y990000D01*
X2685930D01*
X2570930Y875000D01*
X2550000D01*
G01X2626700Y830000D02*
X2731700Y935000D01*
X2900000D01*
G01X2290000Y660000D02*
X2390000Y760000D01*
X2720000D01*
X2795000Y835000D01*
X2900000D01*
G01X2445000Y665000D02*
X2500000Y720000D01*
X2740000D01*
X2805000Y785000D01*
X2900000D01*
G01X2550000Y1395000D02*
X2570930D01*
X2615930Y1350000D01*
X2680000D01*
X2799360Y1230640D01*
X2895640D01*
X2900000Y1235000D01*
G01X2330000Y1265000D02*
X2550000D01*
G01X2900000Y1185000D02*
X2895000Y1190000D01*
X2782520D01*
X2663160Y1309360D01*
X2615290D01*
X2570930Y1265000D01*
X2550000D01*
G01X2330000Y1005000D02*
X2550000D01*
G01D02*
X2643450D01*
X2669090Y1030640D01*
X2895640D01*
X2900000Y1035000D01*
G01Y1085000D02*
X2445000D01*
X2440000Y1090000D01*
G01X2330000Y1395000D02*
X2550000D01*
G54D21*
X1260000Y275000D03*
Y325000D03*
Y375000D03*
Y425000D03*
Y475000D03*
Y525000D03*
X1660000D03*
Y475000D03*
Y425000D03*
Y375000D03*
Y325000D03*
Y275000D03*
G54D12*
X346200Y360000D03*
X193800D03*
Y1680000D03*
X346200D03*
X933800D03*
X613800D03*
X766200D03*
X1086200D03*
X1033800Y1890000D03*
X1186200D03*
X1333800D03*
X1633800D03*
X1786200D03*
X1486200D03*
X1933800D03*
X2086200D03*
G54D31*
G01X230000Y1860000D02*
Y1870000D01*
X330000Y1970000D01*
G01D02*
X1853800D01*
X1933800Y1890000D01*
G01X540000Y670000D02*
X560000Y690000D01*
X640000D01*
G01X900000Y1010000D02*
X1120000D01*
G01X900000D02*
X800000D01*
G01X540000Y1340000D02*
X550000Y1330000D01*
X640000D01*
G01X990000Y1360000D02*
Y1456200D01*
X766200Y1680000D01*
G01X1360000Y110000D02*
X1385000Y135000D01*
Y200000D01*
G01X1260000Y475000D02*
X1385000D01*
G01X1260000D02*
X1185000D01*
X1160000Y500000D01*
G01D02*
Y560000D01*
X1200000Y600000D01*
G01X1320000Y120000D02*
X1335000Y135000D01*
Y200000D01*
G01X1330000Y1305000D02*
X1475000D01*
G01X1330000Y1110000D02*
X1490000D01*
X1540000Y1160000D01*
Y1530000D01*
X1440000Y1630000D01*
X1330000D01*
G01X1480000Y1410000D02*
Y1499520D01*
X1414520Y1565000D01*
X1330000D01*
G01X1485000Y1695000D02*
X1330000D01*
G01X1385000Y475000D02*
X1460000Y400000D01*
G01X1630000Y1320000D02*
X1590000Y1280000D01*
Y1110000D01*
G01X1490000Y1690000D02*
X1485000Y1695000D01*
G01X2250000Y810000D02*
X2215000Y845000D01*
X2090000D01*
G01Y1105000D02*
X2245000D01*
G01X2090000Y1430000D02*
X2190000D01*
X2250000Y1490000D01*
G01X2335930Y1970000D02*
X2013800D01*
X1933800Y1890000D01*
G01X2550000Y940000D02*
X2440000D01*
G01D02*
X2330000D01*
G01Y1330000D02*
X2440000D01*
G01D02*
X2550000D01*
G01X2372970Y1932970D02*
X2360530Y1945400D01*
X2335930Y1970000D01*
G01X2809600Y695530D02*
X2849070Y735000D01*
X2900000D01*
G01Y885000D02*
X2765000D01*
X2710000Y830000D01*
G01X2809600Y1324470D02*
X2849070Y1285000D01*
X2900000D01*
G01Y1135000D02*
X2745000D01*
X2710000Y1170000D01*
G54D22*
X1460000Y400000D03*
G54D13*
X560000Y270000D03*
X860000D03*
G54D32*
G01X1186200Y1890000D02*
X1333800D01*
G01X1486200D02*
X1633800D01*
G54D14*
X536000Y578000D03*
Y1442000D03*
G54D23*
X1330000Y850000D03*
Y915000D03*
Y980000D03*
Y1045000D03*
Y1110000D03*
Y1175000D03*
Y1240000D03*
Y1305000D03*
Y1370000D03*
Y1435000D03*
Y1500000D03*
Y1565000D03*
Y1630000D03*
Y1695000D03*
X2090000Y910000D03*
Y845000D03*
Y1365000D03*
Y1300000D03*
Y1235000D03*
Y1170000D03*
Y1105000D03*
Y1040000D03*
Y975000D03*
Y1690000D03*
Y1625000D03*
Y1560000D03*
Y1495000D03*
Y1430000D03*
G54D15*
X430000Y1860000D03*
X230000D03*
X850000D03*
X650000D03*
G54D24*
X2090000Y110000D03*
Y310000D03*
Y460000D03*
Y660000D03*
X2290000Y110000D03*
Y310000D03*
Y460000D03*
Y660000D03*
G54D25*
X2235000Y1890000D03*
X2325000D03*
G54D16*
X640000Y690000D03*
Y770000D03*
Y1250000D03*
Y1330000D03*
G54D26*
X2550000Y190000D03*
Y1800000D03*
G54D17*
X640000Y835000D03*
Y885000D03*
Y935000D03*
Y985000D03*
Y1035000D03*
Y1085000D03*
Y1135000D03*
Y1185000D03*
G54D27*
X2804000Y190000D03*
Y1800000D03*
G54D18*
X900000Y945000D03*
Y1075000D03*
X1120000Y945000D03*
Y1075000D03*
X2550000Y875000D03*
X2330000D03*
X2550000Y1265000D03*
X2330000D03*
X2550000Y1005000D03*
X2330000D03*
X2550000Y1395000D03*
X2330000D03*
G54D19*
X900000Y1010000D03*
X1120000D03*
X2550000Y940000D03*
X2330000D03*
X2550000Y1330000D03*
X2330000D03*
G54D28*
X2905000Y650000D03*
Y1370000D03*
G54D29*
X2900000Y735000D03*
Y785000D03*
Y835000D03*
Y885000D03*
Y935000D03*
Y985000D03*
Y1035000D03*
Y1085000D03*
Y1135000D03*
Y1185000D03*
Y1235000D03*
Y1285000D03*
M02*
